<svg xmlns="http://www.w3.org/2000/svg" xmlns:xlink="http://www.w3.org/1999/xlink" width="295" height="311" viewBox="0 0 295 311">
  <defs>
    <clipPath id="clip-path">
      <rect id="Rectángulo_402091" data-name="Rectángulo 402091" width="295" height="310" transform="translate(285 4142)" fill="#fff" stroke="#707070" stroke-width="1"/>
    </clipPath>
    <clipPath id="clip-path-2">
      <rect id="Rectángulo_401681" data-name="Rectángulo 401681" width="331.604" height="310.929" fill="none"/>
    </clipPath>
    <clipPath id="clip-path-8">
      <path id="Trazado_874118" data-name="Trazado 874118" d="M55.393,204v120.92H244.782V281.683L213.6,204Z" transform="translate(-55.393 -203.999)" fill="none"/>
    </clipPath>
    <clipPath id="clip-path-9">
      <rect id="Rectángulo_401665" data-name="Rectángulo 401665" width="100.168" height="83.938" fill="none"/>
    </clipPath>
    <clipPath id="clip-path-15">
      <rect id="Rectángulo_401679" data-name="Rectángulo 401679" width="71.948" height="16.246" fill="none"/>
    </clipPath>
  </defs>
  <g id="Grupo_1100455" data-name="Grupo 1100455" transform="translate(-285 -4142)">
    <rect id="Rectángulo_402090" data-name="Rectángulo 402090" width="295" height="29" transform="translate(285 4424)" fill="#fff8e0"/>
    <g id="Enmascarar_grupo_1098707" data-name="Enmascarar grupo 1098707" clip-path="url(#clip-path)">
      <circle id="Elipse_11595" data-name="Elipse 11595" cx="132.5" cy="132.5" r="132.5" transform="translate(298 4142)" fill="#fff8e0"/>
      <g id="Grupo_1100202" data-name="Grupo 1100202" transform="translate(0 2619.839)">
        <rect id="Rectángulo_401192" data-name="Rectángulo 401192" width="332" height="299" transform="translate(285 1528)" fill="none"/>
        <g id="Grupo_1100201" data-name="Grupo 1100201" transform="translate(285 1522)">
          <g id="Enmascarar_grupo_1100200" data-name="Enmascarar grupo 1100200" clip-path="url(#clip-path-2)">
            <path id="Trazado_873984" data-name="Trazado 873984" d="M5.727,330.833h0Z" transform="translate(-0.856 -49.443)" fill="#fff"/>
            <line id="Línea_3245" data-name="Línea 3245" x2="287.486" transform="translate(4.871 281.39)" fill="none" stroke="#263238" stroke-linecap="round" stroke-linejoin="round" stroke-width="1"/>
            <g id="Grupo_1100172" data-name="Grupo 1100172">
              <g id="Grupo_1100171" data-name="Grupo 1100171" clip-path="url(#clip-path-2)">
                <path id="Trazado_873985" data-name="Trazado 873985" d="M40.49,185.653s0-2.951-4.13-7.08-6.786-6.491-6.786-6.491S27.51,178.867,31.344,183a72.609,72.609,0,0,0,9.146,7.965Z" transform="translate(-4.337 -25.717)" fill="#ffea96"/>
                <path id="Trazado_873986" data-name="Trazado 873986" d="M33.444,207.315s0-2.95-4.13-7.081-6.785-6.49-6.785-6.49-2.066,6.785,1.77,10.915a72.566,72.566,0,0,0,9.145,7.965Z" transform="translate(-3.284 -28.955)" fill="#ffea96"/>
                <path id="Trazado_873987" data-name="Trazado 873987" d="M42.1,191.777s.311-2.934,4.855-6.6,7.434-5.737,7.434-5.737,1.336,6.966-2.914,10.668a72.622,72.622,0,0,1-9.936,6.955Z" transform="translate(-6.208 -26.816)" fill="#ffea96"/>
                <path id="Trazado_873988" data-name="Trazado 873988" d="M33.492,217.6s.618-2.885,5.523-6.058,7.994-4.925,7.994-4.925.6,7.067-4.018,10.3a72.572,72.572,0,0,1-10.611,5.872Z" transform="translate(-4.839 -30.878)" fill="#ffea96"/>
                <path id="Trazado_873989" data-name="Trazado 873989" d="M35.288,245.036s0-2.951,4.13-7.081,6.786-6.49,6.786-6.49,2.065,6.785-1.771,10.915a72.565,72.565,0,0,1-9.145,7.965Z" transform="translate(-5.274 -34.592)" fill="#ffea96"/>
                <path id="Trazado_873990" data-name="Trazado 873990" d="M33.423,251.6s.419-2.92-3.082-7.6-5.794-7.389-5.794-7.389-3.008,6.423.2,11.056a72.639,72.639,0,0,0,7.921,9.184Z" transform="translate(-3.477 -35.361)" fill="#ffea96"/>
                <path id="Trazado_873991" data-name="Trazado 873991" d="M30.418,272.02s0-2.95,4.13-7.08,6.786-6.491,6.786-6.491,2.065,6.785-1.77,10.915a72.61,72.61,0,0,1-9.146,7.965Z" transform="translate(-4.546 -38.625)" fill="#ffea96"/>
                <path id="Trazado_873992" data-name="Trazado 873992" d="M33.646,289.9s-.748-2.854,2.2-7.9,4.92-8,4.92-8,3.716,6.041,1.052,11.009a72.592,72.592,0,0,1-6.83,10.022Z" transform="translate(-5.016 -40.951)" fill="#ffea96"/>
                <path id="Trazado_873993" data-name="Trazado 873993" d="M41.04,187.148a84.218,84.218,0,0,1-1.131,9.16c-1.633,8.435-5.714,13.878-7.347,21.5s3.054,17.435,1.8,27.221-5.064,15.228-3.975,21.759S37.188,291,37.188,291" transform="translate(-4.512 -27.969)" fill="none" stroke="#263238" stroke-linecap="round" stroke-linejoin="round" stroke-width="0.5"/>
                <line id="Línea_3246" data-name="Línea 3246" y1="3.416" x2="4.451" transform="translate(35.853 163.505)" fill="none" stroke="#263238" stroke-linecap="round" stroke-linejoin="round" stroke-width="0.5"/>
                <line id="Línea_3247" data-name="Línea 3247" x1="1.864" y1="3.312" transform="translate(34.197 159.675)" fill="none" stroke="#263238" stroke-linecap="round" stroke-linejoin="round" stroke-width="0.5"/>
                <path id="Trazado_873994" data-name="Trazado 873994" d="M33.269,221.8S37,219,40.825,216.209" transform="translate(-4.972 -32.312)" fill="none" stroke="#263238" stroke-linecap="round" stroke-linejoin="round" stroke-width="0.5"/>
                <path id="Trazado_873995" data-name="Trazado 873995" d="M34.3,214.163a59.4,59.4,0,0,0-6.624-10.125" transform="translate(-4.135 -30.493)" fill="none" stroke="#263238" stroke-linecap="round" stroke-linejoin="round" stroke-width="0.5"/>
                <path id="Trazado_873996" data-name="Trazado 873996" d="M35.46,250.481a46.127,46.127,0,0,1,7.971-10.662" transform="translate(-5.299 -35.841)" fill="none" stroke="#263238" stroke-linecap="round" stroke-linejoin="round" stroke-width="0.5"/>
                <path id="Trazado_873997" data-name="Trazado 873997" d="M33.462,255.24a52.181,52.181,0,0,0-4.037-7.66c-2.174-3.208-2.484-3.622-2.484-3.622" transform="translate(-4.026 -36.459)" fill="none" stroke="#263238" stroke-linecap="round" stroke-linejoin="round" stroke-width="0.5"/>
                <path id="Trazado_873998" data-name="Trazado 873998" d="M30.419,278.586a49.48,49.48,0,0,1,3.356-6.787,43.449,43.449,0,0,1,4.347-5.694" transform="translate(-4.546 -39.769)" fill="none" stroke="#263238" stroke-linecap="round" stroke-linejoin="round" stroke-width="0.5"/>
                <path id="Trazado_873999" data-name="Trazado 873999" d="M35.232,296.1a12.648,12.648,0,0,1,1.116-6.535c1.553-3,3.313-6.935,4.038-8.488" transform="translate(-5.257 -42.006)" fill="none" stroke="#263238" stroke-linecap="round" stroke-linejoin="round" stroke-width="0.5"/>
                <path id="Trazado_874000" data-name="Trazado 874000" d="M10.705,232.672s-.321-1.85,1.821-4.888,3.551-4.806,3.551-4.806,2.031,4.03.075,7.037A46.2,46.2,0,0,1,11.282,236Z" transform="translate(-1.597 -33.324)" fill="#ffea96"/>
                <path id="Trazado_874001" data-name="Trazado 874001" d="M17.476,245.49s-.321-1.85,1.82-4.888,3.552-4.807,3.552-4.807,2.031,4.031.074,7.037a46.2,46.2,0,0,1-4.87,5.988Z" transform="translate(-2.609 -35.239)" fill="#ffea96"/>
                <path id="Trazado_874002" data-name="Trazado 874002" d="M9.951,236.921s-.514-1.806-3.762-3.614S.9,230.515.9,230.515s-.082,4.513,2.985,6.373a46.2,46.2,0,0,0,6.986,3.283Z" transform="translate(-0.135 -34.45)" fill="#ffea96"/>
                <path id="Trazado_874003" data-name="Trazado 874003" d="M17.957,252.212s-.7-1.742-4.12-3.2-5.548-2.221-5.548-2.221.392,4.5,3.638,6.024a46.176,46.176,0,0,0,7.292,2.53Z" transform="translate(-1.239 -36.883)" fill="#ffea96"/>
                <path id="Trazado_874004" data-name="Trazado 874004" d="M20.212,269.542s-.32-1.85-3.359-3.992-4.96-3.333-4.96-3.333-.558,4.479,2.3,6.653a46.188,46.188,0,0,0,6.6,4Z" transform="translate(-1.771 -39.188)" fill="#ffea96"/>
                <path id="Trazado_874005" data-name="Trazado 874005" d="M22.454,273.269s-.58-1.786,1.108-5.1,2.831-5.262,2.831-5.262,2.583,3.7,1.074,6.955a46.21,46.21,0,0,1-3.97,6.619Z" transform="translate(-3.341 -39.291)" fill="#ffea96"/>
                <path id="Trazado_874006" data-name="Trazado 874006" d="M28.5,291.266s.214-1.865,3.125-4.177,4.761-3.611,4.761-3.611.813,4.44-1.911,6.773a46.171,46.171,0,0,1-6.36,4.373Z" transform="translate(-4.201 -42.365)" fill="#ffea96"/>
                <path id="Trazado_874007" data-name="Trazado 874007" d="M26.194,285.935s-.32-1.85-3.359-3.992-4.96-3.333-4.96-3.333-.558,4.479,2.3,6.653a46.186,46.186,0,0,0,6.6,4Z" transform="translate(-2.665 -41.638)" fill="#ffea96"/>
                <path id="Trazado_874008" data-name="Trazado 874008" d="M26.421,297.43s.159-1.871-2.239-4.712-3.953-4.481-3.953-4.481-1.675,4.192.535,7.017a46.223,46.223,0,0,0,5.371,5.543Z" transform="translate(-2.932 -43.077)" fill="#ffea96"/>
                <path id="Trazado_874009" data-name="Trazado 874009" d="M10.335,233.865a53.564,53.564,0,0,0,1.7,5.621c1.94,5.113,5.091,8.082,6.941,12.683s-.023,11.265,1.827,17.265,4.829,9,4.855,13.213-1.636,15.925-1.636,15.925" transform="translate(-1.545 -34.951)" fill="none" stroke="#263238" stroke-linecap="round" stroke-linejoin="round" stroke-width="0.5"/>
                <line id="Línea_3248" data-name="Línea 3248" x1="3.161" y1="1.659" transform="translate(6.893 202.037)" fill="none" stroke="#263238" stroke-linecap="round" stroke-linejoin="round" stroke-width="0.5"/>
                <line id="Línea_3249" data-name="Línea 3249" y1="2.279" x2="0.809" transform="translate(9.497 198.972)" fill="none" stroke="#263238" stroke-linecap="round" stroke-linejoin="round" stroke-width="0.5"/>
                <path id="Trazado_874010" data-name="Trazado 874010" d="M19.333,254.687s-2.64-1.348-5.346-2.685" transform="translate(-2.09 -37.661)" fill="none" stroke="#263238" stroke-linecap="round" stroke-linejoin="round" stroke-width="0.5"/>
                <path id="Trazado_874011" data-name="Trazado 874011" d="M18.156,249.867A37.824,37.824,0,0,1,21.21,242.8" transform="translate(-2.713 -36.286)" fill="none" stroke="#263238" stroke-linecap="round" stroke-linejoin="round" stroke-width="0.5"/>
                <path id="Trazado_874012" data-name="Trazado 874012" d="M21.027,272.919a29.339,29.339,0,0,0-6.155-5.82" transform="translate(-2.223 -39.918)" fill="none" stroke="#263238" stroke-linecap="round" stroke-linejoin="round" stroke-width="0.5"/>
                <path id="Trazado_874013" data-name="Trazado 874013" d="M23.171,275.534a33.212,33.212,0,0,1,1.7-5.242c1.015-2.248,1.164-2.541,1.164-2.541" transform="translate(-3.463 -40.015)" fill="none" stroke="#263238" stroke-linecap="round" stroke-linejoin="round" stroke-width="0.5"/>
                <path id="Trazado_874014" data-name="Trazado 874014" d="M28.187,294.019a27.655,27.655,0,0,1,3.4-3.53,18.244,18.244,0,0,0,2.208-1.921" transform="translate(-4.213 -43.126)" fill="none" stroke="#263238" stroke-linecap="round" stroke-linejoin="round" stroke-width="0.5"/>
                <path id="Trazado_874015" data-name="Trazado 874015" d="M27.268,289.991a31.554,31.554,0,0,0-2.841-3.891,27.625,27.625,0,0,0-3.344-3.1" transform="translate(-3.151 -42.294)" fill="none" stroke="#263238" stroke-linecap="round" stroke-linejoin="round" stroke-width="0.5"/>
                <path id="Trazado_874016" data-name="Trazado 874016" d="M26.426,301.447a8.045,8.045,0,0,0-1.409-3.976c-1.3-1.714-2.83-3.99-3.453-4.885" transform="translate(-3.223 -43.727)" fill="none" stroke="#263238" stroke-linecap="round" stroke-linejoin="round" stroke-width="0.5"/>
                <path id="Trazado_874017" data-name="Trazado 874017" d="M40.942,329.934H19.1a2.587,2.587,0,0,1-2.587-2.587V307.541H43.528v19.807a2.586,2.586,0,0,1-2.586,2.587" transform="translate(-2.467 -45.962)" fill="#263238"/>
                <path id="Trazado_874018" data-name="Trazado 874018" d="M42.922,310.941H16.139a2.114,2.114,0,0,1,0-4.229H42.922a2.114,2.114,0,1,1,0,4.229" transform="translate(-2.096 -45.838)" fill="#263238"/>
              </g>
            </g>
            <g id="Grupo_1100174" data-name="Grupo 1100174">
              <g id="Grupo_1100173" data-name="Grupo 1100173" clip-path="url(#clip-path-2)">
                <path id="Trazado_874019" data-name="Trazado 874019" d="M174.064,146.924H60.387a3.013,3.013,0,0,1-3.014-3.014V60.347a3.013,3.013,0,0,1,3.014-3.014H174.064a3.013,3.013,0,0,1,3.014,3.014v83.564a3.013,3.013,0,0,1-3.014,3.014" transform="translate(-8.574 -8.568)" fill="gray"/>
                <line id="Línea_3250" data-name="Línea 3250" x2="20.721" transform="translate(64.98 58.363)" fill="none" stroke="#fff" stroke-linecap="round" stroke-linejoin="round" stroke-width="1"/>
                <path id="Trazado_874020" data-name="Trazado 874020" d="M73.469,67.771a1.312,1.312,0,1,0-1.312,1.312,1.311,1.311,0,0,0,1.312-1.312" transform="translate(-10.588 -9.932)" fill="#fff"/>
                <path id="Trazado_874021" data-name="Trazado 874021" d="M73.469,67.771a1.312,1.312,0,1,0-1.312,1.312A1.311,1.311,0,0,0,73.469,67.771Z" transform="translate(-10.588 -9.932)" fill="none" stroke="#fff" stroke-linecap="round" stroke-linejoin="round" stroke-width="1"/>
                <line id="Línea_3251" data-name="Línea 3251" x2="20.721" transform="translate(64.98 65.182)" fill="none" stroke="#fff" stroke-linecap="round" stroke-linejoin="round" stroke-width="1"/>
                <path id="Trazado_874022" data-name="Trazado 874022" d="M73.469,75.789A1.312,1.312,0,1,0,72.158,77.1a1.311,1.311,0,0,0,1.312-1.312" transform="translate(-10.588 -11.131)" fill="#fff"/>
                <path id="Trazado_874023" data-name="Trazado 874023" d="M73.469,75.789A1.312,1.312,0,1,0,72.158,77.1,1.311,1.311,0,0,0,73.469,75.789Z" transform="translate(-10.588 -11.131)" fill="none" stroke="#fff" stroke-linecap="round" stroke-linejoin="round" stroke-width="1"/>
                <line id="Línea_3252" data-name="Línea 3252" x2="20.721" transform="translate(64.98 72.002)" fill="none" stroke="#fff" stroke-linecap="round" stroke-linejoin="round" stroke-width="1"/>
                <path id="Trazado_874024" data-name="Trazado 874024" d="M73.469,83.806a1.312,1.312,0,1,0-1.312,1.312,1.311,1.311,0,0,0,1.312-1.312" transform="translate(-10.588 -12.329)" fill="#fff"/>
                <path id="Trazado_874025" data-name="Trazado 874025" d="M73.469,83.806a1.312,1.312,0,1,0-1.312,1.312A1.311,1.311,0,0,0,73.469,83.806Z" transform="translate(-10.588 -12.329)" fill="none" stroke="#fff" stroke-linecap="round" stroke-linejoin="round" stroke-width="1"/>
                <line id="Línea_3253" data-name="Línea 3253" x2="20.721" transform="translate(64.98 78.821)" fill="none" stroke="#fff" stroke-linecap="round" stroke-linejoin="round" stroke-width="1"/>
                <path id="Trazado_874026" data-name="Trazado 874026" d="M73.469,91.824a1.312,1.312,0,1,0-1.312,1.312,1.311,1.311,0,0,0,1.312-1.312" transform="translate(-10.588 -13.527)" fill="#fff"/>
                <path id="Trazado_874027" data-name="Trazado 874027" d="M73.469,91.824a1.312,1.312,0,1,0-1.312,1.312A1.311,1.311,0,0,0,73.469,91.824Z" transform="translate(-10.588 -13.527)" fill="none" stroke="#fff" stroke-linecap="round" stroke-linejoin="round" stroke-width="1"/>
                <line id="Línea_3254" data-name="Línea 3254" x2="20.721" transform="translate(64.98 85.641)" fill="none" stroke="#fff" stroke-linecap="round" stroke-linejoin="round" stroke-width="1"/>
                <path id="Trazado_874028" data-name="Trazado 874028" d="M73.469,99.842a1.312,1.312,0,1,0-1.312,1.312,1.311,1.311,0,0,0,1.312-1.312" transform="translate(-10.588 -14.725)" fill="#fff"/>
                <path id="Trazado_874029" data-name="Trazado 874029" d="M73.469,99.842a1.312,1.312,0,1,0-1.312,1.312A1.311,1.311,0,0,0,73.469,99.842Z" transform="translate(-10.588 -14.725)" fill="none" stroke="#fff" stroke-linecap="round" stroke-linejoin="round" stroke-width="1"/>
                <line id="Línea_3255" data-name="Línea 3255" x2="20.721" transform="translate(64.98 92.46)" fill="none" stroke="#fff" stroke-linecap="round" stroke-linejoin="round" stroke-width="1"/>
                <path id="Trazado_874030" data-name="Trazado 874030" d="M73.469,107.86a1.312,1.312,0,1,0-1.312,1.312,1.311,1.311,0,0,0,1.312-1.312" transform="translate(-10.588 -15.923)" fill="#fff"/>
                <circle id="Elipse_11546" data-name="Elipse 11546" cx="1.312" cy="1.312" r="1.312" transform="translate(60.258 90.624)" fill="none" stroke="#fff" stroke-linecap="round" stroke-linejoin="round" stroke-width="1"/>
                <line id="Línea_3256" data-name="Línea 3256" x2="20.721" transform="translate(64.98 99.28)" fill="none" stroke="#fff" stroke-linecap="round" stroke-linejoin="round" stroke-width="1"/>
                <path id="Trazado_874031" data-name="Trazado 874031" d="M73.469,115.877a1.312,1.312,0,1,0-1.312,1.312,1.311,1.311,0,0,0,1.312-1.312" transform="translate(-10.588 -17.122)" fill="#fff"/>
                <circle id="Elipse_11547" data-name="Elipse 11547" cx="1.312" cy="1.312" r="1.312" transform="translate(60.258 97.444)" fill="none" stroke="#fff" stroke-linecap="round" stroke-linejoin="round" stroke-width="1"/>
                <line id="Línea_3257" data-name="Línea 3257" x2="20.721" transform="translate(64.98 106.099)" fill="none" stroke="#fff" stroke-linecap="round" stroke-linejoin="round" stroke-width="1"/>
                <path id="Trazado_874032" data-name="Trazado 874032" d="M73.469,123.895a1.312,1.312,0,1,0-1.312,1.312,1.311,1.311,0,0,0,1.312-1.312" transform="translate(-10.588 -18.32)" fill="#fff"/>
                <circle id="Elipse_11548" data-name="Elipse 11548" cx="1.312" cy="1.312" r="1.312" transform="translate(60.258 104.263)" fill="none" stroke="#fff" stroke-linecap="round" stroke-linejoin="round" stroke-width="1"/>
                <line id="Línea_3258" data-name="Línea 3258" x2="20.721" transform="translate(64.98 112.919)" fill="none" stroke="#fff" stroke-linecap="round" stroke-linejoin="round" stroke-width="1"/>
                <path id="Trazado_874033" data-name="Trazado 874033" d="M73.469,131.913a1.312,1.312,0,1,0-1.312,1.312,1.311,1.311,0,0,0,1.312-1.312" transform="translate(-10.588 -19.518)" fill="#fff"/>
                <circle id="Elipse_11549" data-name="Elipse 11549" cx="1.312" cy="1.312" r="1.312" transform="translate(60.258 111.083)" fill="none" stroke="#fff" stroke-linecap="round" stroke-linejoin="round" stroke-width="1"/>
                <line id="Línea_3259" data-name="Línea 3259" x2="20.721" transform="translate(64.98 119.738)" fill="none" stroke="#fff" stroke-linecap="round" stroke-linejoin="round" stroke-width="1"/>
                <path id="Trazado_874034" data-name="Trazado 874034" d="M73.469,139.931a1.312,1.312,0,1,0-1.312,1.312,1.311,1.311,0,0,0,1.312-1.312" transform="translate(-10.588 -20.716)" fill="#fff"/>
                <circle id="Elipse_11550" data-name="Elipse 11550" cx="1.312" cy="1.312" r="1.312" transform="translate(60.258 117.902)" fill="none" stroke="#fff" stroke-linecap="round" stroke-linejoin="round" stroke-width="1"/>
                <line id="Línea_3260" data-name="Línea 3260" x2="20.721" transform="translate(64.98 126.558)" fill="none" stroke="#fff" stroke-linecap="round" stroke-linejoin="round" stroke-width="1"/>
                <path id="Trazado_874035" data-name="Trazado 874035" d="M73.469,147.948a1.312,1.312,0,1,0-1.312,1.312,1.311,1.311,0,0,0,1.312-1.312" transform="translate(-10.588 -21.915)" fill="#fff"/>
                <circle id="Elipse_11551" data-name="Elipse 11551" cx="1.312" cy="1.312" r="1.312" transform="translate(60.258 124.722)" fill="none" stroke="#fff" stroke-linecap="round" stroke-linejoin="round" stroke-width="1"/>
                <line id="Línea_3261" data-name="Línea 3261" x2="20.721" transform="translate(100.651 58.363)" fill="none" stroke="#fff" stroke-linecap="round" stroke-linejoin="round" stroke-width="1"/>
                <path id="Trazado_874036" data-name="Trazado 874036" d="M115.408,67.771a1.312,1.312,0,1,0-1.312,1.312,1.311,1.311,0,0,0,1.312-1.312" transform="translate(-16.856 -9.932)" fill="#fff"/>
                <path id="Trazado_874037" data-name="Trazado 874037" d="M115.408,67.771a1.312,1.312,0,1,0-1.312,1.312A1.311,1.311,0,0,0,115.408,67.771Z" transform="translate(-16.856 -9.932)" fill="none" stroke="#fff" stroke-linecap="round" stroke-linejoin="round" stroke-width="1"/>
                <line id="Línea_3262" data-name="Línea 3262" x2="20.721" transform="translate(100.651 65.182)" fill="none" stroke="#fff" stroke-linecap="round" stroke-linejoin="round" stroke-width="1"/>
                <path id="Trazado_874038" data-name="Trazado 874038" d="M115.408,75.789A1.312,1.312,0,1,0,114.1,77.1a1.311,1.311,0,0,0,1.312-1.312" transform="translate(-16.856 -11.131)" fill="#fff"/>
                <path id="Trazado_874039" data-name="Trazado 874039" d="M115.408,75.789A1.312,1.312,0,1,0,114.1,77.1,1.311,1.311,0,0,0,115.408,75.789Z" transform="translate(-16.856 -11.131)" fill="none" stroke="#fff" stroke-linecap="round" stroke-linejoin="round" stroke-width="1"/>
                <line id="Línea_3263" data-name="Línea 3263" x2="20.721" transform="translate(100.651 72.002)" fill="none" stroke="#fff" stroke-linecap="round" stroke-linejoin="round" stroke-width="1"/>
                <path id="Trazado_874040" data-name="Trazado 874040" d="M115.408,83.806a1.312,1.312,0,1,0-1.312,1.312,1.311,1.311,0,0,0,1.312-1.312" transform="translate(-16.856 -12.329)" fill="#fff"/>
                <path id="Trazado_874041" data-name="Trazado 874041" d="M115.408,83.806a1.312,1.312,0,1,0-1.312,1.312A1.311,1.311,0,0,0,115.408,83.806Z" transform="translate(-16.856 -12.329)" fill="none" stroke="#fff" stroke-linecap="round" stroke-linejoin="round" stroke-width="1"/>
                <line id="Línea_3264" data-name="Línea 3264" x2="20.721" transform="translate(100.651 78.821)" fill="none" stroke="#fff" stroke-linecap="round" stroke-linejoin="round" stroke-width="1"/>
                <path id="Trazado_874042" data-name="Trazado 874042" d="M115.408,91.824a1.312,1.312,0,1,0-1.312,1.312,1.311,1.311,0,0,0,1.312-1.312" transform="translate(-16.856 -13.527)" fill="#fff"/>
                <path id="Trazado_874043" data-name="Trazado 874043" d="M115.408,91.824a1.312,1.312,0,1,0-1.312,1.312A1.311,1.311,0,0,0,115.408,91.824Z" transform="translate(-16.856 -13.527)" fill="none" stroke="#fff" stroke-linecap="round" stroke-linejoin="round" stroke-width="1"/>
                <line id="Línea_3265" data-name="Línea 3265" x2="20.721" transform="translate(100.651 85.641)" fill="none" stroke="#fff" stroke-linecap="round" stroke-linejoin="round" stroke-width="1"/>
                <path id="Trazado_874044" data-name="Trazado 874044" d="M115.408,99.842a1.312,1.312,0,1,0-1.312,1.312,1.311,1.311,0,0,0,1.312-1.312" transform="translate(-16.856 -14.725)" fill="#fff"/>
                <path id="Trazado_874045" data-name="Trazado 874045" d="M115.408,99.842a1.312,1.312,0,1,0-1.312,1.312A1.311,1.311,0,0,0,115.408,99.842Z" transform="translate(-16.856 -14.725)" fill="none" stroke="#fff" stroke-linecap="round" stroke-linejoin="round" stroke-width="1"/>
                <line id="Línea_3266" data-name="Línea 3266" x2="20.721" transform="translate(100.651 92.46)" fill="none" stroke="#fff" stroke-linecap="round" stroke-linejoin="round" stroke-width="1"/>
                <path id="Trazado_874046" data-name="Trazado 874046" d="M115.408,107.86a1.312,1.312,0,1,0-1.312,1.312,1.311,1.311,0,0,0,1.312-1.312" transform="translate(-16.856 -15.923)" fill="#fff"/>
                <circle id="Elipse_11552" data-name="Elipse 11552" cx="1.312" cy="1.312" r="1.312" transform="translate(95.93 90.624)" fill="none" stroke="#fff" stroke-linecap="round" stroke-linejoin="round" stroke-width="1"/>
                <line id="Línea_3267" data-name="Línea 3267" x2="20.721" transform="translate(100.651 99.28)" fill="none" stroke="#fff" stroke-linecap="round" stroke-linejoin="round" stroke-width="1"/>
                <path id="Trazado_874047" data-name="Trazado 874047" d="M115.408,115.877a1.312,1.312,0,1,0-1.312,1.312,1.311,1.311,0,0,0,1.312-1.312" transform="translate(-16.856 -17.122)" fill="#fff"/>
                <circle id="Elipse_11553" data-name="Elipse 11553" cx="1.312" cy="1.312" r="1.312" transform="translate(95.93 97.444)" fill="none" stroke="#fff" stroke-linecap="round" stroke-linejoin="round" stroke-width="1"/>
                <line id="Línea_3268" data-name="Línea 3268" x2="20.721" transform="translate(100.651 106.099)" fill="none" stroke="#fff" stroke-linecap="round" stroke-linejoin="round" stroke-width="1"/>
                <path id="Trazado_874048" data-name="Trazado 874048" d="M115.408,123.895a1.312,1.312,0,1,0-1.312,1.312,1.311,1.311,0,0,0,1.312-1.312" transform="translate(-16.856 -18.32)" fill="#fff"/>
                <circle id="Elipse_11554" data-name="Elipse 11554" cx="1.312" cy="1.312" r="1.312" transform="translate(95.93 104.263)" fill="none" stroke="#fff" stroke-linecap="round" stroke-linejoin="round" stroke-width="1"/>
                <line id="Línea_3269" data-name="Línea 3269" x2="20.721" transform="translate(100.651 112.919)" fill="none" stroke="#fff" stroke-linecap="round" stroke-linejoin="round" stroke-width="1"/>
                <path id="Trazado_874049" data-name="Trazado 874049" d="M115.408,131.913a1.312,1.312,0,1,0-1.312,1.312,1.311,1.311,0,0,0,1.312-1.312" transform="translate(-16.856 -19.518)" fill="#fff"/>
                <circle id="Elipse_11555" data-name="Elipse 11555" cx="1.312" cy="1.312" r="1.312" transform="translate(95.93 111.083)" fill="none" stroke="#fff" stroke-linecap="round" stroke-linejoin="round" stroke-width="1"/>
                <line id="Línea_3270" data-name="Línea 3270" x2="20.721" transform="translate(100.651 119.738)" fill="none" stroke="#fff" stroke-linecap="round" stroke-linejoin="round" stroke-width="1"/>
                <path id="Trazado_874050" data-name="Trazado 874050" d="M115.408,139.931a1.312,1.312,0,1,0-1.312,1.312,1.311,1.311,0,0,0,1.312-1.312" transform="translate(-16.856 -20.716)" fill="#fff"/>
                <circle id="Elipse_11556" data-name="Elipse 11556" cx="1.312" cy="1.312" r="1.312" transform="translate(95.93 117.902)" fill="none" stroke="#fff" stroke-linecap="round" stroke-linejoin="round" stroke-width="1"/>
                <line id="Línea_3271" data-name="Línea 3271" x2="20.721" transform="translate(100.651 126.558)" fill="none" stroke="#fff" stroke-linecap="round" stroke-linejoin="round" stroke-width="1"/>
                <path id="Trazado_874051" data-name="Trazado 874051" d="M115.408,147.948a1.312,1.312,0,1,0-1.312,1.312,1.311,1.311,0,0,0,1.312-1.312" transform="translate(-16.856 -21.915)" fill="#fff"/>
                <circle id="Elipse_11557" data-name="Elipse 11557" cx="1.312" cy="1.312" r="1.312" transform="translate(95.93 124.722)" fill="none" stroke="#fff" stroke-linecap="round" stroke-linejoin="round" stroke-width="1"/>
                <line id="Línea_3272" data-name="Línea 3272" x2="20.721" transform="translate(136.322 58.363)" fill="none" stroke="#fff" stroke-linecap="round" stroke-linejoin="round" stroke-width="1"/>
                <path id="Trazado_874052" data-name="Trazado 874052" d="M157.347,67.771a1.312,1.312,0,1,0-1.312,1.312,1.311,1.311,0,0,0,1.312-1.312" transform="translate(-23.123 -9.932)" fill="#fff"/>
                <path id="Trazado_874053" data-name="Trazado 874053" d="M157.347,67.771a1.312,1.312,0,1,0-1.312,1.312A1.311,1.311,0,0,0,157.347,67.771Z" transform="translate(-23.123 -9.932)" fill="none" stroke="#fff" stroke-linecap="round" stroke-linejoin="round" stroke-width="1"/>
                <line id="Línea_3273" data-name="Línea 3273" x2="20.721" transform="translate(136.322 65.182)" fill="none" stroke="#fff" stroke-linecap="round" stroke-linejoin="round" stroke-width="1"/>
                <path id="Trazado_874054" data-name="Trazado 874054" d="M157.347,75.789a1.312,1.312,0,1,0-1.312,1.312,1.311,1.311,0,0,0,1.312-1.312" transform="translate(-23.123 -11.131)" fill="#fff"/>
                <path id="Trazado_874055" data-name="Trazado 874055" d="M157.347,75.789a1.312,1.312,0,1,0-1.312,1.312A1.311,1.311,0,0,0,157.347,75.789Z" transform="translate(-23.123 -11.131)" fill="none" stroke="#fff" stroke-linecap="round" stroke-linejoin="round" stroke-width="1"/>
                <line id="Línea_3274" data-name="Línea 3274" x2="20.721" transform="translate(136.322 72.002)" fill="none" stroke="#fff" stroke-linecap="round" stroke-linejoin="round" stroke-width="1"/>
                <path id="Trazado_874056" data-name="Trazado 874056" d="M157.347,83.806a1.312,1.312,0,1,0-1.312,1.312,1.311,1.311,0,0,0,1.312-1.312" transform="translate(-23.123 -12.329)" fill="#fff"/>
                <path id="Trazado_874057" data-name="Trazado 874057" d="M157.347,83.806a1.312,1.312,0,1,0-1.312,1.312A1.311,1.311,0,0,0,157.347,83.806Z" transform="translate(-23.123 -12.329)" fill="none" stroke="#fff" stroke-linecap="round" stroke-linejoin="round" stroke-width="1"/>
                <line id="Línea_3275" data-name="Línea 3275" x2="20.721" transform="translate(136.322 78.821)" fill="none" stroke="#fff" stroke-linecap="round" stroke-linejoin="round" stroke-width="1"/>
                <path id="Trazado_874058" data-name="Trazado 874058" d="M157.347,91.824a1.312,1.312,0,1,0-1.312,1.312,1.311,1.311,0,0,0,1.312-1.312" transform="translate(-23.123 -13.527)" fill="#fff"/>
                <path id="Trazado_874059" data-name="Trazado 874059" d="M157.347,91.824a1.312,1.312,0,1,0-1.312,1.312A1.311,1.311,0,0,0,157.347,91.824Z" transform="translate(-23.123 -13.527)" fill="none" stroke="#fff" stroke-linecap="round" stroke-linejoin="round" stroke-width="1"/>
                <line id="Línea_3276" data-name="Línea 3276" x2="20.721" transform="translate(136.322 85.641)" fill="none" stroke="#fff" stroke-linecap="round" stroke-linejoin="round" stroke-width="1"/>
                <path id="Trazado_874060" data-name="Trazado 874060" d="M157.347,99.842a1.312,1.312,0,1,0-1.312,1.312,1.311,1.311,0,0,0,1.312-1.312" transform="translate(-23.123 -14.725)" fill="#fff"/>
                <path id="Trazado_874061" data-name="Trazado 874061" d="M157.347,99.842a1.312,1.312,0,1,0-1.312,1.312A1.311,1.311,0,0,0,157.347,99.842Z" transform="translate(-23.123 -14.725)" fill="none" stroke="#fff" stroke-linecap="round" stroke-linejoin="round" stroke-width="1"/>
                <line id="Línea_3277" data-name="Línea 3277" x2="20.721" transform="translate(136.322 92.46)" fill="none" stroke="#fff" stroke-linecap="round" stroke-linejoin="round" stroke-width="1"/>
                <path id="Trazado_874062" data-name="Trazado 874062" d="M157.347,107.86a1.312,1.312,0,1,0-1.312,1.312,1.311,1.311,0,0,0,1.312-1.312" transform="translate(-23.123 -15.923)" fill="#fff"/>
                <circle id="Elipse_11558" data-name="Elipse 11558" cx="1.312" cy="1.312" r="1.312" transform="matrix(0.987, -0.16, 0.16, 0.987, 131.408, 90.851)" fill="none" stroke="#fff" stroke-linecap="round" stroke-linejoin="round" stroke-width="1"/>
                <line id="Línea_3278" data-name="Línea 3278" x2="20.721" transform="translate(136.322 99.28)" fill="none" stroke="#fff" stroke-linecap="round" stroke-linejoin="round" stroke-width="1"/>
                <path id="Trazado_874063" data-name="Trazado 874063" d="M157.347,115.877a1.312,1.312,0,1,0-1.312,1.312,1.311,1.311,0,0,0,1.312-1.312" transform="translate(-23.123 -17.122)" fill="#fff"/>
                <circle id="Elipse_11559" data-name="Elipse 11559" cx="1.312" cy="1.312" r="1.312" transform="matrix(0.987, -0.16, 0.16, 0.987, 131.408, 97.671)" fill="none" stroke="#fff" stroke-linecap="round" stroke-linejoin="round" stroke-width="1"/>
                <line id="Línea_3279" data-name="Línea 3279" x2="20.721" transform="translate(136.322 106.099)" fill="none" stroke="#fff" stroke-linecap="round" stroke-linejoin="round" stroke-width="1"/>
                <path id="Trazado_874064" data-name="Trazado 874064" d="M157.347,123.895a1.312,1.312,0,1,0-1.312,1.312,1.311,1.311,0,0,0,1.312-1.312" transform="translate(-23.123 -18.32)" fill="#fff"/>
                <circle id="Elipse_11560" data-name="Elipse 11560" cx="1.312" cy="1.312" r="1.312" transform="matrix(0.987, -0.16, 0.16, 0.987, 131.408, 104.49)" fill="none" stroke="#fff" stroke-linecap="round" stroke-linejoin="round" stroke-width="1"/>
                <line id="Línea_3280" data-name="Línea 3280" x2="20.721" transform="translate(136.322 112.919)" fill="none" stroke="#fff" stroke-linecap="round" stroke-linejoin="round" stroke-width="1"/>
                <path id="Trazado_874065" data-name="Trazado 874065" d="M157.347,131.913a1.312,1.312,0,1,0-1.312,1.312,1.311,1.311,0,0,0,1.312-1.312" transform="translate(-23.123 -19.518)" fill="#fff"/>
                <circle id="Elipse_11561" data-name="Elipse 11561" cx="1.312" cy="1.312" r="1.312" transform="matrix(0.987, -0.16, 0.16, 0.987, 131.408, 111.31)" fill="none" stroke="#fff" stroke-linecap="round" stroke-linejoin="round" stroke-width="1"/>
                <line id="Línea_3281" data-name="Línea 3281" x2="20.721" transform="translate(136.322 119.738)" fill="none" stroke="#fff" stroke-linecap="round" stroke-linejoin="round" stroke-width="1"/>
                <path id="Trazado_874066" data-name="Trazado 874066" d="M157.347,139.931a1.312,1.312,0,1,0-1.312,1.312,1.311,1.311,0,0,0,1.312-1.312" transform="translate(-23.123 -20.716)" fill="#fff"/>
                <circle id="Elipse_11562" data-name="Elipse 11562" cx="1.312" cy="1.312" r="1.312" transform="matrix(0.987, -0.16, 0.16, 0.987, 131.408, 118.129)" fill="none" stroke="#fff" stroke-linecap="round" stroke-linejoin="round" stroke-width="1"/>
                <line id="Línea_3282" data-name="Línea 3282" x2="20.721" transform="translate(136.322 126.558)" fill="none" stroke="#fff" stroke-linecap="round" stroke-linejoin="round" stroke-width="1"/>
                <path id="Trazado_874067" data-name="Trazado 874067" d="M157.347,147.948a1.312,1.312,0,1,0-1.312,1.312,1.311,1.311,0,0,0,1.312-1.312" transform="translate(-23.123 -21.915)" fill="#fff"/>
                <circle id="Elipse_11563" data-name="Elipse 11563" cx="1.312" cy="1.312" r="1.312" transform="matrix(0.987, -0.16, 0.16, 0.987, 131.408, 124.949)" fill="none" stroke="#fff" stroke-linecap="round" stroke-linejoin="round" stroke-width="1"/>
              </g>
            </g>
            <g id="Grupo_1100176" data-name="Grupo 1100176">
              <g id="Grupo_1100175" data-name="Grupo 1100175" clip-path="url(#clip-path-2)">
                <path id="Trazado_874068" data-name="Trazado 874068" d="M88.679,191.661c-.715,4.906-2.905,21.237-1.568,28.929,1.585,9.115,9.906,85.636,9.906,85.636h9.511l3.256-74.772.707,12.516,2.012,62.256h9.511L132.96,194.308l-2.555.054c-22.463,3.051-36.234-.651-41.726-2.7" transform="translate(-12.955 -28.644)" fill="#fff"/>
                <path id="Trazado_874069" data-name="Trazado 874069" d="M88.679,191.661c-.715,4.906-2.905,21.237-1.568,28.929,1.585,9.115,9.906,85.636,9.906,85.636h9.511l3.256-74.772.707,12.516,2.012,62.256h9.511L132.96,194.308l-2.555.054C107.942,197.412,94.171,193.711,88.679,191.661Z" transform="translate(-12.955 -28.644)" fill="none" stroke="#263238" stroke-linecap="round" stroke-linejoin="round" stroke-width="1"/>
                <path id="Trazado_874070" data-name="Trazado 874070" d="M139.995,128.32s4.844,2.665,5.614,5.193c.982,3.228,2.947,21.051,3.228,25.121s1.684,4.631.421,5.894-4.351,1.965-6.877,1.684-3.088-.421-3.088-.421l-.842-33.963.14-4.21Z" transform="translate(-20.691 -19.072)" fill="#fff"/>
                <path id="Trazado_874071" data-name="Trazado 874071" d="M139.995,128.32s4.844,2.665,5.614,5.193c.982,3.228,2.947,21.051,3.228,25.121s1.684,4.631.421,5.894-4.351,1.965-6.877,1.684-3.088-.421-3.088-.421l-.842-33.963.14-4.21Z" transform="translate(-20.691 -19.072)" fill="none" stroke="#263238" stroke-linecap="round" stroke-linejoin="round" stroke-width="1"/>
                <path id="Trazado_874072" data-name="Trazado 874072" d="M150.622,173a132.515,132.515,0,0,0-1.418,15.877,167.71,167.71,0,0,1-2.046,24.211c-.653,4.472.362,11.481-1.923,15.481-1.135,1.985-1.985,4.253-3.119,4.253s-1.134,0-1.7-1.417-.283-3.97-.283-5.387a11.716,11.716,0,0,1,.283-2.552s-.851,5.954-1.7,4.253-1.418-2.268-.567-5.1,3.4-9.639,3.4-9.639L139,178.671Z" transform="translate(-20.583 -25.855)" fill="#fff"/>
                <path id="Trazado_874073" data-name="Trazado 874073" d="M150.622,173a132.515,132.515,0,0,0-1.418,15.877,167.71,167.71,0,0,1-2.046,24.211c-.653,4.472.362,11.481-1.923,15.481-1.135,1.985-1.985,4.253-3.119,4.253s-1.134,0-1.7-1.417-.283-3.97-.283-5.387a11.716,11.716,0,0,1,.283-2.552s-.851,5.954-1.7,4.253-1.418-2.268-.567-5.1,3.4-9.639,3.4-9.639L139,178.671Z" transform="translate(-20.583 -25.855)" fill="none" stroke="#263238" stroke-linecap="round" stroke-linejoin="round" stroke-width="1"/>
                <path id="Trazado_874074" data-name="Trazado 874074" d="M141.091,171.181a15.048,15.048,0,0,0,6.035-.561,21.811,21.811,0,0,0,3.228-1.263s.982-.421.982,1.684.842,5.473.7,6.736-1.4,2.245-5.052,2.245a19.917,19.917,0,0,1-5.754-.7Z" transform="translate(-21.086 -25.305)" fill="#fff"/>
                <path id="Trazado_874075" data-name="Trazado 874075" d="M141.091,171.181a15.048,15.048,0,0,0,6.035-.561,21.811,21.811,0,0,0,3.228-1.263s.982-.421.982,1.684.842,5.473.7,6.736-1.4,2.245-5.052,2.245a19.917,19.917,0,0,1-5.754-.7Z" transform="translate(-21.086 -25.305)" fill="none" stroke="#263238" stroke-linecap="round" stroke-linejoin="round" stroke-width="1"/>
                <path id="Trazado_874076" data-name="Trazado 874076" d="M88.2,163.091l-.982,17.4s-.281.561,4.912,1.965a33.761,33.761,0,0,0,6.345.7h13.785c4.5-.133,8.617-.356,11.026-.561a17.444,17.444,0,0,0,10.1-3.93s-1.123-33.682-1.123-40.839-1.544-11.087-1.544-11.087-5.614-3.789-8.561-5.894-9.824-4.351-13.052-3.649a43.573,43.573,0,0,0-5.473,1.544s-14.174,7.438-18.385,9.684-3.789,3.649-4.351,6.456-4.491,24.7-4.491,24.7,4.21,3.228,7.017,3.368,4.772.14,4.772.14" transform="translate(-11.42 -17.496)" fill="#fff"/>
                <path id="Trazado_874077" data-name="Trazado 874077" d="M88.2,163.091l-.982,17.4s-.281.561,4.912,1.965a33.761,33.761,0,0,0,6.345.7h13.785c4.5-.133,8.617-.356,11.026-.561a17.444,17.444,0,0,0,10.1-3.93s-1.123-33.682-1.123-40.839-1.544-11.087-1.544-11.087-5.614-3.789-8.561-5.894-9.824-4.351-13.052-3.649a43.573,43.573,0,0,0-5.473,1.544s-14.174,7.438-18.385,9.684-3.789,3.649-4.351,6.456-4.491,24.7-4.491,24.7,4.21,3.228,7.017,3.368S88.2,163.091,88.2,163.091Z" transform="translate(-11.42 -17.496)" fill="none" stroke="#263238" stroke-linecap="round" stroke-linejoin="round" stroke-width="1"/>
                <path id="Trazado_874078" data-name="Trazado 874078" d="M135.469,184.1h.1a19.329,19.329,0,0,0-.356-4.491s-1.123-33.682-1.123-40.839-1.544-11.087-1.544-11.087-1.01-.682-2.394-1.625c.689,6,.851,12.852.851,12.852s-8,1.123-16,1.4-12.771.14-12.771.14-.281-8.561-2.105-13.052c-.743-1.827-1.272-3.136-1.644-4.054l-2.7,1.42c.12.7,3.362,19.555,3.362,23.825,0,4.351-.281,20.77-.281,24.279a84.978,84.978,0,0,1-.973,9.763l-.375-.051-8.335-2.554h-.061l-.519,2.426,6.724,3.358L92.549,236.93s9.906,2.378,24.568,1.585,21.8-2.377,21.8-2.377Z" transform="translate(-13.241 -18.434)" fill="#263238"/>
                <path id="Trazado_874079" data-name="Trazado 874079" d="M135.469,184.1h.1a19.329,19.329,0,0,0-.356-4.491s-1.123-33.682-1.123-40.839-1.544-11.087-1.544-11.087-1.01-.682-2.394-1.625c.689,6,.851,12.852.851,12.852s-8,1.123-16,1.4-12.771.14-12.771.14-.281-8.561-2.105-13.052c-.743-1.827-1.272-3.136-1.644-4.054l-2.7,1.42c.12.7,3.362,19.555,3.362,23.825,0,4.351-.281,20.77-.281,24.279a84.978,84.978,0,0,1-.973,9.763l-.375-.051-8.335-2.554h-.061l-.519,2.426,6.724,3.358L92.549,236.93s9.906,2.378,24.568,1.585,21.8-2.377,21.8-2.377Z" transform="translate(-13.241 -18.434)" fill="none" stroke="#263238" stroke-linecap="round" stroke-linejoin="round" stroke-width="1"/>
                <path id="Trazado_874080" data-name="Trazado 874080" d="M110.4,112.888s-2.386.14-2.807,1.263-2.807,5.333-2.807,5.333a63.334,63.334,0,0,0,1.824,6.456,48.188,48.188,0,0,0,2.526,5.894s5.193-5.333,6.877-5.894,9.824,4.772,9.824,4.772a23.565,23.565,0,0,0,.421-8.42c-.561-5.052-.982-6.315-3.368-7.3s-10.245-3.087-12.49-2.105" transform="translate(-15.661 -16.833)" fill="#fff"/>
                <path id="Trazado_874081" data-name="Trazado 874081" d="M110.4,112.888s-2.386.14-2.807,1.263-2.807,5.333-2.807,5.333a63.334,63.334,0,0,0,1.824,6.456,48.188,48.188,0,0,0,2.526,5.894s5.193-5.333,6.877-5.894,9.824,4.772,9.824,4.772a23.565,23.565,0,0,0,.421-8.42c-.561-5.052-.982-6.315-3.368-7.3S112.65,111.906,110.4,112.888Z" transform="translate(-15.661 -16.833)" fill="none" stroke="#263238" stroke-linecap="round" stroke-linejoin="round" stroke-width="1"/>
                <path id="Trazado_874082" data-name="Trazado 874082" d="M109.576,104.555s.281,7.157.7,10.1,4.772,11.648,7.578,11.368,5.894-6.736,6.315-9.262,1.123-8.561,1.123-8.561-2.947,1.544-7.859-.842-7.017-4.772-7.859-2.807" transform="translate(-16.376 -15.517)" fill="#fff"/>
                <path id="Trazado_874083" data-name="Trazado 874083" d="M109.576,104.555s.281,7.157.7,10.1,4.772,11.648,7.578,11.368,5.894-6.736,6.315-9.262,1.123-8.561,1.123-8.561-2.947,1.544-7.859-.842S110.418,102.591,109.576,104.555Z" transform="translate(-16.376 -15.517)" fill="none" stroke="#263238" stroke-linecap="round" stroke-linejoin="round" stroke-width="1"/>
                <path id="Trazado_874084" data-name="Trazado 874084" d="M129.467,81.268s-1.544,5.754-.982,9.4,2.386,6.877,0,11.087-4.631,6.175-8.982,6.175-8.28-2.526-11.087-7.017-2.947-8.14-2.947-12.21-1.684-8.561-.281-11.227,6.456-4.912,12.069-2.807a70.745,70.745,0,0,1,12.21,6.6" transform="translate(-15.637 -11.035)" fill="#fff"/>
                <path id="Trazado_874085" data-name="Trazado 874085" d="M129.467,81.268s-1.544,5.754-.982,9.4,2.386,6.877,0,11.087-4.631,6.175-8.982,6.175-8.28-2.526-11.087-7.017-2.947-8.14-2.947-12.21-1.684-8.561-.281-11.227,6.456-4.912,12.069-2.807A70.745,70.745,0,0,1,129.467,81.268Z" transform="translate(-15.637 -11.035)" fill="none" stroke="#263238" stroke-linecap="round" stroke-linejoin="round" stroke-width="1"/>
                <path id="Trazado_874086" data-name="Trazado 874086" d="M119.806,103.331a16.786,16.786,0,0,0,4.21,1.544c1.824.281,3.509-1.684,3.509-1.684a6.388,6.388,0,0,0-3.368-.982,12.437,12.437,0,0,0-4.351,1.123" transform="translate(-17.905 -15.275)" fill="#fff"/>
                <path id="Trazado_874087" data-name="Trazado 874087" d="M119.806,103.331a16.786,16.786,0,0,0,4.21,1.544c1.824.281,3.509-1.684,3.509-1.684a6.388,6.388,0,0,0-3.368-.982A12.437,12.437,0,0,0,119.806,103.331Z" transform="translate(-17.905 -15.275)" fill="none" stroke="#263238" stroke-linecap="round" stroke-linejoin="round" stroke-width="1"/>
                <path id="Trazado_874088" data-name="Trazado 874088" d="M125.319,90.493a7.542,7.542,0,0,0,.281,3.789c.7,1.4,2.245,2.807.7,3.509s-4.07.7-4.351,0" transform="translate(-18.225 -13.524)" fill="none" stroke="#263238" stroke-linecap="round" stroke-linejoin="round" stroke-width="1"/>
                <path id="Trazado_874089" data-name="Trazado 874089" d="M122.5,99.89a21.507,21.507,0,0,1-4.491,1.263c-2.105.281-2.386.842-.561,1.263a34.879,34.879,0,0,0,6.456.14s2.947.842,4.21.14.561-.842-.7-1.4-2.667-1.684-4.912-1.4" transform="translate(-17.372 -14.922)" fill="#263238"/>
                <path id="Trazado_874090" data-name="Trazado 874090" d="M122.5,99.89a21.507,21.507,0,0,1-4.491,1.263c-2.105.281-2.386.842-.561,1.263a34.879,34.879,0,0,0,6.456.14s2.947.842,4.21.14.561-.842-.7-1.4S124.746,99.61,122.5,99.89Z" transform="translate(-17.372 -14.922)" fill="none" stroke="#263238" stroke-linecap="round" stroke-linejoin="round" stroke-width="1"/>
                <path id="Trazado_874091" data-name="Trazado 874091" d="M119.675,92.7c0,.852-.377,1.544-.842,1.544s-.842-.691-.842-1.544.377-1.544.842-1.544.842.691.842,1.544" transform="translate(-17.634 -13.623)" fill="#263238"/>
                <path id="Trazado_874092" data-name="Trazado 874092" d="M128.915,92.367c0,.852-.377,1.544-.842,1.544s-.842-.692-.842-1.544.377-1.544.842-1.544.842.692.842,1.544" transform="translate(-19.015 -13.573)" fill="#263238"/>
                <line id="Línea_3283" data-name="Línea 3283" y1="0.281" x2="2.105" transform="translate(100.077 77.39)" fill="none" stroke="#263238" stroke-linecap="round" stroke-linejoin="round" stroke-width="1"/>
                <line id="Línea_3284" data-name="Línea 3284" x2="1.965" transform="translate(108.217 77.53)" fill="none" stroke="#263238" stroke-linecap="round" stroke-linejoin="round" stroke-width="1"/>
                <path id="Trazado_874093" data-name="Trazado 874093" d="M121.41,88.239s-.982-.842-3.509-.561-2.386.982-2.386.982" transform="translate(-17.263 -13.095)" fill="none" stroke="#263238" stroke-linecap="round" stroke-linejoin="round" stroke-width="1"/>
                <path id="Trazado_874094" data-name="Trazado 874094" d="M126.736,88.475s1.123-1.684,4.21-.982" transform="translate(-18.941 -13.05)" fill="none" stroke="#263238" stroke-linecap="round" stroke-linejoin="round" stroke-width="1"/>
                <path id="Trazado_874095" data-name="Trazado 874095" d="M106.6,90.929a10.184,10.184,0,0,0,2.947-3.509c.842-1.965,1.824-2.947.982-4.631s-2.526-2.666-2.105-3.93,9.263-1.4,14.174.561,10.666,2.245,11.087.281-3.649-3.228-3.649-3.228,4.491-.561.982-4.07-6.736-4.351-15.578-4.351-11.789,1.684-12.21,3.368-.7,2.666-.7,2.666a2.7,2.7,0,0,0-1.4.982c-.421.7-.14,3.088.7,4.631s2.386,5.614,1.965,7.859-.842,2.245-.421,2.666,1.123,2.386,3.228.7" transform="translate(-15.084 -10.17)" fill="#263238"/>
                <path id="Trazado_874096" data-name="Trazado 874096" d="M106.6,90.929a10.184,10.184,0,0,0,2.947-3.509c.842-1.965,1.824-2.947.982-4.631s-2.526-2.666-2.105-3.93,9.263-1.4,14.174.561,10.666,2.245,11.087.281-3.649-3.228-3.649-3.228,4.491-.561.982-4.07-6.736-4.351-15.578-4.351-11.789,1.684-12.21,3.368-.7,2.666-.7,2.666a2.7,2.7,0,0,0-1.4.982c-.421.7-.14,3.088.7,4.631s2.386,5.614,1.965,7.859-.842,2.245-.421,2.666S104.5,92.613,106.6,90.929Z" transform="translate(-15.084 -10.17)" fill="none" stroke="#263238" stroke-linecap="round" stroke-linejoin="round" stroke-width="1"/>
                <path id="Trazado_874097" data-name="Trazado 874097" d="M108.335,95.755s-1.684-4.912-4.351-3.649-1.824,5.333-.7,6.6,3.93,3.368,5.333,2.105" transform="translate(-15.276 -13.734)" fill="#fff"/>
                <path id="Trazado_874098" data-name="Trazado 874098" d="M108.335,95.755s-1.684-4.912-4.351-3.649-1.824,5.333-.7,6.6,3.93,3.368,5.333,2.105" transform="translate(-15.276 -13.734)" fill="none" stroke="#263238" stroke-linecap="round" stroke-linejoin="round" stroke-width="1"/>
                <path id="Trazado_874099" data-name="Trazado 874099" d="M76.06,173a132.514,132.514,0,0,1,1.418,15.877,167.707,167.707,0,0,0,2.046,24.211c.653,4.472-.362,11.481,1.923,15.481,1.135,1.985,1.985,4.253,3.119,4.253s1.134,0,1.7-1.417.283-3.97.283-5.387a11.716,11.716,0,0,0-.283-2.552s.851,5.954,1.7,4.253,1.418-2.268.567-5.1-3.4-9.639-3.4-9.639l2.552-34.305Z" transform="translate(-11.367 -25.855)" fill="#fff"/>
                <path id="Trazado_874100" data-name="Trazado 874100" d="M76.06,173a132.514,132.514,0,0,1,1.418,15.877,167.707,167.707,0,0,0,2.046,24.211c.653,4.472-.362,11.481,1.923,15.481,1.135,1.985,1.985,4.253,3.119,4.253s1.134,0,1.7-1.417.283-3.97.283-5.387a11.716,11.716,0,0,0-.283-2.552s.851,5.954,1.7,4.253,1.418-2.268.567-5.1-3.4-9.639-3.4-9.639l2.552-34.305Z" transform="translate(-11.367 -25.855)" fill="none" stroke="#263238" stroke-linecap="round" stroke-linejoin="round" stroke-width="1"/>
                <path id="Trazado_874101" data-name="Trazado 874101" d="M87.9,170.192a18.96,18.96,0,0,1-5.894-2.245c-3.649-1.965-5.894-3.368-5.894-3.368a1.907,1.907,0,0,0-1.123,1.824c0,1.4-.561,5.754-.561,7.578s1.4,2.386,4.912,3.649,7.017,1.544,7.719.842.842-8.28.842-8.28" transform="translate(-11.124 -24.596)" fill="#fff"/>
                <path id="Trazado_874102" data-name="Trazado 874102" d="M87.9,170.192a18.96,18.96,0,0,1-5.894-2.245c-3.649-1.965-5.894-3.368-5.894-3.368a1.907,1.907,0,0,0-1.123,1.824c0,1.4-.561,5.754-.561,7.578s1.4,2.386,4.912,3.649,7.017,1.544,7.719.842S87.9,170.192,87.9,170.192Z" transform="translate(-11.124 -24.596)" fill="none" stroke="#263238" stroke-linecap="round" stroke-linejoin="round" stroke-width="1"/>
                <line id="Línea_3285" data-name="Línea 3285" y1="15.859" x2="1.263" transform="translate(76.78 129.737)" fill="#fff"/>
                <line id="Línea_3286" data-name="Línea 3286" y1="15.859" x2="1.263" transform="translate(76.78 129.737)" fill="none" stroke="#263238" stroke-linecap="round" stroke-linejoin="round" stroke-width="1"/>
                <path id="Trazado_874103" data-name="Trazado 874103" d="M106.5,338.074l-.5-11.718h-9.51l-12.7,10.419a1.824,1.824,0,0,0-.6,1.881l.009.031a1.738,1.738,0,0,0,1.7,1.289l20.027-.231a1.6,1.6,0,0,0,1.583-1.671" transform="translate(-12.422 -48.773)" fill="#fff"/>
                <path id="Trazado_874104" data-name="Trazado 874104" d="M106.5,338.074l-.5-11.718h-9.51l-12.7,10.419a1.824,1.824,0,0,0-.6,1.881l.009.031a1.738,1.738,0,0,0,1.7,1.289l20.027-.231A1.6,1.6,0,0,0,106.5,338.074Z" transform="translate(-12.422 -48.773)" fill="none" stroke="#263238" stroke-linecap="round" stroke-linejoin="round" stroke-width="1"/>
                <path id="Trazado_874105" data-name="Trazado 874105" d="M116.451,338.074l.5-11.718h9.51l12.7,10.419a1.824,1.824,0,0,1,.6,1.881l-.008.031a1.738,1.738,0,0,1-1.7,1.289l-20.027-.231a1.6,1.6,0,0,1-1.583-1.671" transform="translate(-17.403 -48.773)" fill="#fff"/>
                <path id="Trazado_874106" data-name="Trazado 874106" d="M116.451,338.074l.5-11.718h9.51l12.7,10.419a1.824,1.824,0,0,1,.6,1.881l-.008.031a1.738,1.738,0,0,1-1.7,1.289l-20.027-.231A1.6,1.6,0,0,1,116.451,338.074Z" transform="translate(-17.403 -48.773)" fill="none" stroke="#263238" stroke-linecap="round" stroke-linejoin="round" stroke-width="1"/>
              </g>
            </g>
            <g id="Grupo_1100178" data-name="Grupo 1100178">
              <g id="Grupo_1100177" data-name="Grupo 1100177" clip-path="url(#clip-path-2)">
                <path id="Trazado_874107" data-name="Trazado 874107" d="M183.02,199.205s-8.637-5.573-11.424-6.548a4.651,4.651,0,0,0-1.71-.3l-.1-.116H156.41l-.836,8.916h27.852c-.056-1.579-.407-1.95-.407-1.95" transform="translate(-23.25 -28.73)" fill="#fff"/>
                <path id="Trazado_874108" data-name="Trazado 874108" d="M183.02,199.205s-8.637-5.573-11.424-6.548a4.651,4.651,0,0,0-1.71-.3l-.1-.116H156.41l-.836,8.916h27.852C183.37,199.576,183.02,199.205,183.02,199.205Z" transform="translate(-23.25 -28.73)" fill="none" stroke="#263238" stroke-linecap="round" stroke-linejoin="round" stroke-width="1"/>
                <path id="Trazado_874109" data-name="Trazado 874109" d="M169.578,201.175c-.056-1.58-.407-1.95-.407-1.95s-8.637-5.573-11.424-6.548-3.483.7-3.483.7v7.8Z" transform="translate(-23.055 -28.75)" fill="#263238"/>
                <path id="Trazado_874110" data-name="Trazado 874110" d="M169.578,201.175c-.056-1.58-.407-1.95-.407-1.95s-8.637-5.573-11.424-6.548-3.483.7-3.483.7v7.8Z" transform="translate(-23.055 -28.75)" fill="none" stroke="#263238" stroke-linecap="round" stroke-linejoin="round" stroke-width="1"/>
                <path id="Trazado_874111" data-name="Trazado 874111" d="M163.437,193.386l4.18,2.507h8.916l-4.876-2.368Z" transform="translate(-24.425 -28.901)" fill="#fff"/>
                <path id="Trazado_874112" data-name="Trazado 874112" d="M163.437,193.386l4.18,2.507h8.916l-4.876-2.368Z" transform="translate(-24.425 -28.901)" fill="none" stroke="#263238" stroke-linecap="round" stroke-linejoin="round" stroke-width="1"/>
                <path id="Trazado_874113" data-name="Trazado 874113" d="M55.393,324.92h189.39V281.684L213.6,204H55.393Z" transform="translate(-8.278 -30.487)" fill="#ffea96"/>
              </g>
            </g>
            <g id="Grupo_1100192" data-name="Grupo 1100192" transform="translate(47.115 173.512)">
              <g id="Grupo_1100191" data-name="Grupo 1100191" clip-path="url(#clip-path-8)">
                <g id="Grupo_1100181" data-name="Grupo 1100181" transform="translate(33.529 0.001)" opacity="0.7">
                  <g id="Grupo_1100180" data-name="Grupo 1100180">
                    <g id="Grupo_1100179" data-name="Grupo 1100179" clip-path="url(#clip-path-9)">
                      <path id="Trazado_874114" data-name="Trazado 874114" d="M111.143,287.938,194.981,204H177.589L94.813,287.938Z" transform="translate(-94.814 -204)" fill="#fff"/>
                    </g>
                  </g>
                </g>
                <g id="Grupo_1100184" data-name="Grupo 1100184" transform="translate(105.291 0.001)" opacity="0.7">
                  <g id="Grupo_1100183" data-name="Grupo 1100183">
                    <g id="Grupo_1100182" data-name="Grupo 1100182" clip-path="url(#clip-path-9)">
                      <path id="Trazado_874115" data-name="Trazado 874115" d="M195.514,287.938,279.352,204H261.96l-82.776,83.938Z" transform="translate(-179.184 -204)" fill="#fff"/>
                    </g>
                  </g>
                </g>
                <g id="Grupo_1100187" data-name="Grupo 1100187" transform="translate(128.325 0.001)" opacity="0.7">
                  <g id="Grupo_1100186" data-name="Grupo 1100186">
                    <g id="Grupo_1100185" data-name="Grupo 1100185" clip-path="url(#clip-path-9)">
                      <path id="Trazado_874116" data-name="Trazado 874116" d="M222.6,287.938,306.434,204H289.042l-82.776,83.938Z" transform="translate(-206.266 -204)" fill="#fff"/>
                    </g>
                  </g>
                </g>
                <g id="Grupo_1100190" data-name="Grupo 1100190" transform="translate(-22.728 0.001)" opacity="0.7">
                  <g id="Grupo_1100189" data-name="Grupo 1100189">
                    <g id="Grupo_1100188" data-name="Grupo 1100188" clip-path="url(#clip-path-9)">
                      <path id="Trazado_874117" data-name="Trazado 874117" d="M45,287.938,128.839,204H111.447L28.671,287.938Z" transform="translate(-28.671 -204)" fill="#fff"/>
                    </g>
                  </g>
                </g>
              </g>
            </g>
            <g id="Grupo_1100194" data-name="Grupo 1100194">
              <g id="Grupo_1100193" data-name="Grupo 1100193" clip-path="url(#clip-path-2)">
                <path id="Trazado_874119" data-name="Trazado 874119" d="M55.393,324.92h189.39V281.684L213.6,204H55.393Z" transform="translate(-8.278 -30.487)" fill="none" stroke="#263238" stroke-linecap="round" stroke-linejoin="round" stroke-width="1"/>
                <rect id="Rectángulo_401669" data-name="Rectángulo 401669" width="4.253" height="88.189" transform="translate(131.81 174.886) rotate(-14.237)" fill="#263238"/>
                <rect id="Rectángulo_401670" data-name="Rectángulo 401670" width="163.1" height="5.387" transform="translate(47.115 171.244)" fill="#fff"/>
                <rect id="Rectángulo_401671" data-name="Rectángulo 401671" width="163.1" height="5.387" transform="translate(47.115 171.244)" fill="none" stroke="#263238" stroke-linecap="round" stroke-linejoin="round" stroke-width="1"/>
                <line id="Línea_3287" data-name="Línea 3287" x1="45.079" y2="42.953" transform="translate(77.734 187.972)" fill="#fff"/>
                <line id="Línea_3288" data-name="Línea 3288" x1="45.079" y2="42.953" transform="translate(77.734 187.972)" fill="none" stroke="#263238" stroke-linecap="round" stroke-linejoin="round" stroke-width="1"/>
                <line id="Línea_3289" data-name="Línea 3289" x1="4.075" y2="3.883" transform="translate(73.057 239.8)" fill="#fff"/>
                <line id="Línea_3290" data-name="Línea 3290" x1="4.075" y2="3.883" transform="translate(73.057 239.8)" fill="none" stroke="#263238" stroke-linecap="round" stroke-linejoin="round" stroke-width="1"/>
                <line id="Línea_3291" data-name="Línea 3291" x1="36.655" y2="34.925" transform="translate(81.481 200.73)" fill="#fff"/>
                <line id="Línea_3292" data-name="Línea 3292" x1="36.655" y2="34.925" transform="translate(81.481 200.73)" fill="none" stroke="#263238" stroke-linecap="round" stroke-linejoin="round" stroke-width="1"/>
                <line id="Línea_3293" data-name="Línea 3293" x1="4.246" y2="4.046" transform="translate(164.066 226.879)" fill="#fff"/>
                <line id="Línea_3294" data-name="Línea 3294" x1="4.246" y2="4.046" transform="translate(164.066 226.879)" fill="none" stroke="#263238" stroke-linecap="round" stroke-linejoin="round" stroke-width="1"/>
                <line id="Línea_3295" data-name="Línea 3295" x1="35.863" y2="34.171" transform="translate(173.282 187.972)" fill="#fff"/>
                <line id="Línea_3296" data-name="Línea 3296" x1="35.863" y2="34.171" transform="translate(173.282 187.972)" fill="none" stroke="#263238" stroke-linecap="round" stroke-linejoin="round" stroke-width="1"/>
                <line id="Línea_3297" data-name="Línea 3297" x1="45.079" y2="42.953" transform="translate(159.387 200.73)" fill="#fff"/>
                <line id="Línea_3298" data-name="Línea 3298" x1="45.079" y2="42.953" transform="translate(159.387 200.73)" fill="none" stroke="#263238" stroke-linecap="round" stroke-linejoin="round" stroke-width="1"/>
                <rect id="Rectángulo_401672" data-name="Rectángulo 401672" width="189.39" height="43.236" transform="translate(47.115 251.196)" fill="#fff"/>
                <rect id="Rectángulo_401673" data-name="Rectángulo 401673" width="189.39" height="43.236" transform="translate(47.115 251.196)" fill="none" stroke="#263238" stroke-linecap="round" stroke-linejoin="round" stroke-width="1"/>
                <path id="Trazado_874120" data-name="Trazado 874120" d="M67.835,198.411h-8.95V184a1.528,1.528,0,0,1,1.528-1.528h5.894A1.528,1.528,0,0,1,67.835,184Z" transform="translate(-8.8 -27.271)" fill="#fff"/>
                <path id="Trazado_874121" data-name="Trazado 874121" d="M67.835,198.411h-8.95V184a1.528,1.528,0,0,1,1.528-1.528h5.894A1.528,1.528,0,0,1,67.835,184Z" transform="translate(-8.8 -27.271)" fill="none" stroke="#263238" stroke-linecap="round" stroke-linejoin="round" stroke-width="1"/>
                <rect id="Rectángulo_401674" data-name="Rectángulo 401674" width="3.056" height="4.802" transform="translate(53.032 150.403)" fill="#fff"/>
                <rect id="Rectángulo_401675" data-name="Rectángulo 401675" width="3.056" height="4.802" transform="translate(53.032 150.403)" fill="none" stroke="#263238" stroke-linecap="round" stroke-linejoin="round" stroke-width="1"/>
                <path id="Trazado_874122" data-name="Trazado 874122" d="M79.641,198.411h-8.95V184a1.528,1.528,0,0,1,1.528-1.528h5.894A1.528,1.528,0,0,1,79.641,184Z" transform="translate(-10.565 -27.271)" fill="#fff"/>
                <path id="Trazado_874123" data-name="Trazado 874123" d="M79.641,198.411h-8.95V184a1.528,1.528,0,0,1,1.528-1.528h5.894A1.528,1.528,0,0,1,79.641,184Z" transform="translate(-10.565 -27.271)" fill="none" stroke="#263238" stroke-linecap="round" stroke-linejoin="round" stroke-width="1"/>
                <rect id="Rectángulo_401676" data-name="Rectángulo 401676" width="3.056" height="4.802" transform="translate(63.073 150.403)" fill="#fff"/>
                <rect id="Rectángulo_401677" data-name="Rectángulo 401677" width="3.056" height="4.802" transform="translate(63.073 150.403)" fill="none" stroke="#263238" stroke-linecap="round" stroke-linejoin="round" stroke-width="1"/>
              </g>
            </g>
            <g id="Grupo_1100199" data-name="Grupo 1100199">
              <g id="Grupo_1100198" data-name="Grupo 1100198" clip-path="url(#clip-path-2)">
                <path id="Trazado_874124" data-name="Trazado 874124" d="M299.26,354.585c0,4.487-16.106,8.123-35.974,8.123s-35.974-3.636-35.974-8.123,16.106-8.124,35.974-8.124,35.974,3.637,35.974,8.124" transform="translate(-33.972 -51.778)" fill="#ffea96"/>
                <g id="Grupo_1100197" data-name="Grupo 1100197" transform="translate(193.34 294.683)" opacity="0.5">
                  <g id="Grupo_1100196" data-name="Grupo 1100196">
                    <g id="Grupo_1100195" data-name="Grupo 1100195" clip-path="url(#clip-path-15)">
                      <path id="Trazado_874125" data-name="Trazado 874125" d="M299.26,354.585c0,4.487-16.106,8.123-35.974,8.123s-35.974-3.636-35.974-8.123,16.106-8.124,35.974-8.124,35.974,3.637,35.974,8.124" transform="translate(-227.312 -346.461)" fill="#fff"/>
                    </g>
                  </g>
                </g>
                <path id="Trazado_874126" data-name="Trazado 874126" d="M218.736,182.121a44.216,44.216,0,0,1-11.092,2.957,43.472,43.472,0,0,1-12.275.148,34.74,34.74,0,0,0-6.655-1.774c-3.7-.592-7.691,1.183-7.838,2.957s3.253,4.585,7.394,5.916,5.768.148,18.635,1.479,17.747,1.183,19.965-.739a5,5,0,0,0-.148-7.543c-2.366-1.922-7.986-3.4-7.986-3.4" transform="translate(-27.031 -27.218)" fill="#fff"/>
                <path id="Trazado_874127" data-name="Trazado 874127" d="M218.736,182.121a44.216,44.216,0,0,1-11.092,2.957,43.472,43.472,0,0,1-12.275.148,34.74,34.74,0,0,0-6.655-1.774c-3.7-.592-7.691,1.183-7.838,2.957s3.253,4.585,7.394,5.916,5.768.148,18.635,1.479,17.747,1.183,19.965-.739a5,5,0,0,0-.148-7.543C224.356,183.6,218.736,182.121,218.736,182.121Z" transform="translate(-27.031 -27.218)" fill="none" stroke="#263238" stroke-linecap="round" stroke-linejoin="round" stroke-width="1"/>
                <path id="Trazado_874128" data-name="Trazado 874128" d="M254.069,130.3s-3.105,1.183-11.24,3.253-9.169,1.627-10.8,5.472-2.07,14.049-2.366,15.233-3.253,13.458-3.253,13.458-.887-1.479-1.774.443-2.958,4.733-2.071,5.472,3.845,3.4,5.62,4.88a14.777,14.777,0,0,0,3.7,2.218l-3.549,24.106,5.768,3.253s1.478-16.712,3.844-28.839,4.141-24.845,6.064-28.395,3.106-5.916,3.106-5.916l7.838-13.606s.444-1.331-.887-1.035" transform="translate(-33.23 -19.467)" fill="#ffea96"/>
                <path id="Trazado_874129" data-name="Trazado 874129" d="M254.069,130.3s-3.105,1.183-11.24,3.253-9.169,1.627-10.8,5.472-2.07,14.049-2.366,15.233-3.253,13.458-3.253,13.458-.887-1.479-1.774.443-2.958,4.733-2.071,5.472,3.845,3.4,5.62,4.88a14.777,14.777,0,0,0,3.7,2.218l-3.549,24.106,5.768,3.253s1.478-16.712,3.844-28.839,4.141-24.845,6.064-28.395,3.106-5.916,3.106-5.916l7.838-13.606S255.4,130,254.069,130.3Z" transform="translate(-33.23 -19.467)" fill="none" stroke="#263238" stroke-linecap="round" stroke-linejoin="round" stroke-width="1"/>
                <path id="Trazado_874130" data-name="Trazado 874130" d="M233.561,183.855a125.145,125.145,0,0,0,1.331-15.677,56.776,56.776,0,0,1,2.81-17.008" transform="translate(-34.905 -22.592)" fill="none" stroke="#263238" stroke-linecap="round" stroke-linejoin="round" stroke-width="1"/>
                <path id="Trazado_874131" data-name="Trazado 874131" d="M273.609,82.333s2.07-4.14,8.282-3.845,13.458,14.493,13.754,23.071-4.141,10.352-2.514,14.2,8.578,5.472,8.578,13.754-2.219,16.564-10.353,18.338-12.718-1.035-17.3-11.091-2.958-15.676-2.071-23.515-.148-15.824-.739-20.113,0-7.838,2.366-10.8" transform="translate(-40.495 -11.728)" fill="#263238"/>
                <path id="Trazado_874132" data-name="Trazado 874132" d="M273.609,82.333s2.07-4.14,8.282-3.845,13.458,14.493,13.754,23.071-4.141,10.352-2.514,14.2,8.578,5.472,8.578,13.754-2.219,16.564-10.353,18.338-12.718-1.035-17.3-11.091-2.958-15.676-2.071-23.515-.148-15.824-.739-20.113S271.243,85.291,273.609,82.333Z" transform="translate(-40.495 -11.728)" fill="none" stroke="#263238" stroke-linecap="round" stroke-linejoin="round" stroke-width="1"/>
                <path id="Trazado_874133" data-name="Trazado 874133" d="M247,138.822a37.2,37.2,0,0,1-.444,5.62c-.443,2.366-.3,1.627.888,1.183s3.7-3.992,3.7-3.992-1.923-3.106-4.141-2.81" transform="translate(-36.814 -20.744)" fill="#fff"/>
                <path id="Trazado_874134" data-name="Trazado 874134" d="M247,138.822a37.2,37.2,0,0,1-.444,5.62c-.443,2.366-.3,1.627.888,1.183s3.7-3.992,3.7-3.992S249.223,138.527,247,138.822Z" transform="translate(-36.814 -20.744)" fill="none" stroke="#263238" stroke-linecap="round" stroke-linejoin="round" stroke-width="1"/>
                <path id="Trazado_874135" data-name="Trazado 874135" d="M258.954,126.133s-4.436,4.14-6.951,6.655a39.009,39.009,0,0,1-4.88,4.141l3.7,7.395s3.4-6.36,4.436-8.874,3.7-9.317,3.7-9.317" transform="translate(-36.932 -18.85)" fill="#fff"/>
                <path id="Trazado_874136" data-name="Trazado 874136" d="M258.954,126.133s-4.436,4.14-6.951,6.655a39.009,39.009,0,0,1-4.88,4.141l3.7,7.395s3.4-6.36,4.436-8.874S258.954,126.133,258.954,126.133Z" transform="translate(-36.932 -18.85)" fill="none" stroke="#263238" stroke-linecap="round" stroke-linejoin="round" stroke-width="1"/>
                <path id="Trazado_874137" data-name="Trazado 874137" d="M242.782,345.559a38.277,38.277,0,0,1-9.332,4.475c-4.347,1.15-5.5,1.79-4.986,3.2s2.813,2.3,6.136,2.557,8.566-.895,10.867-.895,6.264,1.278,8.949.384,2.782-2.164,2.605-5.3a14.436,14.436,0,0,0-.56-4.032Z" transform="translate(-34.127 -51.643)" fill="#fff"/>
                <path id="Trazado_874138" data-name="Trazado 874138" d="M242.782,345.559a38.277,38.277,0,0,1-9.332,4.475c-4.347,1.15-5.5,1.79-4.986,3.2s2.813,2.3,6.136,2.557,8.566-.895,10.867-.895,6.264,1.278,8.949.384,2.782-2.164,2.605-5.3a14.436,14.436,0,0,0-.56-4.032Z" transform="translate(-34.127 -51.643)" fill="none" stroke="#263238" stroke-linecap="round" stroke-linejoin="round" stroke-width="1"/>
                <path id="Trazado_874139" data-name="Trazado 874139" d="M236.763,198.275s-1.276,8.931-2.552,19.137S234,243.141,235.7,249.946s3.615,10.845,4.04,16.8,4.253,21.264,4.891,31.258a116.006,116.006,0,0,1-.213,18.925,10.094,10.094,0,0,1-.638,3.19s-1.488-.213-1.488.638-.213,3.615-.213,3.615a64.342,64.342,0,0,0,6.592,1.914c2.977.638,9.143,1.488,9.143,1.488a40.272,40.272,0,0,0,.851-11.27c-.425-6.166,1.488-15.948,1.488-24.879s0-14.885.213-20.626-.213-35.085,0-43.165,5.529-17.224,5.529-22.965-1.276-6.8-3.4-7.655-25.729,1.063-25.729,1.063" transform="translate(-34.918 -29.44)" fill="#263238"/>
                <path id="Trazado_874140" data-name="Trazado 874140" d="M236.763,198.275s-1.276,8.931-2.552,19.137S234,243.141,235.7,249.946s3.615,10.845,4.04,16.8,4.253,21.264,4.891,31.258a116.006,116.006,0,0,1-.213,18.925,10.094,10.094,0,0,1-.638,3.19s-1.488-.213-1.488.638-.213,3.615-.213,3.615a64.342,64.342,0,0,0,6.592,1.914c2.977.638,9.143,1.488,9.143,1.488a40.272,40.272,0,0,0,.851-11.27c-.425-6.166,1.488-15.948,1.488-24.879s0-14.885.213-20.626-.213-35.085,0-43.165,5.529-17.224,5.529-22.965-1.276-6.8-3.4-7.655S236.763,198.275,236.763,198.275Z" transform="translate(-34.918 -29.44)" fill="none" stroke="#263238" stroke-linecap="round" stroke-linejoin="round" stroke-width="1"/>
                <path id="Trazado_874141" data-name="Trazado 874141" d="M261.319,347.739s-3.324,2.173-7.287,4.6-6.9,3.452-3.964,5.625S262.6,360.4,266.3,359.373s9.716-3.2,10.994-3.452,1.534-1.278,1.151-3.2-10.227-3.708-13.167-4.858-3.964-.128-3.964-.128" transform="translate(-37.194 -51.907)" fill="#fff"/>
                <path id="Trazado_874142" data-name="Trazado 874142" d="M261.319,347.739s-3.324,2.173-7.287,4.6-6.9,3.452-3.964,5.625S262.6,360.4,266.3,359.373s9.716-3.2,10.994-3.452,1.534-1.278,1.151-3.2-10.227-3.708-13.167-4.858S261.319,347.739,261.319,347.739Z" transform="translate(-37.194 -51.907)" fill="none" stroke="#263238" stroke-linecap="round" stroke-linejoin="round" stroke-width="1"/>
                <path id="Trazado_874143" data-name="Trazado 874143" d="M246.873,215.234l7.017,7.655s.851,21.264.851,31.9a139.569,139.569,0,0,0,2.126,23.178c.425,2.126,5.1,21.051,5.1,26.58s.851,13.821.851,15.1-1.914,1.276-2.126,3.4a12.911,12.911,0,0,1-.638,3.19,79.424,79.424,0,0,1,7.655,2.977c2.552,1.276,10.207,2.977,10.845,2.552s1.063-4.465.851-7.017-.638-7.017-.638-8.08,1.276-19.137,1.276-28.281-4.04-21.476-5.1-25.091A27.221,27.221,0,0,1,273.878,255c0-1.914,5.1-25.517,4.891-37.424s-2.977-17.224-2.977-17.224-9.994,2.339-19.35.638S245.81,199.5,245.81,199.5" transform="translate(-36.736 -29.814)" fill="#263238"/>
                <path id="Trazado_874144" data-name="Trazado 874144" d="M246.873,215.234l7.017,7.655s.851,21.264.851,31.9a139.569,139.569,0,0,0,2.126,23.178c.425,2.126,5.1,21.051,5.1,26.58s.851,13.821.851,15.1-1.914,1.276-2.126,3.4a12.911,12.911,0,0,1-.638,3.19,79.424,79.424,0,0,1,7.655,2.977c2.552,1.276,10.207,2.977,10.845,2.552s1.063-4.465.851-7.017-.638-7.017-.638-8.08,1.276-19.137,1.276-28.281-4.04-21.476-5.1-25.091A27.221,27.221,0,0,1,273.878,255c0-1.914,5.1-25.517,4.891-37.424s-2.977-17.224-2.977-17.224-9.994,2.339-19.35.638S245.81,199.5,245.81,199.5" transform="translate(-36.736 -29.814)" fill="none" stroke="#263238" stroke-linecap="round" stroke-linejoin="round" stroke-width="1"/>
                <path id="Trazado_874145" data-name="Trazado 874145" d="M258.208,290.256c-1.631-9.144-3.963-22.677-4.307-27.156-.538-6.992-1.075-33.88-1.075-33.88l-8.067-5.916" transform="translate(-36.579 -33.373)" fill="none" stroke="#fff" stroke-linecap="round" stroke-linejoin="round" stroke-width="1"/>
                <path id="Trazado_874146" data-name="Trazado 874146" d="M262.332,311.745s-.289-1.559-.739-4.043" transform="translate(-39.095 -45.986)" fill="none" stroke="#fff" stroke-linecap="round" stroke-linejoin="round" stroke-width="1"/>
                <path id="Trazado_874147" data-name="Trazado 874147" d="M254.782,133.2s.1-1.531,5.631-1.956,8.718,1.488,9.569,4.678-1.488,38.487-1.276,43.378,0,13.184,0,13.184.638,2.552-12.333,2.977-15.31-1.063-19.563-4.04c0,0,0-3.4,3.827-24.028s9.177-23.471,10.878-26.448Z" transform="translate(-35.391 -19.605)" fill="#fff"/>
                <path id="Trazado_874148" data-name="Trazado 874148" d="M254.782,133.2s.1-1.531,5.631-1.956,8.718,1.488,9.569,4.678-1.488,38.487-1.276,43.378,0,13.184,0,13.184.638,2.552-12.333,2.977-15.31-1.063-19.563-4.04c0,0,0-3.4,3.827-24.028s9.177-23.471,10.878-26.448Z" transform="translate(-35.391 -19.605)" fill="none" stroke="#263238" stroke-linecap="round" stroke-linejoin="round" stroke-width="1"/>
                <path id="Trazado_874149" data-name="Trazado 874149" d="M269.012,81.428a19.277,19.277,0,0,0-14.345.591c-7.839,3.4-6.212,11.388-6.508,13.606s-2.514,4.141-1.922,7.395,1.922,12.275,5.176,13.162a10.789,10.789,0,0,0,6.211-.3s-.591,8.874-2.513,12.719-4.437,9.613-4.437,9.613,8.578,1.478,11.684,1.331a16.31,16.31,0,0,0,5.176-1.036s1.331-18.782,1.479-22.331.3-7.395,1.627-7.838,5.472-3.254,6.8-8.726-1.922-16.12-8.43-18.191" transform="translate(-36.785 -12.006)" fill="#fff"/>
                <path id="Trazado_874150" data-name="Trazado 874150" d="M269.012,81.428a19.277,19.277,0,0,0-14.345.591c-7.839,3.4-6.212,11.388-6.508,13.606s-2.514,4.141-1.922,7.395,1.922,12.275,5.176,13.162a10.789,10.789,0,0,0,6.211-.3s-.591,8.874-2.513,12.719-4.437,9.613-4.437,9.613,8.578,1.478,11.684,1.331a16.31,16.31,0,0,0,5.176-1.036s1.331-18.782,1.479-22.331.3-7.395,1.627-7.838,5.472-3.254,6.8-8.726S275.519,83.5,269.012,81.428Z" transform="translate(-36.785 -12.006)" fill="none" stroke="#263238" stroke-linecap="round" stroke-linejoin="round" stroke-width="1"/>
                <path id="Trazado_874151" data-name="Trazado 874151" d="M255.349,103.616s.739,1.331-1.035,2.366-3.106.887-1.922,1.774a5.944,5.944,0,0,0,1.774,1.036" transform="translate(-37.652 -15.485)" fill="none" stroke="#263238" stroke-linecap="round" stroke-linejoin="round" stroke-width="1"/>
                <path id="Trazado_874152" data-name="Trazado 874152" d="M252.861,112.832s2.662,2.218,6.064-.739" transform="translate(-37.79 -16.752)" fill="none" stroke="#263238" stroke-linecap="round" stroke-linejoin="round" stroke-width="1"/>
                <path id="Trazado_874153" data-name="Trazado 874153" d="M261.243,103.96c0,.694-.4,1.257-.887,1.257s-.887-.563-.887-1.257.4-1.257.887-1.257.887.563.887,1.257" transform="translate(-38.777 -15.349)" fill="#263238"/>
                <path id="Trazado_874154" data-name="Trazado 874154" d="M253.245,102.569c0,.694-.4,1.257-.887,1.257s-.888-.563-.888-1.257.4-1.257.888-1.257.887.563.887,1.257" transform="translate(-37.582 -15.141)" fill="#263238"/>
                <path id="Trazado_874155" data-name="Trazado 874155" d="M260.338,98.955s1.774-1.774,3.7,1.035" transform="translate(-38.907 -14.706)" fill="none" stroke="#263238" stroke-linecap="round" stroke-linejoin="round" stroke-width="1"/>
                <path id="Trazado_874156" data-name="Trazado 874156" d="M250.6,97.526s2.958-2.218,4.14.887" transform="translate(-37.452 -14.46)" fill="none" stroke="#263238" stroke-linecap="round" stroke-linejoin="round" stroke-width="1"/>
                <path id="Trazado_874157" data-name="Trazado 874157" d="M261.017,103.147a7.317,7.317,0,0,0-2.07-.444" transform="translate(-38.699 -15.349)" fill="none" stroke="#263238" stroke-linecap="round" stroke-linejoin="round" stroke-width="1"/>
                <path id="Trazado_874158" data-name="Trazado 874158" d="M253.019,101.756a7.317,7.317,0,0,0-2.07-.444" transform="translate(-37.504 -15.141)" fill="none" stroke="#263238" stroke-linecap="round" stroke-linejoin="round" stroke-width="1"/>
                <path id="Trazado_874159" data-name="Trazado 874159" d="M269.809,81.428a16.9,16.9,0,0,0-18.339,3.48c.938-.647,6.36-2.641,12.454.8,3.026,1.71,4.258,5.182,4.406,7.7s2.662,3.105,2.514,4.584-.739,2.81.887,3.4,1.183,1.035.444,3.993c-.248.993-.609,2.018-.788,2.983a.529.529,0,0,1,.049-.025c1.33-.444,5.472-3.254,6.8-8.726s-1.923-16.12-8.43-18.191" transform="translate(-37.582 -12.006)" fill="#263238"/>
                <path id="Trazado_874160" data-name="Trazado 874160" d="M269.809,81.428a16.9,16.9,0,0,0-18.339,3.48c.938-.647,6.36-2.641,12.454.8,3.026,1.71,4.258,5.182,4.406,7.7s2.662,3.105,2.514,4.584-.739,2.81.887,3.4,1.183,1.035.444,3.993c-.248.993-.609,2.018-.788,2.983a.529.529,0,0,1,.049-.025c1.33-.444,5.472-3.254,6.8-8.726S276.315,83.5,269.809,81.428Z" transform="translate(-37.582 -12.006)" fill="none" stroke="#263238" stroke-linecap="round" stroke-linejoin="round" stroke-width="1"/>
                <path id="Trazado_874161" data-name="Trazado 874161" d="M273.466,105.8s2.218-3.549,4.14-2.81.888,6.36-2.366,7.839-2.957.444-3.253-1.183" transform="translate(-40.648 -15.376)" fill="#fff"/>
                <path id="Trazado_874162" data-name="Trazado 874162" d="M273.466,105.8s2.218-3.549,4.14-2.81.888,6.36-2.366,7.839-2.957.444-3.253-1.183" transform="translate(-40.648 -15.376)" fill="none" stroke="#263238" stroke-linecap="round" stroke-linejoin="round" stroke-width="1"/>
                <path id="Trazado_874163" data-name="Trazado 874163" d="M259.642,121.587a32.739,32.739,0,0,0,5.916-3.105" transform="translate(-38.803 -17.707)" fill="none" stroke="#263238" stroke-linecap="round" stroke-linejoin="round" stroke-width="1"/>
                <path id="Trazado_874164" data-name="Trazado 874164" d="M293.892,192.755a38.821,38.821,0,0,0,1.183,10.8c1.479,5.62,3.845,15.085,3.845,16.268s-2.218,2.367-3.4,3.4-.888,3.549-.74,4.584,3.106,2.514,3.106,2.514,2.809,1.478,3.253.591,2.957-3.105,3.253-4.584a83.083,83.083,0,0,0,.3-8.726c0-1.774,1.035-21.148-1.775-27.656l-9.021,1.035Z" transform="translate(-43.918 -28.387)" fill="#fff"/>
                <path id="Trazado_874165" data-name="Trazado 874165" d="M293.892,192.755a38.821,38.821,0,0,0,1.183,10.8c1.479,5.62,3.845,15.085,3.845,16.268s-2.218,2.367-3.4,3.4-.888,3.549-.74,4.584,3.106,2.514,3.106,2.514,2.809,1.478,3.253.591,2.957-3.105,3.253-4.584a83.083,83.083,0,0,0,.3-8.726c0-1.774,1.035-21.148-1.775-27.656l-9.021,1.035Z" transform="translate(-43.918 -28.387)" fill="none" stroke="#263238" stroke-linecap="round" stroke-linejoin="round" stroke-width="1"/>
                <path id="Trazado_874166" data-name="Trazado 874166" d="M262.982,138.074a80.294,80.294,0,0,1,1.922,10.648c.444,4.88-1.478,31.945-1.922,43.184a159.744,159.744,0,0,1-1.774,18.93,64.814,64.814,0,0,0,11.831,1.183c6.211,0,14.049-2.218,14.049-2.218s-6.212-20.557-6.212-27.064,1.775-22.332,1.775-22.332l3.105,19.079a16.942,16.942,0,0,0,6.508.147,24.185,24.185,0,0,0,6.507-1.922,36.134,36.134,0,0,0,1.331-10.8c0-6.951-3.993-16.712-5.62-21.888s.3-6.951-4.88-8.578-14.789-5.324-15.825-5.62c0,0-4.88,6.656-6.951,7.691a3.7,3.7,0,0,1-3.845-.444" transform="translate(-39.037 -19.552)" fill="#ffea96"/>
                <path id="Trazado_874167" data-name="Trazado 874167" d="M262.982,138.074a80.294,80.294,0,0,1,1.922,10.648c.444,4.88-1.478,31.945-1.922,43.184a159.744,159.744,0,0,1-1.774,18.93,64.814,64.814,0,0,0,11.831,1.183c6.211,0,14.049-2.218,14.049-2.218s-6.212-20.557-6.212-27.064,1.775-22.332,1.775-22.332l3.105,19.079a16.942,16.942,0,0,0,6.508.147,24.185,24.185,0,0,0,6.507-1.922,36.134,36.134,0,0,0,1.331-10.8c0-6.951-3.993-16.712-5.62-21.888s.3-6.951-4.88-8.578-14.789-5.324-15.825-5.62c0,0-4.88,6.656-6.951,7.691A3.7,3.7,0,0,1,262.982,138.074Z" transform="translate(-39.037 -19.552)" fill="none" stroke="#263238" stroke-linecap="round" stroke-linejoin="round" stroke-width="1"/>
                <path id="Trazado_874168" data-name="Trazado 874168" d="M282.728,156.465l2.854,7.771-4.764-3.953" transform="translate(-41.968 -23.384)" fill="none" stroke="#263238" stroke-linecap="round" stroke-linejoin="round" stroke-width="1"/>
                <path id="Trazado_874169" data-name="Trazado 874169" d="M294.717,139.505s-7.213,5.091-8.91,11.032" transform="translate(-42.714 -20.849)" fill="none" stroke="#263238" stroke-linecap="round" stroke-linejoin="round" stroke-width="1"/>
                <path id="Trazado_874170" data-name="Trazado 874170" d="M263.294,137.164s5.472,8.874,5.324,9.317,7.986-17.155,7.986-17.155l-4.141-4.585Z" transform="translate(-39.349 -18.642)" fill="#fff"/>
                <path id="Trazado_874171" data-name="Trazado 874171" d="M263.294,137.164s5.472,8.874,5.324,9.317,7.986-17.155,7.986-17.155l-4.141-4.585Z" transform="translate(-39.349 -18.642)" fill="none" stroke="#263238" stroke-linecap="round" stroke-linejoin="round" stroke-width="1"/>
                <path id="Trazado_874172" data-name="Trazado 874172" d="M224.639,174.645c-.887,1.922-2.958,4.732-2.07,5.472s3.845,3.4,5.62,4.88a14.78,14.78,0,0,0,3.689,2.216,77.5,77.5,0,0,0,1.192-9.462l-6.655-3.549s-.888-1.478-1.775.444" transform="translate(-33.23 -25.953)" fill="#fff"/>
                <path id="Trazado_874173" data-name="Trazado 874173" d="M224.639,174.645c-.887,1.922-2.958,4.732-2.07,5.472s3.845,3.4,5.62,4.88a14.78,14.78,0,0,0,3.689,2.216,77.5,77.5,0,0,0,1.192-9.462l-6.655-3.549S225.526,172.722,224.639,174.645Z" transform="translate(-33.23 -25.953)" fill="none" stroke="#263238" stroke-linecap="round" stroke-linejoin="round" stroke-width="1"/>
                <path id="Trazado_874174" data-name="Trazado 874174" d="M290.009,184.965s-1.479-.148-1.331.739.444,4.585.887,5.324,2.514.739,3.549.739,9.909,0,10.5-1.478.147-6.064-.3-6.8-13.31,1.479-13.31,1.479" transform="translate(-43.141 -27.399)" fill="#fff"/>
                <path id="Trazado_874175" data-name="Trazado 874175" d="M290.009,184.965s-1.479-.148-1.331.739.444,4.585.887,5.324,2.514.739,3.549.739,9.909,0,10.5-1.478.147-6.064-.3-6.8S290.009,184.965,290.009,184.965Z" transform="translate(-43.141 -27.399)" fill="none" stroke="#263238" stroke-linecap="round" stroke-linejoin="round" stroke-width="1"/>
                <line id="Línea_3299" data-name="Línea 3299" y1="0.887" x2="1.183" transform="translate(253.375 200.306)" fill="none" stroke="#263238" stroke-linecap="round" stroke-linejoin="round" stroke-width="1"/>
                <path id="Trazado_874176" data-name="Trazado 874176" d="M297.547,234.11a5.483,5.483,0,0,1,2.514,2.218" transform="translate(-44.468 -34.987)" fill="none" stroke="#263238" stroke-linecap="round" stroke-linejoin="round" stroke-width="1"/>
                <path id="Trazado_874177" data-name="Trazado 874177" d="M166.7,175.259l-3.127,5.919a1.086,1.086,0,0,0,.506,1.494L182.6,191.2a1.085,1.085,0,0,0,1.442-.537l2.8-6.155a1.086,1.086,0,0,0-.538-1.437l-18.2-8.295a1.086,1.086,0,0,0-1.41.481" transform="translate(-24.427 -26.106)" fill="#263238"/>
                <path id="Trazado_874178" data-name="Trazado 874178" d="M166.7,175.259l-3.127,5.919a1.086,1.086,0,0,0,.506,1.494L182.6,191.2a1.085,1.085,0,0,0,1.442-.537l2.8-6.155a1.086,1.086,0,0,0-.538-1.437l-18.2-8.295A1.086,1.086,0,0,0,166.7,175.259Z" transform="translate(-24.427 -26.106)" fill="none" stroke="#263238" stroke-linecap="round" stroke-linejoin="round" stroke-width="1"/>
                <path id="Trazado_874179" data-name="Trazado 874179" d="M194.959,185.831s-2.957-5.472-4.14-6.064-3.7-.739-4.585-.148a12.53,12.53,0,0,1-5.472,1.775c-1.922,0-1.922.3-1.183,1.035a3.4,3.4,0,0,0,2.957,1.479c1.775,0,4.289-.3,4.289-.3s1.479,5.028,4.288,5.028" transform="translate(-26.769 -26.788)" fill="#fff"/>
                <path id="Trazado_874180" data-name="Trazado 874180" d="M194.959,185.831s-2.957-5.472-4.14-6.064-3.7-.739-4.585-.148a12.53,12.53,0,0,1-5.472,1.775c-1.922,0-1.922.3-1.183,1.035a3.4,3.4,0,0,0,2.957,1.479c1.775,0,4.289-.3,4.289-.3s1.479,5.028,4.288,5.028" transform="translate(-26.769 -26.788)" fill="none" stroke="#263238" stroke-linecap="round" stroke-linejoin="round" stroke-width="1"/>
                <path id="Trazado_874181" data-name="Trazado 874181" d="M289.81,267.451l2.977,41.464,31.045-3.615-8.718-39.551Z" transform="translate(-43.312 -39.716)" fill="#ffea96"/>
                <path id="Trazado_874182" data-name="Trazado 874182" d="M289.81,267.451l2.977,41.464,31.045-3.615-8.718-39.551Z" transform="translate(-43.312 -39.716)" fill="none" stroke="#263238" stroke-linecap="round" stroke-linejoin="round" stroke-width="1"/>
                <path id="Trazado_874183" data-name="Trazado 874183" d="M289.025,267.75l-4.465,39.338L292,309.214Z" transform="translate(-42.527 -40.015)" fill="#ffea96"/>
                <path id="Trazado_874184" data-name="Trazado 874184" d="M289.025,267.75l-4.465,39.338L292,309.214Z" transform="translate(-42.527 -40.015)" fill="none" stroke="#263238" stroke-linecap="round" stroke-linejoin="round" stroke-width="1"/>
                <line id="Línea_3300" data-name="Línea 3300" y1="27.429" x2="8.061" transform="translate(246.498 200.305)" fill="none" stroke="#263238" stroke-linecap="round" stroke-linejoin="round" stroke-width="1"/>
                <line id="Línea_3301" data-name="Línea 3301" x2="12.758" y2="25.729" transform="translate(259.044 200.305)" fill="none" stroke="#263238" stroke-linecap="round" stroke-linejoin="round" stroke-width="1"/>
                <path id="Trazado_874185" data-name="Trazado 874185" d="M193.513,152.727a12.227,12.227,0,1,0-15.26,11.832l2.927,5.073,2.791-4.983a12.223,12.223,0,0,0,9.542-11.921" transform="translate(-25.266 -20.998)" fill="#263238"/>
                <path id="Trazado_874186" data-name="Trazado 874186" d="M193.513,152.727a12.227,12.227,0,1,0-15.26,11.832l2.927,5.073,2.791-4.983A12.223,12.223,0,0,0,193.513,152.727Z" transform="translate(-25.266 -20.998)" fill="none" stroke="#263238" stroke-linecap="round" stroke-linejoin="round" stroke-width="1"/>
                <path id="Trazado_874187" data-name="Trazado 874187" d="M183.695,159.747v2.019h-1.8V159.8a8.547,8.547,0,0,1-4.489-1.442l.992-2.2a7.3,7.3,0,0,0,3.5,1.28v-3.011c-2-.487-4.237-1.153-4.237-3.731,0-1.91,1.388-3.551,4.237-3.876v-2h1.8v1.965a8.152,8.152,0,0,1,3.66,1.1l-.9,2.217a7.367,7.367,0,0,0-2.758-.937v3.065c2,.469,4.2,1.136,4.2,3.678,0,1.875-1.37,3.5-4.2,3.839m-1.8-7.968v-2.56c-.956.217-1.335.739-1.335,1.335,0,.63.541.973,1.335,1.226m3.1,4.345c0-.631-.522-.974-1.3-1.244v2.487c.9-.2,1.3-.667,1.3-1.243" transform="translate(-26.513 -21.643)" fill="#ffea96"/>
              </g>
            </g>
          </g>
        </g>
      </g>
    </g>
  </g>
</svg>
