<svg xmlns="http://www.w3.org/2000/svg" xmlns:xlink="http://www.w3.org/1999/xlink" width="400" height="271" viewBox="0 0 400 271">
  <defs>
    <clipPath id="clip-path">
      <rect id="Rectángulo_401656" data-name="Rectángulo 401656" width="347.568" height="258.396" fill="none"/>
    </clipPath>
    <clipPath id="clip-path-3">
      <rect id="Rectángulo_401632" data-name="Rectángulo 401632" width="345.975" height="199.177" fill="none"/>
    </clipPath>
    <clipPath id="clip-path-5">
      <rect id="Rectángulo_401636" data-name="Rectángulo 401636" width="123.499" height="78.479" fill="none"/>
    </clipPath>
    <clipPath id="clip-path-8">
      <rect id="Rectángulo_401639" data-name="Rectángulo 401639" width="50.475" height="27.75" fill="none"/>
    </clipPath>
    <clipPath id="clip-path-10">
      <rect id="Rectángulo_401641" data-name="Rectángulo 401641" width="16.148" height="16.148" fill="none"/>
    </clipPath>
    <clipPath id="clip-path-12">
      <rect id="Rectángulo_401649" data-name="Rectángulo 401649" width="33.192" height="36.212" fill="none"/>
    </clipPath>
    <clipPath id="clip-path-14">
      <rect id="Rectángulo_401651" data-name="Rectángulo 401651" width="18.831" height="49.661" fill="none"/>
    </clipPath>
  </defs>
  <g id="Grupo_1100164" data-name="Grupo 1100164" transform="translate(-1020 -2491)">
    <g id="Grupo_1100163" data-name="Grupo 1100163" transform="translate(1046 2497)">
      <g id="Grupo_1100162" data-name="Grupo 1100162" clip-path="url(#clip-path)">
        <g id="Grupo_1100130" data-name="Grupo 1100130">
          <g id="Grupo_1100129" data-name="Grupo 1100129" clip-path="url(#clip-path)">
            <path id="Trazado_873871" data-name="Trazado 873871" d="M2.079,199.138c.055-.133,342.82-2.676,342.616,0-.166,2.176,23.278-87.291-51.648-82.926,0,0,16.766-35.893-8.038-57.253-26.189-22.55-59.612-3.124-59.612-3.124S195.5-18.28,127.849,4.27c-77.3,25.765-56.425,114.175-56.425,114.175S.985,112.606,2.079,199.138" transform="translate(-0.474 0)" fill="#ffea96"/>
            <g id="Grupo_1100128" data-name="Grupo 1100128" transform="translate(1.593)" opacity="0.6">
              <g id="Grupo_1100127" data-name="Grupo 1100127">
                <g id="Grupo_1100126" data-name="Grupo 1100126" clip-path="url(#clip-path-3)">
                  <path id="Trazado_873872" data-name="Trazado 873872" d="M2.079,199.138c.055-.133,342.82-2.676,342.616,0-.166,2.176,23.278-87.291-51.648-82.926,0,0,16.766-35.893-8.038-57.253-26.189-22.55-59.612-3.124-59.612-3.124S195.5-18.28,127.849,4.27c-77.3,25.765-56.425,114.175-56.425,114.175S.985,112.606,2.079,199.138" transform="translate(-2.067 0)" fill="#fff"/>
                </g>
              </g>
            </g>
          </g>
        </g>
        <g id="Grupo_1100135" data-name="Grupo 1100135">
          <g id="Grupo_1100134" data-name="Grupo 1100134" clip-path="url(#clip-path)">
            <g id="Grupo_1100133" data-name="Grupo 1100133" transform="translate(22.185 67.498)" style="isolation: isolate">
              <g id="Grupo_1100132" data-name="Grupo 1100132">
                <g id="Grupo_1100131" data-name="Grupo 1100131" clip-path="url(#clip-path-5)">
                  <rect id="Rectángulo_401634" data-name="Rectángulo 401634" width="122.729" height="77.708" transform="translate(0.385 0.385)" fill="#fff"/>
                  <rect id="Rectángulo_401635" data-name="Rectángulo 401635" width="122.729" height="77.708" transform="translate(0.385 0.385)" fill="none" stroke="#263238" stroke-miterlimit="10" stroke-width="1"/>
                </g>
              </g>
            </g>
          </g>
        </g>
        <path id="Trazado_873873" data-name="Trazado 873873" d="M67.03,74.362l-2.379-6.813H26.193v99.212h127.5v-92.4Zm84.281,86.744H28.582V83.387H151.311Z" transform="translate(-6.012 -15.504)" fill="#ffea96"/>
        <path id="Trazado_873874" data-name="Trazado 873874" d="M67.03,74.362l-2.379-6.813H26.193v99.212h127.5v-92.4Zm84.281,86.744H28.582V83.387H151.311Z" transform="translate(-6.012 -15.504)" fill="none" stroke="#263238" stroke-linecap="round" stroke-linejoin="round" stroke-width="1"/>
        <path id="Trazado_873875" data-name="Trazado 873875" d="M32.6,78.951l-1.763,1.69L32.664,82.6" transform="translate(-7.078 -18.121)" fill="#ffea96"/>
        <path id="Trazado_873876" data-name="Trazado 873876" d="M32.6,78.951l-1.763,1.69L32.664,82.6" transform="translate(-7.078 -18.121)" fill="none" stroke="#263238" stroke-linecap="round" stroke-linejoin="round" stroke-width="1"/>
        <path id="Trazado_873877" data-name="Trazado 873877" d="M30.838,81.145h0Z" transform="translate(-7.078 -18.624)" fill="#ffea96"/>
        <line id="Línea_3223" data-name="Línea 3223" x2="3.912" transform="translate(23.76 62.521)" fill="none" stroke="#263238" stroke-linecap="round" stroke-linejoin="round" stroke-width="1"/>
        <path id="Trazado_873878" data-name="Trazado 873878" d="M46.04,78.951l1.764,1.69L45.978,82.6" transform="translate(-10.553 -18.121)" fill="#ffea96"/>
        <path id="Trazado_873879" data-name="Trazado 873879" d="M46.04,78.951l1.764,1.69L45.978,82.6" transform="translate(-10.553 -18.121)" fill="none" stroke="#263238" stroke-linecap="round" stroke-linejoin="round" stroke-width="1"/>
        <path id="Trazado_873880" data-name="Trazado 873880" d="M43.269,81.145h0Z" transform="translate(-9.931 -18.624)" fill="#ffea96"/>
        <line id="Línea_3224" data-name="Línea 3224" x1="3.913" transform="translate(33.338 62.521)" fill="none" stroke="#263238" stroke-linecap="round" stroke-linejoin="round" stroke-width="1"/>
        <g id="Grupo_1100137" data-name="Grupo 1100137">
          <g id="Grupo_1100136" data-name="Grupo 1100136" clip-path="url(#clip-path)">
            <path id="Trazado_873881" data-name="Trazado 873881" d="M58.186,80.42a1.92,1.92,0,0,0-1.805-1.387,1.763,1.763,0,1,0,1.116,3.13" transform="translate(-12.536 -18.14)" fill="#ffea96"/>
            <path id="Trazado_873882" data-name="Trazado 873882" d="M58.186,80.42a1.92,1.92,0,0,0-1.805-1.387,1.763,1.763,0,1,0,1.116,3.13" transform="translate(-12.536 -18.14)" fill="none" stroke="#263238" stroke-linecap="round" stroke-linejoin="round" stroke-width="1"/>
            <path id="Trazado_873883" data-name="Trazado 873883" d="M57.7,80.623h1.378V79.005" transform="translate(-13.244 -18.133)" fill="#ffea96"/>
            <path id="Trazado_873884" data-name="Trazado 873884" d="M57.7,80.623h1.378V79.005" transform="translate(-13.244 -18.133)" fill="none" stroke="#263238" stroke-linecap="round" stroke-linejoin="round" stroke-width="1"/>
            <line id="Línea_3225" data-name="Línea 3225" x2="2.472" y2="2.546" transform="translate(54.382 55.572)" fill="#ffea96"/>
            <line id="Línea_3226" data-name="Línea 3226" x2="2.472" y2="2.546" transform="translate(54.382 55.572)" fill="none" stroke="#263238" stroke-linecap="round" stroke-linejoin="round" stroke-width="1"/>
            <line id="Línea_3227" data-name="Línea 3227" x1="2.556" y2="2.462" transform="translate(54.34 55.614)" fill="#ffea96"/>
            <line id="Línea_3228" data-name="Línea 3228" x1="2.556" y2="2.462" transform="translate(54.34 55.614)" fill="none" stroke="#263238" stroke-linecap="round" stroke-linejoin="round" stroke-width="1"/>
          </g>
        </g>
        <path id="Trazado_873885" data-name="Trazado 873885" d="M128.648,249.34l-18.923-36.925L55,242.093l19.012,34.86Z" transform="translate(-12.625 -48.753)" fill="#fff"/>
        <path id="Trazado_873886" data-name="Trazado 873886" d="M105.768,225.26,94.814,252.645l-39.52-7.564,36.695,3.439L104.307,224.9Z" transform="translate(-12.691 -51.618)" fill="#ffea96"/>
        <g id="Grupo_1100142" data-name="Grupo 1100142">
          <g id="Grupo_1100141" data-name="Grupo 1100141" clip-path="url(#clip-path)">
            <g id="Grupo_1100140" data-name="Grupo 1100140" transform="translate(42.602 173.277)" opacity="0.5">
              <g id="Grupo_1100139" data-name="Grupo 1100139">
                <g id="Grupo_1100138" data-name="Grupo 1100138" clip-path="url(#clip-path-8)">
                  <path id="Trazado_873887" data-name="Trazado 873887" d="M105.768,225.26,94.814,252.645l-39.52-7.564,36.695,3.439L104.307,224.9Z" transform="translate(-55.293 -224.895)" fill="#fff"/>
                </g>
              </g>
            </g>
          </g>
        </g>
        <path id="Trazado_873888" data-name="Trazado 873888" d="M55.254,242.041l18.821,34.983,54.631-27.614L109.547,212.72Z" transform="translate(-12.682 -48.823)" fill="none" stroke="#263238" stroke-linecap="round" stroke-linejoin="round" stroke-width="1"/>
        <path id="Trazado_873889" data-name="Trazado 873889" d="M55.254,242.041l36.726,3.684,17.568-33.005" transform="translate(-12.682 -48.823)" fill="none" stroke="#263238" stroke-linecap="round" stroke-linejoin="round" stroke-width="1"/>
        <g id="Grupo_1100147" data-name="Grupo 1100147">
          <g id="Grupo_1100146" data-name="Grupo 1100146" clip-path="url(#clip-path)">
            <path id="Trazado_873890" data-name="Trazado 873890" d="M128.9,212.275a8.074,8.074,0,1,1-8.074-8.074,8.074,8.074,0,0,1,8.074,8.074" transform="translate(-25.878 -46.868)" fill="#ffea96"/>
            <g id="Grupo_1100145" data-name="Grupo 1100145" transform="translate(86.872 157.332)" opacity="0.3">
              <g id="Grupo_1100144" data-name="Grupo 1100144">
                <g id="Grupo_1100143" data-name="Grupo 1100143" clip-path="url(#clip-path-10)">
                  <path id="Trazado_873891" data-name="Trazado 873891" d="M128.9,212.275a8.074,8.074,0,1,1-8.074-8.074,8.074,8.074,0,0,1,8.074,8.074" transform="translate(-112.75 -204.2)"/>
                </g>
              </g>
            </g>
            <path id="Trazado_873892" data-name="Trazado 873892" d="M128.9,212.6a8.074,8.074,0,1,1-8.074-8.074A8.074,8.074,0,0,1,128.9,212.6Z" transform="translate(-25.878 -46.942)" fill="none" stroke="#263238" stroke-linecap="round" stroke-linejoin="round" stroke-width="1"/>
            <path id="Trazado_873893" data-name="Trazado 873893" d="M128.9,209.673a8.074,8.074,0,1,1-8.074-8.074,8.074,8.074,0,0,1,8.074,8.074" transform="translate(-25.878 -46.271)" fill="#ffea96"/>
            <path id="Trazado_873894" data-name="Trazado 873894" d="M128.9,209.673a8.074,8.074,0,1,1-8.074-8.074A8.074,8.074,0,0,1,128.9,209.673Z" transform="translate(-25.878 -46.271)" fill="none" stroke="#263238" stroke-linecap="round" stroke-linejoin="round" stroke-width="1"/>
            <path id="Trazado_873895" data-name="Trazado 873895" d="M276.677,176.184H238.02a2.312,2.312,0,0,1-2.311-2.311V152.353a2.312,2.312,0,0,1,2.311-2.311h38.657a2.311,2.311,0,0,1,2.311,2.311v21.519a2.311,2.311,0,0,1-2.311,2.311" transform="translate(-54.1 -34.438)" fill="#fff"/>
            <rect id="Rectángulo_401642" data-name="Rectángulo 401642" width="43.279" height="26.142" rx="3" transform="translate(181.609 115.605)" fill="none" stroke="#263238" stroke-linecap="round" stroke-linejoin="round" stroke-width="1"/>
            <rect id="Rectángulo_401643" data-name="Rectángulo 401643" width="37.774" height="1.767" transform="translate(184.462 119.576)" fill="#ffea96"/>
            <rect id="Rectángulo_401644" data-name="Rectángulo 401644" width="37.774" height="1.767" transform="translate(184.462 123.653)" fill="#ffea96"/>
            <rect id="Rectángulo_401645" data-name="Rectángulo 401645" width="37.774" height="1.767" transform="translate(184.462 127.729)" fill="#ffea96"/>
            <rect id="Rectángulo_401646" data-name="Rectángulo 401646" width="37.774" height="1.767" transform="translate(184.462 131.805)" fill="#ffea96"/>
            <rect id="Rectángulo_401647" data-name="Rectángulo 401647" width="37.774" height="1.767" transform="translate(184.462 135.882)" fill="#ffea96"/>
            <path id="Trazado_873896" data-name="Trazado 873896" d="M179.355,177.615a75.856,75.856,0,0,0-16.892,12.264C150.919,201.394,145.214,217.3,137,231.368a127.89,127.89,0,0,1-32.866,37.148c-13.657,10.4-29.841,18.122-46.988,19.357S21.9,283.192,10.717,270.184-3.22,236.825,6.222,222.516c7.78-11.79,23.2-18.017,37.029-14.95,5.408,1.2,10.442,3.647,15.417,6.074l7.682,3.748" transform="translate(-0.115 -40.766)" fill="none" stroke="#263238" stroke-linecap="round" stroke-linejoin="round" stroke-width="1" stroke-dasharray="2 5"/>
            <path id="Trazado_873897" data-name="Trazado 873897" d="M263.094,79.779c7.734-3.675,16.9-4.728,24.962-1.851S302.8,87.9,304.188,96.353c1.2,7.29-1.525,14.815-5.96,20.721a55.554,55.554,0,0,1-11.993,11.305" transform="translate(-60.385 -17.507)" fill="none" stroke="#263238" stroke-linecap="round" stroke-linejoin="round" stroke-width="1" stroke-dasharray="2 5"/>
          </g>
        </g>
        <g id="Grupo_1100152" data-name="Grupo 1100152">
          <g id="Grupo_1100151" data-name="Grupo 1100151" clip-path="url(#clip-path)">
            <path id="Trazado_873898" data-name="Trazado 873898" d="M204.647,121.91l6.744-4.22,16.92-20.617L242,108.565l-17.537,19.78-2.532-1.781-14.353,3.013s-1.441-5.647-2.935-7.668" transform="translate(-46.971 -22.28)" fill="#fff"/>
            <path id="Trazado_873899" data-name="Trazado 873899" d="M73.559,123.847l-6.811,5.4,1.84,3.815s.346,4.929,3.188,6.459,10.371-3.34,10.371-3.34.778-5.185-1.845-9.012Z" transform="translate(-15.32 -28.425)" fill="#fff"/>
            <path id="Trazado_873900" data-name="Trazado 873900" d="M165.735,45.881s-11.658,22.54-18.524,24.094l-2.72.907s-2.455,7.767-10.814,9.065l1.1-6.474L128.7,79.477s-9.8-8.975-7.465-21.152l8.574.563,3.822-7.167a5.194,5.194,0,0,1-2.48-5.452c.777-3.627,1.554-6.994,5.311-4.016,0,0,8.161,4.145,14.767-1.683s8.42-6.606,11.917-4.534c0,0-.906,8.031,2.591,9.844" transform="translate(-27.743 -8.032)" fill="#fff"/>
            <path id="Trazado_873901" data-name="Trazado 873901" d="M106.744,86.109s-9.03-5.972-7.59-20.733A103.291,103.291,0,0,0,72.26,64.242L25.22,105.549a10.916,10.916,0,0,0,8.316,7.56c6.742,1.327,23.351,2.393,23.351,2.393l6.484-5.672-14.715-6.059L71.515,90.21,71.53,112.9s2.571,7.623,1.085,9.515L62.7,132.431s16.675,30.8,54.139,11.338L112.85,122.4s6.256-1.633,2.629-5.047l6.041-9.9s6.368,23.023,12.047,28.944l32.225-14.186s-.855-5.527-2.583-7.748l-22.689,5.165s.374-20.453-1.107-27.117-4.348-13.263-10.526-17.761c0,0-4.1,2.885-6.076,1.9,0,0-3.565,9.954-11.088,9.924l1.2-6.963L107.54,85.4Z" transform="translate(-5.788 -14.663)" fill="#ffea96"/>
            <path id="Trazado_873902" data-name="Trazado 873902" d="M165.64,36.95a7.837,7.837,0,0,0-4.915,2.117c-1.388,1.18-2.537,2.613-3.855,3.87a20.681,20.681,0,0,1-13.9,5.651,17.714,17.714,0,0,1-3.545,8.6,3.25,3.25,0,0,0-1.019,2.349,2.937,2.937,0,0,0,.546,1.113l2.316,3.4a2.237,2.237,0,0,1,.475,1.059c.05.725-.585,1.294-1.161,1.737l-4.935,3.805s-3.348-8.218-3.181-11.893l3.822-7.166s-7.252-8.494-1.525-11.424,9.322.8,9.322.8,13.717-6.658,17.845-6.525,3.709,2.5,3.709,2.5" transform="translate(-30.402 -7.905)" fill="#ffea96"/>
            <g id="Grupo_1100150" data-name="Grupo 1100150" transform="translate(102.058 26.538)" opacity="0.6">
              <g id="Grupo_1100149" data-name="Grupo 1100149">
                <g id="Grupo_1100148" data-name="Grupo 1100148" clip-path="url(#clip-path-12)">
                  <path id="Trazado_873903" data-name="Trazado 873903" d="M165.64,36.95a7.837,7.837,0,0,0-4.915,2.117c-1.388,1.18-2.537,2.613-3.855,3.87a20.681,20.681,0,0,1-13.9,5.651,17.714,17.714,0,0,1-3.545,8.6,3.25,3.25,0,0,0-1.019,2.349,2.937,2.937,0,0,0,.546,1.113l2.316,3.4a2.237,2.237,0,0,1,.475,1.059c.05.725-.585,1.294-1.161,1.737l-4.935,3.805s-3.348-8.218-3.181-11.893l3.822-7.166s-7.252-8.494-1.525-11.424,9.322.8,9.322.8,13.717-6.658,17.845-6.525,3.709,2.5,3.709,2.5" transform="translate(-132.46 -34.443)" fill="#fff"/>
                </g>
              </g>
            </g>
            <path id="Trazado_873904" data-name="Trazado 873904" d="M169.861,47.162s-7.646,19.115-17.886,25.531c0,0-.683.683-2.867,0s-6.964-6.144-8.738-8.874a10.231,10.231,0,0,1-1.2-4.862" transform="translate(-31.942 -10.825)" fill="none" stroke="#263238" stroke-linecap="round" stroke-linejoin="round" stroke-width="1"/>
            <path id="Trazado_873905" data-name="Trazado 873905" d="M154.549,65.237a5.351,5.351,0,0,0,3.823,3.277" transform="translate(-35.472 -14.973)" fill="none" stroke="#263238" stroke-linecap="round" stroke-linejoin="round" stroke-width="1"/>
            <path id="Trazado_873906" data-name="Trazado 873906" d="M166.459,49.332a4.736,4.736,0,0,0-4.488-1.608" transform="translate(-37.176 -10.934)" fill="none" stroke="#263238" stroke-linecap="round" stroke-linejoin="round" stroke-width="1"/>
            <path id="Trazado_873907" data-name="Trazado 873907" d="M172.207,52.3a2.937,2.937,0,0,1,3.267.951" transform="translate(-39.525 -11.966)" fill="none" stroke="#263238" stroke-linecap="round" stroke-linejoin="round" stroke-width="1"/>
            <path id="Trazado_873908" data-name="Trazado 873908" d="M168.683,54.725a6.953,6.953,0,0,0-1.844,3.008,4.917,4.917,0,0,0,.259,3.479,5.831,5.831,0,0,1,.634,1.376,1.049,1.049,0,0,1-.6,1.244,1.357,1.357,0,0,1-.678-.046,11.846,11.846,0,0,1-3.825-1.732" transform="translate(-37.327 -12.56)" fill="none" stroke="#263238" stroke-linecap="round" stroke-linejoin="round" stroke-width="1"/>
            <path id="Trazado_873909" data-name="Trazado 873909" d="M140.442,47.686a15.165,15.165,0,0,0-.682-2.232c-.358-.912-.958-1.9-1.932-2.019a1.936,1.936,0,0,0-1.024.189,3.5,3.5,0,0,0-1.814,2.425,7.6,7.6,0,0,0,.064,3.113,18.937,18.937,0,0,0,.676,2.576,4.226,4.226,0,0,0,1.109,1.918,2.362,2.362,0,0,0,3.9-1.812" transform="translate(-30.952 -9.967)" fill="none" stroke="#263238" stroke-linecap="round" stroke-linejoin="round" stroke-width="1"/>
            <path id="Trazado_873910" data-name="Trazado 873910" d="M135.8,56.326a28.721,28.721,0,0,1-3.37,7.477" transform="translate(-30.395 -12.928)" fill="none" stroke="#263238" stroke-linecap="round" stroke-linejoin="round" stroke-width="1"/>
            <path id="Trazado_873911" data-name="Trazado 873911" d="M66.32,129.188l2.169,3.8s.136,5.289,2.847,6.373S82.048,136.1,82.048,136.1a14.407,14.407,0,0,0-1.2-8.726,76.708,76.708,0,0,0-8.042-3.86" transform="translate(-15.222 -28.35)" fill="none" stroke="#263238" stroke-linecap="round" stroke-linejoin="round" stroke-width="1"/>
            <line id="Línea_3229" data-name="Línea 3229" x1="2.034" y1="7.864" transform="translate(60.86 101.516)" fill="none" stroke="#263238" stroke-linecap="round" stroke-linejoin="round" stroke-width="1"/>
            <line id="Línea_3230" data-name="Línea 3230" x1="2.533" y1="7.918" transform="translate(56.657 102.737)" fill="none" stroke="#263238" stroke-linecap="round" stroke-linejoin="round" stroke-width="1"/>
            <line id="Línea_3231" data-name="Línea 3231" y1="16.497" x2="28.443" transform="translate(42.722 72.5)" fill="none" stroke="#263238" stroke-linecap="round" stroke-linejoin="round" stroke-width="1"/>
            <path id="Trazado_873912" data-name="Trazado 873912" d="M85.731,97.959c2.713-.1,4.433-.206,7.146-.3" transform="translate(-19.677 -22.414)" fill="none" stroke="#263238" stroke-linecap="round" stroke-linejoin="round" stroke-width="1"/>
            <line id="Línea_3232" data-name="Línea 3232" y2="23.316" transform="translate(65.866 75.715)" fill="none" stroke="#263238" stroke-linecap="round" stroke-linejoin="round" stroke-width="1"/>
            <path id="Trazado_873913" data-name="Trazado 873913" d="M159.064,77.77s6.812,2.2,11.146,16.972a246.257,246.257,0,0,1,1.057,28.311" transform="translate(-36.508 -17.85)" fill="none" stroke="#263238" stroke-linecap="round" stroke-linejoin="round" stroke-width="1"/>
            <path id="Trazado_873914" data-name="Trazado 873914" d="M214.617,123.141s8.1.287,7.9,1.665-6.92,2.667-6.92,2.667a1.733,1.733,0,0,1,.1.323s1.63,3.011-.738,4.4" transform="translate(-49.259 -28.263)" fill="none" stroke="#263238" stroke-linecap="round" stroke-linejoin="round" stroke-width="1"/>
            <path id="Trazado_873915" data-name="Trazado 873915" d="M205,123.09a70.929,70.929,0,0,0-7.481,4.874l-23.428,5.986" transform="translate(-39.957 -28.252)" fill="none" stroke="#263238" stroke-linecap="round" stroke-linejoin="round" stroke-width="1"/>
            <path id="Trazado_873916" data-name="Trazado 873916" d="M116.018,138.516s6.922,2.769,16.059-2.492" transform="translate(-26.628 -31.22)" fill="none" stroke="#263238" stroke-linecap="round" stroke-linejoin="round" stroke-width="1"/>
            <path id="Trazado_873917" data-name="Trazado 873917" d="M162.835,54.886c-.356,1-1.036,1.662-1.519,1.489s-.586-1.12-.229-2.115,1.036-1.662,1.519-1.489.585,1.12.229,2.115" transform="translate(-36.924 -12.106)" fill="#263238"/>
            <path id="Trazado_873918" data-name="Trazado 873918" d="M171.822,57.039c-.357,1-1.036,1.662-1.519,1.489s-.585-1.12-.228-2.115,1.036-1.662,1.519-1.489.585,1.12.229,2.115" transform="translate(-38.987 -12.6)" fill="#263238"/>
            <path id="Trazado_873919" data-name="Trazado 873919" d="M120.362,182.864q1.977-.095,4.076-.336" transform="translate(-27.625 -41.894)" fill="none" stroke="#263238" stroke-linecap="round" stroke-linejoin="round" stroke-width="1"/>
            <path id="Trazado_873920" data-name="Trazado 873920" d="M75.668,166.134s9.475,12.39,30.15,13.008" transform="translate(-17.367 -38.131)" fill="none" stroke="#263238" stroke-linecap="round" stroke-linejoin="round" stroke-width="1"/>
            <path id="Trazado_873921" data-name="Trazado 873921" d="M217.953,121.138l8.509,7.152L244,108.51l-13.53-11.68L213.34,117.241" transform="translate(-48.966 -22.224)" fill="none" stroke="#263238" stroke-linecap="round" stroke-linejoin="round" stroke-width="1"/>
            <path id="Trazado_873922" data-name="Trazado 873922" d="M230.469,96.83l-1.8,16.045L213.34,117.24" transform="translate(-48.966 -22.224)" fill="none" stroke="#263238" stroke-linecap="round" stroke-linejoin="round" stroke-width="1"/>
            <path id="Trazado_873923" data-name="Trazado 873923" d="M138.312,39.426s10.024,2.557,16.953-3.566,9.025-2.74,9.025-2.74-1.773,5.963,2.256,8.7l9.714-8.9s-5.2-5.608-11.648-4.641c0,0-4.849-10.378-13.044-11.076-9.653-.822-32.042,7.8-19.1,35.738l2.334-5.485s-2.416-7.506.556-9.868c2.183-1.735,2.956,1.831,2.956,1.831" transform="translate(-29.503 -3.938)" fill="#263238"/>
            <path id="Trazado_873924" data-name="Trazado 873924" d="M174.867,34.229c.384.15,1.767-.349,2.29-.336a8.207,8.207,0,0,1,2.9.656A16.8,16.8,0,0,1,185.71,38.8c3.216,3.6,6.206,8.381,11.531,8.717,4.743.3,8.207-3.312,12.729-3.857,9.414-1.133,16.357,8.44,15.166,17.109-2.677,19.5-32.292,31.336-54.483,27.267-.751-.138-.085-12.432-10.885-20.167,0,0,13.919-16.418,14.836-24.909.915-8.468.265-8.734.261-8.736" transform="translate(-36.67 -7.779)" fill="#263238"/>
            <path id="Trazado_873925" data-name="Trazado 873925" d="M173.369,28.691s.945-6.347-5.942-12.019" transform="translate(-38.428 -3.827)" fill="none" stroke="#263238" stroke-linecap="round" stroke-linejoin="round" stroke-width="1"/>
            <path id="Trazado_873926" data-name="Trazado 873926" d="M129.817,65.77s-.159,4.752,5.068,14.1l-6.177,6.494s-10.136-7.286-7.286-21.382Z" transform="translate(-27.753 -14.914)" fill="none" stroke="#263238" stroke-linecap="round" stroke-linejoin="round" stroke-width="1"/>
            <path id="Trazado_873927" data-name="Trazado 873927" d="M148.723,79.627c-4.45,10.861-11.23,10.046-11.23,10.046l1.2-6.963s4.581-2.54,6.681-5.312c.075-.1-.088.1-.035.042" transform="translate(-31.557 -17.758)" fill="none" stroke="#263238" stroke-linecap="round" stroke-linejoin="round" stroke-width="1"/>
            <line id="Línea_3233" data-name="Línea 3233" x1="2.318" y1="8.117" transform="translate(63.694 100.314)" fill="none" stroke="#263238" stroke-linecap="round" stroke-linejoin="round" stroke-width="1"/>
            <path id="Trazado_873928" data-name="Trazado 873928" d="M139.091,106.259l-12.448,20.822s1.319,1.312.866,2.67-3.563,2.406-3.563,2.406,4.044,21.282,4.054,21.338c.25,1.315-11.038,4.743-12.149,5.044-9.04,2.452-18.529,2.21-26.957-2.361a41.62,41.62,0,0,1-15.034-14.023l9.1-9.336" transform="translate(-16.953 -24.389)" fill="none" stroke="#263238" stroke-linecap="round" stroke-linejoin="round" stroke-width="1"/>
            <path id="Trazado_873929" data-name="Trazado 873929" d="M150.344,120.317s1.954,11.724,11.942,29.039l32.393-14.339,14.435-3.291" transform="translate(-34.507 -27.615)" fill="none" stroke="#263238" stroke-linecap="round" stroke-linejoin="round" stroke-width="1"/>
            <path id="Trazado_873930" data-name="Trazado 873930" d="M173.421,136.531a9.559,9.559,0,0,0-5.795,8.144" transform="translate(-38.473 -31.337)" fill="none" stroke="#263238" stroke-linecap="round" stroke-linejoin="round" stroke-width="1"/>
            <path id="Trazado_873931" data-name="Trazado 873931" d="M164.857,139.24a20.856,20.856,0,0,1,5.2-2.929" transform="translate(-37.838 -31.286)" fill="none" stroke="#263238" stroke-linecap="round" stroke-linejoin="round" stroke-width="1"/>
            <path id="Trazado_873932" data-name="Trazado 873932" d="M207.108,137.1c.532-1.6-2.613-7.689-2.613-7.689" transform="translate(-46.936 -29.704)" fill="none" stroke="#263238" stroke-linecap="round" stroke-linejoin="round" stroke-width="1"/>
            <path id="Trazado_873933" data-name="Trazado 873933" d="M99.473,65.042c-9.092-.98-23.854-2.316-26.722-1.022-4.2,1.9-31.683,27.478-31.683,27.478L25.22,105.456c.253,5.04,8.317,7.56,8.317,7.56l23.35,2.393,7.141-5.417s-20.16-8.82-27.72-9.576" transform="translate(-5.788 -14.571)" fill="none" stroke="#263238" stroke-linecap="round" stroke-linejoin="round" stroke-width="1"/>
            <path id="Trazado_873934" data-name="Trazado 873934" d="M45.561,107.182s6.615,2,7.618,6.415" transform="translate(-10.457 -24.6)" fill="none" stroke="#263238" stroke-linecap="round" stroke-linejoin="round" stroke-width="1"/>
            <path id="Trazado_873935" data-name="Trazado 873935" d="M175.082,57.849c1.9,3.03,3.992,6.054,6.938,8.08a17.981,17.981,0,0,0,12.375,2.662A31.686,31.686,0,0,0,206.437,64.1c2.507-1.485,4.92-3.2,7.678-4.144s6.018-1,8.381.708" transform="translate(-40.185 -13.277)" fill="none" stroke="#fff" stroke-linecap="round" stroke-linejoin="round" stroke-width="0.5"/>
            <path id="Trazado_873936" data-name="Trazado 873936" d="M169,68.4c.125,4.384.5,8.985,2.895,12.659a16.764,16.764,0,0,0,9.707,6.6,23.293,23.293,0,0,0,13.046-.209c3.48-1.083,6.647-2.967,9.958-4.494s6.931-2.721,10.55-2.279" transform="translate(-38.788 -15.699)" fill="none" stroke="#fff" stroke-linecap="round" stroke-linejoin="round" stroke-width="0.5"/>
          </g>
        </g>
        <path id="Trazado_873937" data-name="Trazado 873937" d="M224.822,226.7l.632-6.9,5.757-3.123L222.5,200.491l-24.559,12.822,8.589,16.115,5.308-2.622,10.456,5.483Z" transform="translate(-45.43 -46.017)" fill="#fff"/>
        <g id="Grupo_1100157" data-name="Grupo 1100157">
          <g id="Grupo_1100156" data-name="Grupo 1100156" clip-path="url(#clip-path)">
            <path id="Trazado_873938" data-name="Trazado 873938" d="M333.625,139.024s-7.977,18.612-8.7,24.9-.363,9.428,2.659,11.6,8.519,2.284,8.519,2.284l-.526,3.315a4.635,4.635,0,0,0-3.885,2.378,8.26,8.26,0,0,0-1.666,4.2s2.116,8.329,3.825,8.471,3.524-5.7,3.524-5.7,1.522,8.338,3,8.055,15.01-9.347,15.01-9.347,1.212-6.288-1.751-9.549c0,0-.787-6.233.059-9.134,0,0,5.848.738,6.164-5.247.281-5.332-2.538-7.615-4.231-5.439l-3.988-10.032,1.571-7.131Z" transform="translate(-74.503 -31.909)" fill="#fff"/>
            <path id="Trazado_873939" data-name="Trazado 873939" d="M336.458,140.888l.619,1.083s-9.739,16.076-9.275,26.587,15.457,7.729,15.457,7.729-.927,13.138-6.492,12.366l-1.391-3.247.4-7.334s-5.809.533-9.364-3.022-1.855-11.13,1.391-21.486,5.783-14.539,5.783-14.539Z" transform="translate(-74.463 -31.909)" fill="#ffea96"/>
            <g id="Grupo_1100155" data-name="Grupo 1100155" transform="translate(249.965 107.115)" opacity="0.6">
              <g id="Grupo_1100154" data-name="Grupo 1100154">
                <g id="Grupo_1100153" data-name="Grupo 1100153" clip-path="url(#clip-path-14)">
                  <path id="Trazado_873940" data-name="Trazado 873940" d="M336.458,140.888l.619,1.083s-9.739,16.076-9.275,26.587,15.457,7.729,15.457,7.729-.927,13.138-6.492,12.366l-1.391-3.247.4-7.334s-5.809.533-9.364-3.022-1.855-11.13,1.391-21.486,5.783-14.539,5.783-14.539Z" transform="translate(-324.428 -139.024)" fill="#fff"/>
                </g>
              </g>
            </g>
            <path id="Trazado_873941" data-name="Trazado 873941" d="M361.793,228.254A34.488,34.488,0,0,1,358.557,238a43.187,43.187,0,0,1-6.033,9.015l1.348,12.7,3.228,18.915c-.007.008-.023.015-.03.023a1.8,1.8,0,0,0-.147.108c-.193.146-.539.4-1.032.747H308.076c-1.256-2.912-2.65-6.21-3.961-9.454-2.388-5.925-4.5-11.657-4.977-14.531a7.741,7.741,0,0,1-.1-.986l-8.113-8.105L264.15,261.007,229.633,231.8l.053-.1,3.506-7.011.015-.039,34.332,16.388,7.112-9.831.1-.324.007-.038,2.034-6.657.023-.069,1.271-4.161,1.626-5.324,10.163-4.846.03-.015,18.322-8.737.023.092c.092.316.378,1.341.787,2.581.092.3.184.6.293.9.069.223.146.447.23.663a23.919,23.919,0,0,0,1.234,2.9c.077.146.161.285.239.408a4.546,4.546,0,0,0,.362.516c.007.015.023.023.03.039a.832.832,0,0,0,.625.362c.863-.069,1.9-1.949,2.634-3.529a1.187,1.187,0,0,1,.062-.146c.416-.932.724-1.734.809-1.957.015-.039.023-.062.023-.062a.677.677,0,0,1,.015.092c.116.732.979,5.779,2.219,7.435.039.054.086.108.123.162a.939.939,0,0,0,.633.362h.015c.6,0,2.489-1.148,4.746-2.674.008,0,.015-.008.023-.015,4.168-2.82,9.57-6.942,10.364-7.543.069-.062.1-.085.1-.085a15.136,15.136,0,0,0,0-4.438s.047.015.131.046l22.306,8.622c0,.008,0,.008.007.008l.647.247s3.244,3.976,4.923,13.792a25.234,25.234,0,0,1-.038,8.437" transform="translate(-52.705 -45.239)" fill="#ffea96"/>
            <path id="Trazado_873942" data-name="Trazado 873942" d="M297.352,221.928l2.065-11.663-24.72-6.64-4.268,17.9,9.849,3.083,4.455,9.024,6.76,4.648,7.422-6.919.632-5.524Z" transform="translate(-62.069 -46.736)" fill="#fff"/>
            <path id="Trazado_873943" data-name="Trazado 873943" d="M225.481,219.774l5.741-2.847-8.652-16.568L198.053,213.6l8.5,15.8,11.548-5.909" transform="translate(-45.457 -45.986)" fill="none" stroke="#263238" stroke-linecap="round" stroke-linejoin="round" stroke-width="1"/>
            <path id="Trazado_873944" data-name="Trazado 873944" d="M198.053,213.6l16.585,1.663,7.933-14.9" transform="translate(-45.457 -45.986)" fill="none" stroke="#263238" stroke-linecap="round" stroke-linejoin="round" stroke-width="1"/>
            <path id="Trazado_873945" data-name="Trazado 873945" d="M293.432,228.14l2.64.763,3.428-18.945-24.8-6.472-4.275,18.005,9.52,2.751" transform="translate(-62.069 -46.704)" fill="none" stroke="#263238" stroke-linecap="round" stroke-linejoin="round" stroke-width="1"/>
            <path id="Trazado_873946" data-name="Trazado 873946" d="M276.144,203.486l9.844,12.306,14.824-5.834" transform="translate(-63.381 -46.704)" fill="none" stroke="#263238" stroke-linecap="round" stroke-linejoin="round" stroke-width="1"/>
            <path id="Trazado_873947" data-name="Trazado 873947" d="M334.6,135.755s-9.709,21.991-10.362,30.924c-.65,8.881,7.681,10.255,7.78,10.271a18.116,18.116,0,0,0,9.949-1.007c2.489-1.07,4.476-3.051,6.548-4.751" transform="translate(-74.41 -31.158)" fill="none" stroke="#263238" stroke-linecap="round" stroke-linejoin="round" stroke-width="1"/>
            <path id="Trazado_873948" data-name="Trazado 873948" d="M334.262,164.423l-3.922-2.179,4.575-9.8" transform="translate(-75.82 -34.988)" fill="none" stroke="#263238" stroke-linecap="round" stroke-linejoin="round" stroke-width="1"/>
            <path id="Trazado_873949" data-name="Trazado 873949" d="M341.723,157.631c-.287.869-.145,1.7.319,1.851s1.072-.427,1.359-1.3.144-1.7-.319-1.851-1.072.427-1.359,1.3" transform="translate(-78.398 -35.876)" fill="#263238"/>
            <path id="Trazado_873950" data-name="Trazado 873950" d="M331.99,153.982c-.287.869-.144,1.7.319,1.851s1.072-.427,1.359-1.3.145-1.7-.319-1.851-1.072.427-1.359,1.3" transform="translate(-76.164 -35.039)" fill="#263238"/>
            <path id="Trazado_873951" data-name="Trazado 873951" d="M340.77,170.53a6.241,6.241,0,0,1-5.624,2.109" transform="translate(-76.923 -39.14)" fill="none" stroke="#263238" stroke-linecap="round" stroke-linejoin="round" stroke-width="1"/>
            <path id="Trazado_873952" data-name="Trazado 873952" d="M342.272,151.774a2.348,2.348,0,0,1,2.788.5,6.86,6.86,0,0,1,1.447,2.665" transform="translate(-78.558 -34.772)" fill="none" stroke="#263238" stroke-linecap="round" stroke-linejoin="round" stroke-width="2"/>
            <path id="Trazado_873953" data-name="Trazado 873953" d="M335.758,149.914a1.753,1.753,0,0,0-3.15-.348" transform="translate(-76.34 -34.137)" fill="none" stroke="#263238" stroke-linecap="round" stroke-linejoin="round" stroke-width="2"/>
            <path id="Trazado_873954" data-name="Trazado 873954" d="M361.725,170.727s2.6-4.248,5.309-3.3,1.415,4.838.118,7.315-4.6,2.6-6.489,1.534" transform="translate(-82.779 -38.396)" fill="none" stroke="#263238" stroke-linecap="round" stroke-linejoin="round" stroke-width="1"/>
            <path id="Trazado_873955" data-name="Trazado 873955" d="M361.424,163.181s2.578-4.35-.161-5.8-6.111,3.459-6.111,3.459c-.085.063-.347,0-.693-.126a2.486,2.486,0,0,1-1.415-3.3c.112-.273.21-.543.294-.8a7.088,7.088,0,0,0,.277-3.475c-.448-2.355-2.124-4.275-1.855-6.8a16.26,16.26,0,0,1,1.748-5.639c-14.011,2.8-22.418-5.138-20.549-11.676s6.3-.7,16.112-4.437,16.846,12.2,16.846,12.2c9.808,6.772.435,16.293.435,16.293l-5.007,10.369Z" transform="translate(-76.361 -28.466)" fill="#263238"/>
            <path id="Trazado_873956" data-name="Trazado 873956" d="M389.092,261.423c.362,12.366,4.607,31.967,4.607,31.967s-.023.015-.031.023a1.775,1.775,0,0,0-.146.108c-.354.254-.709.5-1.063.747" transform="translate(-89.304 -60.002)" fill="none" stroke="#263238" stroke-linecap="round" stroke-linejoin="round" stroke-width="1"/>
            <path id="Trazado_873957" data-name="Trazado 873957" d="M328.458,296.614c-1.249-2.943-2.466-6.118-3.668-9.454-1.757-4.885-3.459-10.124-5.077-15.517" transform="translate(-73.38 -62.347)" fill="none" stroke="#263238" stroke-linecap="round" stroke-linejoin="round" stroke-width="1"/>
            <path id="Trazado_873958" data-name="Trazado 873958" d="M364.856,197.1s19.928,7.081,22.961,8.963" transform="translate(-83.742 -45.239)" fill="none" stroke="#263238" stroke-linecap="round" stroke-linejoin="round" stroke-width="1"/>
            <path id="Trazado_873959" data-name="Trazado 873959" d="M340.983,201.156c-1.562-1.149-2.445-4.089-2.09-6.259l.489-5.081" transform="translate(-77.765 -43.567)" fill="none" stroke="#263238" stroke-linecap="round" stroke-linejoin="round" stroke-width="1"/>
            <path id="Trazado_873960" data-name="Trazado 873960" d="M362.251,179.588s-1,3.349-.18,9.354" transform="translate(-83.028 -41.219)" fill="none" stroke="#263238" stroke-linecap="round" stroke-linejoin="round" stroke-width="1"/>
            <path id="Trazado_873961" data-name="Trazado 873961" d="M340.935,257.328l-35.42-24.9-7.748,6.918s31.546,35.142,44,40.677c0,0,24.844-26.78,32.869-40.063,0,0,8.11-13.269-2.08-31.223" transform="translate(-68.343 -47.908)" fill="none" stroke="#263238" stroke-linecap="round" stroke-linejoin="round" stroke-width="1"/>
            <line id="Línea_3234" data-name="Línea 3234" y1="25.225" x2="19.022" transform="translate(268.335 181.272)" fill="none" stroke="#263238" stroke-linecap="round" stroke-linejoin="round" stroke-width="1"/>
            <line id="Línea_3235" data-name="Línea 3235" x2="11.899" y2="0.553" transform="translate(268.926 206.897)" fill="none" stroke="#263238" stroke-linecap="round" stroke-linejoin="round" stroke-width="1"/>
            <path id="Trazado_873962" data-name="Trazado 873962" d="M375.4,138.726s1.544-6.175-2.315-10.934" transform="translate(-85.63 -29.331)" fill="none" stroke="#263238" stroke-linecap="round" stroke-miterlimit="10" stroke-width="1"/>
            <path id="Trazado_873963" data-name="Trazado 873963" d="M274.635,239.368l-7.267,10.095-34.569-16.8-3.231,7.108,34.569,29.4,26.661-14.7" transform="translate(-52.69 -53.401)" fill="none" stroke="#263238" stroke-linecap="round" stroke-linejoin="round" stroke-width="1"/>
            <line id="Línea_3236" data-name="Línea 3236" y1="9.138" x2="18.351" transform="translate(237.171 155.793)" fill="none" stroke="#263238" stroke-linecap="round" stroke-linejoin="round" stroke-width="1"/>
            <path id="Trazado_873964" data-name="Trazado 873964" d="M230.587,228.818l.992-9.263-3.716-6.9s.533-4.874-.533-4.846S226.32,219.7,226.32,219.7s-3.144,2.219-1.984,7.085" transform="translate(-51.431 -47.698)" fill="none" stroke="#263238" stroke-linecap="round" stroke-linejoin="round" stroke-width="1"/>
            <line id="Línea_3237" data-name="Línea 3237" x2="9.897" y2="5.728" transform="translate(166.981 180.642)" fill="none" stroke="#263238" stroke-linecap="round" stroke-linejoin="round" stroke-width="1"/>
            <path id="Trazado_873965" data-name="Trazado 873965" d="M305.6,227.687l1.867,3.27-.36,5.819" transform="translate(-70.14 -52.259)" fill="none" stroke="#263238" stroke-linecap="round" stroke-linejoin="round" stroke-width="1"/>
            <path id="Trazado_873966" data-name="Trazado 873966" d="M297.023,233.228c0-.5-10.53-11.862-10.53-11.862l-1.206.952,4.322,8.45-3.624-6.356-1.015,1.205.947,4.647-1.264-3.378-1.713.888,4.664,9.93,6.644,4.287" transform="translate(-64.94 -50.808)" fill="none" stroke="#263238" stroke-linecap="round" stroke-linejoin="round" stroke-width="1"/>
            <path id="Trazado_873967" data-name="Trazado 873967" d="M357.536,191.729s-8.253,6.526-15.91,9.471c0,0,.736,8.836,2.65,9.425.709.217,1.79-.516,2.366-.828a45.908,45.908,0,0,0,3.944-2.482c2.618-1.786,5.163-3.681,7.676-5.612.489-.376,1.227-.734,1.263-1.393.167-3.094.346-6.15-1.955-8.548Z" transform="translate(-78.41 -44.006)" fill="none" stroke="#263238" stroke-linecap="round" stroke-linejoin="round" stroke-width="1"/>
            <path id="Trazado_873968" data-name="Trazado 873968" d="M339.31,201.7s-2.1,7.32-3.869,7.068-3.906-8.946-3.906-8.946,2.016-6.93,5.8-5.8" transform="translate(-76.094 -44.504)" fill="none" stroke="#263238" stroke-linecap="round" stroke-linejoin="round" stroke-width="1"/>
            <path id="Trazado_873969" data-name="Trazado 873969" d="M278.785,254.133a34.347,34.347,0,0,1,.036,7.891" transform="translate(-63.987 -58.329)" fill="none" stroke="#263238" stroke-linecap="round" stroke-linejoin="round" stroke-width="1"/>
            <line id="Línea_3238" data-name="Línea 3238" x2="2.934" y2="9.552" transform="translate(240.353 179.178)" fill="none" stroke="#263238" stroke-linecap="round" stroke-linejoin="round" stroke-width="1"/>
            <path id="Trazado_873970" data-name="Trazado 873970" d="M370.014,224.836a26.109,26.109,0,0,0-2.969,13.893" transform="translate(-84.231 -51.604)" fill="none" stroke="#263238" stroke-linecap="round" stroke-linejoin="round" stroke-width="1"/>
            <path id="Trazado_873971" data-name="Trazado 873971" d="M364.286,231.918a30.807,30.807,0,0,0,.287,8.433" transform="translate(-83.573 -53.23)" fill="none" stroke="#263238" stroke-linecap="round" stroke-linejoin="round" stroke-width="1"/>
            <path id="Trazado_873972" data-name="Trazado 873972" d="M280.376,255.555a13.328,13.328,0,0,1,1.527,4.873" transform="translate(-64.352 -58.655)" fill="none" stroke="#263238" stroke-linecap="round" stroke-linejoin="round" stroke-width="1"/>
            <path id="Trazado_873973" data-name="Trazado 873973" d="M336,131.932a5.224,5.224,0,0,0,2.12,3.106,12.113,12.113,0,0,0,3.467,1.633,36.382,36.382,0,0,0,11.155,1.8,9.077,9.077,0,0,1,2.467.207,2.635,2.635,0,0,1,1.828,1.54" transform="translate(-77.118 -30.281)" fill="none" stroke="#fff" stroke-linecap="round" stroke-linejoin="round" stroke-width="0.5"/>
            <path id="Trazado_873974" data-name="Trazado 873974" d="M339.7,128.049c.5,2.1,2.669,3.434,4.8,3.739a23,23,0,0,0,6.425-.484c2.135-.3,4.425-.389,6.326.627s3.172,3.48,2.208,5.409" transform="translate(-77.968 -29.39)" fill="none" stroke="#fff" stroke-linecap="round" stroke-linejoin="round" stroke-width="0.5"/>
          </g>
        </g>
        <path id="Trazado_873975" data-name="Trazado 873975" d="M311.953,304.053h90.192" transform="translate(-71.599 -69.786)" fill="none" stroke="#263238" stroke-linecap="round" stroke-linejoin="round" stroke-width="1"/>
        <line id="Línea_3239" data-name="Línea 3239" x2="27.235" transform="translate(206.126 234.265)" fill="none" stroke="#263238" stroke-linecap="round" stroke-linejoin="round" stroke-width="1"/>
        <path id="Trazado_873976" data-name="Trazado 873976" d="M324.256,317.976h-50.6L254.335,328.41h53.024Z" transform="translate(-58.375 -72.982)" fill="none" stroke="#263238" stroke-linecap="round" stroke-linejoin="round" stroke-width="1"/>
        <line id="Línea_3240" data-name="Línea 3240" x2="37.368" transform="translate(218.586 247.72)" fill="none" stroke="#263238" stroke-linecap="round" stroke-linejoin="round" stroke-width="1"/>
        <line id="Línea_3241" data-name="Línea 3241" x2="36.325" transform="translate(215.861 249.666)" fill="none" stroke="#263238" stroke-linecap="round" stroke-linejoin="round" stroke-width="1"/>
        <line id="Línea_3242" data-name="Línea 3242" x2="35.266" transform="translate(213.135 251.613)" fill="none" stroke="#263238" stroke-linecap="round" stroke-linejoin="round" stroke-width="1"/>
        <line id="Línea_3243" data-name="Línea 3243" x1="10.7" y2="5.255" transform="translate(245.448 247.72)" fill="none" stroke="#263238" stroke-linecap="round" stroke-linejoin="round" stroke-width="1"/>
        <line id="Línea_3244" data-name="Línea 3244" x1="10.7" y2="5.255" transform="translate(239.609 247.72)" fill="none" stroke="#263238" stroke-linecap="round" stroke-linejoin="round" stroke-width="1"/>
        <path id="Trazado_873977" data-name="Trazado 873977" d="M242.579,284.274H295.61l9.052,36.4H251.636Z" transform="translate(-55.677 -65.246)" fill="#263238"/>
        <g id="Grupo_1100159" data-name="Grupo 1100159">
          <g id="Grupo_1100158" data-name="Grupo 1100158" clip-path="url(#clip-path)">
            <rect id="Rectángulo_401653" data-name="Rectángulo 401653" width="53.499" height="2.589" transform="translate(195.485 255.422)" fill="none" stroke="#263238" stroke-linecap="round" stroke-linejoin="round" stroke-width="1"/>
          </g>
        </g>
        <path id="Trazado_873978" data-name="Trazado 873978" d="M241.821,284.274h53.031l9.052,36.4H250.872Z" transform="translate(-55.503 -65.246)" fill="#fff"/>
        <path id="Trazado_873979" data-name="Trazado 873979" d="M241.821,284.274h53.031l9.052,36.4H250.872Z" transform="translate(-55.503 -65.246)" fill="none" stroke="#263238" stroke-linecap="round" stroke-linejoin="round" stroke-width="1"/>
        <path id="Trazado_873980" data-name="Trazado 873980" d="M323.155,328.391l.193,2.92,17.06-11.45.015-1.967Z" transform="translate(-74.17 -72.963)" fill="#263238"/>
        <g id="Grupo_1100161" data-name="Grupo 1100161">
          <g id="Grupo_1100160" data-name="Grupo 1100160" clip-path="url(#clip-path)">
            <path id="Trazado_873981" data-name="Trazado 873981" d="M283.419,305.748a2.835,2.835,0,1,1-3.51-2.317A2.979,2.979,0,0,1,283.419,305.748Z" transform="translate(-63.756 -69.63)" fill="none" stroke="#263238" stroke-linecap="round" stroke-linejoin="round" stroke-width="1"/>
          </g>
        </g>
      </g>
    </g>
    <rect id="Rectángulo_401657" data-name="Rectángulo 401657" width="400" height="271" transform="translate(1020 2491)" fill="none"/>
  </g>
</svg>
