<svg xmlns="http://www.w3.org/2000/svg" xmlns:xlink="http://www.w3.org/1999/xlink" width="295" height="380" viewBox="0 0 295 380">
  <defs>
    <clipPath id="clip-path">
      <rect id="Rectángulo_401688" data-name="Rectángulo 401688" width="283.864" height="376.431" fill="none"/>
    </clipPath>
    <clipPath id="clip-path-5">
      <rect id="Rectángulo_401684" data-name="Rectángulo 401684" width="50.039" height="31.684" fill="none"/>
    </clipPath>
    <clipPath id="clip-path-6">
      <rect id="Rectángulo_401685" data-name="Rectángulo 401685" width="38.501" height="40.877" fill="none"/>
    </clipPath>
    <clipPath id="clip-path-7">
      <rect id="Rectángulo_401686" data-name="Rectángulo 401686" width="33.118" height="35.368" fill="none"/>
    </clipPath>
  </defs>
  <g id="Grupo_1100243" data-name="Grupo 1100243" transform="translate(-1020 -5987)">
    <circle id="Elipse_11566" data-name="Elipse 11566" cx="116.5" cy="116.5" r="116.5" transform="translate(1082 5987)" fill="#ffecda"/>
    <g id="Grupo_1100221" data-name="Grupo 1100221">
      <rect id="Rectángulo_401218" data-name="Rectángulo 401218" width="295" height="380" transform="translate(1020 5987)" fill="none"/>
      <g id="Grupo_1100220" data-name="Grupo 1100220" transform="translate(1026 5989)">
        <g id="Grupo_1100219" data-name="Grupo 1100219" clip-path="url(#clip-path)">
          <g id="Grupo_1100205" data-name="Grupo 1100205">
            <g id="Grupo_1100204" data-name="Grupo 1100204" clip-path="url(#clip-path)">
              <path id="Trazado_874188" data-name="Trazado 874188" d="M274.336,326.9a36.333,36.333,0,0,0-16.886-10.884c-4.545-1.28-11.435-2.446-18.449-.735a24.91,24.91,0,0,0-11.34,6.1,33.071,33.071,0,0,0-8.516,14.5,3.524,3.524,0,0,0,2.416,4.437l11.917,3.355a3.543,3.543,0,0,0,4.183-1.972c1.58-3.588,5.569-9.256,14.531-6.9a11.251,11.251,0,0,1,8.538,9.874,12.619,12.619,0,0,1-4.064,10.668c-4.643,4.335-10.7,3.494-13.9,2.606a6.942,6.942,0,0,0-8.535,4.774l-3.61,12.823a3.532,3.532,0,0,0,2.441,4.352l11.61,3.268a3.532,3.532,0,0,0,4.352-2.44l.758-2.694a.156.156,0,0,1,.143-.114,34.965,34.965,0,0,0,14.493-4.25c7.5-4.178,12.593-10.864,15.128-19.871,3.628-12.891-.831-21.741-5.21-26.9" transform="translate(-23.572 -33.845)" fill="#ffc78f"/>
              <path id="Trazado_874189" data-name="Trazado 874189" d="M239.37,393.349l-1.016-.286a9.148,9.148,0,1,0-4.958,17.612l1.016.286a9.148,9.148,0,1,0,4.958-17.612" transform="translate(-24.406 -42.274)" fill="#ffc78f"/>
              <path id="Trazado_874190" data-name="Trazado 874190" d="M306.695,248.551a18.635,18.635,0,0,0-10.081-2.118,19.011,19.011,0,0,0-8.969,3.03,12.768,12.768,0,0,0-4.313,5,16.964,16.964,0,0,0-1.422,8.5,1.808,1.808,0,0,0,1.97,1.683l6.321-.577a1.818,1.818,0,0,0,1.643-1.711c.1-2.008.971-5.453,5.693-5.967a5.77,5.77,0,0,1,5.9,3.164,6.47,6.47,0,0,1,.009,5.853c-1.429,2.927-4.485,3.634-6.179,3.8a3.558,3.558,0,0,0-3.212,3.85l.621,6.8a1.811,1.811,0,0,0,1.966,1.637l6.159-.562a1.811,1.811,0,0,0,1.637-1.966l-.13-1.43a.081.081,0,0,1,.048-.08,17.948,17.948,0,0,0,6.161-4.691,16.15,16.15,0,0,0,3.6-12.288c-.625-6.838-4.382-10.259-7.424-11.925" transform="translate(-30.341 -26.521)" fill="#ffc78f"/>
              <path id="Trazado_874191" data-name="Trazado 874191" d="M301.814,287.3l-.539.049a4.691,4.691,0,0,0,.853,9.343l.539-.049a4.691,4.691,0,0,0-.853-9.343" transform="translate(-31.971 -30.924)" fill="#ffc78f"/>
              <path id="Trazado_874192" data-name="Trazado 874192" d="M140.388,221.407a18.635,18.635,0,0,0-10.081-2.118,19.011,19.011,0,0,0-8.969,3.03,12.768,12.768,0,0,0-4.313,5,16.964,16.964,0,0,0-1.422,8.5,1.808,1.808,0,0,0,1.97,1.683l6.321-.577a1.818,1.818,0,0,0,1.643-1.711c.1-2.009.971-5.453,5.694-5.967a5.77,5.77,0,0,1,5.9,3.164,6.47,6.47,0,0,1,.009,5.853c-1.429,2.927-4.485,3.634-6.179,3.8a3.558,3.558,0,0,0-3.212,3.85l.621,6.8a1.811,1.811,0,0,0,1.966,1.637l6.159-.562a1.811,1.811,0,0,0,1.637-1.966l-.13-1.43a.081.081,0,0,1,.048-.08,17.949,17.949,0,0,0,6.161-4.691,16.15,16.15,0,0,0,3.6-12.288c-.625-6.838-4.381-10.259-7.424-11.925" transform="translate(-12.439 -23.599)" fill="#ffc78f"/>
              <path id="Trazado_874193" data-name="Trazado 874193" d="M135.507,260.156l-.539.05a4.691,4.691,0,0,0,.853,9.343l.539-.05a4.691,4.691,0,1,0-.853-9.343" transform="translate(-14.069 -28.002)" fill="#f5f5f5"/>
              <path id="Trazado_874194" data-name="Trazado 874194" d="M23.208,85.554a15.543,15.543,0,0,0-7.606-4,15.859,15.859,0,0,0-7.888.385,10.657,10.657,0,0,0-4.6,3.029,14.138,14.138,0,0,0-3.08,6.5,1.507,1.507,0,0,0,1.2,1.8l5.2.978a1.515,1.515,0,0,0,1.707-1,4.891,4.891,0,0,1,5.93-3.489,4.81,4.81,0,0,1,4.011,3.884,5.4,5.4,0,0,1-1.328,4.7,6.167,6.167,0,0,1-5.824,1.637,2.968,2.968,0,0,0-3.455,2.356l-1.053,5.6a1.511,1.511,0,0,0,1.2,1.762l5.069.953a1.511,1.511,0,0,0,1.762-1.2l.221-1.177a.067.067,0,0,1,.056-.054,14.963,14.963,0,0,0,6.014-2.359,13.473,13.473,0,0,0,5.694-9.038,11.935,11.935,0,0,0-3.237-11.262" transform="translate(0 -8.744)" fill="#ffc78f"/>
              <path id="Trazado_874195" data-name="Trazado 874195" d="M10.762,115.276l-.444-.083a3.913,3.913,0,1,0-1.447,7.69l.444.084a3.913,3.913,0,0,0,1.446-7.691" transform="translate(-0.612 -12.392)" fill="#ffc78f"/>
              <path id="Trazado_874196" data-name="Trazado 874196" d="M296.135,87.812a18.634,18.634,0,0,0-10.072-2.158,19,19,0,0,0-8.982,2.993,12.767,12.767,0,0,0-4.332,4.983,16.954,16.954,0,0,0-1.455,8.5,1.807,1.807,0,0,0,1.963,1.69l6.323-.552a1.816,1.816,0,0,0,1.649-1.7c.107-2.007.993-5.449,5.718-5.944a5.769,5.769,0,0,1,5.885,3.188,6.472,6.472,0,0,1-.014,5.853c-1.44,2.922-4.5,3.617-6.194,3.771a3.558,3.558,0,0,0-3.228,3.836l.594,6.805a1.811,1.811,0,0,0,1.96,1.645l6.161-.538a1.811,1.811,0,0,0,1.645-1.96l-.125-1.43a.081.081,0,0,1,.048-.08,17.928,17.928,0,0,0,6.18-4.666,16.15,16.15,0,0,0,3.652-12.273c-.6-6.841-4.341-10.277-7.376-11.955" transform="translate(-29.199 -9.214)" fill="#ffc78f"/>
              <path id="Trazado_874197" data-name="Trazado 874197" d="M291.105,126.536l-.539.047a4.691,4.691,0,0,0,.816,9.346l.54-.047a4.691,4.691,0,1,0-.816-9.346" transform="translate(-30.817 -13.619)" fill="#ffc78f"/>
              <path id="Trazado_874198" data-name="Trazado 874198" d="M46.525,186.3a31.692,31.692,0,0,0-17.339-2.522,32.349,32.349,0,0,0-14.905,6.1,21.733,21.733,0,0,0-6.788,8.949,28.846,28.846,0,0,0-1.507,14.586,3.073,3.073,0,0,0,3.523,2.647l10.671-1.654a3.089,3.089,0,0,0,2.6-3.08c-.046-3.419,1.067-9.361,9.032-10.736a9.813,9.813,0,0,1,10.35,4.743,11.005,11.005,0,0,1,.639,9.935c-2.114,5.121-7.226,6.648-10.085,7.1a6.054,6.054,0,0,0-5.044,6.878l1.779,11.481a3.081,3.081,0,0,0,3.512,2.57l10.4-1.612a3.079,3.079,0,0,0,2.569-3.511l-.374-2.413a.135.135,0,0,1,.072-.141A30.492,30.492,0,0,0,55.591,227c4.44-6.031,6.058-13.179,4.808-21.244-1.788-11.543-8.532-16.95-13.873-19.454" transform="translate(-0.612 -19.751)" fill="#ffc78f"/>
              <path id="Trazado_874199" data-name="Trazado 874199" d="M42.24,252.752l-.909.141a7.979,7.979,0,1,0,2.444,15.77l.909-.141a7.979,7.979,0,0,0-2.444-15.77" transform="translate(-3.722 -27.197)" fill="#ffc78f"/>
            </g>
          </g>
          <g id="Grupo_1100207" data-name="Grupo 1100207">
            <g id="Grupo_1100206" data-name="Grupo 1100206" clip-path="url(#clip-path)">
              <path id="Trazado_874200" data-name="Trazado 874200" d="M179.846,57.685l8.042,1.34a31.094,31.094,0,1,0-5.5-9.687l-.01-.014Z" transform="translate(-19.359 -0.866)" fill="#fff"/>
              <path id="Trazado_874201" data-name="Trazado 874201" d="M179.846,57.659s.041-.175.143-.532q.162-.564.461-1.6c.422-1.44,1.039-3.541,1.836-6.258l.055-.187.112.162.01.014-.167.085a30.94,30.94,0,0,1-1.465-14.925,31.957,31.957,0,0,1,2.991-9.453A31.191,31.191,0,0,1,190.644,16a31.86,31.86,0,0,1,10.7-6.365,30.533,30.533,0,0,1,13.353-1.672,31.933,31.933,0,0,1,13.554,4.6,30.6,30.6,0,0,1,10.423,10.781,32.106,32.106,0,0,1,3.06,7.086c.178.612.293,1.24.441,1.858a17.412,17.412,0,0,1,.377,1.861q.114.941.227,1.876l.108.935.016.938a31.855,31.855,0,0,1-2.825,14.18,30.464,30.464,0,0,1-8.257,10.784,31.906,31.906,0,0,1-11.006,6.023A31.305,31.305,0,0,1,209.55,70.2l-2.619-.305c-.855-.12-1.678-.346-2.494-.51a28.14,28.14,0,0,1-4.574-1.464,30.9,30.9,0,0,1-12.044-8.86l.054.031-5.987-1.052-1.533-.277c-.343-.063-.507-.1-.507-.1s.192.021.546.074l1.563.238,5.948.937.033.005.022.027a30.982,30.982,0,0,0,12.016,8.7,27.861,27.861,0,0,0,4.538,1.426c.808.158,1.622.378,2.469.493l2.591.291A31.038,31.038,0,0,0,220.7,68.515a31.582,31.582,0,0,0,10.851-5.976,30.072,30.072,0,0,0,8.123-10.648,31.445,31.445,0,0,0,2.769-13.977l-.015-.924-.107-.92q-.112-.922-.225-1.849a17.154,17.154,0,0,0-.373-1.833c-.146-.608-.26-1.227-.435-1.831a31.667,31.667,0,0,0-3.016-6.98,30.168,30.168,0,0,0-10.264-10.624A31.535,31.535,0,0,0,214.651,8.4a30.157,30.157,0,0,0-13.17,1.626A31.518,31.518,0,0,0,190.9,16.286a30.916,30.916,0,0,0-6.771,8.838,31.734,31.734,0,0,0-3,9.341,30.975,30.975,0,0,0,1.347,14.817l.226.661-.393-.576-.01-.014.168-.027-1.924,6.17c-.221.7-.39,1.23-.51,1.608-.117.363-.187.556-.187.556" transform="translate(-19.359 -0.84)" fill="#263238"/>
              <path id="Trazado_874202" data-name="Trazado 874202" d="M220.657,26.523a13.3,13.3,0,0,0-7.046-2.113,13.58,13.58,0,0,0-6.566,1.616,9.127,9.127,0,0,0-3.37,3.3,12.109,12.109,0,0,0-1.522,5.965,1.292,1.292,0,0,0,1.3,1.316l4.533-.031a1.3,1.3,0,0,0,1.272-1.119,4.188,4.188,0,0,1,4.411-3.9,4.12,4.12,0,0,1,4.008,2.606,4.622,4.622,0,0,1-.346,4.166,5.28,5.28,0,0,1-4.625,2.329,2.541,2.541,0,0,0-2.517,2.547l.033,4.878a1.294,1.294,0,0,0,1.3,1.283l4.416-.03a1.292,1.292,0,0,0,1.283-1.3l-.007-1.025a.058.058,0,0,1,.039-.054,12.812,12.812,0,0,0,4.667-2.968,11.536,11.536,0,0,0,3.3-8.528,10.217,10.217,0,0,0-4.566-8.932" transform="translate(-21.76 -2.628)" fill="#f9d648"/>
              <path id="Trazado_874203" data-name="Trazado 874203" d="M214.934,53.73l-.386,0a3.35,3.35,0,1,0,.046,6.7l.386,0a3.35,3.35,0,1,0-.046-6.7" transform="translate(-22.736 -5.784)" fill="#f9d648"/>
            </g>
          </g>
          <g id="Grupo_1100218" data-name="Grupo 1100218">
            <g id="Grupo_1100217" data-name="Grupo 1100217" clip-path="url(#clip-path)">
              <path id="Trazado_874204" data-name="Trazado 874204" d="M209.261,106.432c-21.069-14.172-46.121-19.22-62.539-19.22-15.376,0-38,2.425-58.486,13.978a81.122,81.122,0,0,0-30.165,29.135c-8.642,14.4-13.32,32.219-13.9,52.962a11.48,11.48,0,0,0,11.487,11.779H95.973a11.536,11.536,0,0,0,11.375-9.873c1.788-12.643,9.292-33.931,39.464-34.451,22.984-.394,32.468,16.244,35.479,23.418,4.9,11.674,3.658,25.516-3.325,37.029-10.729,17.688-30.465,20.4-41.274,20.436a22.6,22.6,0,0,0-22.544,22.5v43.385A11.5,11.5,0,0,0,126.638,309H165.92a11.5,11.5,0,0,0,11.491-11.49V288.39a.508.508,0,0,1,.347-.482A113.911,113.911,0,0,0,219.441,261.8c19.834-19.719,29.889-45.169,29.889-75.645,0-43.613-21.79-67.423-40.069-79.718" transform="translate(-4.754 -9.388)" fill="#f9d648"/>
              <path id="Trazado_874205" data-name="Trazado 874205" d="M154.077,358.429h3.171a28.292,28.292,0,1,1,0,56.584h-3.171a28.292,28.292,0,0,1,0-56.584" transform="translate(-13.54 -38.583)" fill="#263238"/>
              <path id="Trazado_874206" data-name="Trazado 874206" d="M135.033,340.5H174.3a11.323,11.323,0,0,0,11.486-11.126V311.637a.493.493,0,0,1,.347-.466,95.046,95.046,0,0,0,18.482-8.987c-25.088-.176-70.816-.432-81.066-.059v27.249A11.323,11.323,0,0,0,135.033,340.5" transform="translate(-13.299 -32.501)" fill="#263238"/>
              <path id="Trazado_874207" data-name="Trazado 874207" d="M162.133,112.925l-25.2-73.174c-5.321-18.322-20.419-30.5-38.586-24.67l-1.647.636A34.107,34.107,0,0,0,76.287,57.223c4.7,15.854,10.1,33.312,13.385,41.521,6.809,16.994,24.633,12.224,24.633,12.224.038-.013,3.967,11.328,5.685,16.418l9.228,9.118,3.812-4.165Z" transform="translate(-8.06 -1.465)" fill="#ffc09d"/>
              <path id="Trazado_874208" data-name="Trazado 874208" d="M119.062,120.884a44.22,44.22,0,0,0,19.694-15.164s-.389,14.905-18.022,19.95Z" transform="translate(-12.816 -11.38)" fill="#ff9b6c"/>
              <path id="Trazado_874209" data-name="Trazado 874209" d="M90.256,75.034a2.614,2.614,0,0,0,3.3,1.552,2.5,2.5,0,0,0,1.664-3.17,2.615,2.615,0,0,0-3.3-1.554,2.5,2.5,0,0,0-1.666,3.172" transform="translate(-9.701 -7.721)" fill="#263238"/>
              <path id="Trazado_874210" data-name="Trazado 874210" d="M83.463,67.844c.425.2,1.744-1.88,4.372-2.886,2.609-1.045,5.057-.437,5.217-.869.085-.2-.444-.652-1.519-.938a7.168,7.168,0,0,0-4.329.3,6.883,6.883,0,0,0-3.326,2.7c-.568.931-.619,1.612-.415,1.7" transform="translate(-8.972 -6.776)" fill="#263238"/>
              <path id="Trazado_874211" data-name="Trazado 874211" d="M114.847,65.093c.426.2,1.748-1.88,4.373-2.887,2.609-1.043,5.057-.437,5.218-.869.084-.2-.442-.651-1.52-.937a7.175,7.175,0,0,0-4.329.3,6.9,6.9,0,0,0-3.327,2.695c-.565.931-.618,1.612-.415,1.7" transform="translate(-12.351 -6.48)" fill="#263238"/>
              <path id="Trazado_874212" data-name="Trazado 874212" d="M109.81,81.959c-.046-.153-1.786.195-4.559.877-.7.19-1.383.3-1.672-.112a3.664,3.664,0,0,1-.32-2.16q.005-2.8.011-5.868c-.055-8.328-.37-15.071-.706-15.067s-.564,6.76-.509,15.088c.03,2.048.056,4,.085,5.867a4.159,4.159,0,0,0,.668,2.764,1.8,1.8,0,0,0,1.48.554,4.884,4.884,0,0,0,1.2-.281c2.715-.884,4.37-1.51,4.323-1.663" transform="translate(-10.985 -6.419)" fill="#263238"/>
              <path id="Trazado_874213" data-name="Trazado 874213" d="M108.046,48.431c.616.532,2.889-1.156,5.964-2.42,3.05-1.327,5.844-1.783,5.891-2.595.01-.382-.746-.783-2.047-.9a11.19,11.19,0,0,0-9.032,3.82c-.819,1.018-1.058,1.84-.776,2.1" transform="translate(-11.618 -4.573)" fill="#263238"/>
              <path id="Trazado_874214" data-name="Trazado 874214" d="M79.975,59.2c.77.4,2.689-1.019,5.262-2,2.543-1.059,4.92-1.359,5.192-2.173.109-.385-.457-.858-1.622-1.074a8.871,8.871,0,0,0-4.656.6,8.722,8.722,0,0,0-3.768,2.76c-.686.953-.758,1.681-.408,1.885" transform="translate(-8.587 -5.797)" fill="#263238"/>
              <path id="Trazado_874215" data-name="Trazado 874215" d="M148.019,56.421c.242-.238,10.392-8,14.53,3.815s-8.582,13.535-8.721,13.2-5.809-17.018-5.809-17.018" transform="translate(-15.933 -5.78)" fill="#ffc09d"/>
              <path id="Trazado_874216" data-name="Trazado 874216" d="M156.564,68.151c.038-.056.256.071.66.11a2.178,2.178,0,0,0,1.55-.508c1.088-.9,1.445-3.245.757-5.4a7.2,7.2,0,0,0-1.608-2.746,2.521,2.521,0,0,0-2.1-1.039,1.111,1.111,0,0,0-1.017.99c-.043.386.115.6.06.638-.023.041-.323-.11-.4-.631a1.388,1.388,0,0,1,.206-.9,1.645,1.645,0,0,1,1.032-.7,3.068,3.068,0,0,1,2.793,1.08,7.391,7.391,0,0,1,1.866,3.044c.759,2.408.319,5.064-1.216,6.155a2.337,2.337,0,0,1-1.993.346c-.468-.163-.623-.406-.589-.442" transform="translate(-16.626 -6.233)" fill="#ff9b6c"/>
              <path id="Trazado_874217" data-name="Trazado 874217" d="M120.046,83.317c-.417.113.491,2.841-1.2,5.558s-4.689,3.388-4.583,3.776c.019.184.825.313,2.063-.064a7.165,7.165,0,0,0,3.877-3,6.239,6.239,0,0,0,.827-4.6c-.278-1.175-.808-1.749-.989-1.67" transform="translate(-12.3 -8.968)" fill="#263238"/>
              <path id="Trazado_874218" data-name="Trazado 874218" d="M43.387,47.459a2.967,2.967,0,0,1,.739-2.1c1.072-1.276,2.667-1.719,4.165-2.274a26.365,26.365,0,0,0,9.85-6.522,13.05,13.05,0,0,1-3.963-1.11c-2.58-1.232-4.7-3.761-4.729-6.62a1.74,1.74,0,0,1,.528-1.455c.684-.506,1.621.011,2.367.42,2.451,1.346,4.373,1.617,6.9.427a11.111,11.111,0,0,0,4.022-2.91c.032-.071.057-.146.09-.217.391-.85.776-1.667,1.161-2.461l0-.006v0c2.89-5.973,5.635-10.372,9.011-13.342C78.481,4.943,87.793.6,94.361.063s13.686,2.433,16.692,8.3c2.367-4.039,7.438-5.8,12.126-5.594l.087-.081c5.148.019,9.448,3.935,12.441,8.123.163.229.319.465.478.7a19.222,19.222,0,0,0,8.273,3.842c.533.1,1.15.238,1.383.728a1.566,1.566,0,0,1-.356,1.494,9.665,9.665,0,0,1-3.159,2.842,21.7,21.7,0,0,0,2.649,2.679c.825.692,1.806,1.523,1.676,2.592a2.044,2.044,0,0,1-1.709,1.59,5.986,5.986,0,0,1-2.468-.213l2.821,3.125a11.456,11.456,0,0,1-5.091,1.421c.565,4.7,2.681,13.038,2.6,16.39-3.115,1.159-4,1.087-5.393,2.168-1.806,1.4.25,4.745-2.774,4.655-1.539-.047-5.428-4.449-6.368-5.669a71.5,71.5,0,0,1-12.978-27.517,22.991,22.991,0,0,0-8.4-2.473l.27.112c-5.42.024-11.464.3-15.247,4.181-2.934,3.011-3.725,7.434-5.344,11.314-3.071,7.351-7.722,12.337-15.117,15.3,1.16,5.453,3.964,14.05,5.424,19.005L69.292,60.8l.011.04c-.537-.452-1.017-.93-1.488-1.412l-.153-.142-.008-.022a31.967,31.967,0,0,0-2.343-2.285l-.032.058c-1.817,3.254-6.954,1.067-5.873-2.5a7.225,7.225,0,0,1,.949-1.994,5.1,5.1,0,0,1-4.163,2.8,4,4,0,0,1-3.983-2.791,3.4,3.4,0,0,1,1.006-3.247,11.478,11.478,0,0,1-6.642.813c-1.462-.265-3.058-.987-3.185-2.663" transform="translate(-4.67 0)" fill="#263238"/>
              <path id="Trazado_874219" data-name="Trazado 874219" d="M113.9,13.742a15.832,15.832,0,0,1,2.292.974,13.146,13.146,0,0,1,4.675,4.8,23.114,23.114,0,0,1,1.99,4.237c.568,1.589,1.04,3.339,1.551,5.178a48.374,48.374,0,0,0,1.868,5.714,21.084,21.084,0,0,0,1.444,2.853,6.6,6.6,0,0,0,2.242,2.471,2.767,2.767,0,0,0,2.728-.039,4.113,4.113,0,0,0,1.758-2.014,9.49,9.49,0,0,0,.117-4.981l-.347.171a15.362,15.362,0,0,0,3.378,2.881,5.462,5.462,0,0,0,4.008.646,3.515,3.515,0,0,0,1.671-.941,3.042,3.042,0,0,0,.791-1.619,3.152,3.152,0,0,0-.172-1.662,2.278,2.278,0,0,0-1.029-1.148l-.126.228a11.817,11.817,0,0,0,4.695,1.478,10.563,10.563,0,0,0,1.308.042,1.968,1.968,0,0,0,.448-.044,2.3,2.3,0,0,0-.448-.029c-.294-.015-.731-.035-1.293-.109a12.2,12.2,0,0,1-4.58-1.564l-.126.228a2.35,2.35,0,0,1,1.02,2.528,2.748,2.748,0,0,1-.723,1.441,3.2,3.2,0,0,1-1.522.833,5.116,5.116,0,0,1-3.735-.641,15.172,15.172,0,0,1-3.274-2.83l-.444-.467.1.639a9.175,9.175,0,0,1-.106,4.758,3.709,3.709,0,0,1-1.573,1.8,2.332,2.332,0,0,1-2.318.036,6.246,6.246,0,0,1-2.083-2.317,20.961,20.961,0,0,1-1.42-2.792,49.228,49.228,0,0,1-1.874-5.658c-.521-1.835-1.008-3.588-1.6-5.193a23.089,23.089,0,0,0-2.066-4.275,12.969,12.969,0,0,0-4.853-4.791,7.436,7.436,0,0,0-2.373-.828" transform="translate(-12.261 -1.479)" fill="#455a64"/>
              <path id="Trazado_874220" data-name="Trazado 874220" d="M60.624,48.588a.684.684,0,0,0,.18.069l.543.163a6.056,6.056,0,0,0,.9.211,9.782,9.782,0,0,0,1.247.183,16.247,16.247,0,0,0,7.867-1.276,20.76,20.76,0,0,0,9.074-7.528,35.959,35.959,0,0,0,5.323-13.487c.52-2.536.788-5.043,1.22-7.422a24.264,24.264,0,0,1,2.008-6.623A12.516,12.516,0,0,1,92.9,8.1a8.979,8.979,0,0,1,2.519-1.228,9.892,9.892,0,0,1,2.568-.385A10.614,10.614,0,0,1,105.2,9.23,12.705,12.705,0,0,1,107,11.507a.624.624,0,0,0-.078-.177l-.269-.5a9.135,9.135,0,0,0-1.344-1.721,10.419,10.419,0,0,0-2.859-1.941,10.718,10.718,0,0,0-4.469-.984,10.087,10.087,0,0,0-2.658.371A9.244,9.244,0,0,0,92.7,7.809,12.8,12.8,0,0,0,88.631,12.7a24.428,24.428,0,0,0-2.068,6.725c-.44,2.4-.711,4.9-1.227,7.412a35.98,35.98,0,0,1-5.227,13.348A20.649,20.649,0,0,1,71.24,47.66a16.492,16.492,0,0,1-7.735,1.388,26.041,26.041,0,0,1-2.881-.46" transform="translate(-6.526 -0.666)" fill="#455a64"/>
              <path id="Trazado_874221" data-name="Trazado 874221" d="M55.861,45.1a2.854,2.854,0,0,0,.772.213A14.113,14.113,0,0,0,58.8,45.6a18.943,18.943,0,0,0,3.243-.07,19.95,19.95,0,0,0,7.542-2.389,18.964,18.964,0,0,0,2.691-1.81,14.283,14.283,0,0,0,1.6-1.48,2.837,2.837,0,0,0,.509-.618c-.058-.057-.84.771-2.3,1.858a21.588,21.588,0,0,1-2.694,1.7,21.4,21.4,0,0,1-7.4,2.344,21.749,21.749,0,0,1-3.184.159c-1.819-.049-2.935-.276-2.949-.2" transform="translate(-6.013 -4.223)" fill="#455a64"/>
              <path id="Trazado_874222" data-name="Trazado 874222" d="M92.129,184.43c-.154.045,1.869,10.175,3.85,20.682H96.6c-1.98-10.507-4.321-20.727-4.475-20.682" transform="translate(-9.916 -19.853)" fill="#263238"/>
              <path id="Trazado_874223" data-name="Trazado 874223" d="M98.812,197.752c5.727,0,11-4.126,11.8-9.746,1.8-12.625,9-33.993,39.373-34.514,23.136-.394,32.874,15.982,35.6,23.266a42.921,42.921,0,0,1-3.236,37.093c-10.8,17.662-30.666,20.367-41.545,20.406a22.662,22.662,0,0,0-22.693,22.462v47.173l62.672-1.179V290.939a.509.509,0,0,1,.35-.481,109.37,109.37,0,0,0,33.357-18.677l-4.08-54.327s11.927-22.924,11.337-28.082c-5.4-47.119-21.426-73.781-27.938-76.268-7.314-2.791-35.548-1.432-35.548-1.432s-12.193,22.594-29.3,25.1c-9.519,1.393-12.994-10.494-12.994-10.494L93.856,139.239c-15.738,7.938-18.79,38.82-19.08,58.514Z" transform="translate(-8.049 -11.985)" fill="#455a64"/>
              <g id="Grupo_1100210" data-name="Grupo 1100210" transform="translate(154.301 213.523)" opacity="0.3">
                <g id="Grupo_1100209" data-name="Grupo 1100209">
                  <g id="Grupo_1100208" data-name="Grupo 1100208" clip-path="url(#clip-path-5)">
                    <path id="Trazado_874224" data-name="Trazado 874224" d="M182.006,239.28c12.633,3.216,25.088,7.284,37.721,10.5a4.822,4.822,0,0,1,2.568,1.246c.93,1.078.72,2.712.3,4.073a24.8,24.8,0,0,1-7.607,11.094c-2.748,2.415-6.041,4.452-9.689,4.737-4.062.318-7.967-1.567-11.4-3.759a60.088,60.088,0,0,1-20.987-23.087s2.962-1.219,5.228-2.431a40.472,40.472,0,0,0,3.864-2.373" transform="translate(-172.914 -239.28)"/>
                  </g>
                </g>
              </g>
              <path id="Trazado_874225" data-name="Trazado 874225" d="M196.486,184.018c5.052,11.656,3.77,25.479-3.428,36.975a39.89,39.89,0,0,1-14.629,13.992,119.077,119.077,0,0,0,18.036,16.481c6.453,4.58,21.325,3.278,26.963-6.747,6.957-12.368,7.538-43.965,7.538-43.965l1.322-19.048-38.9-5.959-.312,1.066a41.928,41.928,0,0,1,3.414,7.2" transform="translate(-19.207 -18.918)" fill="#ffc09d"/>
              <path id="Trazado_874226" data-name="Trazado 874226" d="M119.071,171.425l-2.215,3.492c-1.684,1.162-3.287.524-4.327-1.635L88.58,136.829l5.834-3.71,26.452,34.957a3.482,3.482,0,0,1-1.8,3.349" transform="translate(-9.535 -14.329)" fill="#455a64"/>
              <path id="Trazado_874227" data-name="Trazado 874227" d="M59.11,130.563a26.648,26.648,0,1,1,24.352.991,26.515,26.515,0,0,1-24.352-.991M84.491,85.731A24.854,24.854,0,1,0,94.805,96.9a24.861,24.861,0,0,0-10.314-11.17" transform="translate(-4.905 -8.688)" fill="#263238"/>
              <path id="Trazado_874228" data-name="Trazado 874228" d="M60.382,129.31a26.648,26.648,0,1,1,24.352.991,26.511,26.511,0,0,1-24.352-.991M85.763,84.478a24.854,24.854,0,1,0,10.314,11.17,24.861,24.861,0,0,0-10.314-11.17" transform="translate(-5.042 -8.553)" fill="#455a64"/>
              <path id="Trazado_874229" data-name="Trazado 874229" d="M97.956,107a2.588,2.588,0,0,1-.028-.438c-.021-.286.013-.709-.051-1.25a19.06,19.06,0,0,0-.883-4.5,24.142,24.142,0,0,0-1.167-2.947A25.758,25.758,0,0,0,94,94.719a24.575,24.575,0,0,0-2.5-3.141,23.583,23.583,0,0,0-3.2-2.886,21.939,21.939,0,0,0-3.691-2.216,23.774,23.774,0,0,0-3.779-1.352,22.6,22.6,0,0,0-6.75-.684,21.643,21.643,0,0,0-4.536.7c-.531.119-.924.278-1.2.349a2.53,2.53,0,0,1-.425.112,2.454,2.454,0,0,1,.406-.166c.272-.09.662-.266,1.191-.4a20.233,20.233,0,0,1,4.554-.8,22.307,22.307,0,0,1,6.827.631,23.569,23.569,0,0,1,3.832,1.354,21.986,21.986,0,0,1,3.744,2.241A23.463,23.463,0,0,1,91.7,91.388a24.384,24.384,0,0,1,2.518,3.184,25.325,25.325,0,0,1,1.819,3.192,23.441,23.441,0,0,1,1.147,2.988,18,18,0,0,1,.8,4.553,11.644,11.644,0,0,1,0,1.258,2.565,2.565,0,0,1-.03.437" transform="translate(-7.311 -9.063)" fill="#fff"/>
              <path id="Trazado_874230" data-name="Trazado 874230" d="M70.4,133.39c.019-.066,1.236.387,3.289.667l.807.1c.28.032.576.032.879.051.607.049,1.256.017,1.94,0a20.685,20.685,0,0,0,8.522-2.3c.6-.332,1.176-.631,1.676-.978.253-.169.508-.318.734-.485l.648-.489c1.635-1.274,2.459-2.277,2.508-2.231a5.354,5.354,0,0,1-.581.7,7.787,7.787,0,0,1-.743.76,12.87,12.87,0,0,1-1.058.933l-.644.51c-.226.175-.481.329-.734.505a19.35,19.35,0,0,1-1.684,1.013,20.047,20.047,0,0,1-8.633,2.326,19.14,19.14,0,0,1-1.965-.03c-.307-.024-.6-.03-.888-.068l-.813-.116a13.113,13.113,0,0,1-1.383-.275,7.778,7.778,0,0,1-1.025-.285,5.422,5.422,0,0,1-.852-.309" transform="translate(-7.579 -13.749)" fill="#fff"/>
              <path id="Trazado_874231" data-name="Trazado 874231" d="M89.112,113.04c-.056.055-3.532-3.423-7.761-7.769s-7.614-7.913-7.557-7.969,3.531,3.423,7.762,7.77,7.613,7.913,7.556,7.968" transform="translate(-7.943 -10.474)" fill="#fff"/>
              <path id="Trazado_874232" data-name="Trazado 874232" d="M83.525,119.686a1.653,1.653,0,0,1-.253-.247l-.684-.745L80.1,115.929c-2.1-2.337-5-5.558-8.244-9.079s-6.222-6.677-8.381-8.955l-2.554-2.7-.687-.742a1.58,1.58,0,0,1-.226-.272,1.664,1.664,0,0,1,.267.232l.725.7c.626.616,1.521,1.516,2.62,2.638,2.2,2.243,5.2,5.379,8.445,8.9s6.129,6.767,8.186,9.139c1.029,1.186,1.854,2.151,2.417,2.825l.643.781a1.682,1.682,0,0,1,.21.285" transform="translate(-6.46 -10.138)" fill="#fff"/>
              <g id="Grupo_1100213" data-name="Grupo 1100213" transform="translate(49.56 76.896)" opacity="0.3">
                <g id="Grupo_1100212" data-name="Grupo 1100212">
                  <g id="Grupo_1100211" data-name="Grupo 1100211" clip-path="url(#clip-path-6)">
                    <path id="Trazado_874233" data-name="Trazado 874233" d="M61.306,86.172l32.734,35.559a25.816,25.816,0,0,1-5.077,5.318L55.539,90.659a19.108,19.108,0,0,1,5.767-4.487" transform="translate(-55.539 -86.172)" fill="#fff"/>
                  </g>
                </g>
              </g>
              <g id="Grupo_1100216" data-name="Grupo 1100216" transform="translate(45.837 85.484)" opacity="0.3">
                <g id="Grupo_1100215" data-name="Grupo 1100215">
                  <g id="Grupo_1100214" data-name="Grupo 1100214" clip-path="url(#clip-path-7)">
                    <path id="Trazado_874234" data-name="Trazado 874234" d="M52.275,95.8l32.2,34.645s.3.163-1.919.723L51.366,97.555a4.433,4.433,0,0,1,.909-1.759" transform="translate(-51.366 -95.796)" fill="#fff"/>
                  </g>
                </g>
              </g>
              <path id="Trazado_874235" data-name="Trazado 874235" d="M140.891,156.986c-6.876-5.522-23.729-19.028-24.5-19.387-.969-.453-15.8-5.723-18.642-4.03s-10.458,11.254-10.458,11.254.723,5.947,7.367,1.691l5.945-3.808-.011.006,7.064,1.651s-8.615,3.6-10.437,5.489-4.7,9.136-2.906,10.8a6.97,6.97,0,0,0,3.884,1.81s-3.556,5.051,2.752,8.1c0,0,.922,4.246,4.033,5.91s8.909,1.075,8.909,1.075a2.731,2.731,0,0,0,.692-4.226c-2-2.636-5.682-3-5.682-3l4.566-2.664a21,21,0,0,1,5.895,3.446,51.076,51.076,0,0,1,8.332-8.354c4.672-3.386,13.2-5.766,13.2-5.766" transform="translate(-9.396 -14.342)" fill="#ffc09d"/>
              <path id="Trazado_874236" data-name="Trazado 874236" d="M113.307,162.364a2.33,2.33,0,0,0-.678.04,10.282,10.282,0,0,0-1.8.419,11.911,11.911,0,0,0-7.956,8.651,10.372,10.372,0,0,0-.266,1.833,2.337,2.337,0,0,0,.017.679c.063.005.078-.966.48-2.453a12.388,12.388,0,0,1,7.8-8.485c1.448-.526,2.415-.62,2.4-.684" transform="translate(-11.044 -17.476)" fill="#ff9b6c"/>
              <path id="Trazado_874237" data-name="Trazado 874237" d="M113.259,153.751a3.01,3.01,0,0,0-.725.051,6.786,6.786,0,0,0-.841.138,11.112,11.112,0,0,0-1.1.261,16.537,16.537,0,0,0-2.753,1.037,17.434,17.434,0,0,0-5.683,4.377,16.549,16.549,0,0,0-1.706,2.4c-.225.353-.381.7-.533,1a6.8,6.8,0,0,0-.348.778,2.973,2.973,0,0,0-.235.687c.062.027.44-.937,1.32-2.337a18.333,18.333,0,0,1,1.737-2.317,20.184,20.184,0,0,1,2.585-2.421,23.744,23.744,0,0,1,3.124-2.118,14.432,14.432,0,0,1,2.56-.85c1.579-.493,2.607-.613,2.6-.679" transform="translate(-10.693 -16.549)" fill="#ff9b6c"/>
              <path id="Trazado_874238" data-name="Trazado 874238" d="M115.692,143.833a1.956,1.956,0,0,0-.959-.216,5.282,5.282,0,0,0-2.341.419,4.43,4.43,0,0,0-1.926,1.395,1.957,1.957,0,0,0-.511.84,6.721,6.721,0,0,1,5.737-2.437" transform="translate(-11.836 -15.458)" fill="#ff9b6c"/>
              <path id="Trazado_874239" data-name="Trazado 874239" d="M203.857,112.521s21.765,2.088,28.674,21c5.484,15.009,8.463,59.972,7.089,60.888l-38.426-1.229c-.506-10.964-3.459-19.418-7.6-24.888Z" transform="translate(-20.84 -12.112)" fill="#455a64"/>
              <path id="Trazado_874240" data-name="Trazado 874240" d="M202.77,202.907a3.069,3.069,0,0,1,.754.42c.47.293,1.132.748,1.929,1.336a51.661,51.661,0,0,1,5.848,5.074,59.934,59.934,0,0,1,5.091,5.831c.6.789,1.069,1.438,1.375,1.9a3.1,3.1,0,0,1,.442.742,28.5,28.5,0,0,1-2.074-2.435c-1.262-1.515-3.041-3.58-5.163-5.708a70.22,70.22,0,0,0-5.719-5.141c-1.536-1.236-2.524-1.957-2.483-2.017" transform="translate(-21.827 -21.841)" fill="#ff9b6c"/>
              <path id="Trazado_874241" data-name="Trazado 874241" d="M197.2,151.077c.127.021-.578,4.821-1.575,10.72s-1.907,10.665-2.034,10.643.579-4.821,1.575-10.721,1.907-10.664,2.034-10.642" transform="translate(-20.838 -16.262)" fill="#263238"/>
              <path id="Trazado_874242" data-name="Trazado 874242" d="M143.446,301.221a3.322,3.322,0,0,1,.638-.1l1.837-.186,6.759-.639c5.7-.548,13.58-1.371,22.255-2.466s16.51-2.263,22.172-3.154l6.7-1.064,1.825-.278a3.5,3.5,0,0,1,.642-.066,3.28,3.28,0,0,1-.626.158l-1.811.364c-1.573.309-3.857.724-6.683,1.209-5.651.974-13.483,2.191-22.167,3.291s-16.568,1.868-22.285,2.332c-2.857.233-5.172.4-6.773.493l-1.844.1a3.383,3.383,0,0,1-.645,0" transform="translate(-15.441 -31.568)" fill="#263238"/>
              <path id="Trazado_874243" data-name="Trazado 874243" d="M139.639,295.475a10.454,10.454,0,0,1,1.584-.144l4.323-.229,14.261-.732,14.258-.825,4.323-.244a10.655,10.655,0,0,1,1.589-.03,10.278,10.278,0,0,1-1.576.211c-1.016.106-2.491.239-4.312.39-3.644.3-8.684.658-14.256.962s-10.619.5-14.274.6c-1.828.049-3.306.077-4.33.082a10.388,10.388,0,0,1-1.589-.037" transform="translate(-15.031 -31.567)" fill="#263238"/>
              <path id="Trazado_874244" data-name="Trazado 874244" d="M71.04,204.067a4.7,4.7,0,0,1,.7-1.526,4.511,4.511,0,0,1,7.59.161,2.777,2.777,0,0,1,2.071-2.674,3.178,3.178,0,0,1,3.026.91,4.569,4.569,0,0,1,1.559,2.556c.936-2.1,5.749-1.845,6.335-.267,0,0,4.141-4.533,6.259-2.3.881.925.5,2.347-.079,3.769-.778,1.9-1.29,2.692-2.309,4.784l-3.92.214c-.33,1.227-1.025,6.216-1.173,7.478a8.691,8.691,0,0,1-1.071,3.627,3.782,3.782,0,0,1-3.108,1.905,2.457,2.457,0,0,1-2.447-2.375,5.975,5.975,0,0,1-1.486,2.839,3.212,3.212,0,0,1-2.964.92,2.224,2.224,0,0,1-1.665-2.428c-1.4.968-3.463.108-4.35-1.342a8.861,8.861,0,0,1-.855-4.953,11.229,11.229,0,0,0-.409-4.622,4.217,4.217,0,0,1-.309-.659,7.772,7.772,0,0,1-.052-1.119,8.522,8.522,0,0,0-.472-2.321q-.09-.246-.2-.485c-.191-.421-.471-.779-.686-1.182a.768.768,0,0,1-.1-.277,1.861,1.861,0,0,1,.113-.629" transform="translate(-7.634 -21.521)" fill="#ffc09d"/>
              <path id="Trazado_874245" data-name="Trazado 874245" d="M65.649,202.128a3.65,3.65,0,0,0-2.889.96c-.829.926-1.02,3.143-.925,4.382,1.453.275,2.227-.049,3.68.225.306.058.562-.02.816.162.67.476.561,2.078.832,2.855a2.794,2.794,0,0,0,3.529,1.509,3.75,3.75,0,0,0,2.265-3.34,5.8,5.8,0,0,0-1.476-3.908,8.1,8.1,0,0,0-5.832-2.845" transform="translate(-6.654 -21.757)" fill="#ffc09d"/>
              <path id="Trazado_874246" data-name="Trazado 874246" d="M93.834,215.469c-.148-.031.45-2.69.828-6a26.405,26.405,0,0,0,.159-4.244,13.766,13.766,0,0,1-.112-1.77,4.566,4.566,0,0,1,.439,1.739,18.578,18.578,0,0,1-.023,4.324,33.5,33.5,0,0,1-.754,4.243,6.4,6.4,0,0,1-.536,1.705" transform="translate(-10.098 -21.901)" fill="#ff9b6c"/>
              <path id="Trazado_874247" data-name="Trazado 874247" d="M85.906,221.231a15.23,15.23,0,0,1,.388-2.534c.284-1.555.682-3.7.983-6.084a44,44,0,0,0,.377-6.132c-.023-1.572-.137-2.544-.062-2.556a9.333,9.333,0,0,1,.39,2.543,32.7,32.7,0,0,1-.244,6.2,58.588,58.588,0,0,1-1.123,6.094,13.011,13.011,0,0,1-.71,2.467" transform="translate(-9.246 -21.951)" fill="#ff9b6c"/>
              <path id="Trazado_874248" data-name="Trazado 874248" d="M79.2,222.122a25.679,25.679,0,0,1,.489-2.821,54.362,54.362,0,0,0,.748-13.71,26.187,26.187,0,0,1-.18-2.857,2.485,2.485,0,0,1,.2.749c.1.486.208,1.2.311,2.079a41.862,41.862,0,0,1-.753,13.8c-.2.866-.384,1.56-.535,2.033a2.548,2.548,0,0,1-.276.723" transform="translate(-8.524 -21.823)" fill="#ff9b6c"/>
              <path id="Trazado_874249" data-name="Trazado 874249" d="M70.357,204.878a2.487,2.487,0,0,1,1.223.618,6.2,6.2,0,0,1,1.984,2.649,5.3,5.3,0,0,1,.264,3.308c-.26.863-.8,1.162-.819,1.107a4.56,4.56,0,0,0,.5-1.188,5.8,5.8,0,0,0-.377-3.057,7.073,7.073,0,0,0-1.763-2.567c-.594-.551-1.047-.8-1.011-.87" transform="translate(-7.573 -22.053)" fill="#ff9b6c"/>
            </g>
          </g>
        </g>
      </g>
    </g>
  </g>
</svg>
