<svg xmlns="http://www.w3.org/2000/svg" xmlns:xlink="http://www.w3.org/1999/xlink" width="295" height="270.299" viewBox="0 0 295 270.299">
  <defs>
    <clipPath id="clip-path">
      <rect id="Rectángulo_401630" data-name="Rectángulo 401630" width="141.886" height="201.419" fill="none"/>
    </clipPath>
    <clipPath id="clip-path-3">
      <rect id="Rectángulo_401631" data-name="Rectángulo 401631" width="50.484" height="72.148" transform="translate(0 0)" fill="#ffc78f"/>
    </clipPath>
    <clipPath id="clip-path-5">
      <rect id="Rectángulo_401696" data-name="Rectángulo 401696" width="251" height="263" transform="translate(180.302 1176.272)" fill="#ffea96" stroke="#707070" stroke-width="1"/>
    </clipPath>
    <clipPath id="clip-path-6">
      <rect id="Rectángulo_401695" data-name="Rectángulo 401695" width="138.584" height="322.905" fill="none"/>
    </clipPath>
    <clipPath id="clip-path-8">
      <rect id="Rectángulo_401691" data-name="Rectángulo 401691" width="16.691" height="43.69" fill="none"/>
    </clipPath>
    <clipPath id="clip-path-9">
      <rect id="Rectángulo_401692" data-name="Rectángulo 401692" width="68.412" height="16.317" fill="none"/>
    </clipPath>
    <clipPath id="clip-path-10">
      <rect id="Rectángulo_401693" data-name="Rectángulo 401693" width="39.642" height="74.97" fill="none"/>
    </clipPath>
  </defs>
  <g id="Grupo_1100245" data-name="Grupo 1100245" transform="translate(-180 -1177.701)">
    <circle id="Elipse_11565" data-name="Elipse 11565" cx="131.5" cy="131.5" r="131.5" transform="translate(180 1178)" fill="#ffecda"/>
    <g id="Grupo_1100225" data-name="Grupo 1100225" transform="translate(333.114 1239.581)">
      <g id="Grupo_1100120" data-name="Grupo 1100120" clip-path="url(#clip-path)">
        <path id="Trazado_873859" data-name="Trazado 873859" d="M14.212,175.112c24.337-1.057,55.212-8.829,74.093-24.71a136.532,136.532,0,0,0-74.093,24.71" fill="#ebebeb"/>
        <path id="Trazado_873860" data-name="Trazado 873860" d="M31.144,146.327c24.338-1.057,55.212-8.829,74.094-24.71a136.538,136.538,0,0,0-74.094,24.71" fill="#ebebeb"/>
        <path id="Trazado_873861" data-name="Trazado 873861" d="M49.346,118.909c24.338-1.057,55.212-8.829,74.094-24.71a136.538,136.538,0,0,0-74.094,24.71" fill="#ebebeb"/>
        <path id="Trazado_873862" data-name="Trazado 873862" d="M69.658,90.627c24.21-4.035,54.055-15.472,70.8-33.4a137.451,137.451,0,0,0-70.8,33.4" fill="#ebebeb"/>
        <path id="Trazado_873863" data-name="Trazado 873863" d="M87.512,69.76c21.5-12.3,45.455-33.293,54.374-55.449A134.273,134.273,0,0,0,87.512,69.76" fill="#ebebeb"/>
        <path id="Trazado_873864" data-name="Trazado 873864" d="M78.857,79.624C85.477,55.479,87.533,23.02,77.818,0a137.154,137.154,0,0,0,1.039,79.625" fill="#ebebeb"/>
        <path id="Trazado_873865" data-name="Trazado 873865" d="M61.634,102.695c4.692-25.61,3.857-59.505-8.4-82.672a142.747,142.747,0,0,0,8.4,82.672" fill="#ebebeb"/>
        <path id="Trazado_873866" data-name="Trazado 873866" d="M41.11,130.991c4.692-25.61,3.857-59.5-8.4-82.672a142.747,142.747,0,0,0,8.4,82.672" fill="#ebebeb"/>
        <path id="Trazado_873867" data-name="Trazado 873867" d="M19.232,166.841c4.692-25.61,3.857-59.505-8.4-82.672a142.748,142.748,0,0,0,8.4,82.672" fill="#ebebeb"/>
        <path id="Trazado_873868" data-name="Trazado 873868" d="M10.894,180.081c-3.525,6.509-6.287,11.826-8.115,15.54q-1.329,2.7-2.1,4.278l-.525,1.123a1.476,1.476,0,0,0-.151.4,1.471,1.471,0,0,0,.235-.354l.607-1.082,2.254-4.2c1.925-3.662,4.773-8.928,8.368-15.391,3.576-6.474,8-14.092,13.026-22.478,5.074-8.358,10.8-17.461,17.04-26.864C54.044,112.272,66.286,95.9,75.426,84.269,80,78.453,83.743,73.784,86.37,70.588l2.994-3.708.761-.979a1.5,1.5,0,0,0,.235-.354c-.012-.011-.116.089-.307.293l-.831.92-3.127,3.6c-2.714,3.127-6.541,7.736-11.18,13.5C65.636,95.4,53.293,111.735,40.764,130.542" fill="#e0e0e0"/>
      </g>
    </g>
    <g id="Grupo_1100226" data-name="Grupo 1100226" transform="translate(185.614 1177.7)">
      <g id="Grupo_1100120-2" data-name="Grupo 1100120" transform="translate(0 0)" clip-path="url(#clip-path)">
        <path id="Trazado_873859-2" data-name="Trazado 873859" d="M88.305,175.112c-24.337-1.057-55.212-8.829-74.093-24.71a136.532,136.532,0,0,1,74.093,24.71" transform="translate(39.369 0)" fill="#ebebeb"/>
        <path id="Trazado_873860-2" data-name="Trazado 873860" d="M105.238,146.327C80.9,145.27,50.026,137.5,31.144,121.617a136.538,136.538,0,0,1,74.094,24.71" transform="translate(5.504 0)" fill="#ebebeb"/>
        <path id="Trazado_873861-2" data-name="Trazado 873861" d="M123.44,118.909C99.1,117.852,68.228,110.08,49.346,94.2a136.538,136.538,0,0,1,74.094,24.71" transform="translate(-30.9 0)" fill="#ebebeb"/>
        <path id="Trazado_873862-2" data-name="Trazado 873862" d="M140.46,90.627c-24.21-4.035-54.055-15.472-70.8-33.4a137.451,137.451,0,0,1,70.8,33.4" transform="translate(-68.232 0)" fill="#ebebeb"/>
        <path id="Trazado_873863-2" data-name="Trazado 873863" d="M141.886,69.76c-21.5-12.3-45.455-33.293-54.374-55.449A134.273,134.273,0,0,1,141.886,69.76" transform="translate(-87.512 0)" fill="#ebebeb"/>
        <path id="Trazado_873864-2" data-name="Trazado 873864" d="M78.031,79.624C71.411,55.479,69.355,23.02,79.07,0a137.154,137.154,0,0,1-1.039,79.625" transform="translate(-15.002 0)" fill="#ebebeb"/>
        <path id="Trazado_873865-2" data-name="Trazado 873865" d="M53.181,102.695c-4.692-25.61-3.857-59.5,8.4-82.672a142.747,142.747,0,0,1-8.4,82.672" transform="translate(27.071 0)" fill="#ebebeb"/>
        <path id="Trazado_873866-2" data-name="Trazado 873866" d="M32.657,130.991c-4.692-25.61-3.857-59.5,8.4-82.672a142.747,142.747,0,0,1-8.4,82.672" transform="translate(68.119 0)" fill="#ebebeb"/>
        <path id="Trazado_873867-2" data-name="Trazado 873867" d="M10.779,166.841c-4.692-25.61-3.857-59.5,8.4-82.672a142.748,142.748,0,0,1-8.4,82.672" transform="translate(111.875 0)" fill="#ebebeb"/>
        <path id="Trazado_873868-2" data-name="Trazado 873868" d="M79.467,180.081c3.525,6.509,6.287,11.826,8.115,15.54q1.329,2.7,2.1,4.278l.525,1.123a1.476,1.476,0,0,1,.151.4,1.471,1.471,0,0,1-.235-.354l-.607-1.082-2.254-4.2c-1.925-3.662-4.773-8.928-8.368-15.391-3.576-6.474-8-14.092-13.026-22.478-5.074-8.358-10.8-17.461-17.04-26.864C36.317,112.272,24.075,95.9,14.935,84.269,10.366,78.453,6.618,73.784,3.991,70.588L1,66.88.236,65.9A1.5,1.5,0,0,1,0,65.547c.012-.011.116.089.307.293l.831.92,3.127,3.6c2.714,3.127,6.541,7.736,11.18,13.5C24.725,95.4,37.068,111.735,49.6,130.542" transform="translate(51.525 0)" fill="#e0e0e0"/>
      </g>
    </g>
    <g id="Grupo_1100227" data-name="Grupo 1100227" transform="translate(376 1193.188)">
      <g id="Grupo_1100123" data-name="Grupo 1100123" clip-path="url(#clip-path-3)">
        <path id="Trazado_873869" data-name="Trazado 873869" d="M45.213,10.294a29.652,29.652,0,0,0-13.737-8.95A30.266,30.266,0,0,0,16.422.671,20.324,20.324,0,0,0,7.143,5.606,26.983,26.983,0,0,0,.136,17.4a2.875,2.875,0,0,0,1.953,3.631L11.8,23.819a2.891,2.891,0,0,0,3.422-1.592c1.3-2.922,4.582-7.532,11.886-5.573a9.181,9.181,0,0,1,6.929,8.092,10.3,10.3,0,0,1-3.359,8.69c-3.806,3.52-8.747,2.809-11.354,2.072a5.663,5.663,0,0,0-6.984,3.861l-3,10.451a2.882,2.882,0,0,0,1.974,3.561L20.78,56.1a2.884,2.884,0,0,0,3.562-1.974l.63-2.2a.126.126,0,0,1,.117-.092,28.547,28.547,0,0,0,11.844-3.411c6.14-3.38,10.32-8.816,12.425-16.157,3.013-10.506-.591-17.747-4.145-21.971" fill="#ffc78f"/>
        <path id="Trazado_873870" data-name="Trazado 873870" d="M15.766,57.5l-.828-.237a7.466,7.466,0,0,0-4.116,14.354l.828.237A7.466,7.466,0,0,0,15.766,57.5" fill="#ffc78f"/>
      </g>
    </g>
    <g id="Grupo_1100228" data-name="Grupo 1100228" transform="translate(190.937 1378.788) rotate(-43)">
      <g id="Grupo_1100123-2" data-name="Grupo 1100123" clip-path="url(#clip-path-3)">
        <path id="Trazado_873869-2" data-name="Trazado 873869" d="M45.213,10.294a29.652,29.652,0,0,0-13.737-8.95A30.266,30.266,0,0,0,16.422.671,20.324,20.324,0,0,0,7.143,5.606,26.983,26.983,0,0,0,.136,17.4a2.875,2.875,0,0,0,1.953,3.631L11.8,23.819a2.891,2.891,0,0,0,3.422-1.592c1.3-2.922,4.582-7.532,11.886-5.573a9.181,9.181,0,0,1,6.929,8.092,10.3,10.3,0,0,1-3.359,8.69c-3.806,3.52-8.747,2.809-11.354,2.072a5.663,5.663,0,0,0-6.984,3.861l-3,10.451a2.882,2.882,0,0,0,1.974,3.561L20.78,56.1a2.884,2.884,0,0,0,3.562-1.974l.63-2.2a.126.126,0,0,1,.117-.092,28.547,28.547,0,0,0,11.844-3.411c6.14-3.38,10.32-8.816,12.425-16.157,3.013-10.506-.591-17.747-4.145-21.971" fill="#ffc78f"/>
        <path id="Trazado_873870-2" data-name="Trazado 873870" d="M15.766,57.5l-.828-.237a7.466,7.466,0,0,0-4.116,14.354l.828.237A7.466,7.466,0,0,0,15.766,57.5" fill="#ffc78f"/>
      </g>
    </g>
    <g id="Enmascarar_grupo_1098700" data-name="Enmascarar grupo 1098700" transform="translate(21.698 8.728)" clip-path="url(#clip-path-5)">
      <g id="Grupo_1100241" data-name="Grupo 1100241" transform="translate(236.51 1177.45)">
        <g id="Grupo_1100240" data-name="Grupo 1100240" clip-path="url(#clip-path-6)">
          <g id="Grupo_1100239" data-name="Grupo 1100239">
            <g id="Grupo_1100238" data-name="Grupo 1100238" clip-path="url(#clip-path-6)">
              <path id="Trazado_874250" data-name="Trazado 874250" d="M10.516,279.6c9.205-23.061,16.113-39.08,16.113-39.08l84.176,12.8s15.13,38.785,13.82,56.385-7.471,48.589-7.471,48.589H15.3S1.31,302.657,10.516,279.6" transform="translate(7.585 -35.381)" fill="#263238"/>
              <path id="Trazado_874251" data-name="Trazado 874251" d="M153.631,54.01c-.661-6.653-1.658-13.344-4.093-19.571s-6.424-12.012-12.059-15.612l-1.447,1.347a8.394,8.394,0,0,0-14.655-2.246,8.287,8.287,0,0,0-9.054,12.593,7.6,7.6,0,0,0-3.382,13.773,11.055,11.055,0,0,0,6.817,19.412,8.738,8.738,0,0,0,15.263,7.662c-.309,3.982,2.876,7.752,6.756,8.7a11.95,11.95,0,0,0,10.938-3.438A18.988,18.988,0,0,0,153.7,65.959a47.973,47.973,0,0,0-.072-11.949" transform="translate(-105.151 -2.141)" fill="#263238"/>
              <path id="Trazado_874252" data-name="Trazado 874252" d="M120,26.25c-3.871,1.254-4.664,4.389-5.468,7-1.731,5.624.216,13.946,3.362,18.917s6.6,7.5,12.422,8.34l.568-26.781Z" transform="translate(-89.435 -3.861)" fill="#f9d648"/>
              <path id="Trazado_874253" data-name="Trazado 874253" d="M50.726,37.789a9.275,9.275,0,0,1,.824-11.862c-1.695-2.13-1.087-5.414.636-7.521s4.281-3.316,6.752-4.458A12.483,12.483,0,0,1,73.486,4.833C76.715.086,83.594-.658,89.106.948a14.7,14.7,0,0,0,4.094.894,23.812,23.812,0,0,0,3.053-.423c5.608-.754,11.173,3.193,13.359,8.411a10.358,10.358,0,0,0,1.191,2.428,14.018,14.018,0,0,0,2.771,2.214A8.956,8.956,0,0,1,117,21.093c.092,2.177-.6,4.489.316,6.466.459.991,1.29,1.792,1.647,2.824,1.037,2.991-2.279,6.05-1.665,9.155.125.634.411,1.224.587,1.846a5.521,5.521,0,0,1-.336,3.863,7.918,7.918,0,0,0-1.216,2.777,8.951,8.951,0,0,0,.453,2.265c.379,1.854-3.621,9-5.223,10.012l-47.875.428a8.946,8.946,0,0,1-6.924-7.7,3.265,3.265,0,0,0-.446-1.76,3.826,3.826,0,0,0-1.307-.849c-3.082-1.655-3.453-5.888-3.13-9.372a4.246,4.246,0,0,0-.026-1.462,5.364,5.364,0,0,0-1.131-1.794" transform="translate(-22.345 -0.027)" fill="#263238"/>
              <path id="Trazado_874254" data-name="Trazado 874254" d="M54.063,39.972c-.142-8.473,5.172-18.209,13.589-22.353,5.305-2.612,9.445-2.629,12.234-2.954a19.394,19.394,0,0,1,11.291,2.368c2.638.62,12.309,9.475,12.811,19.083.559,10.674.819,23.728-.531,31.674-2.713,15.976-15,17.882-15,17.882,0-.024,1.145,26.558,1.145,26.558L65.984,131.585,58.768,99.808Z" transform="translate(-11.965 -2.141)" fill="#ffc09d"/>
              <path id="Trazado_874255" data-name="Trazado 874255" d="M94.041,96.914A40.88,40.88,0,0,1,72.6,90.97s5.585,11.342,21.618,10.016Z" transform="translate(-17.549 -13.382)" fill="#ff9b6c"/>
              <path id="Trazado_874256" data-name="Trazado 874256" d="M121.357,61.416c.01-1.191-1.336-4.017-2.513-4.213-3.138-.523-8.805-.332-8.943,7.65-.189,10.911,10.522,8.474,10.829,8.537,1.739.357.594-7.859.627-11.974" transform="translate(-76.846 -8.389)" fill="#ffc09d"/>
              <path id="Trazado_874257" data-name="Trazado 874257" d="M119.271,69.982c-.048-.036-.193.13-.516.271a1.9,1.9,0,0,1-1.422.005c-1.145-.443-2.084-2.29-2.1-4.258a6.3,6.3,0,0,1,.579-2.713,2.193,2.193,0,0,1,1.455-1.433.968.968,0,0,1,1.113.539c.142.309.067.525.125.544.03.028.237-.177.157-.63a1.21,1.21,0,0,0-.418-.692,1.44,1.44,0,0,0-1.046-.3,2.673,2.673,0,0,0-2.015,1.658,6.455,6.455,0,0,0-.712,3.03c.032,2.2,1.122,4.276,2.692,4.759a2.038,2.038,0,0,0,1.743-.258c.343-.264.4-.507.367-.527" transform="translate(-78.327 -9.019)" fill="#ff9b6c"/>
              <path id="Trazado_874258" data-name="Trazado 874258" d="M109.9,33.593a28.921,28.921,0,0,0-3.838-11.21,23.239,23.239,0,0,0-4.929-6.572,25.62,25.62,0,0,0-5.893-3.554C89.775,9.664,83.678,7.464,77.776,8.794a30.128,30.128,0,0,0-8.8,4.085,33,33,0,0,0-6.043,4.357,24.71,24.71,0,0,0-3.928,5.221A33.835,33.835,0,0,0,54.145,37.15c-.357,5.194-4.287,9.786-1.241,14.008.235.328,5.659,1.45,6.033,1.6.881.351,1.851-.606,1.844-1.555a3.5,3.5,0,0,0-1.363-2.4c1.35-.045,2.276-1.549,2.191-2.9a7.148,7.148,0,0,0-1.685-3.623,1.042,1.042,0,0,1-.235-.467c-.056-.46.465-.743.863-.979a3.673,3.673,0,0,0,.39-5.751A4.927,4.927,0,0,0,64.3,28.842a1.577,1.577,0,0,1-.157-1.217c.183-.363.633-.477,1.022-.592a6.257,6.257,0,0,0,4.19-7.046,15.684,15.684,0,0,0,4.528-.2,5.294,5.294,0,0,0,3.573-2.578,5.91,5.91,0,0,0,10,.536,15.465,15.465,0,0,0,7.49-1.159,7.313,7.313,0,0,0,4.763,5.128c.45.145.968.287,1.186.708a1.717,1.717,0,0,1,.1.886c-.08,1.523.958,2.172,1.8,3.447s2.3,3.17,3.772,2.75c-.163,2.595,1.225,4.484,3.416,5.884Z" transform="translate(-15.537 -1.235)" fill="#263238"/>
              <path id="Trazado_874259" data-name="Trazado 874259" d="M119.317,30.356a4.178,4.178,0,0,0-.577-1.176c-.228-.365-.551-.791-.855-1.335a5.064,5.064,0,0,1-.593-2.044,15.868,15.868,0,0,1,.071-2.7,11.985,11.985,0,0,0-.056-3.24,9.088,9.088,0,0,0-1.4-3.451,8.9,8.9,0,0,0-1.328-1.557,13.43,13.43,0,0,0-1.713-1.3,6.774,6.774,0,0,1-1.645-1.445A8.82,8.82,0,0,1,110.2,10.05a14.64,14.64,0,0,0-6.813-7.532,13.021,13.021,0,0,0-2.618-1.011A11.728,11.728,0,0,0,97.9,1.158a13.166,13.166,0,0,0-1.471.1c-.489.072-.971.17-1.454.252a7.031,7.031,0,0,1-2.916-.022c-.975-.2-1.93-.561-2.937-.821A19.152,19.152,0,0,0,82.84.04,16.676,16.676,0,0,0,79.634.6,10.764,10.764,0,0,0,74.11,4.18l-.409.534.174-.067a12.661,12.661,0,0,0-14.74,9.242l.087-.108a34.573,34.573,0,0,0-3.842,1.986,11.522,11.522,0,0,0-3.146,2.767,7.49,7.49,0,0,0-1.452,3.754,5.153,5.153,0,0,0,1.012,3.7L51.8,25.8a9.036,9.036,0,0,0-2.56,5.581,9.255,9.255,0,0,0,1.089,5.432A8.981,8.981,0,0,0,51.05,37.9a11.883,11.883,0,0,1,.744.98,2.345,2.345,0,0,1,.38,1.074,6.707,6.707,0,0,1-.041,1.133,17.911,17.911,0,0,0,.082,4.143,8.653,8.653,0,0,0,1.047,3.161,5.36,5.36,0,0,0,1.682,1.785c.56.376,1.058.525,1.333.729a2.43,2.43,0,0,1,.394.333,1.264,1.264,0,0,0-.37-.368c-.274-.219-.771-.383-1.311-.763a5.33,5.33,0,0,1-1.624-1.777,8.621,8.621,0,0,1-1-3.123,17.869,17.869,0,0,1-.047-4.1,6.8,6.8,0,0,0,.049-1.167,2.536,2.536,0,0,0-.4-1.165,11.572,11.572,0,0,0-.75-1,8.7,8.7,0,0,1-.69-1.063,9.031,9.031,0,0,1-1.035-5.3A8.78,8.78,0,0,1,52,26l.089-.087-.078-.1a4.878,4.878,0,0,1-.941-3.5,7.2,7.2,0,0,1,1.4-3.6,11.224,11.224,0,0,1,3.071-2.685,34.426,34.426,0,0,1,3.812-1.962l.071-.032.017-.077A12.351,12.351,0,0,1,73.8,4.966l.1.025.072-.092.395-.515A10.441,10.441,0,0,1,79.726.916,16.363,16.363,0,0,1,82.864.364a18.87,18.87,0,0,1,6.179.614c.989.252,1.951.615,2.955.82a7.523,7.523,0,0,0,1.526.171,8.944,8.944,0,0,0,1.506-.152c.49-.084.97-.183,1.447-.253a13.269,13.269,0,0,1,1.429-.1,11.473,11.473,0,0,1,2.789.333,12.74,12.74,0,0,1,2.56.981,14.4,14.4,0,0,1,6.71,7.369,9.014,9.014,0,0,0,1.057,2.114,6.977,6.977,0,0,0,1.708,1.491,13.16,13.16,0,0,1,1.694,1.268,8.741,8.741,0,0,1,1.3,1.511,8.92,8.92,0,0,1,1.4,3.366,11.9,11.9,0,0,1,.081,3.2,15.75,15.75,0,0,0-.043,2.722,5.163,5.163,0,0,0,.635,2.079c.318.548.649.965.884,1.324a6.345,6.345,0,0,1,.493.838c.1.2.131.305.14.3" transform="translate(-22.695 0)" fill="#455a64"/>
              <path id="Trazado_874260" data-name="Trazado 874260" d="M77.293,2.633c.016.025.289-.163.822-.419A7.336,7.336,0,0,1,80.5,1.539a6.911,6.911,0,0,1,3.582.551,7.12,7.12,0,0,1,3.24,2.983,6.079,6.079,0,0,1,.533,1.239,1.363,1.363,0,0,1-.089,1.149l-.27.368.442-.12a4.513,4.513,0,0,1,3.371.428,4.354,4.354,0,0,1,1.835,2.034,4.794,4.794,0,0,1,.412,1.8c.011.437-.026.676,0,.68.009,0,.027-.056.051-.171a2.949,2.949,0,0,0,.06-.508A4.557,4.557,0,0,0,91.448,7.9a4.752,4.752,0,0,0-3.595-.5l.172.248a1.669,1.669,0,0,0,.145-1.422,6.293,6.293,0,0,0-.561-1.314,7.306,7.306,0,0,0-3.4-3.1,6.958,6.958,0,0,0-3.733-.5,6.847,6.847,0,0,0-2.415.791,4.886,4.886,0,0,0-.582.374c-.125.1-.188.15-.182.159" transform="translate(-21.009 -0.183)" fill="#455a64"/>
              <path id="Trazado_874261" data-name="Trazado 874261" d="M100.322,17.4c-.013.014.115.159.378.393a7.092,7.092,0,0,0,1.228.867,5.217,5.217,0,0,0,2.171.67,3.9,3.9,0,0,0,2.716-.8l-.241-.038.316.45c.116.147.245.287.369.432a6.607,6.607,0,0,0,2.713,1.719,6.763,6.763,0,0,0,2.6.346,6.013,6.013,0,0,0,1.723-.378,2.116,2.116,0,0,0,.571-.3,9.4,9.4,0,0,1-2.3.446,6.9,6.9,0,0,1-2.488-.4,6.516,6.516,0,0,1-2.572-1.656c-.117-.138-.24-.27-.349-.409l-.3-.424-.107-.15-.136.111a3.668,3.668,0,0,1-2.492.761,5.249,5.249,0,0,1-2.087-.574c-1.109-.571-1.671-1.115-1.707-1.068" transform="translate(-61.843 -2.559)" fill="#455a64"/>
              <path id="Trazado_874262" data-name="Trazado 874262" d="M104.446,29.049c-.011,0,0,.071.025.2a1.868,1.868,0,0,0,.239.53,2.911,2.911,0,0,0,1.749,1.183,5.558,5.558,0,0,0,3.119-.314,17.776,17.776,0,0,0,1.728-.666,2.982,2.982,0,0,0,1.518-1.361l.07-.175-.258.076a12.5,12.5,0,0,0,3.221,1.969,5.627,5.627,0,0,0,3.062.34,4.058,4.058,0,0,0,1.9-.844,2.541,2.541,0,0,0,.4-.4c.079-.1.116-.159.107-.165s-.2.188-.583.466a4.217,4.217,0,0,1-1.855.716,5.539,5.539,0,0,1-2.915-.393,12.82,12.82,0,0,1-3.127-1.946l-.172-.137-.085.214-.058.145a2.7,2.7,0,0,1-1.358,1.206c-.558.266-1.143.472-1.685.67a5.5,5.5,0,0,1-2.968.374,2.9,2.9,0,0,1-1.7-1.03,4.68,4.68,0,0,1-.368-.658" transform="translate(-71.814 -4.138)" fill="#455a64"/>
              <path id="Trazado_874263" data-name="Trazado 874263" d="M86.933,54.885a2.019,2.019,0,0,1-1.88,2.1,1.931,1.931,0,0,1-2.139-1.752,2.02,2.02,0,0,1,1.878-2.1,1.932,1.932,0,0,1,2.141,1.754" transform="translate(-19.067 -7.815)" fill="#263238"/>
              <path id="Trazado_874264" data-name="Trazado 874264" d="M64,54.257a2.018,2.018,0,0,1-1.88,2.1A1.931,1.931,0,0,1,59.984,54.6a2.021,2.021,0,0,1,1.878-2.1A1.932,1.932,0,0,1,64,54.257" transform="translate(23.42 -7.722)" fill="#263238"/>
              <path id="Trazado_874265" data-name="Trazado 874265" d="M67,46.365c-.241.271-1.806-.811-3.978-.735-2.17.043-3.728,1.213-3.971.954-.12-.114.12-.6.8-1.125a5.544,5.544,0,0,1,3.169-1.09,5.328,5.328,0,0,1,3.177.914c.684.491.925.96.806,1.081" transform="translate(21.224 -6.527)" fill="#263238"/>
              <path id="Trazado_874266" data-name="Trazado 874266" d="M92.276,47.564c-.269.245-1.716-.992-3.882-1.139-2.162-.179-3.832.823-4.049.541-.106-.125.179-.582.91-1.036a5.536,5.536,0,0,1,3.263-.759,5.324,5.324,0,0,1,3.067,1.236c.628.559.821,1.05.691,1.158" transform="translate(-25.651 -6.642)" fill="#263238"/>
              <path id="Trazado_874267" data-name="Trazado 874267" d="M70.044,63.977a14.42,14.42,0,0,1,3.506-.75c.552-.075,1.074-.2,1.155-.583a2.821,2.821,0,0,0-.423-1.632q-.847-1.987-1.776-4.169c-2.47-5.938-4.277-10.828-4.038-10.925s2.438,4.636,4.908,10.574q.893,2.2,1.707,4.2a3.209,3.209,0,0,1,.357,2.167,1.391,1.391,0,0,1-.885.84,3.759,3.759,0,0,1-.937.16,14.111,14.111,0,0,1-3.574.12" transform="translate(4.679 -6.755)" fill="#263238"/>
              <path id="Trazado_874268" data-name="Trazado 874268" d="M78.217,70.868a3.1,3.1,0,0,0-2.1,1.216c-.474.68-.817,2.273-.345,2.893.4.528,2.2.526,3.429.371a1.517,1.517,0,0,0,1.238-1.012l.487-1.4a1.514,1.514,0,0,0-.944-1.946,4.061,4.061,0,0,0-1.762-.12" transform="translate(-6.857 -10.418)" fill="#ff9b6c"/>
              <path id="Trazado_874269" data-name="Trazado 874269" d="M93.095,38.242c-.323.539-2.4-.151-4.958-.337-2.558-.237-4.717.1-4.949-.482-.1-.278.358-.755,1.283-1.157a8.649,8.649,0,0,1,7.549.623c.846.55,1.22,1.1,1.075,1.353" transform="translate(-25.481 -5.248)" fill="#263238"/>
              <path id="Trazado_874270" data-name="Trazado 874270" d="M68.15,42.12c-.455.481-2.174-.077-4.257-.158-2.08-.143-3.857.228-4.249-.3-.171-.256.12-.742.9-1.188a6.608,6.608,0,0,1,3.484-.716,6.515,6.515,0,0,1,3.37,1.083c.722.527.95,1.041.749,1.277" transform="translate(19.533 -5.847)" fill="#263238"/>
              <path id="Trazado_874271" data-name="Trazado 874271" d="M18.1,142.452l20.487,74.311-7.187,21.3c27.053,11.923,66.161,15.713,96.988.774,0,0-10.472-30.726-10.828-36.706s2.218-40.919-.632-52.636-11.007-36.831-11.007-36.831l-24-3.81c-11,5.91-18.047,6.79-29.879-.059L29.7,113.671Z" transform="translate(-5.244 -16.004)" fill="#455a64"/>
              <path id="Trazado_874272" data-name="Trazado 874272" d="M21.292,112.625s12.886,1.365,18.075,11.963C44.494,135.058,58.722,181.4,59.5,189.142s-5.506,18.162-10.982,19.6l-16.6-16.552-13.774,1.226L0,108.8Z" transform="translate(79.022 -16.004)" fill="#455a64"/>
              <g id="Grupo_1100231" data-name="Grupo 1100231" transform="translate(110.044 125.087)" opacity="0.3">
                <g id="Grupo_1100230" data-name="Grupo 1100230">
                  <g id="Grupo_1100229" data-name="Grupo 1100229" clip-path="url(#clip-path-8)">
                    <path id="Trazado_874273" data-name="Trazado 874273" d="M13.892,146.661a62.331,62.331,0,0,1,3.24,32.855l9.072-3.389a28.325,28.325,0,0,1-9.426,8.269,22.114,22.114,0,0,1,7.494-1.255c2.542.165,5.167,1.39,6.311,3.665a30.543,30.543,0,0,0-8.978-.735c-2.995.35-6.016,1.732-7.627,4.28a105.226,105.226,0,0,0,2.549-29.516" transform="translate(-13.892 -146.661)"/>
                  </g>
                </g>
              </g>
              <g id="Grupo_1100234" data-name="Grupo 1100234" transform="translate(46.183 188.818)" opacity="0.3">
                <g id="Grupo_1100233" data-name="Grupo 1100233">
                  <g id="Grupo_1100232" data-name="Grupo 1100232" clip-path="url(#clip-path-9)">
                    <path id="Trazado_874274" data-name="Trazado 874274" d="M95.752,221.385l-67.625,6.7c4.874-.1,8.625,4.022,12.845,6.463,7.814,4.52,17.546,3.256,26.464,1.853L89.6,232.916c1.864-.293,3.851-.645,5.225-1.939,2.463-2.318,1.789-6.322.925-9.593" transform="translate(-28.127 -221.385)"/>
                  </g>
                </g>
              </g>
              <path id="Trazado_874275" data-name="Trazado 874275" d="M91.381,212.728,80.057,201.795a5.226,5.226,0,0,0-4.125-1.447c-3.232.306-8.709.874-9.836,1.313-1.62.629-3.149,1.529-3.6,2.339a47.779,47.779,0,0,0-2.069,6.388,14.682,14.682,0,0,0,.181,2.3,1.6,1.6,0,0,0,2.349,1.221,2.66,2.66,0,0,0,1.07-1.006,3.585,3.585,0,0,0,.629-1.889s-.36,4.859,3.6,4.948c0,0-1.823,4.139,3.273,5.848,0,0-.188,2.7,4.073,3.059a51.864,51.864,0,0,0,8.132,0s7.79,5.6,13.279,5.956,17.779-2.038,17.779-2.038l1.483-22.635Z" transform="translate(-29.22 -29.469)" fill="#ffc09d"/>
              <path id="Trazado_874276" data-name="Trazado 874276" d="M119.207,206.733a12.05,12.05,0,0,1-1.814.761c-1.137.425-2.719.991-4.516,1.47-.889.252-1.786.395-2.531.6a2.754,2.754,0,0,0-1.543,1.267,12.838,12.838,0,0,1-.817,1.187c-.223.264-.38.374-.391.362a3.244,3.244,0,0,1,.3-.433c.193-.275.417-.7.73-1.232a4.139,4.139,0,0,1,.618-.809,2.508,2.508,0,0,1,1.02-.606c.8-.235,1.647-.373,2.54-.627,1.783-.474,3.369-1.006,4.523-1.379a13.465,13.465,0,0,1,1.885-.558" transform="translate(-72.389 -30.411)" fill="#ff9b6c"/>
              <path id="Trazado_874277" data-name="Trazado 874277" d="M114.84,214.869a6.054,6.054,0,0,1-1.261.582c-.794.32-1.9.732-3.14,1.146s-2.373.752-3.2.976a6.079,6.079,0,0,1-1.356.293,6.575,6.575,0,0,1,1.294-.5l3.165-1.058,3.163-1.06a6.608,6.608,0,0,1,1.334-.38" transform="translate(-66.564 -31.607)" fill="#ff9b6c"/>
              <path id="Trazado_874278" data-name="Trazado 874278" d="M111.145,222.433c.009.093-1.972.3-4.328.937s-4.175,1.451-4.213,1.365a4.757,4.757,0,0,1,1.156-.614,21.316,21.316,0,0,1,6.079-1.638,4.739,4.739,0,0,1,1.307-.05" transform="translate(-60.071 -32.717)" fill="#ff9b6c"/>
              <path id="Trazado_874279" data-name="Trazado 874279" d="M23.472,229.656l50.236-8.018s-6.037-25.2-14.845-25.2c-1.29,0-45.912,14.5-45.912,14.5Z" transform="translate(53.83 -28.897)" fill="#455a64"/>
              <path id="Trazado_874280" data-name="Trazado 874280" d="M89.787,221.182A9.358,9.358,0,0,1,88.61,220.1l-2.745-2.7c-1.066-1.06-2.018-2.035-2.685-2.763a7.541,7.541,0,0,1-1.024-1.227,9.273,9.273,0,0,1,1.178,1.078l2.745,2.7c1.065,1.06,2.016,2.035,2.684,2.762a7.564,7.564,0,0,1,1.024,1.228" transform="translate(-21.274 -31.394)" fill="#ff9b6c"/>
              <path id="Trazado_874281" data-name="Trazado 874281" d="M13.892,210.313a2.217,2.217,0,0,0,.639-.119l1.79-.477,6.546-1.883c5.518-1.62,13.126-3.905,21.516-6.473l12.953-4,.1-.032.076-.1a11.487,11.487,0,0,1,5.855-3.957,14.685,14.685,0,0,1,5.6-.57,16.8,16.8,0,0,1,3.619.722c.818.263,1.242.451,1.259.418a4.066,4.066,0,0,0-1.189-.613,14.952,14.952,0,0,0-9.442-.477,11.862,11.862,0,0,0-6.247,4.119l.177-.133-12.974,3.933c-8.39,2.567-15.974,4.93-21.454,6.675l-6.479,2.1-1.751.606a2.218,2.218,0,0,0-.6.258" transform="translate(52.889 -28.273)" fill="#263238"/>
              <path id="Trazado_874282" data-name="Trazado 874282" d="M53.294,113.016c-.42-1.4-2.78-14.306-3.739-17.308C48.2,91.473,37.2,83.9,37.2,83.9s1.725-3.975,6.41-1.909c5.546,2.446,8.288,6.564,9.685,5.726S63.4,78.01,65.779,78.29s2.9,2.716,2.059,3.695a21.7,21.7,0,0,0-1.779,2.594s5.03-1.514,4.052,3.993c0,0,5.729-3.574,5.17,3.971,0,0,3.772-1.537,4.612,1.118s-1.649,5.729-2.906,7.824-5.339,14.253-5.339,14.253L71.6,126.456l-20.031-4.118Z" transform="translate(26.796 -11.516)" fill="#ffc09d"/>
              <path id="Trazado_874283" data-name="Trazado 874283" d="M53.259,112.957a3.6,3.6,0,0,0-.158.615c-.094.449-.218,1.043-.377,1.8-.32,1.625-.775,3.934-1.356,6.88l-.032.16.163.035,20.01,4.225.331.07,0-.341c.025-3.3.052-6.911.081-10.717l-.016.1c1.429-4.123,2.915-8.557,4.781-13.037.913-2.158,2.815-4.038,3.5-6.657a5,5,0,0,0,.133-2.047,2.678,2.678,0,0,0-1.085-1.867,3.338,3.338,0,0,0-2.1-.471,7.18,7.18,0,0,0-2.029.454l.49.357a12.8,12.8,0,0,0-.049-2.258,3.9,3.9,0,0,0-.958-2.229,2.709,2.709,0,0,0-2.421-.664,6.614,6.614,0,0,0-2.289.849l.545.368a4.887,4.887,0,0,0-.374-3.356,2.743,2.743,0,0,0-1.955-1.2,5.443,5.443,0,0,0-2.182.154l.415.526a21,21,0,0,1,1.64-2.42,2.222,2.222,0,0,0,.559-1.6,2.972,2.972,0,0,0-.545-1.567,2.89,2.89,0,0,0-1.3-1.01,3.818,3.818,0,0,0-.784-.2,2.4,2.4,0,0,0-.867.074,9.82,9.82,0,0,0-2.612,1.464c-3.125,2.281-5.8,4.9-8.5,7.267a4.365,4.365,0,0,1-.956.7,1.516,1.516,0,0,1-.99-.316,25.655,25.655,0,0,1-2.083-1.546,32.734,32.734,0,0,0-4.261-2.934,9.59,9.59,0,0,0-4.776-1.567,4.617,4.617,0,0,0-3.965,2.681l-.1.215.206.147c4.288,3.047,8.141,6.048,10.868,9.275a7.989,7.989,0,0,1,1.51,2.581c.281.941.5,1.877.707,2.771q.591,2.692,1.084,4.934c.628,2.942,1.123,5.264,1.473,6.9.177.792.319,1.4.427,1.8a4.126,4.126,0,0,0,.194.606,4.225,4.225,0,0,0-.107-.626l-.342-1.818c-.312-1.645-.754-3.977-1.315-6.933-.306-1.5-.646-3.155-1.014-4.957-.2-.9-.4-1.838-.682-2.809a8.418,8.418,0,0,0-1.563-2.75c-2.767-3.337-6.6-6.359-10.906-9.465l.1.361a4.016,4.016,0,0,1,3.447-2.3,9.056,9.056,0,0,1,4.437,1.508,32.319,32.319,0,0,1,4.166,2.9,25.585,25.585,0,0,0,2.147,1.6,2.059,2.059,0,0,0,1.506.394,4.155,4.155,0,0,0,1.23-.841c2.732-2.378,5.409-4.979,8.471-7.207a9.346,9.346,0,0,1,2.4-1.354A1.643,1.643,0,0,1,65.8,78.6a3.123,3.123,0,0,1,.624.162,2.171,2.171,0,0,1,.982.765,1.835,1.835,0,0,1,.014,2.293,21.454,21.454,0,0,0-1.708,2.514l-.455.759.87-.233c1.167-.311,2.7-.278,3.32.745a4.249,4.249,0,0,1,.273,2.841l-.11.754.656-.385a5.929,5.929,0,0,1,2.013-.748,1.986,1.986,0,0,1,1.811.463c.887.958.861,2.571.8,3.923L74.865,93l.515-.188a4.152,4.152,0,0,1,3.458-.06,1.973,1.973,0,0,1,.789,1.4,4.307,4.307,0,0,1-.117,1.759,12.31,12.31,0,0,1-1.568,3.311,21.949,21.949,0,0,0-1.876,3.246c-1.877,4.549-3.335,8.966-4.749,13.112l-.015.047v.05c-.005,3.807-.009,7.418-.014,10.718l.334-.271-20.054-4.009.131.194c.514-2.972.918-5.3,1.2-6.94.122-.757.217-1.353.29-1.8a3.173,3.173,0,0,0,.069-.612" transform="translate(26.832 -11.457)" fill="#ff9b6c"/>
              <path id="Trazado_874284" data-name="Trazado 874284" d="M58.558,85.826a28.267,28.267,0,0,1-2.432,2.268A28.272,28.272,0,0,1,53.637,90.3a13.606,13.606,0,0,1,2.285-2.431,13.6,13.6,0,0,1,2.635-2.044" transform="translate(34.279 -12.625)" fill="#ff9b6c"/>
              <path id="Trazado_874285" data-name="Trazado 874285" d="M51.474,89.993a8.241,8.241,0,0,1-3.1,3.991c-.059-.068.774-.839,1.621-1.939s1.394-2.092,1.475-2.052" transform="translate(45.842 -13.238)" fill="#ff9b6c"/>
              <path id="Trazado_874286" data-name="Trazado 874286" d="M45.244,94.678A6.784,6.784,0,0,1,44.192,96.4a6.775,6.775,0,0,1-1.3,1.54,6.8,6.8,0,0,1,1.052-1.719,6.774,6.774,0,0,1,1.3-1.54" transform="translate(56.755 -13.927)" fill="#ff9b6c"/>
              <path id="Trazado_874287" data-name="Trazado 874287" d="M59.466,114.512l21.544,21.5,22.1,27.769,8.79-37.005,22.46,4.616s-1.585,41.8-8.5,60.747c-1.315,3.606-5.207,6.287-6.943,7.111-10.858,5.157-21.459-2.822-21.459-2.822s-45.3-30.4-50.21-50.757c-2.319-9.611-1.389-21.038,2.561-25.742,3.473-4.136,9.65-5.412,9.65-5.412" transform="translate(-35.015 -16.845)" fill="#455a64"/>
              <path id="Trazado_874288" data-name="Trazado 874288" d="M45.742,147.741s.051.224.172.658a15.5,15.5,0,0,0,.606,1.9,33.435,33.435,0,0,0,3.557,6.8,76.5,76.5,0,0,0,7.536,9.531,156.827,156.827,0,0,0,11.523,11.239c4.453,3.97,9.514,8.108,15.086,12.367q4.182,3.191,8.758,6.437l2.316,1.615c.769.53,1.574,1.091,2.413,1.563a27.8,27.8,0,0,0,5.378,2.346,20.07,20.07,0,0,0,12.035.227,13.08,13.08,0,0,0,1.469-.548,11.044,11.044,0,0,0,1.444-.645,17.309,17.309,0,0,0,2.615-1.806,12.871,12.871,0,0,0,3.89-5.1,98.707,98.707,0,0,0,3.369-12.663c.825-4.357,1.591-8.792,2.162-13.307,1.584-12.044,2.486-23.774,2.993-34.886l.009-.182-.18-.037-22.462-4.6-.19-.039-.044.188c-3.321,14.059-6.276,26.569-8.744,37.016l.259-.068L83.833,146.516,79,141.347l-1.261-1.331c-.285-.3-.438-.443-.438-.443s.132.165.407.472l1.229,1.36,4.775,5.223,17.778,19.325.193.21.066-.278c2.494-10.441,5.481-22.943,8.837-36.993l-.234.149,22.456,4.63-.171-.217c-.516,11.093-1.423,22.82-3,34.843-.571,4.508-1.334,8.934-2.155,13.279a98.587,98.587,0,0,1-3.344,12.6,12.452,12.452,0,0,1-3.757,4.924,16.975,16.975,0,0,1-2.545,1.762,10.8,10.8,0,0,1-1.4.624,12.573,12.573,0,0,1-1.434.536,19.664,19.664,0,0,1-11.786-.212,27.447,27.447,0,0,1-5.3-2.3c-.836-.47-1.6-1-2.388-1.542L93.2,196.357q-4.576-3.223-8.76-6.411c-5.575-4.241-10.641-8.36-15.1-12.309A158.906,158.906,0,0,1,57.8,166.466a77.633,77.633,0,0,1-7.575-9.458A34.475,34.475,0,0,1,46.6,150.27a17.636,17.636,0,0,1-.647-1.884c-.136-.428-.216-.646-.216-.646" transform="translate(-33.502 -18.919)" fill="#263238"/>
              <path id="Trazado_874289" data-name="Trazado 874289" d="M82.909,189.036c.078-.018-.184-1.087-.322-2.841a21.368,21.368,0,0,1-.01-3.082A22.44,22.44,0,0,1,83.2,179.4a23.944,23.944,0,0,1,2.682-6.292c.917-1.5,1.6-2.368,1.534-2.417-.023-.019-.213.18-.536.559a17.781,17.781,0,0,0-1.262,1.69,21.219,21.219,0,0,0-2.847,6.348,20.652,20.652,0,0,0-.6,3.8,18.479,18.479,0,0,0,.107,3.137,13.831,13.831,0,0,0,.386,2.077,2.594,2.594,0,0,0,.247.734" transform="translate(-18.898 -25.109)" fill="#263238"/>
              <path id="Trazado_874290" data-name="Trazado 874290" d="M74.851,73.93c.04.118.5.067,1.211-.078a22.213,22.213,0,0,1,2.716-.438,8.254,8.254,0,0,1,2.655.16c.665.154.945.425,1.053.38.052-.024.053-.171-.081-.37a1.992,1.992,0,0,0-.746-.6,5.67,5.67,0,0,0-2.952-.459,8.844,8.844,0,0,0-2.835.725c-.677.3-1.059.562-1.021.676" transform="translate(-7.774 -10.665)" fill="#263238"/>
              <g id="Grupo_1100237" data-name="Grupo 1100237" transform="translate(17.923 125.317)" opacity="0.3">
                <g id="Grupo_1100236" data-name="Grupo 1100236">
                  <g id="Grupo_1100235" data-name="Grupo 1100235" clip-path="url(#clip-path-10)">
                    <path id="Trazado_874291" data-name="Trazado 874291" d="M109.926,221.9s9.862-1.209,15.167-2.03c2.9-.448,7.314-.914,8.149-1.725,1.038-1.006,1.031-2.682,1.141-4.125,1.881-24.6-6.578-51.217-32.722-67.09l-6.668,1.754.431,16.028Z" transform="translate(-94.993 -146.931)"/>
                  </g>
                </g>
              </g>
            </g>
          </g>
        </g>
      </g>
    </g>
    <rect id="Rectángulo_401697" data-name="Rectángulo 401697" width="235" height="7" rx="3.5" transform="translate(218 1441)" fill="#67550c"/>
  </g>
</svg>
