<svg xmlns="http://www.w3.org/2000/svg" xmlns:xlink="http://www.w3.org/1999/xlink" width="1030" height="514" viewBox="0 0 1030 514">
  <defs>
    <clipPath id="clip-path">
      <rect id="Rectángulo_402126" data-name="Rectángulo 402126" width="647.42" height="442.409" fill="none"/>
    </clipPath>
    <clipPath id="clip-path-3">
      <rect id="Rectángulo_402118" data-name="Rectángulo 402118" width="288.41" height="281.974" fill="none"/>
    </clipPath>
    <clipPath id="clip-path-4">
      <path id="Trazado_875326" data-name="Trazado 875326" d="M314.436,227.6C289.546,258.67,344,372.609,352.618,397.08c5.424,15.408,26.321,10.68,48.1,5.952,18.187-3.947,36.989-7.894,47.921-.123C500.4,447.6,574.27,476.028,633.665,422.191c61.108-55.391,38.547-205.777-23.59-264.387-15.088-14.231-39.756-20.247-68.736-20.247-79.276,0-190.832,45.016-226.9,90.043" transform="translate(-307.976 -137.557)" fill="none"/>
    </clipPath>
    <clipPath id="clip-path-5">
      <rect id="Rectángulo_402120" data-name="Rectángulo 402120" width="193.659" height="193.164" fill="none"/>
    </clipPath>
    <clipPath id="clip-path-6">
      <path id="Trazado_875306" data-name="Trazado 875306" d="M482.073,314.048s5.142-15.678,7.952-21.16c10.948-21.358,22.664-24.232,39.614-23.81,6.58.164,17.878,52.52,17.878,52.52s26.587-51.692,37.232-52.52c18.7-1.454,45.975-.777,56.03,29.444l19.277,59.857L600.8,360.8l16.622,101.009s-111.262,1.058-124.08-15.434l9.267-82.585Z" transform="translate(-482.073 -268.656)" fill="none"/>
    </clipPath>
    <clipPath id="clip-path-7">
      <rect id="Rectángulo_402121" data-name="Rectángulo 402121" width="16.52" height="11.778" fill="none"/>
    </clipPath>
    <clipPath id="clip-path-9">
      <rect id="Rectángulo_402122" data-name="Rectángulo 402122" width="306.635" height="276.545" fill="#ffea96"/>
    </clipPath>
    <clipPath id="clip-path-10">
      <path id="Trazado_875387" data-name="Trazado 875387" d="M138.232,0C121,.031,104.458,3.826,89.59,12.205,47.773,35.773,24.967,117.389,9.507,147.953c-11.814,23.354-15.6,68.4,6.343,103.064,43.43,68.605,143.464,73.482,207.944,28.013,71.088-50.129,113.032-141.34,56.653-205.483C243.071,31.025,188.042.064,138.608,0Z" transform="translate(0)" fill="none"/>
    </clipPath>
    <clipPath id="clip-path-11">
      <rect id="Rectángulo_402124" data-name="Rectángulo 402124" width="17.821" height="6.966" fill="none"/>
    </clipPath>
  </defs>
  <g id="Grupo_1100634" data-name="Grupo 1100634" transform="translate(-285 -10245)">
    <rect id="Rectángulo_402117" data-name="Rectángulo 402117" width="1030" height="514" transform="translate(285 10245)" fill="#fff8e0"/>
    <g id="Grupo_1100528" data-name="Grupo 1100528" transform="translate(329 10281)">
      <g id="Grupo_1100527" data-name="Grupo 1100527" clip-path="url(#clip-path)">
        <g id="Grupo_1100504" data-name="Grupo 1100504">
          <g id="Grupo_1100503" data-name="Grupo 1100503" clip-path="url(#clip-path)">
            <path id="Trazado_875259" data-name="Trazado 875259" d="M312.931,33.8q2.771-.315,5.536-.595" transform="translate(-22.61 -2.399)" fill="none" stroke="#f9d648" stroke-linecap="round" stroke-miterlimit="10" stroke-width="4"/>
            <path id="Trazado_875260" data-name="Trazado 875260" d="M336.751,31.64a455.906,455.906,0,0,1,45.673-.734" transform="translate(-24.331 -2.214)" fill="none" stroke="#f9d648" stroke-linecap="round" stroke-miterlimit="10" stroke-width="4" stroke-dasharray="14.926 8.956 17.911 14.926"/>
            <path id="Trazado_875261" data-name="Trazado 875261" d="M393.438,31.248c25.691,1.316,49.467,4.9,69.727,10.4" transform="translate(-28.427 -2.258)" fill="none" stroke="#f9d648" stroke-linecap="round" stroke-miterlimit="10" stroke-width="4" stroke-dasharray="8.956 17.911 14.926 8.956 17.911 14.926"/>
            <path id="Trazado_875262" data-name="Trazado 875262" d="M475.769,44.52q2.7.822,5.3,1.692" transform="translate(-34.375 -3.217)" fill="none" stroke="#f9d648" stroke-linecap="round" stroke-miterlimit="10" stroke-width="4"/>
            <path id="Trazado_875263" data-name="Trazado 875263" d="M478.609,449.558q-2.673.557-5.46,1.071" transform="translate(-34.186 -32.482)" fill="none" stroke="#f9d648" stroke-linecap="round" stroke-miterlimit="10" stroke-width="4"/>
            <path id="Trazado_875264" data-name="Trazado 875264" d="M441.716,454.478a666.936,666.936,0,0,1-67.346,3.446" transform="translate(-27.049 -32.837)" fill="none" stroke="#f9d648" stroke-linecap="round" stroke-miterlimit="10" stroke-width="4" stroke-dasharray="22.053 13.232 26.464 22.053"/>
            <path id="Trazado_875265" data-name="Trazado 875265" d="M340.7,448.919c-49.78-.234-100.588-4.241-133.559-9.21A221.691,221.691,0,0,1,96.466,389.646C78.312,374.206,61,354.409,49.908,329.756" transform="translate(-3.606 -23.826)" fill="none" stroke="#f9d648" stroke-linecap="round" stroke-miterlimit="10" stroke-width="4" stroke-dasharray="13.232 26.464 22.053 13.232 26.464 22.053"/>
            <path id="Trazado_875266" data-name="Trazado 875266" d="M45.586,319.07q-.949-2.6-1.8-5.269" transform="translate(-3.163 -22.673)" fill="none" stroke="#f9d648" stroke-linecap="round" stroke-miterlimit="10" stroke-width="4"/>
            <path id="Trazado_875267" data-name="Trazado 875267" d="M547.532,78.736q2.318,1.549,4.6,3.141" transform="translate(-39.56 -5.689)" fill="none" stroke="#f9d648" stroke-linecap="round" stroke-miterlimit="10" stroke-width="4"/>
            <path id="Trazado_875268" data-name="Trazado 875268" d="M569.64,95.139a249.021,249.021,0,0,1,38.313,39.234" transform="translate(-41.158 -6.874)" fill="none" stroke="#f9d648" stroke-linecap="round" stroke-miterlimit="10" stroke-width="4" stroke-dasharray="17.945 10.767 21.535 17.945"/>
            <path id="Trazado_875269" data-name="Trazado 875269" d="M616.323,144.6c17.212,23.778,29.349,49.95,35.166,76.644" transform="translate(-44.531 -10.448)" fill="none" stroke="#f9d648" stroke-linecap="round" stroke-miterlimit="10" stroke-width="4" stroke-dasharray="10.767 21.535 17.945 10.767 21.535 17.945"/>
            <path id="Trazado_875270" data-name="Trazado 875270" d="M655.931,236.022q.463,2.748.836,5.5" transform="translate(-47.393 -17.053)" fill="none" stroke="#f9d648" stroke-linecap="round" stroke-miterlimit="10" stroke-width="4"/>
            <g id="Grupo_1100502" data-name="Grupo 1100502" transform="translate(356.551 160.088)" opacity="0.4">
              <g id="Grupo_1100501" data-name="Grupo 1100501">
                <g id="Grupo_1100500" data-name="Grupo 1100500" clip-path="url(#clip-path-3)">
                  <path id="Trazado_875271" data-name="Trazado 875271" d="M608.5,215.709c-56.361-53.16-152.384-61.687-201.641-.2-24.891,31.069-26.4,75.738-17.787,100.209,26.806,76.134,155.628,194.639,250.1,109,61.108-55.391,31.461-150.4-30.676-209.01" transform="translate(-384.319 -172.555)" fill="#ffea96"/>
                </g>
              </g>
            </g>
          </g>
        </g>
        <g id="Grupo_1100514" data-name="Grupo 1100514" transform="translate(285.724 127.618)">
          <g id="Grupo_1100513" data-name="Grupo 1100513" clip-path="url(#clip-path-4)">
            <path id="Trazado_875272" data-name="Trazado 875272" d="M574.418,160.314s22.758-1.147,30.362,14.685c6.454,13.438.371,20.512,3.075,27.746s11.366,9.079,7.643,19.327,10.06,9.805,8.724,20.744-8.577,11.482-.176,17.369,15.065,23.75,4.945,30.288c-14.5,9.369-50.029-19.778-75.328-12.011s-51.422-2.318-48.524-12.329,19.037-12.924,14.293-21.619-7.475-19.858.354-28.093,4.645-7.7,4.777-18.14c.081-6.424,5.148-14.124,7.521-21.085,2.849-8.353,3.845-11.792,14.391-16.447,16.86-7.441,27.944-.436,27.944-.436" transform="translate(-322.205 -138.985)" fill="#442017"/>
            <path id="Trazado_875273" data-name="Trazado 875273" d="M582.194,161.725s1.731-19.7,23.839-11.889,20.268,34.49-4.28,34.4-19.559-22.506-19.559-22.506" transform="translate(-327.759 -138.312)" fill="#442017"/>
            <path id="Trazado_875274" data-name="Trazado 875274" d="M612.785,184a1.121,1.121,0,0,0,.348,0,.805.805,0,0,0,.738-.98c-.06-.228-6.287-22.884-32.241-23.4a.853.853,0,0,0-.944.833,1,1,0,0,0,1.024.873c24.311.494,30.011,21.094,30.242,21.972a1.015,1.015,0,0,0,.832.7" transform="translate(-327.68 -139.151)" fill="#fcf9ed"/>
            <path id="Trazado_875275" data-name="Trazado 875275" d="M580.082,178.705s1.779,17.282,5.9,21.467,9.684-3,9.684-3-4.778-26.868-15.581-18.463" transform="translate(-327.636 -140.412)" fill="#442017"/>
            <path id="Trazado_875276" data-name="Trazado 875276" d="M558.05,174.8s6.6,15.264,18.942,14.422,6.386-12.148,6.386-12.148S563.34,163.848,558.05,174.8" transform="translate(-326.044 -139.934)" fill="#442017"/>
            <path id="Trazado_875277" data-name="Trazado 875277" d="M559.847,174.116s-9.263,16.288-20.138,11.03,8.674-19.277,16.2-17.067,3.936,6.037,3.936,6.037" transform="translate(-324.487 -139.745)" fill="#442017"/>
            <path id="Trazado_875278" data-name="Trazado 875278" d="M584.136,194.6s1.545,3.32-.768,13.687-4.02,12.725-4.02,12.725,8.292-7.149,9.576-21.908c1.894-21.756-4.788-4.5-4.788-4.5" transform="translate(-327.583 -141.21)" fill="#442017"/>
            <path id="Trazado_875279" data-name="Trazado 875279" d="M482.073,314.081l6.529-17.389a42.533,42.533,0,0,1,39.818-27.58h71.891a42.532,42.532,0,0,1,41.558,33.479l12.785,58.688-47.823,33.907,10.4,66.1s-115.728-4.205-123.891-14.876l9.267-78.874Z" transform="translate(-320.555 -147.062)" fill="#c1725c"/>
            <path id="Trazado_875280" data-name="Trazado 875280" d="M474.457,315.935l-24.961,28.4-50.532-49.556-22.3,14.541s27.128,60.622,40.172,75.834,36.531,31.569,56.481,12.4l25.467-31.091Z" transform="translate(-312.939 -148.916)" fill="#b76856"/>
            <path id="Trazado_875281" data-name="Trazado 875281" d="M462.709,362.016a.845.845,0,0,0,.43-.117.855.855,0,0,0,.306-1.168l-8.365-14.289a.854.854,0,1,0-1.474.862l8.366,14.289a.853.853,0,0,0,.738.423" transform="translate(-318.49 -152.619)" fill="#7d351d"/>
            <path id="Trazado_875282" data-name="Trazado 875282" d="M482.073,314.048s5.143-15.677,7.952-21.159c10.948-21.359,22.664-24.233,39.614-23.81,6.581.164,17.879,52.519,17.879,52.519s26.587-51.691,37.232-52.519c18.7-1.454,45.974-.777,56.03,29.444l19.276,59.857L600.8,360.8l16.622,101.009s-111.262,1.057-124.08-15.434l9.267-82.585Z" transform="translate(-320.555 -147.029)" fill="#6059c9"/>
            <path id="Trazado_875283" data-name="Trazado 875283" d="M596.2,204.972l-3.7-.927-6.146,7.137a3.467,3.467,0,0,1-6.072-2.652l1.942-17.2A3.525,3.525,0,0,0,576.5,188.2l-4.744,3.853-4.354-1.1a12.042,12.042,0,0,1-9.082-11.113l-.122-2.626a12.041,12.041,0,0,1-15.073,6.455l-.125-.045-11.871,29.2c-4.673,11.493-.468,24.291,9.368,30.439l-1.371,14.19c-1.071,11.085,7.392,21.057,18.807,22.16l.474.045c11.415,1.1,6.632.932,7.7-10.154l12.1.168,6.512-42.571,5.564,1.4a12.036,12.036,0,0,0,14.556-8.713l.065-.258a12.025,12.025,0,0,0-8.713-14.556" transform="translate(-323.961 -140.422)" fill="#c1725c"/>
            <path id="Trazado_875284" data-name="Trazado 875284" d="M538.093,202.233a2.323,2.323,0,1,0,3.032-1.265,2.322,2.322,0,0,0-3.032,1.265" transform="translate(-324.59 -142.126)" fill="#111"/>
            <path id="Trazado_875285" data-name="Trazado 875285" d="M557.758,207.27a2.542,2.542,0,1,0,2.863-2.174,2.543,2.543,0,0,0-2.863,2.174" transform="translate(-326.021 -142.435)" fill="#111"/>
            <path id="Trazado_875286" data-name="Trazado 875286" d="M545.386,237.8a.482.482,0,0,0,.322.042A4.116,4.116,0,0,1,550,239.62a.484.484,0,0,0,.828-.5A5.17,5.17,0,0,0,545.5,236.9a.483.483,0,0,0-.113.9" transform="translate(-325.11 -144.729)" fill="#7d351d"/>
            <path id="Trazado_875287" data-name="Trazado 875287" d="M571.224,199.528a7.4,7.4,0,0,1-2.939-.893c-1-.453-2.006-.882-2.9-1.226s-1.933-.7-2.974-1.034a7.367,7.367,0,0,1-2.773-1.307c-.641-.619-.6-1.667.751-2.459,1.279-.783,3.974-1.134,6.931,0s4.676,3.2,5.067,4.622c.43,1.477-.265,2.275-1.166,2.3" transform="translate(-326.13 -141.482)" fill="#442017"/>
            <path id="Trazado_875288" data-name="Trazado 875288" d="M537.6,191.483a4.487,4.487,0,0,0,2.1.255c.754-.022,1.512-.024,2.17,0s1.416.083,2.166.162a4.478,4.478,0,0,0,2.114-.1c.577-.252.841-1.025.211-2.012a5.482,5.482,0,0,0-4.375-2.128,5.375,5.375,0,0,0-4.486,1.794c-.684.938-.467,1.728.095,2.023" transform="translate(-324.529 -141.177)" fill="#381812"/>
            <path id="Trazado_875289" data-name="Trazado 875289" d="M562.292,211.125a3.621,3.621,0,0,0-4.438-.63" transform="translate(-326.03 -142.79)" fill="#c1725c"/>
            <path id="Trazado_875290" data-name="Trazado 875290" d="M557.6,211.3a.894.894,0,0,1-.252-1.654,4.485,4.485,0,0,1,5.54.809.9.9,0,0,1-1.324,1.205,2.687,2.687,0,0,0-3.337-.456.89.89,0,0,1-.626.1" transform="translate(-325.96 -142.721)" fill="#7d351d"/>
            <path id="Trazado_875291" data-name="Trazado 875291" d="M541.153,205.577a2.04,2.04,0,0,0-2.656-.179" transform="translate(-324.632 -142.428)" fill="#c1725c"/>
            <path id="Trazado_875292" data-name="Trazado 875292" d="M538.241,206.2a.895.895,0,0,1-.326-1.608,2.906,2.906,0,0,1,3.811.29.894.894,0,0,1-1.277,1.252,1.12,1.12,0,0,0-1.508-.075.9.9,0,0,1-.7.141" transform="translate(-324.562 -142.358)" fill="#7d351d"/>
            <path id="Trazado_875293" data-name="Trazado 875293" d="M558.649,219.84a2.077,2.077,0,0,0-2.536-.292,14.193,14.193,0,0,1-8.614,1.882,1.474,1.474,0,0,0-1.483,1.854c.493,2.1,2.969,8.5,8.5,7.222,6.735-1.56,5.863-8.894,4.136-10.665" transform="translate(-325.172 -143.459)" fill="#fff"/>
            <path id="Trazado_875294" data-name="Trazado 875294" d="M550.111,199.863l-2.871,9.075-2.369-.353a1.9,1.9,0,0,0-2.437,1.144l-.594,1.647a2.621,2.621,0,0,0,1.547,3.345l4.082,1.527" transform="translate(-324.862 -142.059)" fill="#c1725c"/>
            <path id="Trazado_875295" data-name="Trazado 875295" d="M547.215,217.055a1.052,1.052,0,0,1-.128-.037L543,215.491A3.529,3.529,0,0,1,540.93,211l.594-1.646a2.8,2.8,0,0,1,3.582-1.683l1.44.2,2.641-8.353a.9.9,0,0,1,1.707.54l-3.1,9.8-3.123-.465a1.223,1.223,0,0,0-.944-.007,1,1,0,0,0-.521.571l-.594,1.645a1.736,1.736,0,0,0,1.02,2.205l4.083,1.527a.894.894,0,0,1-.5,1.713" transform="translate(-324.792 -141.989)" fill="#7d351d"/>
            <path id="Trazado_875296" data-name="Trazado 875296" d="M598.291,223.837a.9.9,0,0,1-.448-.244l-3.293-3.315a.894.894,0,0,1,.109-1.354l5.065-3.676a.895.895,0,0,1,1.052,1.447l-4.22,3.062,2.558,2.574a.9.9,0,0,1-.823,1.506" transform="translate(-328.663 -143.158)" fill="#7d351d"/>
            <path id="Trazado_875297" data-name="Trazado 875297" d="M541.252,248.4s21.04,6.22,27.023-1.01h0s-2.445,13.7-28.22,13.4Z" transform="translate(-324.744 -145.26)" fill="#7d351d"/>
            <path id="Trazado_875298" data-name="Trazado 875298" d="M595.8,237.5a5.419,5.419,0,1,1,.328.059c-.109-.016-.219-.036-.328-.059" transform="translate(-328.464 -144.007)" fill="#f9d648"/>
            <path id="Trazado_875299" data-name="Trazado 875299" d="M573.339,219.794c-.317,1.483-2.581,2.256-5.054,1.727s-4.222-2.162-3.9-3.645,2.581-2.256,5.054-1.726,4.222,2.161,3.9,3.644" transform="translate(-326.499 -143.223)" fill="#7d351d"/>
            <g id="Grupo_1100509" data-name="Grupo 1100509" transform="translate(151.176 121.627)" opacity="0.2">
              <g id="Grupo_1100508" data-name="Grupo 1100508">
                <g id="Grupo_1100507" data-name="Grupo 1100507" clip-path="url(#clip-path-5)">
                  <g id="Grupo_1100506" data-name="Grupo 1100506" transform="translate(10.343 0)">
                    <g id="Grupo_1100505" data-name="Grupo 1100505" clip-path="url(#clip-path-6)">
                      <path id="Trazado_875300" data-name="Trazado 875300" d="M658.852,287.985H476.659a5.733,5.733,0,0,1,0-11.467H658.852a5.733,5.733,0,1,1,0,11.467" transform="translate(-481.268 -269.224)" fill="#f2eae1"/>
                      <path id="Trazado_875301" data-name="Trazado 875301" d="M658.852,323.645H476.659a5.733,5.733,0,0,1,0-11.467H658.852a5.733,5.733,0,0,1,0,11.467" transform="translate(-481.268 -271.8)" fill="#f2eae1"/>
                      <path id="Trazado_875302" data-name="Trazado 875302" d="M658.852,359.3H476.659a5.733,5.733,0,0,1,0-11.467H658.852a5.733,5.733,0,0,1,0,11.467" transform="translate(-481.268 -274.377)" fill="#f2eae1"/>
                      <path id="Trazado_875303" data-name="Trazado 875303" d="M658.852,394.965H476.659a5.733,5.733,0,0,1,0-11.467H658.852a5.733,5.733,0,0,1,0,11.467" transform="translate(-481.268 -276.953)" fill="#f2eae1"/>
                      <path id="Trazado_875304" data-name="Trazado 875304" d="M658.852,430.625H476.659a5.733,5.733,0,0,1,0-11.467H658.852a5.733,5.733,0,0,1,0,11.467" transform="translate(-481.268 -279.53)" fill="#f2eae1"/>
                      <path id="Trazado_875305" data-name="Trazado 875305" d="M658.852,466.284H476.659a5.733,5.733,0,0,1,0-11.466H658.852a5.733,5.733,0,1,1,0,11.466" transform="translate(-481.268 -282.106)" fill="#f2eae1"/>
                    </g>
                  </g>
                </g>
              </g>
            </g>
            <path id="Trazado_875307" data-name="Trazado 875307" d="M506.691,376.451a.767.767,0,0,1-.7-.458l-4.616-10.517a32.672,32.672,0,0,1-.637-24.854l5.523-14.562a.768.768,0,0,1,1.436.544l-5.523,14.562a31.14,31.14,0,0,0,.607,23.693l4.616,10.517a.77.77,0,0,1-.394,1.012.788.788,0,0,1-.309.064" transform="translate(-321.748 -151.141)" fill="#322380"/>
            <path id="Trazado_875308" data-name="Trazado 875308" d="M487.078,361.857c-2.385.064-4.44.84-4.688,3.671-1.034,5.006,3.356,6.945,7.5,7.362-4.017.779-1.852,7.314,3.165,9.193l26.678,11.571a13.58,13.58,0,0,0,6.191.843l90.753,35.8a32.543,32.543,0,0,0,43.845-34.106l-6.4-32.294-53.45,1.572,2.911,15.087-64.062-20.257a49.067,49.067,0,0,0-4.172-6.048s-15.268-15.539-21.385-19.776a7.033,7.033,0,0,0-2.106-1.111,2.58,2.58,0,0,0-2.277.359,3.429,3.429,0,0,0-.918,2.857c.109,3.221,1.354,6.255,2.594,9.251-2.667-.888-5.515-1.855-8.615-2.954-6.7-1.847-17.38-6.249-19.284,2.659-.4,3.149,1.768,4.516,4.315,5.138-3.742-.177-7.49.639-7.417,5.3-.542,4.219,3.051,5.409,6.826,5.884m4.456.384c.619.053,1.188.113,1.676.2-.495-.039-1.064-.114-1.676-.2" transform="translate(-320.419 -151.696)" fill="#c1725c"/>
            <path id="Trazado_875309" data-name="Trazado 875309" d="M611.748,379.234a.813.813,0,0,0,.162-.016.853.853,0,0,0,.676-1L609.8,363.751l-6.96.056h-.022a2.473,2.473,0,0,1-2.478-2.366l-1.84-39.2a.843.843,0,0,0-.892-.813.855.855,0,0,0-.814.893l1.84,39.2a4.148,4.148,0,0,0,4.22,3.994l5.539-.045,2.523,13.072a.852.852,0,0,0,.837.692" transform="translate(-328.843 -150.842)" fill="#322380"/>
            <g id="Grupo_1100512" data-name="Grupo 1100512" transform="translate(188.831 188.601)" opacity="0.5">
              <g id="Grupo_1100511" data-name="Grupo 1100511">
                <g id="Grupo_1100510" data-name="Grupo 1100510" clip-path="url(#clip-path-7)">
                  <path id="Trazado_875310" data-name="Trazado 875310" d="M513.516,346.375l14.517,6.248s-13.8-10.887-16.52-11.778Z" transform="translate(-511.513 -340.846)" fill="#af4e4a"/>
                </g>
              </g>
            </g>
            <path id="Trazado_875311" data-name="Trazado 875311" d="M496.983,355.546a.854.854,0,0,0,.276-1.663c-.91-.312-8.941-3.05-10.541-3.137a.84.84,0,0,0-.9.806.857.857,0,0,0,.808.9c1.026.056,6.726,1.9,10.078,3.048a.853.853,0,0,0,.277.046" transform="translate(-320.825 -152.96)" fill="#7d351d"/>
            <path id="Trazado_875312" data-name="Trazado 875312" d="M621.957,388.159a.854.854,0,0,0,.271-1.663l-18.01-6.038a.854.854,0,0,0-.543,1.619l18.011,6.038a.833.833,0,0,0,.271.045" transform="translate(-329.299 -155.104)" fill="#7d351d"/>
            <path id="Trazado_875313" data-name="Trazado 875313" d="M494.857,367.371a.854.854,0,0,0,.263-1.666l-8.158-2.638a.854.854,0,1,0-.525,1.624l8.158,2.638a.835.835,0,0,0,.263.042" transform="translate(-320.827 -153.848)" fill="#7d351d"/>
            <path id="Trazado_875314" data-name="Trazado 875314" d="M495,378.087a.854.854,0,0,0,.244-1.672l-4.426-1.324a.854.854,0,0,0-.488,1.637l4.426,1.323a.855.855,0,0,0,.244.036" transform="translate(-321.107 -154.717)" fill="#7d351d"/>
            <path id="Trazado_875315" data-name="Trazado 875315" d="M387.669,280.685l14.336,15.5-9.693,6.089-7.856-6.889Z" transform="translate(-313.502 -147.898)" fill="#b76856"/>
            <path id="Trazado_875316" data-name="Trazado 875316" d="M391.34,312.241H351.555a2.418,2.418,0,0,1-2.418-2.419V238.194a2.418,2.418,0,0,1,2.418-2.419H391.34a2.418,2.418,0,0,1,2.419,2.419v71.629a2.418,2.418,0,0,1-2.419,2.419" transform="translate(-310.95 -144.653)" fill="#2b2b39"/>
            <path id="Trazado_875317" data-name="Trazado 875317" d="M391.178,241.752v65.064a1.979,1.979,0,0,1-1.714,2.165h-35.6a1.979,1.979,0,0,1-1.714-2.165V241.752a1.981,1.981,0,0,1,1.714-2.166h35.6a1.981,1.981,0,0,1,1.714,2.166" transform="translate(-311.168 -144.929)" fill="#5f5f75"/>
            <path id="Trazado_875318" data-name="Trazado 875318" d="M365.56,293.827h0a5.363,5.363,0,0,1-5.424,5.27l-16.793-.242a5.347,5.347,0,0,1,.155-10.693l16.792.242a5.362,5.362,0,0,1,5.27,5.424" transform="translate(-310.151 -148.438)" fill="#b76856"/>
            <path id="Trazado_875319" data-name="Trazado 875319" d="M365.818,282.205h0a5.363,5.363,0,0,1-5.424,5.27l-18.126-.262a5.347,5.347,0,1,1,.154-10.693l18.126.262a5.362,5.362,0,0,1,5.27,5.424" transform="translate(-310.073 -147.597)" fill="#b76856"/>
            <path id="Trazado_875320" data-name="Trazado 875320" d="M396.505,298.636h0a5.364,5.364,0,0,1-7.562-.081L376.262,285.6a5.363,5.363,0,0,1,.08-7.562h0a5.363,5.363,0,0,1,7.561.081l12.682,12.954a5.364,5.364,0,0,1-.081,7.562" transform="translate(-312.8 -147.597)" fill="#b76856"/>
            <path id="Trazado_875321" data-name="Trazado 875321" d="M361.952,305.147h0a5.363,5.363,0,0,1-5.425,5.27l-10.9-.157a5.348,5.348,0,0,1,.154-10.694l10.9.158a5.362,5.362,0,0,1,5.27,5.424" transform="translate(-310.315 -149.262)" fill="#b76856"/>
            <path id="Trazado_875322" data-name="Trazado 875322" d="M362.112,316.124h0a5.363,5.363,0,0,1-5.424,5.27l-5.371-.078a5.347,5.347,0,1,1,.155-10.693l5.37.078a5.362,5.362,0,0,1,5.27,5.424" transform="translate(-310.727 -150.061)" fill="#b76856"/>
            <path id="Trazado_875323" data-name="Trazado 875323" d="M342.643,288.46c0-.022,0-.045,0-.069a.955.955,0,0,1,.96-.95l17.079.079a.936.936,0,0,1,.95.96.954.954,0,0,1-.959.95l-17.079-.079a.954.954,0,0,1-.949-.892" transform="translate(-310.481 -148.386)" fill="#7d351d"/>
            <path id="Trazado_875324" data-name="Trazado 875324" d="M342.715,300.5c0-.024,0-.048,0-.074a.954.954,0,0,1,.966-.944l15.686.169a.956.956,0,0,1-.02,1.911l-15.686-.169a.957.957,0,0,1-.944-.893" transform="translate(-310.486 -149.256)" fill="#7d351d"/>
            <path id="Trazado_875325" data-name="Trazado 875325" d="M345.547,311.571c0-.016,0-.032,0-.047a.957.957,0,0,1,.94-.972l12.325-.209a.956.956,0,0,1,.032,1.912l-12.325.209a.956.956,0,0,1-.969-.893" transform="translate(-310.69 -150.041)" fill="#7d351d"/>
          </g>
        </g>
        <g id="Grupo_1100519" data-name="Grupo 1100519">
          <g id="Grupo_1100518" data-name="Grupo 1100518" clip-path="url(#clip-path)">
            <path id="Trazado_875327" data-name="Trazado 875327" d="M439.338,220.683c2.569,2.471,4.671,1.576,4.671-1.988V207.2a6.5,6.5,0,0,1,6.482-6.482H485.94a6.5,6.5,0,0,0,6.482-6.481V148.8a6.5,6.5,0,0,0-6.482-6.481H362.519a6.5,6.5,0,0,0-6.481,6.481v45.436a6.5,6.5,0,0,0,6.481,6.481H412.1a18.581,18.581,0,0,1,11.153,4.494Z" transform="translate(-25.725 -10.283)" fill="#f9d648"/>
            <path id="Trazado_875328" data-name="Trazado 875328" d="M371.041,161.787H479.249a2.339,2.339,0,0,0,0-4.679H371.041a2.339,2.339,0,1,0,0,4.679" transform="translate(-26.639 -11.351)" fill="#fff"/>
            <path id="Trazado_875329" data-name="Trazado 875329" d="M371.041,174.362H479.249a2.339,2.339,0,0,0,0-4.679H371.041a2.339,2.339,0,1,0,0,4.679" transform="translate(-26.639 -12.26)" fill="#fff"/>
            <path id="Trazado_875330" data-name="Trazado 875330" d="M371.041,186.938h76.423a2.339,2.339,0,1,0,0-4.679H371.041a2.339,2.339,0,1,0,0,4.679" transform="translate(-26.639 -13.169)" fill="#fff"/>
            <g id="Grupo_1100517" data-name="Grupo 1100517" transform="translate(0 32.15)" opacity="0.4">
              <g id="Grupo_1100516" data-name="Grupo 1100516">
                <g id="Grupo_1100515" data-name="Grupo 1100515" clip-path="url(#clip-path-9)">
                  <path id="Trazado_875331" data-name="Trazado 875331" d="M223.793,281.534C159.314,327,59.279,322.125,15.85,253.521-6.1,218.855-2.307,173.811,9.507,150.455,46.262,77.793,193.28-23.121,280.446,76.05c56.379,64.144,14.435,155.355-56.653,205.484" transform="translate(0 -34.654)" fill="#ffea96"/>
                </g>
              </g>
            </g>
          </g>
        </g>
        <g id="Grupo_1100524" data-name="Grupo 1100524" transform="translate(0)">
          <g id="Grupo_1100523" data-name="Grupo 1100523" clip-path="url(#clip-path-10)">
            <path id="Trazado_875332" data-name="Trazado 875332" d="M208.232,184.329l24.382,27.738,49.36-48.406,21.784,14.2-39.24,74.076c-6.51,25.086-38.748,32.167-55.172,12.116l-24.876-30.37Z" transform="translate(-13.328 -11.825)" fill="#e69773"/>
            <path id="Trazado_875333" data-name="Trazado 875333" d="M228.231,229.341a.824.824,0,0,1-.42-.114.835.835,0,0,1-.3-1.141l8.172-13.958a.834.834,0,0,1,1.44.842l-8.172,13.958a.834.834,0,0,1-.721.413" transform="translate(-16.43 -15.441)" fill="#af4e4a"/>
            <path id="Trazado_875334" data-name="Trazado 875334" d="M288.826,161.115l-.065,0-.454-2.241,0-.01h0c-2.4-11.853-8.692-24.905-11.159-36.743a8.244,8.244,0,0,1-.257-2.671,4.1,4.1,0,0,1,6.007-3.115,6.6,6.6,0,0,1,2.766,3.62c.733,1.91,1.422,3.827,2.17,5.733a1.877,1.877,0,0,0,3.621-.58q.623-10.974,1.22-21.95c.078-1.443.21-3.015,1.2-4.066a3.243,3.243,0,0,1,5,.718,6.2,6.2,0,0,1,.5,2.332c.409,4.988,1.028,9.963,1.226,14.965.153,3.888.831,6.349.7,9.174.045-.928-.009-2.309.035-3.237.273-5.618.61-11.227.649-16.847a5.3,5.3,0,0,1,.815-2.608,2.71,2.71,0,0,1,1.3-1.089,2.208,2.208,0,0,1,1.685.019,2.584,2.584,0,0,1,1.278,1.511,11.559,11.559,0,0,1,.683,3.409c.149,3.319.273,6.639.434,9.958.165,3.381.06,6.861.451,10.225a14.138,14.138,0,0,1,.161-2.874c.183-1.945.411-3.885.661-5.822s.3-4.281,1.848-5.7a2.232,2.232,0,0,1,2.434-.539,2.1,2.1,0,0,1,.833.873,7.421,7.421,0,0,1,.454,3.924q-.082,1.9-.16,3.8c-.109,2.562-.22,5.123-.366,7.683q-.1,2.2-.19,4.394l1.672-5.325c.61-2.055,2.716-5.33,4.651-4.409a2.491,2.491,0,0,1,1.312,2.973l-7.271,32.284" transform="translate(-20.003 -7.096)" fill="#e69773"/>
            <path id="Trazado_875335" data-name="Trazado 875335" d="M288.826,161.115l-.065,0-.454-2.241,0-.01h0c-2.4-11.853-8.692-24.905-11.159-36.743a8.244,8.244,0,0,1-.257-2.671,4.1,4.1,0,0,1,6.007-3.115,6.6,6.6,0,0,1,2.766,3.62c.733,1.91,1.422,3.827,2.17,5.733a1.877,1.877,0,0,0,3.621-.58q.623-10.974,1.22-21.95c.078-1.443.21-3.015,1.2-4.066a3.243,3.243,0,0,1,5,.718,6.2,6.2,0,0,1,.5,2.332c.409,4.988,1.028,9.963,1.226,14.965.153,3.888.831,6.349.7,9.174.045-.928-.009-2.309.035-3.237.273-5.618.61-11.227.649-16.847a5.3,5.3,0,0,1,.815-2.608,2.71,2.71,0,0,1,1.3-1.089,2.208,2.208,0,0,1,1.685.019,2.584,2.584,0,0,1,1.278,1.511,11.559,11.559,0,0,1,.683,3.409c.149,3.319.273,6.639.434,9.958.165,3.381.06,6.861.451,10.225a14.138,14.138,0,0,1,.161-2.874c.183-1.945.411-3.885.661-5.822s.3-4.281,1.848-5.7a2.232,2.232,0,0,1,2.434-.539,2.1,2.1,0,0,1,.833.873,7.421,7.421,0,0,1,.454,3.924q-.082,1.9-.16,3.8c-.109,2.562-.22,5.123-.366,7.683q-.1,2.2-.19,4.394l1.672-5.325c.61-2.055,2.716-5.33,4.651-4.409a2.491,2.491,0,0,1,1.312,2.973l-7.271,32.284-4.234,14.259Z" transform="translate(-20.003 -7.096)" fill="#e69773"/>
            <path id="Trazado_875336" data-name="Trazado 875336" d="M296.456,143.336h0a.847.847,0,0,1-.319.041.811.811,0,0,1-.751-.87c.683-9.6-6.29-13.1-6.588-13.243a.813.813,0,0,1,.7-1.466c.083.038,8.262,4.189,7.505,14.825a.81.81,0,0,1-.551.713m-.289-.764.009-.007Z" transform="translate(-20.833 -9.228)" fill="#af4e4a"/>
            <path id="Trazado_875337" data-name="Trazado 875337" d="M123.84,84.581a14.146,14.146,0,1,1-14.146-14.146A14.147,14.147,0,0,1,123.84,84.581" transform="translate(-6.903 -5.089)" fill="#804242"/>
            <path id="Trazado_875338" data-name="Trazado 875338" d="M115.293,67.56a14.146,14.146,0,1,1-14.146-14.146A14.147,14.147,0,0,1,115.293,67.56" transform="translate(-6.286 -3.859)" fill="#804242"/>
            <path id="Trazado_875339" data-name="Trazado 875339" d="M114.6,44.675a14.146,14.146,0,1,1-14.146-14.146A14.147,14.147,0,0,1,114.6,44.675" transform="translate(-6.236 -2.206)" fill="#804242"/>
            <path id="Trazado_875340" data-name="Trazado 875340" d="M125.849,28.091A14.146,14.146,0,1,1,111.7,13.945a14.147,14.147,0,0,1,14.146,14.146" transform="translate(-7.049 -1.008)" fill="#804242"/>
            <path id="Trazado_875341" data-name="Trazado 875341" d="M146.21,19.115A14.146,14.146,0,1,1,132.063,4.969,14.147,14.147,0,0,1,146.21,19.115" transform="translate(-8.52 -0.359)" fill="#804242"/>
            <path id="Trazado_875342" data-name="Trazado 875342" d="M165.884,18.423A14.146,14.146,0,1,1,151.737,4.277a14.147,14.147,0,0,1,14.146,14.146" transform="translate(-9.941 -0.309)" fill="#804242"/>
            <path id="Trazado_875343" data-name="Trazado 875343" d="M185.865,27.053a14.146,14.146,0,1,1-14.146-14.146,14.147,14.147,0,0,1,14.146,14.146" transform="translate(-11.385 -0.933)" fill="#804242"/>
            <path id="Trazado_875344" data-name="Trazado 875344" d="M196.38,40.721a14.146,14.146,0,1,1-14.146-14.146A14.147,14.147,0,0,1,196.38,40.721" transform="translate(-12.145 -1.92)" fill="#804242"/>
            <path id="Trazado_875345" data-name="Trazado 875345" d="M214.439,192.606l-39.845-37.417a37.1,37.1,0,0,0-27.752-13.733l-61.262-1.8c-.622,0-1.233.041-1.843.088l-.068-.094-11.48.219c-16.888.321-32.454,10.262-38.829,25.9a42.408,42.408,0,0,0-2.051,6.471L20.685,220.237a5.512,5.512,0,0,0,5.2,6.7l30.867.988-6.945,88.939h138.34l-3.165-84.274,29.7-31.363a6.087,6.087,0,0,0-.252-8.622" transform="translate(-1.485 -10.09)" fill="#d03f23"/>
            <path id="Trazado_875346" data-name="Trazado 875346" d="M164.175,56.6c-4.388-.486-8.428-8.009-8.428-8.009S128.5,47.45,127.523,43.7L125.05,66.027l-6.626-.734-5.816-.644a11.058,11.058,0,0,0-2.716.046,11.187,11.187,0,0,0-9.6,9.81l-.12,1.082A11.185,11.185,0,0,0,110.033,87.9l2.958.327-7.061,36.677a19.775,19.775,0,0,0,15.679,23.156l1.894.365a19.773,19.773,0,0,0,23.155-15.679l2.66-13.815a18.063,18.063,0,0,0,19.648-15.989l4.8-43.313c.111-1,.116-4.112.065-5.086-1.476.472-3.07,2.78-4.71,2.6Z" transform="translate(-7.233 -3.158)" fill="#e69773"/>
            <path id="Trazado_875347" data-name="Trazado 875347" d="M110.248,82.585a.834.834,0,0,1-.285-1.573l3.208-1.62-3-4.183a.834.834,0,1,1,1.356-.97l3.564,4.974a.834.834,0,0,1-.3,1.23L110.715,82.5a.829.829,0,0,1-.467.084" transform="translate(-7.912 -5.339)" fill="#af4e4a"/>
            <path id="Trazado_875348" data-name="Trazado 875348" d="M156.569,89.012l-3.106-.344a.834.834,0,1,1,.184-1.658l3.106.344a2.967,2.967,0,0,0,3.287-3.137L159.328,73.1a.834.834,0,0,1,1.664-.106L161.7,84.11a4.635,4.635,0,0,1-5.135,4.9" transform="translate(-11.034 -5.218)" fill="#af4e4a"/>
            <path id="Trazado_875349" data-name="Trazado 875349" d="M170.812,81.014a2.272,2.272,0,1,1-2.423-2.111,2.272,2.272,0,0,1,2.423,2.111" transform="translate(-12.014 -5.701)" fill="#111"/>
            <path id="Trazado_875350" data-name="Trazado 875350" d="M151.912,111.656a.474.474,0,0,1-.312-.061,4.026,4.026,0,0,0-4.526.324.473.473,0,0,1-.612-.722,5.053,5.053,0,0,1,5.625-.413.473.473,0,0,1-.174.872" transform="translate(-10.57 -7.955)" fill="#af4e4a"/>
            <path id="Trazado_875351" data-name="Trazado 875351" d="M136.232,68.26a9.581,9.581,0,0,0,3.982.106c1.411-.149,2.831-.264,4.069-.321s2.665-.075,4.084-.056a9.548,9.548,0,0,0,3.949-.473c1.043-.5,1.417-1.807.083-3.334-1.254-1.488-4.427-3.023-8.531-2.843-4.1.2-7.064,2.018-8.129,3.613-1.136,1.642-.606,2.908.493,3.308" transform="translate(-9.762 -4.431)" fill="#804242"/>
            <path id="Trazado_875352" data-name="Trazado 875352" d="M176.885,73.005a5.823,5.823,0,0,1-2.694-.547c-.919-.338-1.851-.649-2.672-.888s-1.776-.478-2.732-.687a5.793,5.793,0,0,1-2.562-.984c-.607-.546-.614-1.606.564-2.563a7.113,7.113,0,0,1,6.257-.827,6.971,6.971,0,0,1,4.785,4.045c.458,1.434-.134,2.319-.945,2.452" transform="translate(-11.981 -4.78)" fill="#804242"/>
            <path id="Trazado_875353" data-name="Trazado 875353" d="M149.5,79.447a2.486,2.486,0,1,1-1.985-2.9,2.486,2.486,0,0,1,1.985,2.9" transform="translate(-10.446 -5.527)" fill="#111"/>
            <path id="Trazado_875354" data-name="Trazado 875354" d="M144.194,81.637a3.541,3.541,0,0,1,4.313.787" transform="translate(-10.418 -5.868)" fill="#e69773"/>
            <path id="Trazado_875355" data-name="Trazado 875355" d="M148.35,83.188a.832.832,0,0,1-.526-.268,2.664,2.664,0,0,0-3.291-.617.834.834,0,0,1-.814-1.456,4.346,4.346,0,0,1,5.34.951.834.834,0,0,1-.71,1.39" transform="translate(-10.353 -5.803)" fill="#af4e4a"/>
            <path id="Trazado_875356" data-name="Trazado 875356" d="M166.515,83.954a4.923,4.923,0,0,1,3.837.465" transform="translate(-12.031 -6.052)" fill="#e69773"/>
            <path id="Trazado_875357" data-name="Trazado 875357" d="M170.2,85.183a.82.82,0,0,1-.365-.132,4.094,4.094,0,0,0-3.129-.366.834.834,0,0,1-.506-1.59,5.755,5.755,0,0,1,4.549.562.834.834,0,0,1-.549,1.526" transform="translate(-11.966 -5.987)" fill="#af4e4a"/>
            <path id="Trazado_875358" data-name="Trazado 875358" d="M140.977,89.594a2.031,2.031,0,0,1,2.444.511,13.88,13.88,0,0,0,7.411,4.408,1.44,1.44,0,0,1,.8,2.177c-1.106,1.8-3.829,4.456-8.562,1.56-5.768-3.527-4.245-7.547-2.095-8.657" transform="translate(-10.047 -6.458)" fill="#fff"/>
            <path id="Trazado_875359" data-name="Trazado 875359" d="M151.111,124.134s-20.34-.934-24.419-9.667c0,0,.79,18.23,22.262,20.871Z" transform="translate(-9.154 -8.271)" fill="#af4e4a"/>
            <path id="Trazado_875360" data-name="Trazado 875360" d="M130.216,84.606c-.147,1.319,1.52,2.587,3.72,2.831s4.1-.628,4.25-1.947-1.52-2.587-3.72-2.831-4.1.628-4.25,1.947" transform="translate(-9.408 -5.969)" fill="#af4e4a"/>
            <path id="Trazado_875361" data-name="Trazado 875361" d="M140.579,86.845A12.36,12.36,0,1,1,153.058,74.6a12.374,12.374,0,0,1-12.478,12.243M140.8,63.95a10.536,10.536,0,1,0,10.436,10.634A10.548,10.548,0,0,0,140.8,63.95" transform="translate(-9.272 -4.489)" fill="#fdfeff"/>
            <path id="Trazado_875362" data-name="Trazado 875362" d="M171.025,91.055A12.36,12.36,0,1,1,183.5,78.811a12.374,12.374,0,0,1-12.478,12.243m.217-22.895A10.536,10.536,0,1,0,181.68,78.794,10.548,10.548,0,0,0,171.243,68.16" transform="translate(-11.472 -4.793)" fill="#fdfeff"/>
            <path id="Trazado_875363" data-name="Trazado 875363" d="M158.611,78.98a3.052,3.052,0,0,0-4.19-.738l-.961-1.55a4.819,4.819,0,0,1,6.632,1.223Z" transform="translate(-11.088 -5.482)" fill="#fdfeff"/>
            <path id="Trazado_875364" data-name="Trazado 875364" d="M129.362,69.773a1.374,1.374,0,0,1-1.013-.354c-.131-.1-2.2-1.551-11.276-2.35a1.1,1.1,0,0,1-1.1-1.162,1.259,1.259,0,0,1,1.415-.939c10.439.918,12.611,2.74,12.941,3.1a.949.949,0,0,1-.243,1.484,1.451,1.451,0,0,1-.72.225" transform="translate(-8.378 -4.693)" fill="#fdfeff"/>
            <path id="Trazado_875365" data-name="Trazado 875365" d="M182.785,43.339a14.146,14.146,0,1,1-14.146-14.146,14.147,14.147,0,0,1,14.146,14.146" transform="translate(-11.162 -2.109)" fill="#804242"/>
            <path id="Trazado_875366" data-name="Trazado 875366" d="M162.083,34.363a14.146,14.146,0,1,1-14.146-14.146,14.147,14.147,0,0,1,14.146,14.146" transform="translate(-9.667 -1.461)" fill="#804242"/>
            <path id="Trazado_875367" data-name="Trazado 875367" d="M141.1,38.89A14.146,14.146,0,1,1,126.95,24.744,14.147,14.147,0,0,1,141.1,38.89" transform="translate(-8.15 -1.788)" fill="#804242"/>
            <path id="Trazado_875368" data-name="Trazado 875368" d="M128.605,60.351a10.8,10.8,0,1,1-10.8-10.8,10.8,10.8,0,0,1,10.8,10.8" transform="translate(-7.732 -3.58)" fill="#804242"/>
            <path id="Trazado_875369" data-name="Trazado 875369" d="M122.459,50.583a10.8,10.8,0,1,1-10.8-10.8,10.8,10.8,0,0,1,10.8,10.8" transform="translate(-7.288 -2.875)" fill="#804242"/>
            <path id="Trazado_875370" data-name="Trazado 875370" d="M156.221,148.336l-4.67-12c-.176-2.329-2.5-3.425-3.97-1.872l-17.126,17.91a.389.389,0,0,1-.527.032L104.54,131.647a1.953,1.953,0,0,0-2.906.509l-7.1,14.56a4.26,4.26,0,0,0,.57,4.61l14.915,17.716a4.12,4.12,0,0,0,5.619.392l14.073-13a.74.74,0,0,1,1.056.053l8.9,10.067a2.094,2.094,0,0,0,3.712-.215l12.1-13.842a4.065,4.065,0,0,0,.745-4.165" transform="translate(-6.799 -9.481)" fill="#750021"/>
            <path id="Trazado_875371" data-name="Trazado 875371" d="M171.452,75.312c1.141-.576,4.143-1.96,6.54-1.894a.993.993,0,0,1,.99,1.09,1.134,1.134,0,0,1-.53.849,1.152,1.152,0,0,1-.655.182c-1.941-.052-4.858,1.315-5.818,1.846a1.128,1.128,0,0,1-.527.132Z" transform="translate(-12.388 -5.305)" fill="#fdfeff"/>
            <path id="Trazado_875372" data-name="Trazado 875372" d="M136.4,172.171a2.876,2.876,0,1,1-2.876-2.876,2.876,2.876,0,0,1,2.876,2.876" transform="translate(-9.439 -12.232)" fill="#750021"/>
            <path id="Trazado_875373" data-name="Trazado 875373" d="M136.4,186.572a2.876,2.876,0,1,1-2.876-2.876,2.876,2.876,0,0,1,2.876,2.876" transform="translate(-9.439 -13.272)" fill="#750021"/>
            <path id="Trazado_875374" data-name="Trazado 875374" d="M136.4,200.972a2.876,2.876,0,1,1-2.876-2.876,2.876,2.876,0,0,1,2.876,2.876" transform="translate(-9.439 -14.313)" fill="#750021"/>
            <path id="Trazado_875375" data-name="Trazado 875375" d="M149.991,290.6,77.923,249.778l2.844-14.736-52.211-1.535-2.721,13.731c-4.928,34.432,39.3,51.128,39.3,51.128l70.549,23.7" transform="translate(-1.839 -16.871)" fill="#e69773"/>
            <path id="Trazado_875376" data-name="Trazado 875376" d="M82.212,246.161a.78.78,0,0,1-.159-.016.833.833,0,0,1-.661-.976l2.727-14.132,6.8.055h.02a2.416,2.416,0,0,0,2.421-2.311l1.8-38.287a.823.823,0,0,1,.872-.794.835.835,0,0,1,.794.872l-1.8,38.287a4.052,4.052,0,0,1-4.122,3.9l-5.411-.044-2.465,12.769a.833.833,0,0,1-.817.676" transform="translate(-5.88 -13.706)" fill="#750021"/>
            <path id="Trazado_875377" data-name="Trazado 875377" d="M62.751,257.636a.834.834,0,0,1-.264-1.625l17.593-5.9a.834.834,0,0,1,.53,1.582l-17.594,5.9a.818.818,0,0,1-.264.044" transform="translate(-4.474 -18.068)" fill="#af4e4a"/>
            <path id="Trazado_875378" data-name="Trazado 875378" d="M141.315,324.117a12.456,12.456,0,0,0,4.1,4l23.4,12.754c4.185,2.565,10.127.446,8.426-2.9,2.635,2.756,6.511,4.835,9.545,1.266,1.906-1.775,1.309-3.7.009-5.456,2.472,2.459,5.357,4.384,8.1,1.615,3.41-2.576,1.889-5.745-.35-8.349,1.885,1.49,4.093,2.284,6.144.222,5.363-6.4-3.836-11.63-8.948-15.432-2.542-1.621-4.846-3.132-6.991-4.559,2.864-.792,5.758-1.6,8.147-3.341a3.144,3.144,0,0,0,1.547-2.274,2.366,2.366,0,0,0-1.024-1.847,6.451,6.451,0,0,0-1.99-.9c-6.509-2.031-26.342-4.3-26.342-4.3a44.738,44.738,0,0,0-6.722.394" transform="translate(-10.21 -21.286)" fill="#e69773"/>
            <path id="Trazado_875379" data-name="Trazado 875379" d="M186.154,332.412c.338.305.7.682,1.088,1.1-.405-.4-.781-.764-1.088-1.1" transform="translate(-13.45 -24.018)" fill="#e69773"/>
            <g id="Grupo_1100522" data-name="Grupo 1100522" transform="translate(161.84 279.028)" opacity="0.3">
              <g id="Grupo_1100521" data-name="Grupo 1100521">
                <g id="Grupo_1100520" data-name="Grupo 1100520" clip-path="url(#clip-path-11)">
                  <path id="Trazado_875380" data-name="Trazado 875380" d="M187.141,307.724l-12.7-6.966s15.643,3.831,17.821,5.3Z" transform="translate(-174.444 -300.758)" fill="#af4e4a"/>
                </g>
              </g>
            </g>
            <path id="Trazado_875381" data-name="Trazado 875381" d="M190.449,324.736a.782.782,0,0,1,1.044-1.137c.738.481,7.244,4.74,8.208,5.848a.77.77,0,0,1-.074,1.1.785.785,0,0,1-1.106-.077,87.421,87.421,0,0,0-7.883-5.564.789.789,0,0,1-.188-.174" transform="translate(-13.748 -23.372)" fill="#af4e4a"/>
            <path id="Trazado_875382" data-name="Trazado 875382" d="M183.223,333.038a.782.782,0,0,1,1.056-1.129l6.5,4.408a.782.782,0,0,1-.878,1.3l-6.5-4.408a.781.781,0,0,1-.178-.166" transform="translate(-13.226 -23.971)" fill="#af4e4a"/>
            <path id="Trazado_875383" data-name="Trazado 875383" d="M175.637,339.128a.783.783,0,0,1,1.071-1.119l3.451,2.452a.783.783,0,0,1-.907,1.276l-3.451-2.452a.82.82,0,0,1-.163-.157" transform="translate(-12.678 -24.411)" fill="#af4e4a"/>
            <path id="Trazado_875384" data-name="Trazado 875384" d="M130.939,320.78s4.85-20.176,16.4-32.149a11.962,11.962,0,0,1,8.546,2.955,81.936,81.936,0,0,0-17.225,33.7,11.049,11.049,0,0,1-7.719-4.5" transform="translate(-9.461 -20.853)" fill="#2b2b39"/>
            <path id="Trazado_875385" data-name="Trazado 875385" d="M153.913,305.227a11.364,11.364,0,1,0-15.3,4.925,11.364,11.364,0,0,0,15.3-4.925" transform="translate(-9.569 -20.857)" fill="#2b2b39"/>
            <path id="Trazado_875386" data-name="Trazado 875386" d="M147.783,293.012a8.179,8.179,0,1,0,3.545,11.01,8.189,8.189,0,0,0-3.545-11.01" transform="translate(-9.817 -21.106)" fill="#fff"/>
          </g>
        </g>
        <g id="Grupo_1100526" data-name="Grupo 1100526">
          <g id="Grupo_1100525" data-name="Grupo 1100525" clip-path="url(#clip-path)">
            <path id="Trazado_875388" data-name="Trazado 875388" d="M246.732,95.1c-2.555,2.459-4.646,1.568-4.646-1.978V81.69a6.467,6.467,0,0,0-6.448-6.447H221.007A6.466,6.466,0,0,1,214.56,68.8V23.6a6.467,6.467,0,0,1,6.447-6.448h68.612a6.467,6.467,0,0,1,6.448,6.448V68.8a6.467,6.467,0,0,1-6.448,6.448H273.827a18.481,18.481,0,0,0-11.094,4.469Z" transform="translate(-15.502 -1.239)" fill="#ffd6ae"/>
            <path id="Trazado_875389" data-name="Trazado 875389" d="M282.962,36.518H229.484a2.327,2.327,0,0,1,0-4.655h53.478a2.327,2.327,0,0,1,0,4.655" transform="translate(-16.413 -2.302)" fill="#fff"/>
            <path id="Trazado_875390" data-name="Trazado 875390" d="M282.962,49.027H229.484a2.327,2.327,0,1,1,0-4.654h53.478a2.327,2.327,0,0,1,0,4.654" transform="translate(-16.413 -3.206)" fill="#fff"/>
            <path id="Trazado_875391" data-name="Trazado 875391" d="M283.817,61.536H241.324a2.327,2.327,0,0,1,0-4.655h42.494a2.327,2.327,0,0,1,0,4.655" transform="translate(-17.268 -4.11)" fill="#fff"/>
            <path id="Trazado_875392" data-name="Trazado 875392" d="M276.151,233.055H179.24a7.7,7.7,0,0,0-7.427,5.656l-22.325,80.928H84.558a1.479,1.479,0,0,0-1.23,2.3l5.127,7.691H257.46l26.121-86.572a7.76,7.76,0,0,0-7.429-10" transform="translate(-6.002 -16.839)" fill="#5f5f75"/>
            <path id="Trazado_875393" data-name="Trazado 875393" d="M271.392,329.845H160.663l25.082-90.919a7.7,7.7,0,0,1,7.427-5.656h96.912a7.761,7.761,0,0,1,7.429,10Z" transform="translate(-11.608 -16.854)" fill="#2b2b39"/>
            <path id="Trazado_875394" data-name="Trazado 875394" d="M228.115,288.051a12.434,12.434,0,1,1,12.436,12.434,12.451,12.451,0,0,1-12.436-12.434m1.9,0a10.538,10.538,0,1,0,10.539-10.539,10.55,10.55,0,0,0-10.539,10.539" transform="translate(-16.482 -19.914)" fill="#f6eee3"/>
            <path id="Trazado_875395" data-name="Trazado 875395" d="M509.494,82.077a1.313,1.313,0,0,1-.5-.1l-6.039-2.455a1.324,1.324,0,0,1-.727-1.726l1.9-4.667a15.8,15.8,0,0,1-2.894-2.552l-4.578,1.93a1.324,1.324,0,0,1-1.734-.705L492.389,65.8a1.324,1.324,0,0,1,.706-1.735l4.272-1.8a15.8,15.8,0,0,1-.118-3.4l-4.2-1.708a1.323,1.323,0,0,1-.728-1.725l2.456-6.038a1.324,1.324,0,0,1,1.726-.728l3.974,1.617a15.8,15.8,0,0,1,2.972-2.978l-1.8-4.269a1.324,1.324,0,0,1,.705-1.735l6.006-2.534a1.324,1.324,0,0,1,1.735.706l1.93,4.578a15.765,15.765,0,0,1,2.274,0l2-4.911a1.324,1.324,0,0,1,1.726-.727l6.038,2.455a1.324,1.324,0,0,1,.728,1.726l-1.907,4.686a15.792,15.792,0,0,1,2.977,2.973l4.269-1.8a1.324,1.324,0,0,1,1.735.705l2.534,6.006a1.324,1.324,0,0,1-.706,1.734l-4.577,1.931a15.905,15.905,0,0,1-.067,3.076l4.686,1.906a1.323,1.323,0,0,1,.728,1.725l-2.455,6.039a1.325,1.325,0,0,1-1.726.727l-4.911-2a16.036,16.036,0,0,1-1.587,1.628l1.931,4.577a1.324,1.324,0,0,1-.706,1.734L519,80.769a1.324,1.324,0,0,1-1.735-.705l-1.8-4.271a15.855,15.855,0,0,1-2.593.16l-2.155,5.3a1.325,1.325,0,0,1-1.226.826m-4.312-4.507,3.585,1.457,2.01-4.944a1.317,1.317,0,0,1,1.336-.821A13.19,13.19,0,0,0,516,73.009a1.32,1.32,0,0,1,1.5.779l1.7,4.026,3.565-1.5-1.8-4.26a1.325,1.325,0,0,1,.406-1.56,13.243,13.243,0,0,0,2.516-2.582,1.323,1.323,0,0,1,1.564-.44l4.6,1.873,1.457-3.584-4.431-1.8a1.325,1.325,0,0,1-.8-1.476,13.241,13.241,0,0,0,.106-4.317,1.325,1.325,0,0,1,.8-1.4l4.261-1.8-1.5-3.566-4.026,1.7a1.325,1.325,0,0,1-1.619-.489,13.206,13.206,0,0,0-3.762-3.757,1.323,1.323,0,0,1-.5-1.6l1.8-4.431-3.585-1.458-1.872,4.605a1.33,1.33,0,0,1-1.407.813,13.21,13.21,0,0,0-3.6,0,1.326,1.326,0,0,1-1.4-.8l-1.8-4.262-3.565,1.5,1.7,4.025a1.325,1.325,0,0,1-.489,1.619,13.2,13.2,0,0,0-3.756,3.762,1.326,1.326,0,0,1-1.605.5l-3.718-1.513L495.276,55.2l3.893,1.584a1.323,1.323,0,0,1,.813,1.406,13.223,13.223,0,0,0,.169,4.605,1.324,1.324,0,0,1-.78,1.5l-4.026,1.7,1.5,3.566,4.263-1.8a1.325,1.325,0,0,1,1.559.407,13.25,13.25,0,0,0,3.771,3.3A1.324,1.324,0,0,1,507,73.105Zm8.01-10.3a7.293,7.293,0,1,1,2.826-.573,7.308,7.308,0,0,1-2.826.573m-.016-11.948a4.65,4.65,0,1,0,1.813,8.934h0a4.65,4.65,0,0,0-1.814-8.934" transform="translate(-35.564 -2.768)" fill="#ff9e9e"/>
            <path id="Trazado_875396" data-name="Trazado 875396" d="M272.754,423.274a18.893,18.893,0,1,1,18.894-18.894,18.915,18.915,0,0,1-18.894,18.894m0-35.138A16.245,16.245,0,1,0,289,404.381a16.264,16.264,0,0,0-16.246-16.245" transform="translate(-18.342 -27.852)" fill="#ff9e9e"/>
            <path id="Trazado_875397" data-name="Trazado 875397" d="M268.3,414.031l-.072,0a1.325,1.325,0,0,1-.96-.494l-3.427-4.271a1.324,1.324,0,1,1,2.065-1.658l2.5,3.12,14.045-14.046a1.324,1.324,0,1,1,1.872,1.872l-15.09,15.091a1.324,1.324,0,0,1-.936.388" transform="translate(-19.042 -28.633)" fill="#ff9e9e"/>
            <path id="Trazado_875398" data-name="Trazado 875398" d="M69.675,453.468l-13.494-8.305H23.9a5.5,5.5,0,0,1-5.5-5.5V416.245a5.5,5.5,0,0,1,5.5-5.5H62.222a5.5,5.5,0,0,1,5.5,5.5v23.768l3.909,11.915a1.324,1.324,0,0,1-1.952,1.54M23.9,413.4a2.852,2.852,0,0,0-2.848,2.848v23.421a2.851,2.851,0,0,0,2.848,2.848h32.66a1.329,1.329,0,0,1,.694.2l10.733,6.607-2.847-8.681a1.329,1.329,0,0,1-.066-.413V416.245a2.852,2.852,0,0,0-2.848-2.848Z" transform="translate(-1.329 -29.678)" fill="#ff9e9e"/>
            <path id="Trazado_875399" data-name="Trazado 875399" d="M53.091,429.373a3.156,3.156,0,1,0,3.156-3.155,3.156,3.156,0,0,0-3.156,3.155" transform="translate(-3.836 -30.795)" fill="#ff9e9e"/>
            <path id="Trazado_875400" data-name="Trazado 875400" d="M40.794,429.373a3.156,3.156,0,1,0,3.155-3.155,3.156,3.156,0,0,0-3.155,3.155" transform="translate(-2.947 -30.795)" fill="#ff9e9e"/>
            <path id="Trazado_875401" data-name="Trazado 875401" d="M28.5,429.373a3.156,3.156,0,1,0,3.155-3.155,3.156,3.156,0,0,0-3.155,3.155" transform="translate(-2.059 -30.795)" fill="#ff9e9e"/>
          </g>
        </g>
      </g>
    </g>
    <rect id="Rectángulo_377825" data-name="Rectángulo 377825" width="227" height="46" rx="23" transform="translate(1020 10321)" fill="#ffea96"/>
    <path id="Trazado_875538" data-name="Trazado 875538" d="M60.6,11.454H55.54v3.428h5.941V17H52.9V4.2h8.561V6.339H55.54v3.05H60.6ZM65.243,7.49l.079,1.063a3.342,3.342,0,0,1,2.733-1.239,2.536,2.536,0,0,1,2.522,1.45,3.265,3.265,0,0,1,2.856-1.45,2.836,2.836,0,0,1,2.3.9,4.141,4.141,0,0,1,.756,2.711V17H73.944V10.936a1.811,1.811,0,0,0-.316-1.182,1.4,1.4,0,0,0-1.116-.374,1.585,1.585,0,0,0-1.582,1.09L70.938,17H68.4V10.944a1.789,1.789,0,0,0-.325-1.2,1.416,1.416,0,0,0-1.107-.369,1.646,1.646,0,0,0-1.564.9V17h-2.54V7.49ZM81.125,17H78.576V7.49h2.549Zm-2.7-11.971a1.251,1.251,0,0,1,.382-.94,1.648,1.648,0,0,1,2.079,0,1.244,1.244,0,0,1,.387.94,1.247,1.247,0,0,1-.391.949,1.629,1.629,0,0,1-2.065,0A1.247,1.247,0,0,1,78.427,5.029Zm9.94,9.343a.818.818,0,0,0-.461-.734,5.241,5.241,0,0,0-1.481-.479q-3.393-.712-3.393-2.883a2.613,2.613,0,0,1,1.05-2.114,4.237,4.237,0,0,1,2.747-.848,4.56,4.56,0,0,1,2.9.853,2.687,2.687,0,0,1,1.085,2.215h-2.54a1.229,1.229,0,0,0-.352-.9,1.488,1.488,0,0,0-1.1-.356,1.52,1.52,0,0,0-.993.29.916.916,0,0,0-.352.738.783.783,0,0,0,.4.681,4.114,4.114,0,0,0,1.349.448,11.019,11.019,0,0,1,1.6.426,2.628,2.628,0,0,1,2.013,2.558,2.481,2.481,0,0,1-1.116,2.1,4.815,4.815,0,0,1-2.883.8,5.029,5.029,0,0,1-2.123-.426,3.561,3.561,0,0,1-1.455-1.169,2.716,2.716,0,0,1-.527-1.6h2.408a1.326,1.326,0,0,0,.5,1.037,1.987,1.987,0,0,0,1.248.36,1.839,1.839,0,0,0,1.1-.277A.861.861,0,0,0,88.367,14.372Zm3.709-2.215a5.64,5.64,0,0,1,.545-2.522A3.989,3.989,0,0,1,94.19,7.921a4.577,4.577,0,0,1,2.377-.606,4.33,4.33,0,0,1,3.142,1.178,4.727,4.727,0,0,1,1.358,3.2l.018.65a4.97,4.97,0,0,1-1.222,3.511,4.735,4.735,0,0,1-6.561,0,5.058,5.058,0,0,1-1.226-3.586Zm2.54.18a3.555,3.555,0,0,0,.51,2.073,1.831,1.831,0,0,0,2.9.009,3.89,3.89,0,0,0,.519-2.267,3.519,3.519,0,0,0-.519-2.06,1.686,1.686,0,0,0-1.459-.731,1.658,1.658,0,0,0-1.441.726A3.955,3.955,0,0,0,94.616,12.338Zm13.377-2.465a6.9,6.9,0,0,0-.914-.07,1.86,1.86,0,0,0-1.89.976V17h-2.54V7.49h2.4l.07,1.134a2.354,2.354,0,0,1,2.118-1.31,2.662,2.662,0,0,1,.791.114Z" transform="translate(1054 10333)" fill="#12263f"/>
    <rect id="Rectángulo_377825-2" data-name="Rectángulo 377825" width="227" height="46" rx="23" transform="translate(1020 10479)" fill="#ffea96"/>
    <path id="Trazado_875534" data-name="Trazado 875534" d="M50.144,4.2l3.287,9.281L56.7,4.2h3.463V17H57.518V13.5l.264-6.038L54.327,17H52.517L49.071,7.473l.264,6.029V17H46.7V4.2ZM66.676,17.176a4.668,4.668,0,0,1-3.406-1.283,4.561,4.561,0,0,1-1.314-3.419v-.246a5.745,5.745,0,0,1,.554-2.562,4.064,4.064,0,0,1,1.569-1.74,4.4,4.4,0,0,1,2.316-.611,3.947,3.947,0,0,1,3.072,1.23,5,5,0,0,1,1.121,3.489v1.037H64.531a2.36,2.36,0,0,0,.743,1.494,2.245,2.245,0,0,0,1.569.563,2.742,2.742,0,0,0,2.294-1.063l1.248,1.4a3.813,3.813,0,0,1-1.547,1.261A5.075,5.075,0,0,1,66.676,17.176Zm-.29-7.813a1.587,1.587,0,0,0-1.226.512,2.651,2.651,0,0,0-.6,1.466h3.533v-.2a1.891,1.891,0,0,0-.457-1.311A1.638,1.638,0,0,0,66.386,9.362Zm7.98-1.872.079,1.1a3.32,3.32,0,0,1,2.733-1.274,2.759,2.759,0,0,1,2.25.888,4.142,4.142,0,0,1,.756,2.654V17h-2.54V10.918a1.648,1.648,0,0,0-.352-1.173,1.574,1.574,0,0,0-1.169-.365,1.747,1.747,0,0,0-1.608.914V17h-2.54V7.49ZM87.26,14.372a.818.818,0,0,0-.461-.734,5.241,5.241,0,0,0-1.481-.479q-3.393-.712-3.393-2.883a2.613,2.613,0,0,1,1.05-2.114,4.237,4.237,0,0,1,2.747-.848,4.56,4.56,0,0,1,2.9.853A2.687,2.687,0,0,1,89.7,10.382h-2.54a1.229,1.229,0,0,0-.352-.9,1.488,1.488,0,0,0-1.1-.356,1.52,1.52,0,0,0-.993.29.916.916,0,0,0-.352.738.783.783,0,0,0,.4.681,4.114,4.114,0,0,0,1.349.448,11.019,11.019,0,0,1,1.6.426,2.628,2.628,0,0,1,2.013,2.558,2.481,2.481,0,0,1-1.116,2.1,4.815,4.815,0,0,1-2.883.8,5.029,5.029,0,0,1-2.123-.426,3.561,3.561,0,0,1-1.455-1.169,2.716,2.716,0,0,1-.527-1.6h2.408a1.326,1.326,0,0,0,.5,1.037,1.987,1.987,0,0,0,1.248.36,1.839,1.839,0,0,0,1.1-.277A.861.861,0,0,0,87.26,14.372ZM96.875,17a2.821,2.821,0,0,1-.255-.853,3.073,3.073,0,0,1-2.4,1.028,3.376,3.376,0,0,1-2.316-.809,2.6,2.6,0,0,1-.918-2.039,2.687,2.687,0,0,1,1.121-2.32,5.529,5.529,0,0,1,3.239-.817h1.169v-.545a1.567,1.567,0,0,0-.338-1.055,1.331,1.331,0,0,0-1.068-.4A1.513,1.513,0,0,0,94.1,9.5a1.045,1.045,0,0,0-.365.844H91.2a2.551,2.551,0,0,1,.51-1.529,3.37,3.37,0,0,1,1.441-1.1,5.253,5.253,0,0,1,2.092-.4,4.15,4.15,0,0,1,2.791.883,3.09,3.09,0,0,1,1.033,2.483V14.8a4.546,4.546,0,0,0,.378,2.048V17Zm-2.1-1.767a2.188,2.188,0,0,0,1.037-.25,1.645,1.645,0,0,0,.7-.672V12.676h-.949q-1.907,0-2.03,1.318l-.009.149a1.017,1.017,0,0,0,.334.782A1.3,1.3,0,0,0,94.774,15.233ZM103.7,7.49V17.519a3.4,3.4,0,0,1-.835,2.448,3.174,3.174,0,0,1-2.408.875,5.165,5.165,0,0,1-1.257-.149V18.679a4.768,4.768,0,0,0,.8.079q1.151,0,1.151-1.222V7.49Zm-2.751-2.461a1.251,1.251,0,0,1,.382-.94,1.654,1.654,0,0,1,2.083,0,1.251,1.251,0,0,1,.382.94,1.247,1.247,0,0,1-.391.949,1.629,1.629,0,0,1-2.065,0A1.247,1.247,0,0,1,100.953,5.029Zm9.114,12.146a4.668,4.668,0,0,1-3.406-1.283,4.561,4.561,0,0,1-1.314-3.419v-.246a5.745,5.745,0,0,1,.554-2.562,4.064,4.064,0,0,1,1.569-1.74,4.4,4.4,0,0,1,2.316-.611,3.947,3.947,0,0,1,3.072,1.23,5,5,0,0,1,1.121,3.489v1.037h-6.056a2.36,2.36,0,0,0,.743,1.494,2.245,2.245,0,0,0,1.569.563,2.742,2.742,0,0,0,2.294-1.063l1.248,1.4a3.813,3.813,0,0,1-1.547,1.261A5.075,5.075,0,0,1,110.067,17.176Zm-.29-7.813a1.587,1.587,0,0,0-1.226.512,2.651,2.651,0,0,0-.6,1.466h3.533v-.2a1.891,1.891,0,0,0-.457-1.311A1.638,1.638,0,0,0,109.777,9.362Z" transform="translate(1054 10491)" fill="#12263f"/>
    <rect id="Rectángulo_377825-3" data-name="Rectángulo 377825" width="227" height="46" rx="23" transform="translate(1020 10637)" fill="#ffea96"/>
    <path id="Trazado_875530" data-name="Trazado 875530" d="M43.183,12.315h-2.1V17H38.445V4.2H43.2a5.375,5.375,0,0,1,3.5,1.011,3.488,3.488,0,0,1,1.23,2.856,3.937,3.937,0,0,1-.567,2.184,3.866,3.866,0,0,1-1.718,1.393l2.769,5.229V17h-2.83Zm-2.1-2.136h2.127a2.178,2.178,0,0,0,1.538-.505,1.806,1.806,0,0,0,.545-1.393,1.933,1.933,0,0,0-.514-1.424A2.137,2.137,0,0,0,43.2,6.339H41.082Zm13.061,7a4.668,4.668,0,0,1-3.406-1.283,4.561,4.561,0,0,1-1.314-3.419v-.246a5.745,5.745,0,0,1,.554-2.562,4.064,4.064,0,0,1,1.569-1.74,4.4,4.4,0,0,1,2.316-.611,3.947,3.947,0,0,1,3.072,1.23,5,5,0,0,1,1.121,3.489v1.037H52a2.36,2.36,0,0,0,.743,1.494,2.245,2.245,0,0,0,1.569.563A2.742,2.742,0,0,0,56.6,14.064l1.248,1.4A3.813,3.813,0,0,1,56.3,16.723,5.075,5.075,0,0,1,54.143,17.176Zm-.29-7.813a1.587,1.587,0,0,0-1.226.512,2.651,2.651,0,0,0-.6,1.466h3.533v-.2A1.891,1.891,0,0,0,55.1,9.826,1.638,1.638,0,0,0,53.853,9.362Zm10.793,5.01a.818.818,0,0,0-.461-.734,5.241,5.241,0,0,0-1.481-.479q-3.393-.712-3.393-2.883a2.613,2.613,0,0,1,1.05-2.114,4.237,4.237,0,0,1,2.747-.848,4.56,4.56,0,0,1,2.9.853,2.687,2.687,0,0,1,1.085,2.215h-2.54a1.229,1.229,0,0,0-.352-.9,1.488,1.488,0,0,0-1.1-.356,1.52,1.52,0,0,0-.993.29.916.916,0,0,0-.352.738.783.783,0,0,0,.4.681,4.114,4.114,0,0,0,1.349.448,11.019,11.019,0,0,1,1.6.426,2.628,2.628,0,0,1,2.013,2.558A2.481,2.481,0,0,1,66,16.372a4.815,4.815,0,0,1-2.883.8,5.029,5.029,0,0,1-2.123-.426,3.561,3.561,0,0,1-1.455-1.169,2.716,2.716,0,0,1-.527-1.6H61.42a1.326,1.326,0,0,0,.5,1.037,1.987,1.987,0,0,0,1.248.36,1.839,1.839,0,0,0,1.1-.277A.861.861,0,0,0,64.646,14.372Zm12.665-2.039a5.7,5.7,0,0,1-1,3.52,3.2,3.2,0,0,1-2.694,1.323,2.963,2.963,0,0,1-2.329-1v4.482H68.75V7.49h2.355l.088.932A2.985,2.985,0,0,1,73.6,7.314a3.22,3.22,0,0,1,2.733,1.3,5.858,5.858,0,0,1,.976,3.586Zm-2.54-.185A3.743,3.743,0,0,0,74.3,10.1a1.532,1.532,0,0,0-1.367-.721,1.663,1.663,0,0,0-1.644.914v3.894a1.692,1.692,0,0,0,1.661.94Q74.771,15.128,74.771,12.148Zm9.809,3.885a3.185,3.185,0,0,1-2.6,1.143,3,3,0,0,1-2.333-.879,3.752,3.752,0,0,1-.822-2.575V7.49h2.54v6.151q0,1.487,1.354,1.487a1.834,1.834,0,0,0,1.775-.9V7.49H87.04V17H84.649Zm8.754,1.143a4.668,4.668,0,0,1-3.406-1.283,4.561,4.561,0,0,1-1.314-3.419v-.246a5.745,5.745,0,0,1,.554-2.562,4.064,4.064,0,0,1,1.569-1.74,4.4,4.4,0,0,1,2.316-.611,3.947,3.947,0,0,1,3.072,1.23,5,5,0,0,1,1.121,3.489v1.037H91.188a2.36,2.36,0,0,0,.743,1.494,2.245,2.245,0,0,0,1.569.563,2.742,2.742,0,0,0,2.294-1.063l1.248,1.4A3.813,3.813,0,0,1,95.5,16.723,5.075,5.075,0,0,1,93.333,17.176Zm-.29-7.813a1.587,1.587,0,0,0-1.226.512,2.651,2.651,0,0,0-.6,1.466h3.533v-.2a1.891,1.891,0,0,0-.457-1.311A1.638,1.638,0,0,0,93.043,9.362Zm10.793,5.01a.818.818,0,0,0-.461-.734,5.241,5.241,0,0,0-1.481-.479Q98.5,12.447,98.5,10.276a2.613,2.613,0,0,1,1.05-2.114,4.237,4.237,0,0,1,2.747-.848,4.56,4.56,0,0,1,2.9.853,2.687,2.687,0,0,1,1.085,2.215h-2.54a1.229,1.229,0,0,0-.352-.9,1.488,1.488,0,0,0-1.1-.356,1.52,1.52,0,0,0-.993.29.916.916,0,0,0-.352.738.783.783,0,0,0,.4.681,4.114,4.114,0,0,0,1.349.448,11.019,11.019,0,0,1,1.6.426,2.628,2.628,0,0,1,2.013,2.558,2.481,2.481,0,0,1-1.116,2.1,4.815,4.815,0,0,1-2.883.8,5.029,5.029,0,0,1-2.123-.426,3.561,3.561,0,0,1-1.455-1.169,2.716,2.716,0,0,1-.527-1.6h2.408a1.326,1.326,0,0,0,.5,1.037,1.987,1.987,0,0,0,1.248.36,1.839,1.839,0,0,0,1.1-.277A.861.861,0,0,0,103.836,14.372Zm7.146-9.22V7.49h1.626V9.354h-1.626V14.1a1.133,1.133,0,0,0,.2.756,1.015,1.015,0,0,0,.773.229,4.051,4.051,0,0,0,.747-.062v1.925a5.229,5.229,0,0,1-1.538.229,2.425,2.425,0,0,1-2.725-2.7V9.354h-1.389V7.49h1.389V5.152ZM119.533,17a2.821,2.821,0,0,1-.255-.853,3.073,3.073,0,0,1-2.4,1.028,3.376,3.376,0,0,1-2.316-.809,2.6,2.6,0,0,1-.918-2.039,2.687,2.687,0,0,1,1.121-2.32A5.529,5.529,0,0,1,118,11.19h1.169v-.545a1.567,1.567,0,0,0-.338-1.055,1.331,1.331,0,0,0-1.068-.4,1.513,1.513,0,0,0-1.006.308,1.045,1.045,0,0,0-.365.844h-2.54a2.551,2.551,0,0,1,.51-1.529,3.37,3.37,0,0,1,1.441-1.1,5.253,5.253,0,0,1,2.092-.4,4.15,4.15,0,0,1,2.791.883,3.09,3.09,0,0,1,1.033,2.483V14.8a4.546,4.546,0,0,0,.378,2.048V17Zm-2.1-1.767a2.188,2.188,0,0,0,1.037-.25,1.645,1.645,0,0,0,.7-.672V12.676h-.949q-1.907,0-2.03,1.318l-.009.149a1.017,1.017,0,0,0,.334.782A1.3,1.3,0,0,0,117.433,15.233Z" transform="translate(1054 10649)" fill="#12263f"/>
    <rect id="Rectángulo_377825-4" data-name="Rectángulo 377825" width="227" height="46" rx="23" transform="translate(1020 10400)" fill="#ffd6ae"/>
    <path id="Trazado_875535" data-name="Trazado 875535" d="M49.366,12.315h-2.1V17H44.628V4.2h4.755a5.375,5.375,0,0,1,3.5,1.011,3.488,3.488,0,0,1,1.23,2.856,3.937,3.937,0,0,1-.567,2.184,3.866,3.866,0,0,1-1.718,1.393L54.6,16.877V17h-2.83Zm-2.1-2.136h2.127a2.178,2.178,0,0,0,1.538-.505,1.806,1.806,0,0,0,.545-1.393,1.933,1.933,0,0,0-.514-1.424,2.137,2.137,0,0,0-1.578-.519H47.265Zm13.061,7a4.668,4.668,0,0,1-3.406-1.283,4.561,4.561,0,0,1-1.314-3.419v-.246a5.745,5.745,0,0,1,.554-2.562,4.064,4.064,0,0,1,1.569-1.74,4.4,4.4,0,0,1,2.316-.611,3.947,3.947,0,0,1,3.072,1.23,5,5,0,0,1,1.121,3.489v1.037H58.181a2.36,2.36,0,0,0,.743,1.494,2.245,2.245,0,0,0,1.569.563,2.742,2.742,0,0,0,2.294-1.063l1.248,1.4a3.813,3.813,0,0,1-1.547,1.261A5.075,5.075,0,0,1,60.326,17.176Zm-.29-7.813a1.587,1.587,0,0,0-1.226.512,2.651,2.651,0,0,0-.6,1.466h3.533v-.2a1.891,1.891,0,0,0-.457-1.311A1.638,1.638,0,0,0,60.036,9.362Zm9.6,5.766a1.666,1.666,0,0,0,1.143-.387,1.355,1.355,0,0,0,.457-1.028h2.382a3.258,3.258,0,0,1-.527,1.771,3.48,3.48,0,0,1-1.419,1.248,4.442,4.442,0,0,1-1.991.444,4.129,4.129,0,0,1-3.217-1.3A5.13,5.13,0,0,1,65.283,12.3v-.167a5.071,5.071,0,0,1,1.169-3.507,4.08,4.08,0,0,1,3.208-1.31A4,4,0,0,1,72.521,8.33a3.594,3.594,0,0,1,1.094,2.7H71.233a1.745,1.745,0,0,0-.457-1.206,1.7,1.7,0,0,0-2.5.183,3.749,3.749,0,0,0-.453,2.1v.264a3.8,3.8,0,0,0,.448,2.113A1.549,1.549,0,0,0,69.633,15.128Zm9.809,2.048a4.668,4.668,0,0,1-3.406-1.283,4.561,4.561,0,0,1-1.314-3.419v-.246a5.745,5.745,0,0,1,.554-2.562,4.064,4.064,0,0,1,1.569-1.74,4.4,4.4,0,0,1,2.316-.611,3.947,3.947,0,0,1,3.072,1.23,5,5,0,0,1,1.121,3.489v1.037H77.3a2.36,2.36,0,0,0,.743,1.494,2.245,2.245,0,0,0,1.569.563A2.742,2.742,0,0,0,81.9,14.064l1.248,1.4A3.813,3.813,0,0,1,81.6,16.723,5.075,5.075,0,0,1,79.442,17.176Zm-.29-7.813a1.587,1.587,0,0,0-1.226.512,2.651,2.651,0,0,0-.6,1.466h3.533v-.2A1.891,1.891,0,0,0,80.4,9.826,1.638,1.638,0,0,0,79.152,9.362Zm14.2,2.971a5.7,5.7,0,0,1-1,3.52,3.2,3.2,0,0,1-2.694,1.323,2.963,2.963,0,0,1-2.329-1v4.482h-2.54V7.49H87.15l.088.932a2.985,2.985,0,0,1,2.408-1.107,3.22,3.22,0,0,1,2.733,1.3,5.858,5.858,0,0,1,.976,3.586Zm-2.54-.185a3.743,3.743,0,0,0-.47-2.048,1.532,1.532,0,0,0-1.367-.721,1.663,1.663,0,0,0-1.644.914v3.894a1.692,1.692,0,0,0,1.661.94Q90.815,15.128,90.815,12.148Zm7.154-7V7.49H99.6V9.354H97.969V14.1a1.133,1.133,0,0,0,.2.756,1.015,1.015,0,0,0,.773.229,4.051,4.051,0,0,0,.747-.062v1.925a5.229,5.229,0,0,1-1.538.229,2.425,2.425,0,0,1-2.725-2.7V9.354H94.041V7.49h1.389V5.152Zm2.382,7a5.64,5.64,0,0,1,.545-2.522,3.989,3.989,0,0,1,1.569-1.714,4.577,4.577,0,0,1,2.377-.606,4.33,4.33,0,0,1,3.142,1.178,4.727,4.727,0,0,1,1.358,3.2l.018.65a4.97,4.97,0,0,1-1.222,3.511,4.735,4.735,0,0,1-6.561,0,5.058,5.058,0,0,1-1.226-3.586Zm2.54.18a3.555,3.555,0,0,0,.51,2.073,1.831,1.831,0,0,0,2.9.009,3.89,3.89,0,0,0,.519-2.267,3.519,3.519,0,0,0-.519-2.06,1.686,1.686,0,0,0-1.459-.731,1.658,1.658,0,0,0-1.441.726A3.955,3.955,0,0,0,102.891,12.338Zm13.377-2.465a6.9,6.9,0,0,0-.914-.07,1.86,1.86,0,0,0-1.89.976V17h-2.54V7.49h2.4l.07,1.134a2.354,2.354,0,0,1,2.118-1.31,2.662,2.662,0,0,1,.791.114Z" transform="translate(1054 10412)" fill="#12263f"/>
    <rect id="Rectángulo_377825-5" data-name="Rectángulo 377825" width="227" height="46" rx="23" transform="translate(1020 10558)" fill="#ffd6ae"/>
    <path id="Trazado_875531" data-name="Trazado 875531" d="M68.223,12.737A4.528,4.528,0,0,1,66.7,15.989a5.355,5.355,0,0,1-3.625,1.187A4.816,4.816,0,0,1,59.2,15.519a6.793,6.793,0,0,1-1.411-4.548v-.782a7.671,7.671,0,0,1,.65-3.252A4.874,4.874,0,0,1,60.3,4.779a5.809,5.809,0,0,1,6.376.435A4.866,4.866,0,0,1,68.24,8.545H65.6a2.673,2.673,0,0,0-.69-1.8,2.555,2.555,0,0,0-1.806-.558,2.24,2.24,0,0,0-1.973.945,5.3,5.3,0,0,0-.672,2.931v.967a5.667,5.667,0,0,0,.628,3.032,2.2,2.2,0,0,0,1.982.958,2.6,2.6,0,0,0,1.824-.558,2.521,2.521,0,0,0,.69-1.727ZM75.3,17a2.821,2.821,0,0,1-.255-.853,3.073,3.073,0,0,1-2.4,1.028,3.376,3.376,0,0,1-2.316-.809,2.6,2.6,0,0,1-.918-2.039,2.687,2.687,0,0,1,1.121-2.32,5.529,5.529,0,0,1,3.239-.817h1.169v-.545A1.567,1.567,0,0,0,74.6,9.591a1.331,1.331,0,0,0-1.068-.4,1.513,1.513,0,0,0-1.006.308,1.045,1.045,0,0,0-.365.844H69.62a2.551,2.551,0,0,1,.51-1.529,3.37,3.37,0,0,1,1.441-1.1,5.253,5.253,0,0,1,2.092-.4,4.15,4.15,0,0,1,2.791.883,3.09,3.09,0,0,1,1.033,2.483V14.8a4.546,4.546,0,0,0,.378,2.048V17Zm-2.1-1.767a2.188,2.188,0,0,0,1.037-.25,1.645,1.645,0,0,0,.7-.672V12.676h-.949q-1.907,0-2.03,1.318l-.009.149a1.017,1.017,0,0,0,.334.782A1.3,1.3,0,0,0,73.2,15.233ZM81.775,7.49l.079,1.1a3.32,3.32,0,0,1,2.733-1.274,2.759,2.759,0,0,1,2.25.888,4.142,4.142,0,0,1,.756,2.654V17h-2.54V10.918A1.648,1.648,0,0,0,84.7,9.745a1.574,1.574,0,0,0-1.169-.365,1.747,1.747,0,0,0-1.608.914V17h-2.54V7.49ZM95.029,17a2.821,2.821,0,0,1-.255-.853,3.073,3.073,0,0,1-2.4,1.028,3.376,3.376,0,0,1-2.316-.809,2.6,2.6,0,0,1-.918-2.039,2.687,2.687,0,0,1,1.121-2.32A5.529,5.529,0,0,1,93.5,11.19h1.169v-.545a1.567,1.567,0,0,0-.338-1.055,1.331,1.331,0,0,0-1.068-.4,1.513,1.513,0,0,0-1.006.308,1.045,1.045,0,0,0-.365.844h-2.54a2.551,2.551,0,0,1,.51-1.529,3.37,3.37,0,0,1,1.441-1.1,5.253,5.253,0,0,1,2.092-.4,4.15,4.15,0,0,1,2.791.883,3.09,3.09,0,0,1,1.033,2.483V14.8a4.546,4.546,0,0,0,.378,2.048V17Zm-2.1-1.767a2.188,2.188,0,0,0,1.037-.25,1.645,1.645,0,0,0,.7-.672V12.676H93.72q-1.907,0-2.03,1.318l-.009.149a1.017,1.017,0,0,0,.334.782A1.3,1.3,0,0,0,92.929,15.233ZM101.85,17H99.3V3.5h2.549Z" transform="translate(1054 10570)" fill="#12263f"/>
    <circle id="Elipse_11599" data-name="Elipse 11599" cx="31.5" cy="31.5" r="31.5" transform="translate(1000 10313)" fill="#f9d648"/>
    <circle id="Elipse_11602" data-name="Elipse 11602" cx="31.5" cy="31.5" r="31.5" transform="translate(1000 10471)" fill="#f9d648"/>
    <circle id="Elipse_11604" data-name="Elipse 11604" cx="31.5" cy="31.5" r="31.5" transform="translate(1000 10629)" fill="#f9d648"/>
    <circle id="Elipse_11601" data-name="Elipse 11601" cx="31.5" cy="31.5" r="31.5" transform="translate(1000 10392)" fill="#ffc78f"/>
    <circle id="Elipse_11603" data-name="Elipse 11603" cx="31.5" cy="31.5" r="31.5" transform="translate(1000 10550)" fill="#ffc78f"/>
    <path id="Trazado_875537" data-name="Trazado 875537" d="M2.136,0H-.835V-9.457L-3.753-8.6v-2.25L1.863-12.8h.272Z" transform="translate(1032 10351)" fill="#12263f"/>
    <path id="Trazado_875533" data-name="Trazado 875533" d="M-1.723-7.638h1.4A1.453,1.453,0,0,0,1.336-9.264,1.406,1.406,0,0,0,.94-10.3a1.5,1.5,0,0,0-1.116-.4,1.606,1.606,0,0,0-1.024.343,1.046,1.046,0,0,0-.435.853H-4.6a3.032,3.032,0,0,1,.563-1.8,3.715,3.715,0,0,1,1.56-1.235,5.334,5.334,0,0,1,2.193-.444,5.241,5.241,0,0,1,3.357.976A3.243,3.243,0,0,1,4.3-9.325a2.7,2.7,0,0,1-.505,1.56A3.6,3.6,0,0,1,2.32-6.574a3.441,3.441,0,0,1,1.6,1.121A2.951,2.951,0,0,1,4.5-3.595,3.3,3.3,0,0,1,3.182-.853,5.472,5.472,0,0,1-.281.176,5.675,5.675,0,0,1-2.615-.3,3.656,3.656,0,0,1-4.245-1.63,3.45,3.45,0,0,1-4.8-3.56h2.979a1.334,1.334,0,0,0,.475,1.02,1.676,1.676,0,0,0,1.169.431,1.755,1.755,0,0,0,1.248-.435,1.454,1.454,0,0,0,.466-1.112,1.7,1.7,0,0,0-.483-1.371,2.021,2.021,0,0,0-1.336-.4H-1.723Z" transform="translate(1032 10509)" fill="#12263f"/>
    <path id="Trazado_875529" data-name="Trazado 875529" d="M-4.254-6.251l.782-6.546H4.008v2.3H-1.063l-.29,2.542a3.493,3.493,0,0,1,.831-.327A3.79,3.79,0,0,1,.483-8.42,3.754,3.754,0,0,1,3.415-7.291,4.549,4.549,0,0,1,4.438-4.122a4.541,4.541,0,0,1-.549,2.228A3.776,3.776,0,0,1,2.347-.36,4.87,4.87,0,0,1,0,.176a5.24,5.24,0,0,1-2.259-.5A4.052,4.052,0,0,1-3.911-1.682,3.308,3.308,0,0,1-4.5-3.636h2.971a1.68,1.68,0,0,0,.448,1.114,1.423,1.423,0,0,0,1.063.412q1.494,0,1.494-2.21,0-2.044-1.828-2.044A1.824,1.824,0,0,0-1.9-5.7Z" transform="translate(1032 10667)" fill="#12263f"/>
    <path id="Trazado_875536" data-name="Trazado 875536" d="M4.5,0H-4.43V-1.934L-.316-6.258A4.909,4.909,0,0,0,1.2-9.009a1.913,1.913,0,0,0-.36-1.257A1.287,1.287,0,0,0-.2-10.7a1.3,1.3,0,0,0-1.1.576,2.366,2.366,0,0,0-.422,1.437H-4.693A4.2,4.2,0,0,1-4.1-10.859a4.129,4.129,0,0,1,1.635-1.56,4.856,4.856,0,0,1,2.338-.562,4.777,4.777,0,0,1,3.195.958A3.42,3.42,0,0,1,4.184-9.272,4,4,0,0,1,3.9-7.8a6.456,6.456,0,0,1-.875,1.5,22.029,22.029,0,0,1-1.912,2.1L-.536-2.285H4.5Z" transform="translate(1032 10430)" fill="#12263f"/>
    <text id="_4" data-name="4" transform="translate(1032 10588)" fill="#12263f" font-size="18" font-family="Roboto-Black, Roboto" font-weight="800"><tspan x="-5.212" y="0">4</tspan></text>
    <circle id="Elipse_11608" data-name="Elipse 11608" cx="31.5" cy="31.5" r="31.5" transform="translate(1000 10550)" fill="#ffc78f"/>
    <path id="Trazado_875532" data-name="Trazado 875532" d="M3.393-5h1.3v2.285h-1.3V0H.431V-2.716H-4.518l-.176-1.811L.431-12.771V-12.8H3.393ZM-1.872-5h2.3V-8.938l-.185.3Z" transform="translate(1032 10588)" fill="#12263f"/>
    <circle id="Elipse_11605" data-name="Elipse 11605" cx="31.5" cy="31.5" r="31.5" transform="translate(327 10327)" fill="#f9d648"/>
    <path id="Trazado_875542" data-name="Trazado 875542" d="M2.136,0H-.835V-9.457L-3.753-8.6v-2.25L1.863-12.8h.272Z" transform="translate(359 10365)" fill="#12263f"/>
    <circle id="Elipse_11606" data-name="Elipse 11606" cx="31.5" cy="31.5" r="31.5" transform="translate(747 10672)" fill="#ffc78f"/>
    <path id="Trazado_875539" data-name="Trazado 875539" d="M4.5,0H-4.43V-1.934L-.316-6.258A4.909,4.909,0,0,0,1.2-9.009a1.913,1.913,0,0,0-.36-1.257A1.287,1.287,0,0,0-.2-10.7a1.3,1.3,0,0,0-1.1.576,2.366,2.366,0,0,0-.422,1.437H-4.693A4.2,4.2,0,0,1-4.1-10.859a4.129,4.129,0,0,1,1.635-1.56,4.856,4.856,0,0,1,2.338-.562,4.777,4.777,0,0,1,3.195.958A3.42,3.42,0,0,1,4.184-9.272,4,4,0,0,1,3.9-7.8a6.456,6.456,0,0,1-.875,1.5,22.029,22.029,0,0,1-1.912,2.1L-.536-2.285H4.5Z" transform="translate(779 10710)" fill="#12263f"/>
    <circle id="Elipse_11607" data-name="Elipse 11607" cx="31.5" cy="31.5" r="31.5" transform="translate(570 10269)" fill="#f9d648"/>
    <path id="Trazado_875541" data-name="Trazado 875541" d="M-1.723-7.638h1.4A1.453,1.453,0,0,0,1.336-9.264,1.406,1.406,0,0,0,.94-10.3a1.5,1.5,0,0,0-1.116-.4,1.606,1.606,0,0,0-1.024.343,1.046,1.046,0,0,0-.435.853H-4.6a3.032,3.032,0,0,1,.563-1.8,3.715,3.715,0,0,1,1.56-1.235,5.334,5.334,0,0,1,2.193-.444,5.241,5.241,0,0,1,3.357.976A3.243,3.243,0,0,1,4.3-9.325a2.7,2.7,0,0,1-.505,1.56A3.6,3.6,0,0,1,2.32-6.574a3.441,3.441,0,0,1,1.6,1.121A2.951,2.951,0,0,1,4.5-3.595,3.3,3.3,0,0,1,3.182-.853,5.472,5.472,0,0,1-.281.176,5.675,5.675,0,0,1-2.615-.3,3.656,3.656,0,0,1-4.245-1.63,3.45,3.45,0,0,1-4.8-3.56h2.979a1.334,1.334,0,0,0,.475,1.02,1.676,1.676,0,0,0,1.169.431,1.755,1.755,0,0,0,1.248-.435,1.454,1.454,0,0,0,.466-1.112,1.7,1.7,0,0,0-.483-1.371,2.021,2.021,0,0,0-1.336-.4H-1.723Z" transform="translate(602 10307)" fill="#12263f"/>
    <circle id="Elipse_11609" data-name="Elipse 11609" cx="31.5" cy="31.5" r="31.5" transform="translate(495 10568)" fill="#ffc78f"/>
    <text id="_4-2" data-name="4" transform="translate(527 10606)" fill="#12263f" font-size="18" font-family="Roboto-Black, Roboto" font-weight="800"><tspan x="-5.212" y="0">4</tspan></text>
    <circle id="Elipse_11610" data-name="Elipse 11610" cx="31.5" cy="31.5" r="31.5" transform="translate(694 10346)" fill="#f9d648"/>
    <path id="Trazado_875540" data-name="Trazado 875540" d="M-4.254-6.251l.782-6.546H4.008v2.3H-1.063l-.29,2.542a3.493,3.493,0,0,1,.831-.327A3.79,3.79,0,0,1,.483-8.42,3.754,3.754,0,0,1,3.415-7.291,4.549,4.549,0,0,1,4.438-4.122a4.541,4.541,0,0,1-.549,2.228A3.776,3.776,0,0,1,2.347-.36,4.87,4.87,0,0,1,0,.176a5.24,5.24,0,0,1-2.259-.5A4.052,4.052,0,0,1-3.911-1.682,3.308,3.308,0,0,1-4.5-3.636h2.971a1.68,1.68,0,0,0,.448,1.114,1.423,1.423,0,0,0,1.063.412q1.494,0,1.494-2.21,0-2.044-1.828-2.044A1.824,1.824,0,0,0-1.9-5.7Z" transform="translate(726 10384)" fill="#12263f"/>
  </g>
</svg>
