<svg xmlns="http://www.w3.org/2000/svg" xmlns:xlink="http://www.w3.org/1999/xlink" width="295" height="399.488" viewBox="0 0 295 399.488">
  <defs>
    <clipPath id="clip-path">
      <rect id="Rectángulo_401470" data-name="Rectángulo 401470" width="294.83" height="399.488" fill="none"/>
    </clipPath>
    <clipPath id="clip-path-6">
      <rect id="Rectángulo_401466" data-name="Rectángulo 401466" width="45.44" height="84.367" fill="none"/>
    </clipPath>
    <clipPath id="clip-path-7">
      <rect id="Rectángulo_401467" data-name="Rectángulo 401467" width="55.924" height="97.552" fill="none"/>
    </clipPath>
    <clipPath id="clip-path-8">
      <rect id="Rectángulo_401468" data-name="Rectángulo 401468" width="110.082" height="61.86" fill="none"/>
    </clipPath>
  </defs>
  <g id="Grupo_1100224" data-name="Grupo 1100224" transform="translate(-285 -1007.512)">
    <circle id="Elipse_11564" data-name="Elipse 11564" cx="147.5" cy="147.5" r="147.5" transform="translate(285 1084)" fill="#ffecda"/>
    <g id="Grupo_1099958" data-name="Grupo 1099958" transform="translate(285.17 1007.512)">
      <g id="Grupo_1099957" data-name="Grupo 1099957" clip-path="url(#clip-path)">
        <g id="Grupo_1099941" data-name="Grupo 1099941">
          <g id="Grupo_1099940" data-name="Grupo 1099940" clip-path="url(#clip-path)">
            <path id="Trazado_873594" data-name="Trazado 873594" d="M90.5,2.385A26.436,26.436,0,0,0,76.033.241,26.988,26.988,0,0,0,63.581,5.294,18.128,18.128,0,0,0,57.9,12.745a24.07,24.07,0,0,0-1.291,12.168,2.564,2.564,0,0,0,2.933,2.216l8.907-1.355a2.579,2.579,0,0,0,2.181-2.564c-.03-2.853.912-7.808,7.56-8.938a8.189,8.189,0,0,1,8.626,3.982,9.182,9.182,0,0,1,.51,8.292c-1.776,4.269-6.044,5.53-8.432,5.9a5.05,5.05,0,0,0-4.224,5.727l1.458,9.585a2.57,2.57,0,0,0,2.924,2.153l8.679-1.321a2.571,2.571,0,0,0,2.152-2.924l-.306-2.014a.113.113,0,0,1,.06-.118,25.462,25.462,0,0,0,8.331-7.17c3.719-5.023,5.085-10.984,4.061-17.716C100.561,9.014,94.947,4.487,90.5,2.385" transform="translate(-4.987 0)" fill="#ffc78f"/>
            <path id="Trazado_873595" data-name="Trazado 873595" d="M86.266,56.6l-.759.116a6.658,6.658,0,0,0,2,13.164l.759-.116a6.658,6.658,0,1,0-2-13.164" transform="translate(-7.065 -5.001)" fill="#ffc78f"/>
            <path id="Trazado_873596" data-name="Trazado 873596" d="M194.068,409.77c22.185-.964,50.328-8.048,67.539-22.524a124.458,124.458,0,0,0-67.539,22.524" transform="translate(-17.17 -34.261)" fill="#ebebeb"/>
            <path id="Trazado_873597" data-name="Trazado 873597" d="M211,380.985c22.185-.963,50.327-8.048,67.539-22.524A124.457,124.457,0,0,0,211,380.985" transform="translate(-18.668 -31.715)" fill="#ebebeb"/>
            <path id="Trazado_873598" data-name="Trazado 873598" d="M229.2,353.567c22.185-.963,50.327-8.048,67.539-22.524A124.458,124.458,0,0,0,229.2,353.567" transform="translate(-20.279 -29.289)" fill="#ebebeb"/>
            <path id="Trazado_873599" data-name="Trazado 873599" d="M249.514,324.516c22.069-3.678,49.273-14.1,64.538-30.448a125.3,125.3,0,0,0-64.538,30.448" transform="translate(-22.076 -26.017)" fill="#ebebeb"/>
            <path id="Trazado_873600" data-name="Trazado 873600" d="M267.369,301.7c19.6-11.215,41.433-30.347,49.563-50.543A122.394,122.394,0,0,0,267.369,301.7" transform="translate(-23.655 -22.221)" fill="#ebebeb"/>
            <path id="Trazado_873601" data-name="Trazado 873601" d="M258.145,309.423c6.034-22.009,7.908-51.6-.947-72.58a125.012,125.012,0,0,0,.947,72.58" transform="translate(-22.32 -20.955)" fill="#ebebeb"/>
            <path id="Trazado_873602" data-name="Trazado 873602" d="M240.509,332.225c4.277-23.344,3.516-54.24-7.656-75.358a130.117,130.117,0,0,0,7.656,75.358" transform="translate(-20.384 -22.726)" fill="#ebebeb"/>
            <path id="Trazado_873603" data-name="Trazado 873603" d="M219.985,360.521c4.277-23.344,3.516-54.24-7.656-75.358a130.118,130.118,0,0,0,7.656,75.358" transform="translate(-18.568 -25.23)" fill="#ebebeb"/>
            <path id="Trazado_873604" data-name="Trazado 873604" d="M198.107,396.371c4.277-23.344,3.516-54.24-7.656-75.358a130.118,130.118,0,0,0,7.656,75.358" transform="translate(-16.633 -28.401)" fill="#ebebeb"/>
            <path id="Trazado_873605" data-name="Trazado 873605" d="M189.787,406.792c-3.213,5.933-5.731,10.78-7.4,14.165q-1.21,2.465-1.915,3.9L180,425.88a1.343,1.343,0,0,0-.138.362,1.344,1.344,0,0,0,.214-.323l.553-.986,2.055-3.826c1.755-3.338,4.351-8.138,7.628-14.029,3.26-5.9,7.289-12.845,11.874-20.489,4.625-7.618,9.842-15.916,15.532-24.487,11.405-17.119,22.564-32.046,30.9-42.645,4.165-5.3,7.581-9.557,9.976-12.471l2.729-3.38.694-.892a1.366,1.366,0,0,0,.214-.323c-.011-.01-.106.081-.28.267l-.757.839-2.85,3.28c-2.474,2.85-5.962,7.052-10.191,12.31-8.458,10.514-19.709,25.406-31.13,42.549" transform="translate(-15.913 -26.754)" fill="#e0e0e0"/>
            <path id="Trazado_873606" data-name="Trazado 873606" d="M148.55,241.891c8.1-19.99,13.19-47.712,7.342-68.758a120.876,120.876,0,0,0-7.342,68.758" transform="translate(-12.963 -15.318)" fill="#ebebeb"/>
            <path id="Trazado_873607" data-name="Trazado 873607" d="M129.948,215.32c8.1-19.99,13.19-47.712,7.342-68.758a120.876,120.876,0,0,0-7.342,68.758" transform="translate(-11.318 -12.967)" fill="#ebebeb"/>
            <path id="Trazado_873608" data-name="Trazado 873608" d="M113.066,188.178c8.1-19.99,13.19-47.712,7.342-68.758a120.876,120.876,0,0,0-7.342,68.758" transform="translate(-9.824 -10.566)" fill="#ebebeb"/>
            <path id="Trazado_873609" data-name="Trazado 873609" d="M95.936,158.771c5.652-20.982,7.414-49.222-.869-69.3a121.7,121.7,0,0,0,.869,69.3" transform="translate(-8.003 -7.916)" fill="#ebebeb"/>
            <path id="Trazado_873610" data-name="Trazado 873610" d="M82.839,135.077c-2-21.836-10.1-48.849-24.664-64.179a118.877,118.877,0,0,0,24.664,64.179" transform="translate(-5.147 -6.273)" fill="#ebebeb"/>
            <path id="Trazado_873611" data-name="Trazado 873611" d="M84.2,150.171c-17.011-14.208-42.4-27.8-64.509-28.439A121.421,121.421,0,0,0,84.2,150.171" transform="translate(-1.742 -10.77)" fill="#ebebeb"/>
            <path id="Trazado_873612" data-name="Trazado 873612" d="M97.132,175.151c-18.9-13.2-46.505-24.985-69.669-23.633a126.377,126.377,0,0,0,69.669,23.633" transform="translate(-2.43 -13.396)" fill="#ebebeb"/>
            <path id="Trazado_873613" data-name="Trazado 873613" d="M113.853,204.7c-18.9-13.2-46.505-24.985-69.669-23.633A126.369,126.369,0,0,0,113.853,204.7" transform="translate(-3.909 -16.01)" fill="#ebebeb"/>
            <path id="Trazado_873614" data-name="Trazado 873614" d="M136.7,238.489c-18.9-13.2-46.505-24.985-69.669-23.633A126.376,126.376,0,0,0,136.7,238.489" transform="translate(-5.931 -19)" fill="#ebebeb"/>
            <path id="Trazado_873615" data-name="Trazado 873615" d="M145.682,243.2c3.946,5.232,7.212,9.412,9.531,12.249l2.674,3.265.712.836c.164.186.253.276.264.267a1.307,1.307,0,0,0-.2-.319l-.647-.887-2.552-3.358c-2.241-2.9-5.435-7.126-9.319-12.4-3.9-5.26-8.409-11.622-13.313-18.756-4.867-7.16-10.093-15.117-15.37-23.6C106.936,183.518,98.25,167.637,92.245,156c-3-5.818-5.386-10.553-6.993-13.844l-1.886-3.775c-.2-.39-.372-.71-.509-.973a1.305,1.305,0,0,0-.2-.319,1.3,1.3,0,0,0,.123.355l.436,1.008,1.747,3.841c1.52,3.335,3.826,8.112,6.766,13.969,5.878,11.714,14.5,27.662,25.037,44.667" transform="translate(-7.313 -12.129)" fill="#e0e0e0"/>
            <path id="Trazado_873616" data-name="Trazado 873616" d="M314.176,161.8a27.028,27.028,0,0,0-12.522-8.158,27.588,27.588,0,0,0-13.722-.613,18.527,18.527,0,0,0-8.458,4.5,24.6,24.6,0,0,0-6.387,10.753,2.62,2.62,0,0,0,1.78,3.31l8.853,2.539a2.635,2.635,0,0,0,3.119-1.451c1.189-2.663,4.177-6.866,10.834-5.08a8.369,8.369,0,0,1,6.316,7.376,9.388,9.388,0,0,1-3.062,7.921c-3.469,3.209-7.973,2.56-10.349,1.888a5.163,5.163,0,0,0-6.366,3.52l-2.732,9.526a2.627,2.627,0,0,0,1.8,3.246l8.625,2.474a2.628,2.628,0,0,0,3.247-1.8l.574-2a.115.115,0,0,1,.107-.084,26.021,26.021,0,0,0,10.8-3.109c5.6-3.081,9.407-8.036,11.326-14.728,2.746-9.577-.539-16.177-3.778-20.027" transform="translate(-24.15 -13.485)" fill="#ffc78f"/>
            <path id="Trazado_873617" data-name="Trazado 873617" d="M287.813,209.874l-.755-.216a6.806,6.806,0,1,0-3.752,13.084l.755.216a6.806,6.806,0,1,0,3.752-13.084" transform="translate(-24.629 -18.526)" fill="#ffc78f"/>
            <path id="Trazado_873618" data-name="Trazado 873618" d="M98.357,421.375h7.877c4.635-16.517,6.866-34.9,3.83-50.262a131.737,131.737,0,0,0-11.707,50.262" transform="translate(-8.702 -32.834)" fill="#ebebeb"/>
            <path id="Trazado_873619" data-name="Trazado 873619" d="M95.575,342.167a133.346,133.346,0,0,0-11.033,69.25l.265.559c8.758-20.013,15.084-47.959,10.768-69.809" transform="translate(-7.412 -30.273)" fill="#ebebeb"/>
            <path id="Trazado_873620" data-name="Trazado 873620" d="M73.292,309.777A135.074,135.074,0,0,0,69.5,378.122c.285.684.578,1.382.875,2.087,6.408-21.13,9.539-49.557,2.912-70.433" transform="translate(-5.91 -27.407)" fill="#ebebeb"/>
            <path id="Trazado_873621" data-name="Trazado 873621" d="M57.336,352.136a1.39,1.39,0,0,1-.1-.373,1.352,1.352,0,0,1,.17.341c.115.278.256.617.428,1.032l.475,1.205c.314.5.615,1.019.935,1.518-.646-22.567-6.784-50.831-19.742-67.493.3,23.227,6.8,46.271,18.3,65.153-.036-.1-.078-.222-.113-.32l-.356-1.063" transform="translate(-3.495 -25.513)" fill="#ebebeb"/>
            <path id="Trazado_873622" data-name="Trazado 873622" d="M59.275,371.371c-.067-.17-.131-.338-.2-.507C43.727,355.4,20.714,340.219,0,338.209a112.911,112.911,0,0,0,59.275,33.162" transform="translate(0 -29.923)" fill="#ebebeb"/>
            <path id="Trazado_873623" data-name="Trazado 873623" d="M76.791,400.7l-.26-.219.088.2c.057.005.114.015.171.02" transform="translate(-6.771 -35.433)" fill="#ebebeb"/>
            <path id="Trazado_873624" data-name="Trazado 873624" d="M5.673,369.316A115.674,115.674,0,0,0,69.53,397.827c-.167-.381-.326-.753-.49-1.131-17.166-14.261-41.9-27.328-63.367-27.379" transform="translate(-0.502 -32.675)" fill="#ebebeb"/>
            <path id="Trazado_873625" data-name="Trazado 873625" d="M19.861,400.724A116.851,116.851,0,0,0,60.011,424H78.026c-16.735-12.567-38.783-23.224-58.165-23.271" transform="translate(-1.757 -35.454)" fill="#ebebeb"/>
            <path id="Trazado_873626" data-name="Trazado 873626" d="M66.478,378.187c2.033,5.135,4.476,11.051,7.275,17.5.164.377.324.749.49,1.13,3.165,7.252,6.781,15.16,10.78,23.39H85.9q-1.689-3.462-3.288-6.838c-.088-.186-.178-.373-.265-.559-2.62-5.539-5.054-10.873-7.28-15.894l-.088-.2c-1.925-4.344-3.69-8.446-5.291-12.25-.3-.7-.59-1.4-.875-2.087-.639-1.531-1.251-3.014-1.829-4.432-2.519-6.166-4.511-11.181-5.849-14.664-.425-1.08-.788-2-1.1-2.79l-.475-1.206c-.171-.415-.313-.754-.428-1.032a1.375,1.375,0,0,0-.17-.341,1.382,1.382,0,0,0,.1.373c.1.287.213.635.356,1.063l.113.32,1.326,3.737c.851,2.394,2.015,5.509,3.442,9.2.065.169.129.336.2.508.617,1.592,1.276,3.278,1.987,5.072" transform="translate(-5.216 -31.666)" fill="#e0e0e0"/>
          </g>
        </g>
        <g id="Grupo_1099943" data-name="Grupo 1099943">
          <g id="Grupo_1099942" data-name="Grupo 1099942" clip-path="url(#clip-path)">
            <path id="Trazado_873627" data-name="Trazado 873627" d="M279.215,425.837c0,.138-58.1.249-129.758.249-71.681,0-129.77-.111-129.77-.249s58.09-.249,129.77-.249c71.656,0,129.758.111,129.758.249" transform="translate(-1.742 -37.654)" fill="#263238"/>
          </g>
        </g>
        <g id="Grupo_1099945" data-name="Grupo 1099945">
          <g id="Grupo_1099944" data-name="Grupo 1099944" clip-path="url(#clip-path)">
            <path id="Trazado_873628" data-name="Trazado 873628" d="M289.805,52.726a30.851,30.851,0,1,1-30.851-30.851,30.851,30.851,0,0,1,30.851,30.851" transform="translate(-20.181 -1.935)" fill="#fff"/>
            <path id="Trazado_873629" data-name="Trazado 873629" d="M289.786,52.71s-.022-.17-.045-.5-.054-.829-.094-1.464q-.029-.485-.064-1.078c-.041-.4-.126-.823-.2-1.289l-.238-1.5a16.853,16.853,0,0,0-.4-1.682,29.423,29.423,0,0,0-3.416-8.185,30.658,30.658,0,0,0-7.814-8.715l-1.328-.989c-.467-.305-.958-.585-1.444-.885-.5-.282-.965-.624-1.5-.865l-1.593-.765-.811-.385-.851-.31-1.727-.629c-.587-.194-1.2-.319-1.808-.484a15.505,15.505,0,0,0-1.858-.42,28.423,28.423,0,0,0-3.879-.449c-.662-.022-1.328-.087-2-.077l-2.031.1c-.34.024-.684.022-1.025.067l-1.023.158c-.683.113-1.377.193-2.064.335a32.468,32.468,0,0,0-4.09,1.2,32.078,32.078,0,0,0-4,1.758c-.647.351-1.268.76-1.91,1.14-.314.2-.649.373-.947.6l-.9.676a34.671,34.671,0,0,0-3.478,2.956l-1.559,1.717-.392.431-.352.467-.7.939-.706.943-.617,1.009-.616,1.015-.309.51-.262.536-1.041,2.162-.832,2.271a32.758,32.758,0,0,0-1.581,9.672,32.785,32.785,0,0,0,1.58,9.676q.417,1.139.831,2.272l1.042,2.162.262.537.309.51.617,1.015.617,1.009.705.944.7.939.352.467.392.432,1.559,1.717a34.569,34.569,0,0,0,3.479,2.957l.9.676c.3.227.634.4.948.6.642.38,1.262.789,1.911,1.141a31.879,31.879,0,0,0,4,1.757,32.324,32.324,0,0,0,4.09,1.2c.687.142,1.382.222,2.065.335l1.023.158c.341.045.685.043,1.025.067l2.03.1c.672.01,1.339-.055,2-.077a28.6,28.6,0,0,0,3.88-.448,15.533,15.533,0,0,0,1.857-.421c.608-.165,1.222-.29,1.809-.484l1.727-.629.851-.31.811-.385,1.593-.765c.532-.242,1-.584,1.5-.866.486-.3.978-.579,1.444-.885l1.328-.989a30.655,30.655,0,0,0,7.813-8.715,29.4,29.4,0,0,0,3.415-8.184,16.6,16.6,0,0,0,.4-1.682l.238-1.5c.069-.466.154-.893.2-1.288q.036-.595.064-1.078c.04-.634.072-1.121.094-1.464s.045-.5.045-.5,0,.17-.005.5-.031.832-.055,1.468c-.014.325-.028.685-.046,1.083-.035.4-.113.827-.177,1.3s-.142.972-.221,1.51a16.442,16.442,0,0,1-.387,1.694,29.242,29.242,0,0,1-3.374,8.258,30.771,30.771,0,0,1-7.834,8.822l-1.336,1c-.469.311-.964.6-1.454.9-.5.286-.973.634-1.509.88l-1.606.778-.818.39-.859.316-1.744.641c-.592.2-1.212.326-1.826.495a15.811,15.811,0,0,1-1.875.43,28.739,28.739,0,0,1-3.92.464c-.669.025-1.343.091-2.022.082l-2.054-.1c-.344-.023-.692-.02-1.036-.065l-1.035-.157c-.691-.113-1.394-.193-2.088-.335a32.762,32.762,0,0,1-4.14-1.206,32.25,32.25,0,0,1-4.051-1.774c-.655-.355-1.285-.767-1.934-1.151-.318-.2-.657-.376-.96-.605l-.915-.683a34.847,34.847,0,0,1-3.524-2.99L235.4,72.915l-.4-.437-.357-.472-.712-.951-.714-.954-.626-1.022-.625-1.027-.314-.516-.265-.543q-.525-1.091-1.056-2.189-.42-1.146-.843-2.3a33.117,33.117,0,0,1-1.6-9.8,33.118,33.118,0,0,1,1.6-9.794q.424-1.154.844-2.3l1.055-2.189.266-.542.314-.516.624-1.027.626-1.021.715-.955.711-.95.357-.472.4-.437,1.58-1.736a34.826,34.826,0,0,1,3.523-2.989l.915-.683c.3-.229.642-.4.96-.605.649-.384,1.278-.8,1.934-1.151a32.232,32.232,0,0,1,4.05-1.773A32.75,32.75,0,0,1,252.5,22.36c.7-.143,1.4-.222,2.088-.335l1.035-.157c.345-.045.693-.042,1.036-.065l2.053-.1c.679-.008,1.354.057,2.022.083a28.739,28.739,0,0,1,3.921.464,15.869,15.869,0,0,1,1.876.429c.613.169,1.232.3,1.825.495l1.743.641.86.316.817.39,1.607.778c.536.245,1.01.592,1.509.88.49.3.984.588,1.454.9l1.336,1a30.789,30.789,0,0,1,7.835,8.822,29.267,29.267,0,0,1,3.375,8.259,16.388,16.388,0,0,1,.387,1.694q.119.808.221,1.51c.063.469.141.9.177,1.3.017.4.032.758.046,1.083.024.636.042,1.125.055,1.468s.005.5.005.5" transform="translate(-20.162 -1.92)" fill="#263238"/>
            <path id="Trazado_873630" data-name="Trazado 873630" d="M249.908,48.855h5.861a4.981,4.981,0,0,1,5.115-5.01,4.742,4.742,0,0,1,4.592,3.027,5.252,5.252,0,0,1-.417,4.747c-.994,1.639-3.172,3.129-7.123,2.433v8.6h5.8V59.527a11.319,11.319,0,0,0,8.128-11.06c0-8.57-7.686-10.561-10.977-10.561-2.516,0-11.086.608-10.976,10.948" transform="translate(-22.11 -3.354)" fill="#f9d648"/>
            <rect id="Rectángulo_401464" data-name="Rectángulo 401464" width="5.882" height="5.493" transform="translate(235.809 61.534)" fill="#f9d648"/>
            <path id="Trazado_873631" data-name="Trazado 873631" d="M229.543,84.426a4.71,4.71,0,1,1-4.71-4.71,4.709,4.709,0,0,1,4.71,4.71" transform="translate(-19.475 -7.053)" fill="#fff"/>
            <path id="Trazado_873632" data-name="Trazado 873632" d="M229.524,84.41c-.042,0-.026-.419-.221-1.131a4.7,4.7,0,0,0-1.723-2.5,4.583,4.583,0,0,0-4.31-.621,4.485,4.485,0,0,0-2.1,1.584,4.511,4.511,0,0,0,0,5.342,4.492,4.492,0,0,0,2.1,1.584,4.582,4.582,0,0,0,4.31-.621,4.7,4.7,0,0,0,1.723-2.5c.194-.712.179-1.133.221-1.131a.89.89,0,0,1,.024.3,3.663,3.663,0,0,1-.1.866,4.69,4.69,0,0,1-1.7,2.684,4.849,4.849,0,0,1-6.88-.956,4.859,4.859,0,0,1,0-5.794,4.849,4.849,0,0,1,6.88-.956,4.688,4.688,0,0,1,1.7,2.684,3.663,3.663,0,0,1,.1.866.89.89,0,0,1-.024.3" transform="translate(-19.456 -7.037)" fill="#263238"/>
          </g>
        </g>
        <g id="Grupo_1099956" data-name="Grupo 1099956">
          <g id="Grupo_1099955" data-name="Grupo 1099955" clip-path="url(#clip-path)">
            <path id="Trazado_873633" data-name="Trazado 873633" d="M201.956,53.6a7.326,7.326,0,0,0,2.753-14.316,7.62,7.62,0,0,0-6.955-12.684,9.121,9.121,0,0,0-13.934-7.136,10.252,10.252,0,0,0-12.63.055,7.5,7.5,0,0,0-7.7,3.994,7.5,7.5,0,0,0,1.566,8.534" transform="translate(-14.402 -1.531)" fill="#263238"/>
            <path id="Trazado_873634" data-name="Trazado 873634" d="M168.125,27.694l1.61-.037a31.084,31.084,0,0,1,31.644,27.855c1.561,14.986,3.093,31.563,3.181,39.62.183,16.684-16.438,19.666-16.438,19.666l1.878,20-40.507-.31L144.218,61.9c-1.9-17.283,6.579-32.792,23.908-34.21" transform="translate(-12.736 -2.446)" fill="#ffc09d"/>
            <path id="Trazado_873635" data-name="Trazado 873635" d="M190.2,122.678a43.207,43.207,0,0,1-23-5.909s6.777,12.158,23.384,10.268Z" transform="translate(-14.793 -10.331)" fill="#ff9b6c"/>
            <path id="Trazado_873636" data-name="Trazado 873636" d="M200.9,77.87a2.382,2.382,0,0,1-2.241,2.457,2.278,2.278,0,0,1-2.5-2.09,2.383,2.383,0,0,1,2.238-2.458A2.281,2.281,0,0,1,200.9,77.87" transform="translate(-17.354 -6.704)" fill="#263238"/>
            <path id="Trazado_873637" data-name="Trazado 873637" d="M202.313,67.027c-.287.318-2.123-.976-4.686-.91-2.56.03-4.412,1.393-4.7,1.086-.14-.137.148-.7.953-1.319a6.533,6.533,0,0,1,3.751-1.253,6.279,6.279,0,0,1,3.739,1.112c.8.586,1.083,1.142.94,1.284" transform="translate(-17.066 -5.718)" fill="#263238"/>
            <path id="Trazado_873638" data-name="Trazado 873638" d="M176.69,77.87a2.381,2.381,0,0,1-2.241,2.456,2.278,2.278,0,0,1-2.506-2.089,2.385,2.385,0,0,1,2.239-2.458,2.281,2.281,0,0,1,2.508,2.092" transform="translate(-15.212 -6.704)" fill="#263238"/>
            <path id="Trazado_873639" data-name="Trazado 873639" d="M174.687,68.2c-.288.317-2.127-.975-4.687-.909-2.561.029-4.411,1.392-4.7,1.085-.139-.136.146-.7.954-1.319a6.537,6.537,0,0,1,3.75-1.252,6.28,6.28,0,0,1,3.74,1.111c.8.586,1.081,1.142.94,1.284" transform="translate(-14.622 -5.822)" fill="#263238"/>
            <path id="Trazado_873640" data-name="Trazado 873640" d="M186.127,86.974c-.016-.146,1.571-.459,4.145-.849.654-.082,1.27-.227,1.37-.676a3.346,3.346,0,0,0-.482-1.93q-.979-2.353-2.052-4.939c-2.853-7.033-4.934-12.822-4.651-12.935s2.828,5.5,5.681,12.53q1.031,2.6,1.971,4.97a3.788,3.788,0,0,1,.4,2.561,1.642,1.642,0,0,1-1.054.982,4.379,4.379,0,0,1-1.107.18c-2.6.2-4.206.249-4.219.1" transform="translate(-16.317 -5.808)" fill="#263238"/>
            <path id="Trazado_873641" data-name="Trazado 873641" d="M175.177,62.368c-.324.658-2.536,0-5.243-.02-2.7-.086-4.971.478-5.235-.192-.114-.319.353-.914,1.315-1.457a8.109,8.109,0,0,1,4.037-.948A7.823,7.823,0,0,1,174,60.861c.911.581,1.324,1.193,1.18,1.507" transform="translate(-14.57 -5.286)" fill="#263238"/>
            <path id="Trazado_873642" data-name="Trazado 873642" d="M202.077,55.417c-.527.594-2.655.039-5.2.07-2.545-.043-4.689.5-5.2-.1-.224-.29.1-.881,1.029-1.454a8.278,8.278,0,0,1,4.2-1.053,8.147,8.147,0,0,1,4.175,1.074c.912.578,1.221,1.17.99,1.459" transform="translate(-16.953 -4.679)" fill="#263238"/>
            <path id="Trazado_873643" data-name="Trazado 873643" d="M199.206,47.7s-4.642-10.342-9.736-12.663c-6.166-2.808-8.635,3.946-14.482,2.457s-11.735-4.184-17.569.446c-6.385,5.068-3.26,8.446-3.488,15.856-.929,30.04-6.209,38.652-8.1,24.557-.207-1.544-4.532-2.675-5.322-9.2-1.024-8.463-1.59-18.755.163-24.818,1.478-5.111,4.289-8.684,9.386-12.669,8.047-6.292,19.292-6.685,26.948-6.094S199.6,34.6,199.206,47.7" transform="translate(-12.346 -2.245)" fill="#263238"/>
            <path id="Trazado_873644" data-name="Trazado 873644" d="M146.512,82.554a4.527,4.527,0,0,0-4.99-4.249c-3.1.367-6.524,2.215-6.168,8.638.63,11.394,11.939,8.412,11.941,8.083,0-.222-.477-7.707-.783-12.472" transform="translate(-11.973 -6.925)" fill="#ffc09d"/>
            <path id="Trazado_873645" data-name="Trazado 873645" d="M144.958,91.235c-.052-.034-.191.15-.518.323a1.988,1.988,0,0,1-1.482.112c-1.229-.375-2.347-2.23-2.516-4.281a6.554,6.554,0,0,1,.4-2.872,2.3,2.3,0,0,1,1.408-1.606,1.011,1.011,0,0,1,1.2.479c.17.31.111.541.172.558.034.027.234-.205.116-.67a1.264,1.264,0,0,0-.488-.689,1.5,1.5,0,0,0-1.113-.23,2.8,2.8,0,0,0-1.976,1.881,6.755,6.755,0,0,0-.512,3.213c.2,2.292,1.494,4.376,3.168,4.761a2.128,2.128,0,0,0,1.8-.4c.337-.3.383-.559.343-.578" transform="translate(-12.353 -7.285)" fill="#ff9b6c"/>
            <path id="Trazado_873646" data-name="Trazado 873646" d="M146.191,55.4a10.838,10.838,0,0,0,4.881,2.117c1.788.135,3.806-.937,4.064-2.712.118-.8-.1-1.714.409-2.339.605-.747,1.76-.544,2.717-.465,3.323.274,7.112-3.477,7.881-6.723a2.976,2.976,0,0,0,4,.731,10.661,10.661,0,0,0,2.69-2.507c.975-1.169,2.356-2.228,3.868-2.049a11.221,11.221,0,0,0,2.493.489c1.495-.168,2.185-1.938,2.376-3.429s.328-3.23,1.577-4.067c1.158-.777,2.691-.379,4.075-.208s3.156-.194,3.477-1.551a2.708,2.708,0,0,0-.558-2.056,7.388,7.388,0,0,0-8.783-2.592,10.012,10.012,0,0,0-18.436-1.511,10.161,10.161,0,0,0-16.152,4.083,7.364,7.364,0,0,0-8.052,10.9c-2.023,1.219-3.73,3.3-3.717,5.657s2.366,4.659,4.63,3.985a4.079,4.079,0,0,0,7.147,3.9" transform="translate(-11.944 -1.866)" fill="#263238"/>
            <path id="Trazado_873647" data-name="Trazado 873647" d="M182.381,32.37c.01,0,.01.071,0,.209s-.015.345-.058.611a7.188,7.188,0,0,1-.777,2.217,8.172,8.172,0,0,1-2.466,2.755,7.594,7.594,0,0,1-4.64,1.44l.187-.256a4.132,4.132,0,0,1-.155,3.153,11.815,11.815,0,0,1-1.886,2.849,8.6,8.6,0,0,1-1.246,1.339,4,4,0,0,1-1.791.712,4.163,4.163,0,0,1-3.7-1.23l.423-.131a8.553,8.553,0,0,1-3.489,6,6.241,6.241,0,0,1-3.715,1.314,11.257,11.257,0,0,1-3.709-.724l.3-.141a8.984,8.984,0,0,1-2.617,3.582,4.789,4.789,0,0,1-3.947,1.175,6.285,6.285,0,0,1-4.951-4.8l.262.114a5.879,5.879,0,0,1-3.9.667,6.391,6.391,0,0,1-2.761-1.155,5.522,5.522,0,0,1-1.306-1.364,2.679,2.679,0,0,1-.3-.583,6.833,6.833,0,0,0,1.72,1.79,6.33,6.33,0,0,0,2.692,1.038,5.622,5.622,0,0,0,3.683-.694l.211-.126.05.241a5.926,5.926,0,0,0,4.683,4.447,4.344,4.344,0,0,0,3.582-1.107,8.566,8.566,0,0,0,2.457-3.4l.086-.213.216.071a10.887,10.887,0,0,0,3.548.69,5.757,5.757,0,0,0,3.431-1.223,8.1,8.1,0,0,0,3.3-5.656l.058-.541.366.409a3.7,3.7,0,0,0,3.268,1.086,3.536,3.536,0,0,0,1.588-.619,8.251,8.251,0,0,0,1.175-1.254,11.5,11.5,0,0,0,1.845-2.728,3.743,3.743,0,0,0,.182-2.855l-.1-.27.287.013a7.332,7.332,0,0,0,4.447-1.311,8.122,8.122,0,0,0,2.454-2.611,8.82,8.82,0,0,0,1.018-2.931" transform="translate(-12.044 -2.864)" fill="#455a64"/>
            <path id="Trazado_873648" data-name="Trazado 873648" d="M90.57,143.241s-42.862,15.1-55.26,21.332c-9.686,4.872-15.823,22.546-.918,29.911,11.114,5.493,71.28-5,71.28-5Z" transform="translate(-2.251 -12.673)" fill="#ffc09d"/>
            <path id="Trazado_873649" data-name="Trazado 873649" d="M229.063,307.475l-108.9-4.121-3.943,37.072-4.363,74.362,55.59.234c.024-.315,6.933-41.8,6.933-41.8l3.141-.822-.291,42.622h52.1c2.736-35.271,4.3-64.9,4.394-67.684a136.1,136.1,0,0,0-4.662-39.864" transform="translate(-9.896 -26.839)" fill="#263238"/>
            <path id="Trazado_873650" data-name="Trazado 873650" d="M176.147,351.556a7.485,7.485,0,0,0,1.654.842,18.676,18.676,0,0,0,4.867,1.475,10.1,10.1,0,0,0,3.568-.126,7.336,7.336,0,0,0,3.654-1.949,8.86,8.86,0,0,0,2.094-4.05c.393-1.524.588-3.1.84-4.7.964-6.429,1.553-12.288,1.861-16.535.155-2.123.243-3.844.283-5.034a7.924,7.924,0,0,0-.031-1.854,8.231,8.231,0,0,0-.288,1.831c-.147,1.354-.327,3.027-.541,5.005-.455,4.225-1.134,10.055-2.1,16.466-.491,3.169-.781,6.39-2.666,8.348a8.044,8.044,0,0,1-6.61,2.024,21.79,21.79,0,0,1-4.818-1.2,8.791,8.791,0,0,0-1.77-.545" transform="translate(-15.584 -28.278)" fill="#455a64"/>
            <path id="Trazado_873651" data-name="Trazado 873651" d="M187.106,321.217c.011-.036-.26-.191-.806-.2a3.468,3.468,0,0,0-2.138.788,3.873,3.873,0,0,0-1.5,3.06,3.842,3.842,0,0,0,6.64,2.174,3.87,3.87,0,0,0,.6-3.357,3.469,3.469,0,0,0-1.256-1.9c-.448-.315-.757-.349-.769-.315a4.37,4.37,0,0,1,1.461,2.346,3.385,3.385,0,0,1-.621,2.749,3.141,3.141,0,0,1-5.3-1.735,3.386,3.386,0,0,1,1.126-2.583,4.374,4.374,0,0,1,2.566-1.027" transform="translate(-16.161 -28.402)" fill="#455a64"/>
            <path id="Trazado_873652" data-name="Trazado 873652" d="M120.966,340.228a4.2,4.2,0,0,0,1.327.149,24.689,24.689,0,0,0,3.633-.112,35.2,35.2,0,0,0,21.351-10.078,24.736,24.736,0,0,0,2.4-2.735c.512-.689.772-1.085.727-1.119-.113-.091-1.3,1.385-3.524,3.435a39.076,39.076,0,0,1-21.018,9.922c-3,.417-4.89.391-4.892.538" transform="translate(-10.702 -28.872)" fill="#455a64"/>
            <path id="Trazado_873653" data-name="Trazado 873653" d="M230.3,285.9c-2.137-4.864-1.74-5.311-1.74-5.311L222.5,227.6l-5.816-51.545L211.972,137.9l-27.243-5.834s-3.136,8.691-16.305,8.954c-15.171.3-23.866-13.264-23.866-13.264L101,137.113,117.378,249.47l1.964,30.264s-3.252,4.9-3.252,10.15-.213,8.755-.213,8.755c40.433,11.108,80.558,20.727,117.477,9.974,0,0-.92-17.853-3.056-22.717" transform="translate(-8.936 -11.303)" fill="#455a64"/>
            <path id="Trazado_873654" data-name="Trazado 873654" d="M211.839,136.705s15.7,1.754,21.273,7.668,23.381,35.174,23.381,35.174l-25.867,35.389-11.984-16.353Z" transform="translate(-18.742 -12.095)" fill="#455a64"/>
            <path id="Trazado_873655" data-name="Trazado 873655" d="M224.971,156.795c.218-.021,2.692,19.428,5.525,43.436s4.956,43.5,4.738,43.517-2.691-19.425-5.526-43.441-4.955-43.492-4.737-43.513" transform="translate(-19.903 -13.872)" fill="#263238"/>
            <path id="Trazado_873656" data-name="Trazado 873656" d="M97.611,138.021,62.732,153.5l12.621,35.308,33.619,5.328Z" transform="translate(-5.55 -12.211)" fill="#455a64"/>
            <path id="Trazado_873657" data-name="Trazado 873657" d="M106.26,163.7c.232-.025,1.9,13.75,3.716,30.764s3.107,30.831,2.875,30.856-1.9-13.747-3.716-30.766-3.107-30.83-2.875-30.854" transform="translate(-9.399 -14.483)" fill="#263238"/>
            <g id="Grupo_1099948" data-name="Grupo 1099948" transform="translate(105.462 243.866)" opacity="0.3">
              <g id="Grupo_1099947" data-name="Grupo 1099947">
                <g id="Grupo_1099946" data-name="Grupo 1099946" clip-path="url(#clip-path-6)">
                  <path id="Trazado_873658" data-name="Trazado 873658" d="M115.7,351.9c18.937-6.809,29.43-20.225,37.9-34.455s9.68-34.266,4.259-49.912c0,0-39.136,37.859-39.414,38.693S115.7,351.9,115.7,351.9" transform="translate(-115.698 -267.536)"/>
                </g>
              </g>
            </g>
            <g id="Grupo_1099951" data-name="Grupo 1099951" transform="translate(158.666 124.61)" opacity="0.3">
              <g id="Grupo_1099950" data-name="Grupo 1099950">
                <g id="Grupo_1099949" data-name="Grupo 1099949" clip-path="url(#clip-path-7)">
                  <path id="Trazado_873659" data-name="Trazado 873659" d="M174.131,141.325c-.469,3.844,1.679,7.55,4.313,10.389s5.825,5.151,8.226,8.19c2.741,3.468,4.31,7.694,5.836,11.843l9.56,25.988c2.745,7.461,5.526,14.995,9.877,21.648s10.48,12.442,18.047,14.875l-5.745-48.8-30.312-48.747Z" transform="translate(-174.066 -136.705)"/>
                </g>
              </g>
            </g>
            <path id="Trazado_873660" data-name="Trazado 873660" d="M204.567,138.832c0-.613.487-23.219-1.029-25.675A18.8,18.8,0,0,1,200.5,106.1a1.517,1.517,0,0,0-.679-2.184c-1.507-.841-3.9,1.21-3.949,4.838s.364,9.834.364,9.834-16.676-9.466-21.249-9.729-11.43-1.1-11.793,1.1-.051,2.734,2.338,3.575,6.183,1.42,9.923,2.683a47.642,47.642,0,0,1,5.455,2.119s-8.52-2.509-10.39,0-1.611,4.769-.416,5.979a3.857,3.857,0,0,0-2.286,3.838c.26,2.787,1.507,3.47,1.507,3.47s-2.494,1.893-1.3,4.312,4,.894,6.65,3.629,9.247,9.15,11.793,10.569,8.364,2,8.364,2Z" transform="translate(-14.428 -9.177)" fill="#ffc09d"/>
            <path id="Trazado_873661" data-name="Trazado 873661" d="M204.545,138.816a1.7,1.7,0,0,1-.149.231c-.115.163-.271.385-.472.673l-1.869,2.609-7.14,9.865-.041.057-.07-.007c-1.151-.121-2.351-.291-3.6-.525a22.762,22.762,0,0,1-3.838-1.016,7.532,7.532,0,0,1-1.861-1.015c-.588-.41-1.151-.866-1.723-1.331-1.135-.941-2.269-1.953-3.42-3.013s-2.318-2.173-3.5-3.331l-1.784-1.773a8.207,8.207,0,0,0-1.921-1.619,8.386,8.386,0,0,0-2.436-.823,4.12,4.12,0,0,1-2.489-1.189,3.171,3.171,0,0,1-.651-2.749,4.655,4.655,0,0,1,1.606-2.4l.024.328a3.547,3.547,0,0,1-1.236-1.808,7.56,7.56,0,0,1-.388-2.169,3.736,3.736,0,0,1,.638-2.193,4.47,4.47,0,0,1,1.782-1.5l-.067.334a4,4,0,0,1-.737-4.132,7.319,7.319,0,0,1,1.008-1.942,2.353,2.353,0,0,1,.843-.791,4.281,4.281,0,0,1,1.067-.4,13.251,13.251,0,0,1,4.436.006,33.588,33.588,0,0,1,4.394.927l-.157.4a55.611,55.611,0,0,0-6.97-2.589c-2.424-.724-4.955-1.2-7.48-1.911a10.66,10.66,0,0,1-2.647-1.086,1.864,1.864,0,0,1-.83-1.273,4.992,4.992,0,0,1,.047-1.448,1.894,1.894,0,0,1,.21-.744,1.733,1.733,0,0,1,.572-.543,4.348,4.348,0,0,1,1.368-.469,15.616,15.616,0,0,1,2.766-.206c1.829,0,3.629.141,5.407.264a24,24,0,0,1,2.674.258c.439.1.863.232,1.294.347l1.25.434a96.291,96.291,0,0,1,9.319,4.261q4.444,2.271,8.538,4.587l-.292.183c-.205-3.581-.417-7.009-.324-10.327a5.647,5.647,0,0,1,2.134-4.312,2.361,2.361,0,0,1,1.178-.4,1.8,1.8,0,0,1,1.173.4,1.667,1.667,0,0,1,.669,1.032,1.84,1.84,0,0,1-.228,1.193l.023-.108a18.292,18.292,0,0,0,2.8,6.679,3.127,3.127,0,0,1,.4.8,6.955,6.955,0,0,1,.208.847c.1.562.175,1.118.231,1.665.115,1.094.181,2.157.236,3.183.2,4.108.2,7.655.194,10.555s-.049,5.157-.084,6.687q-.031,1.128-.048,1.742c-.015.39-.034.593-.034.593s-.015-.2-.015-.594,0-.99,0-1.743c0-1.547,0-3.8,0-6.685-.027-2.9-.052-6.444-.273-10.541-.06-1.024-.133-2.082-.253-3.168-.058-.542-.133-1.091-.236-1.641a3.784,3.784,0,0,0-.574-1.549,18.518,18.518,0,0,1-2.87-6.791l-.008-.053.032-.057a1.516,1.516,0,0,0,.18-.962,1.33,1.33,0,0,0-.543-.818,1.609,1.609,0,0,0-1.955.021,5.315,5.315,0,0,0-1.961,4.046c-.08,3.255.139,6.711.352,10.274l.021.36-.314-.176c-2.725-1.528-5.574-3.055-8.532-4.561a96.217,96.217,0,0,0-9.279-4.229l-1.231-.427c-.417-.11-.834-.242-1.254-.335a23.438,23.438,0,0,0-2.617-.248c-1.778-.122-3.572-.26-5.376-.26a15.314,15.314,0,0,0-2.684.2c-.843.171-1.826.471-1.8,1.39a4.628,4.628,0,0,0-.048,1.315,1.414,1.414,0,0,0,.649.986,10.359,10.359,0,0,0,2.521,1.025c2.487.7,5.035,1.181,7.479,1.911a55.74,55.74,0,0,1,7.04,2.621l-.157.4a33.291,33.291,0,0,0-4.331-.916,12.875,12.875,0,0,0-4.283-.019,2.5,2.5,0,0,0-1.663,1.02,6.917,6.917,0,0,0-.955,1.829,3.587,3.587,0,0,0,.633,3.714l.205.206-.273.128a4.069,4.069,0,0,0-1.6,1.348,3.335,3.335,0,0,0-.572,1.961,7.192,7.192,0,0,0,.362,2.044,3.266,3.266,0,0,0,1.05,1.6l.23.159-.206.17a4.284,4.284,0,0,0-1.468,2.18,2.787,2.787,0,0,0,.567,2.416,3.769,3.769,0,0,0,2.279,1.068,8.754,8.754,0,0,1,2.533.869,8.551,8.551,0,0,1,2,1.687l1.774,1.775q1.765,1.738,3.48,3.336c1.145,1.063,2.272,2.076,3.395,3.016a12.984,12.984,0,0,0,3.492,2.315,22.578,22.578,0,0,0,3.783,1.023c1.235.24,2.431.417,3.57.545l-.11.049,7.217-9.771,1.926-2.581.5-.661c.115-.148.181-.22.181-.22" transform="translate(-14.407 -9.161)" fill="#ff9b6c"/>
            <path id="Trazado_873662" data-name="Trazado 873662" d="M261.116,194.785c-1.666-3.185-5.43-9.813-7.244-13.872l-11.922,4.332s-33.768-45.616-34.847-45.616-15.745,13.6-15.745,13.6c.647.647,31.052,70.331,42.7,77.88s20.326,12.342,26.581,1.559,7.811-23.863.479-37.881" transform="translate(-16.93 -12.354)" fill="#ffc09d"/>
            <path id="Trazado_873663" data-name="Trazado 873663" d="M262.079,210.072a4.809,4.809,0,0,1-.56-.884c-.331-.584-.822-1.422-1.445-2.446a86.824,86.824,0,0,0-5.306-7.71c-2.23-2.9-4.394-5.414-5.968-7.227l-1.864-2.148a4.723,4.723,0,0,1-.646-.823,4.854,4.854,0,0,1,.771.708c.477.474,1.15,1.176,1.969,2.056,1.635,1.763,3.844,4.252,6.084,7.167a67.852,67.852,0,0,1,5.226,7.818c.592,1.049,1.044,1.912,1.329,2.523a4.865,4.865,0,0,1,.409.963" transform="translate(-21.79 -16.707)" fill="#ff9b6c"/>
            <path id="Trazado_873664" data-name="Trazado 873664" d="M187.533,100.364c-.3.223-1.56-1.072-3.555-1.769-1.979-.748-3.774-.563-3.862-.93-.038-.166.391-.453,1.189-.606a6.3,6.3,0,0,1,5.707,2.077c.513.629.658,1.126.521,1.228" transform="translate(-15.935 -8.58)" fill="#263238"/>
            <path id="Trazado_873665" data-name="Trazado 873665" d="M217.292,300.09a2,2,0,0,1-.417.244c-.285.138-.689.381-1.249.605a19.561,19.561,0,0,1-4.924,1.326,28.8,28.8,0,0,1-7.564-.037,56.482,56.482,0,0,1-9.035-2.019c-6.278-1.919-11.834-4.023-15.81-5.649-1.988-.815-3.581-1.51-4.675-2.007l-1.253-.585a2.026,2.026,0,0,1-.425-.232,1.933,1.933,0,0,1,.459.151l1.285.51,4.723,1.876c4,1.551,9.565,3.605,15.822,5.518a58.96,58.96,0,0,0,8.96,2.037,29.589,29.589,0,0,0,7.473.13,21.238,21.238,0,0,0,4.9-1.178c1.109-.44,1.71-.728,1.728-.692" transform="translate(-15.212 -25.811)" fill="#263238"/>
            <path id="Trazado_873666" data-name="Trazado 873666" d="M119.621,204.14a85.539,85.539,0,0,0-45.2-13.924c-11.115-.008-27.473,1.735-42.284,10.075A58.651,58.651,0,0,0,10.32,221.338C4.066,231.744.676,244.622.245,259.615a8.3,8.3,0,0,0,8.3,8.521l29.144.019a8.34,8.34,0,0,0,8.227-7.131c1.3-9.139,6.733-24.523,28.543-24.885,16.623-.268,23.462,11.758,25.636,16.945A29.7,29.7,0,0,1,97.67,279.85C89.907,292.63,75.64,294.578,67.825,294.6a16.339,16.339,0,0,0-16.306,16.25L51.5,342.213a8.314,8.314,0,0,0,8.3,8.311l28.4.019a8.315,8.315,0,0,0,8.311-8.3l0-6.589a.365.365,0,0,1,.252-.347A82.351,82.351,0,0,0,126.9,316.45c14.347-14.244,21.628-32.636,21.642-54.666.021-31.526-15.718-48.748-28.925-57.644" transform="translate(-0.021 -16.829)" fill="#f9d648"/>
            <path id="Trazado_873667" data-name="Trazado 873667" d="M80.367,374.757l-2.484,0a21.537,21.537,0,0,0-.029,43.074l2.485,0a21.537,21.537,0,0,0,.028-43.074" transform="translate(-4.984 -33.156)" fill="#f9d648"/>
            <g id="Grupo_1099954" data-name="Grupo 1099954" transform="translate(37.544 181.666)" opacity="0.3">
              <g id="Grupo_1099953" data-name="Grupo 1099953">
                <g id="Grupo_1099952" data-name="Grupo 1099952" clip-path="url(#clip-path-8)">
                  <path id="Trazado_873668" data-name="Trazado 873668" d="M151.074,242.446a36.231,36.231,0,0,0-2.4-9.236,41.76,41.76,0,0,0-34.21-25.578L41.188,199.3c7.968,8.143,18.371,9.764,29.4,12.623s22.9,7.145,34.045,9.516c3.576.761,7.27,1.711,10.051,4.084,2.714,2.314,4.228,5.7,5.658,8.966l6.355,14.528c2.419,5.529,5.638,11.773,12.15,12.13a10.306,10.306,0,0,0,7.2-2.553c4.716-4.044,5.712-10.342,5.023-16.146" transform="translate(-41.188 -199.299)"/>
                </g>
              </g>
            </g>
            <path id="Trazado_873669" data-name="Trazado 873669" d="M149.506,220.346c-.567-1-11.7-14.615-17.24-19.893-3.576-3.409-8.962-5.761-12.339-7,0,0-55.756-20.135-59.626-22.1L35.26,196.971c8.718,2.425,67.906,16.675,82.508,19.88,2.554,2.98,5.124,5.422,5.124,5.422l4.244,9.971a40.158,40.158,0,0,1,.184,7.522c-.305,3.893,2.851,2.375,2.851,2.375a54.455,54.455,0,0,0,.057,5.9c0,.036,0,.07.007.1.207,2.607,3.952,2.93,4.75.438l2.877-8.989s-.376,8.181-.531,12.734a4.551,4.551,0,0,0,.371,2.064,2.836,2.836,0,0,0,5.306-.618l3.37-14.222-1.09-8.711,2.827,7.959a54.592,54.592,0,0,1,.623,10.23c-.063,2.391.743,3.408,1.733,3.767a2.755,2.755,0,0,0,3.552-2.475l1.078-13.178s-5.028-15.806-5.595-16.8" transform="translate(-3.12 -15.16)" fill="#ffc09d"/>
            <path id="Trazado_873670" data-name="Trazado 873670" d="M58.786,170.255a16.384,16.384,0,0,1,4.1.842,97.2,97.2,0,0,1,9.534,3.3c3.658,1.454,6.927,2.857,9.295,3.862a22.9,22.9,0,0,1,3.787,1.759,18.543,18.543,0,0,1-4.006-1.2c-2.43-.866-5.74-2.182-9.387-3.632s-6.969-2.691-9.4-3.515a27.464,27.464,0,0,1-3.924-1.414" transform="translate(-5.201 -15.061)" fill="#ff9b6c"/>
          </g>
        </g>
      </g>
    </g>
  </g>
</svg>
