<svg xmlns="http://www.w3.org/2000/svg" xmlns:xlink="http://www.w3.org/1999/xlink" width="400" height="740" viewBox="0 0 400 740">
  <defs>
    <clipPath id="clip-path">
      <rect id="Rectángulo_402126" data-name="Rectángulo 402126" width="374.322" height="255.79" fill="none"/>
    </clipPath>
    <clipPath id="clip-path-3">
      <rect id="Rectángulo_402118" data-name="Rectángulo 402118" width="166.751" height="163.03" fill="none"/>
    </clipPath>
    <clipPath id="clip-path-4">
      <path id="Trazado_875326" data-name="Trazado 875326" d="M311.711,189.618c-14.391,17.964,17.095,83.84,22.076,97.989,3.136,8.909,15.218,6.175,27.812,3.442,10.515-2.282,21.386-4.564,27.707-.071,29.927,25.841,72.635,42.275,106.975,11.148,35.331-32.026,22.287-118.975-13.639-152.862-8.723-8.228-22.986-11.706-39.741-11.706-45.835,0-110.334,26.027-131.19,52.061" transform="translate(-307.976 -137.557)" fill="none"/>
    </clipPath>
    <clipPath id="clip-path-5">
      <rect id="Rectángulo_402120" data-name="Rectángulo 402120" width="111.969" height="111.683" fill="none"/>
    </clipPath>
    <clipPath id="clip-path-6">
      <path id="Trazado_875306" data-name="Trazado 875306" d="M482.073,294.9s2.973-9.065,4.6-12.234c6.33-12.348,13.1-14.01,22.9-13.766,3.8.095,10.336,30.366,10.336,30.366s15.372-29.887,21.527-30.366c10.814-.841,26.581-.449,32.4,17.024l11.145,34.608-34.258,1.4,9.611,58.4s-64.329.612-71.74-8.923l5.358-47.749Z" transform="translate(-482.073 -268.656)" fill="none"/>
    </clipPath>
    <clipPath id="clip-path-7">
      <rect id="Rectángulo_402121" data-name="Rectángulo 402121" width="9.552" height="6.81" fill="none"/>
    </clipPath>
    <clipPath id="clip-path-9">
      <rect id="Rectángulo_402122" data-name="Rectángulo 402122" width="177.288" height="159.891" fill="#ffea96"/>
    </clipPath>
    <clipPath id="clip-path-10">
      <path id="Trazado_875387" data-name="Trazado 875387" d="M79.922,0A56.825,56.825,0,0,0,51.8,7.057C27.621,20.683,14.435,67.871,5.5,85.542c-6.831,13.5-9.021,39.547,3.667,59.589,25.11,39.666,82.947,42.486,120.228,16.2,41.1-28.983,65.352-81.719,32.755-118.805C140.537,17.938,108.721.037,80.14,0Z" transform="translate(0)" fill="none"/>
    </clipPath>
    <clipPath id="clip-path-11">
      <rect id="Rectángulo_402124" data-name="Rectángulo 402124" width="10.304" height="4.028" fill="none"/>
    </clipPath>
  </defs>
  <g id="Grupo_1100635" data-name="Grupo 1100635" transform="translate(-9336 1277)">
    <rect id="Rectángulo_402127" data-name="Rectángulo 402127" width="400" height="740" transform="translate(9336 -1277)" fill="#fff8e0"/>
    <rect id="Rectángulo_377825" data-name="Rectángulo 377825" width="227" height="46" rx="23" transform="translate(9433 -933)" fill="#ffea96"/>
    <path id="Trazado_875552" data-name="Trazado 875552" d="M60.6,11.454H55.54v3.428h5.941V17H52.9V4.2h8.561V6.339H55.54v3.05H60.6ZM65.243,7.49l.079,1.063a3.342,3.342,0,0,1,2.733-1.239,2.536,2.536,0,0,1,2.522,1.45,3.265,3.265,0,0,1,2.856-1.45,2.836,2.836,0,0,1,2.3.9,4.141,4.141,0,0,1,.756,2.711V17H73.944V10.936a1.811,1.811,0,0,0-.316-1.182,1.4,1.4,0,0,0-1.116-.374,1.585,1.585,0,0,0-1.582,1.09L70.938,17H68.4V10.944a1.789,1.789,0,0,0-.325-1.2,1.416,1.416,0,0,0-1.107-.369,1.646,1.646,0,0,0-1.564.9V17h-2.54V7.49ZM81.125,17H78.576V7.49h2.549Zm-2.7-11.971a1.251,1.251,0,0,1,.382-.94,1.648,1.648,0,0,1,2.079,0,1.244,1.244,0,0,1,.387.94,1.247,1.247,0,0,1-.391.949,1.629,1.629,0,0,1-2.065,0A1.247,1.247,0,0,1,78.427,5.029Zm9.94,9.343a.818.818,0,0,0-.461-.734,5.241,5.241,0,0,0-1.481-.479q-3.393-.712-3.393-2.883a2.613,2.613,0,0,1,1.05-2.114,4.237,4.237,0,0,1,2.747-.848,4.56,4.56,0,0,1,2.9.853,2.687,2.687,0,0,1,1.085,2.215h-2.54a1.229,1.229,0,0,0-.352-.9,1.488,1.488,0,0,0-1.1-.356,1.52,1.52,0,0,0-.993.29.916.916,0,0,0-.352.738.783.783,0,0,0,.4.681,4.114,4.114,0,0,0,1.349.448,11.019,11.019,0,0,1,1.6.426,2.628,2.628,0,0,1,2.013,2.558,2.481,2.481,0,0,1-1.116,2.1,4.815,4.815,0,0,1-2.883.8,5.029,5.029,0,0,1-2.123-.426,3.561,3.561,0,0,1-1.455-1.169,2.716,2.716,0,0,1-.527-1.6h2.408a1.326,1.326,0,0,0,.5,1.037,1.987,1.987,0,0,0,1.248.36,1.839,1.839,0,0,0,1.1-.277A.861.861,0,0,0,88.367,14.372Zm3.709-2.215a5.64,5.64,0,0,1,.545-2.522A3.989,3.989,0,0,1,94.19,7.921a4.577,4.577,0,0,1,2.377-.606,4.33,4.33,0,0,1,3.142,1.178,4.727,4.727,0,0,1,1.358,3.2l.018.65a4.97,4.97,0,0,1-1.222,3.511,4.735,4.735,0,0,1-6.561,0,5.058,5.058,0,0,1-1.226-3.586Zm2.54.18a3.555,3.555,0,0,0,.51,2.073,1.831,1.831,0,0,0,2.9.009,3.89,3.89,0,0,0,.519-2.267,3.519,3.519,0,0,0-.519-2.06,1.686,1.686,0,0,0-1.459-.731,1.658,1.658,0,0,0-1.441.726A3.955,3.955,0,0,0,94.616,12.338Zm13.377-2.465a6.9,6.9,0,0,0-.914-.07,1.86,1.86,0,0,0-1.89.976V17h-2.54V7.49h2.4l.07,1.134a2.354,2.354,0,0,1,2.118-1.31,2.662,2.662,0,0,1,.791.114Z" transform="translate(9467 -921)" fill="#12263f"/>
    <rect id="Rectángulo_377825-2" data-name="Rectángulo 377825" width="227" height="46" rx="23" transform="translate(9433 -775)" fill="#ffea96"/>
    <path id="Trazado_875548" data-name="Trazado 875548" d="M50.144,4.2l3.287,9.281L56.7,4.2h3.463V17H57.518V13.5l.264-6.038L54.327,17H52.517L49.071,7.473l.264,6.029V17H46.7V4.2ZM66.676,17.176a4.668,4.668,0,0,1-3.406-1.283,4.561,4.561,0,0,1-1.314-3.419v-.246a5.745,5.745,0,0,1,.554-2.562,4.064,4.064,0,0,1,1.569-1.74,4.4,4.4,0,0,1,2.316-.611,3.947,3.947,0,0,1,3.072,1.23,5,5,0,0,1,1.121,3.489v1.037H64.531a2.36,2.36,0,0,0,.743,1.494,2.245,2.245,0,0,0,1.569.563,2.742,2.742,0,0,0,2.294-1.063l1.248,1.4a3.813,3.813,0,0,1-1.547,1.261A5.075,5.075,0,0,1,66.676,17.176Zm-.29-7.813a1.587,1.587,0,0,0-1.226.512,2.651,2.651,0,0,0-.6,1.466h3.533v-.2a1.891,1.891,0,0,0-.457-1.311A1.638,1.638,0,0,0,66.386,9.362Zm7.98-1.872.079,1.1a3.32,3.32,0,0,1,2.733-1.274,2.759,2.759,0,0,1,2.25.888,4.142,4.142,0,0,1,.756,2.654V17h-2.54V10.918a1.648,1.648,0,0,0-.352-1.173,1.574,1.574,0,0,0-1.169-.365,1.747,1.747,0,0,0-1.608.914V17h-2.54V7.49ZM87.26,14.372a.818.818,0,0,0-.461-.734,5.241,5.241,0,0,0-1.481-.479q-3.393-.712-3.393-2.883a2.613,2.613,0,0,1,1.05-2.114,4.237,4.237,0,0,1,2.747-.848,4.56,4.56,0,0,1,2.9.853A2.687,2.687,0,0,1,89.7,10.382h-2.54a1.229,1.229,0,0,0-.352-.9,1.488,1.488,0,0,0-1.1-.356,1.52,1.52,0,0,0-.993.29.916.916,0,0,0-.352.738.783.783,0,0,0,.4.681,4.114,4.114,0,0,0,1.349.448,11.019,11.019,0,0,1,1.6.426,2.628,2.628,0,0,1,2.013,2.558,2.481,2.481,0,0,1-1.116,2.1,4.815,4.815,0,0,1-2.883.8,5.029,5.029,0,0,1-2.123-.426,3.561,3.561,0,0,1-1.455-1.169,2.716,2.716,0,0,1-.527-1.6h2.408a1.326,1.326,0,0,0,.5,1.037,1.987,1.987,0,0,0,1.248.36,1.839,1.839,0,0,0,1.1-.277A.861.861,0,0,0,87.26,14.372ZM96.875,17a2.821,2.821,0,0,1-.255-.853,3.073,3.073,0,0,1-2.4,1.028,3.376,3.376,0,0,1-2.316-.809,2.6,2.6,0,0,1-.918-2.039,2.687,2.687,0,0,1,1.121-2.32,5.529,5.529,0,0,1,3.239-.817h1.169v-.545a1.567,1.567,0,0,0-.338-1.055,1.331,1.331,0,0,0-1.068-.4A1.513,1.513,0,0,0,94.1,9.5a1.045,1.045,0,0,0-.365.844H91.2a2.551,2.551,0,0,1,.51-1.529,3.37,3.37,0,0,1,1.441-1.1,5.253,5.253,0,0,1,2.092-.4,4.15,4.15,0,0,1,2.791.883,3.09,3.09,0,0,1,1.033,2.483V14.8a4.546,4.546,0,0,0,.378,2.048V17Zm-2.1-1.767a2.188,2.188,0,0,0,1.037-.25,1.645,1.645,0,0,0,.7-.672V12.676h-.949q-1.907,0-2.03,1.318l-.009.149a1.017,1.017,0,0,0,.334.782A1.3,1.3,0,0,0,94.774,15.233ZM103.7,7.49V17.519a3.4,3.4,0,0,1-.835,2.448,3.174,3.174,0,0,1-2.408.875,5.165,5.165,0,0,1-1.257-.149V18.679a4.768,4.768,0,0,0,.8.079q1.151,0,1.151-1.222V7.49Zm-2.751-2.461a1.251,1.251,0,0,1,.382-.94,1.654,1.654,0,0,1,2.083,0,1.251,1.251,0,0,1,.382.94,1.247,1.247,0,0,1-.391.949,1.629,1.629,0,0,1-2.065,0A1.247,1.247,0,0,1,100.953,5.029Zm9.114,12.146a4.668,4.668,0,0,1-3.406-1.283,4.561,4.561,0,0,1-1.314-3.419v-.246a5.745,5.745,0,0,1,.554-2.562,4.064,4.064,0,0,1,1.569-1.74,4.4,4.4,0,0,1,2.316-.611,3.947,3.947,0,0,1,3.072,1.23,5,5,0,0,1,1.121,3.489v1.037h-6.056a2.36,2.36,0,0,0,.743,1.494,2.245,2.245,0,0,0,1.569.563,2.742,2.742,0,0,0,2.294-1.063l1.248,1.4a3.813,3.813,0,0,1-1.547,1.261A5.075,5.075,0,0,1,110.067,17.176Zm-.29-7.813a1.587,1.587,0,0,0-1.226.512,2.651,2.651,0,0,0-.6,1.466h3.533v-.2a1.891,1.891,0,0,0-.457-1.311A1.638,1.638,0,0,0,109.777,9.362Z" transform="translate(9467 -763)" fill="#12263f"/>
    <rect id="Rectángulo_377825-3" data-name="Rectángulo 377825" width="227" height="46" rx="23" transform="translate(9433 -617)" fill="#ffea96"/>
    <path id="Trazado_875544" data-name="Trazado 875544" d="M43.183,12.315h-2.1V17H38.445V4.2H43.2a5.375,5.375,0,0,1,3.5,1.011,3.488,3.488,0,0,1,1.23,2.856,3.937,3.937,0,0,1-.567,2.184,3.866,3.866,0,0,1-1.718,1.393l2.769,5.229V17h-2.83Zm-2.1-2.136h2.127a2.178,2.178,0,0,0,1.538-.505,1.806,1.806,0,0,0,.545-1.393,1.933,1.933,0,0,0-.514-1.424A2.137,2.137,0,0,0,43.2,6.339H41.082Zm13.061,7a4.668,4.668,0,0,1-3.406-1.283,4.561,4.561,0,0,1-1.314-3.419v-.246a5.745,5.745,0,0,1,.554-2.562,4.064,4.064,0,0,1,1.569-1.74,4.4,4.4,0,0,1,2.316-.611,3.947,3.947,0,0,1,3.072,1.23,5,5,0,0,1,1.121,3.489v1.037H52a2.36,2.36,0,0,0,.743,1.494,2.245,2.245,0,0,0,1.569.563A2.742,2.742,0,0,0,56.6,14.064l1.248,1.4A3.813,3.813,0,0,1,56.3,16.723,5.075,5.075,0,0,1,54.143,17.176Zm-.29-7.813a1.587,1.587,0,0,0-1.226.512,2.651,2.651,0,0,0-.6,1.466h3.533v-.2A1.891,1.891,0,0,0,55.1,9.826,1.638,1.638,0,0,0,53.853,9.362Zm10.793,5.01a.818.818,0,0,0-.461-.734,5.241,5.241,0,0,0-1.481-.479q-3.393-.712-3.393-2.883a2.613,2.613,0,0,1,1.05-2.114,4.237,4.237,0,0,1,2.747-.848,4.56,4.56,0,0,1,2.9.853,2.687,2.687,0,0,1,1.085,2.215h-2.54a1.229,1.229,0,0,0-.352-.9,1.488,1.488,0,0,0-1.1-.356,1.52,1.52,0,0,0-.993.29.916.916,0,0,0-.352.738.783.783,0,0,0,.4.681,4.114,4.114,0,0,0,1.349.448,11.019,11.019,0,0,1,1.6.426,2.628,2.628,0,0,1,2.013,2.558A2.481,2.481,0,0,1,66,16.372a4.815,4.815,0,0,1-2.883.8,5.029,5.029,0,0,1-2.123-.426,3.561,3.561,0,0,1-1.455-1.169,2.716,2.716,0,0,1-.527-1.6H61.42a1.326,1.326,0,0,0,.5,1.037,1.987,1.987,0,0,0,1.248.36,1.839,1.839,0,0,0,1.1-.277A.861.861,0,0,0,64.646,14.372Zm12.665-2.039a5.7,5.7,0,0,1-1,3.52,3.2,3.2,0,0,1-2.694,1.323,2.963,2.963,0,0,1-2.329-1v4.482H68.75V7.49h2.355l.088.932A2.985,2.985,0,0,1,73.6,7.314a3.22,3.22,0,0,1,2.733,1.3,5.858,5.858,0,0,1,.976,3.586Zm-2.54-.185A3.743,3.743,0,0,0,74.3,10.1a1.532,1.532,0,0,0-1.367-.721,1.663,1.663,0,0,0-1.644.914v3.894a1.692,1.692,0,0,0,1.661.94Q74.771,15.128,74.771,12.148Zm9.809,3.885a3.185,3.185,0,0,1-2.6,1.143,3,3,0,0,1-2.333-.879,3.752,3.752,0,0,1-.822-2.575V7.49h2.54v6.151q0,1.487,1.354,1.487a1.834,1.834,0,0,0,1.775-.9V7.49H87.04V17H84.649Zm8.754,1.143a4.668,4.668,0,0,1-3.406-1.283,4.561,4.561,0,0,1-1.314-3.419v-.246a5.745,5.745,0,0,1,.554-2.562,4.064,4.064,0,0,1,1.569-1.74,4.4,4.4,0,0,1,2.316-.611,3.947,3.947,0,0,1,3.072,1.23,5,5,0,0,1,1.121,3.489v1.037H91.188a2.36,2.36,0,0,0,.743,1.494,2.245,2.245,0,0,0,1.569.563,2.742,2.742,0,0,0,2.294-1.063l1.248,1.4A3.813,3.813,0,0,1,95.5,16.723,5.075,5.075,0,0,1,93.333,17.176Zm-.29-7.813a1.587,1.587,0,0,0-1.226.512,2.651,2.651,0,0,0-.6,1.466h3.533v-.2a1.891,1.891,0,0,0-.457-1.311A1.638,1.638,0,0,0,93.043,9.362Zm10.793,5.01a.818.818,0,0,0-.461-.734,5.241,5.241,0,0,0-1.481-.479Q98.5,12.447,98.5,10.276a2.613,2.613,0,0,1,1.05-2.114,4.237,4.237,0,0,1,2.747-.848,4.56,4.56,0,0,1,2.9.853,2.687,2.687,0,0,1,1.085,2.215h-2.54a1.229,1.229,0,0,0-.352-.9,1.488,1.488,0,0,0-1.1-.356,1.52,1.52,0,0,0-.993.29.916.916,0,0,0-.352.738.783.783,0,0,0,.4.681,4.114,4.114,0,0,0,1.349.448,11.019,11.019,0,0,1,1.6.426,2.628,2.628,0,0,1,2.013,2.558,2.481,2.481,0,0,1-1.116,2.1,4.815,4.815,0,0,1-2.883.8,5.029,5.029,0,0,1-2.123-.426,3.561,3.561,0,0,1-1.455-1.169,2.716,2.716,0,0,1-.527-1.6h2.408a1.326,1.326,0,0,0,.5,1.037,1.987,1.987,0,0,0,1.248.36,1.839,1.839,0,0,0,1.1-.277A.861.861,0,0,0,103.836,14.372Zm7.146-9.22V7.49h1.626V9.354h-1.626V14.1a1.133,1.133,0,0,0,.2.756,1.015,1.015,0,0,0,.773.229,4.051,4.051,0,0,0,.747-.062v1.925a5.229,5.229,0,0,1-1.538.229,2.425,2.425,0,0,1-2.725-2.7V9.354h-1.389V7.49h1.389V5.152ZM119.533,17a2.821,2.821,0,0,1-.255-.853,3.073,3.073,0,0,1-2.4,1.028,3.376,3.376,0,0,1-2.316-.809,2.6,2.6,0,0,1-.918-2.039,2.687,2.687,0,0,1,1.121-2.32A5.529,5.529,0,0,1,118,11.19h1.169v-.545a1.567,1.567,0,0,0-.338-1.055,1.331,1.331,0,0,0-1.068-.4,1.513,1.513,0,0,0-1.006.308,1.045,1.045,0,0,0-.365.844h-2.54a2.551,2.551,0,0,1,.51-1.529,3.37,3.37,0,0,1,1.441-1.1,5.253,5.253,0,0,1,2.092-.4,4.15,4.15,0,0,1,2.791.883,3.09,3.09,0,0,1,1.033,2.483V14.8a4.546,4.546,0,0,0,.378,2.048V17Zm-2.1-1.767a2.188,2.188,0,0,0,1.037-.25,1.645,1.645,0,0,0,.7-.672V12.676h-.949q-1.907,0-2.03,1.318l-.009.149a1.017,1.017,0,0,0,.334.782A1.3,1.3,0,0,0,117.433,15.233Z" transform="translate(9467 -605)" fill="#12263f"/>
    <rect id="Rectángulo_377825-4" data-name="Rectángulo 377825" width="227" height="46" rx="23" transform="translate(9433 -854)" fill="#ffd6ae"/>
    <path id="Trazado_875549" data-name="Trazado 875549" d="M49.366,12.315h-2.1V17H44.628V4.2h4.755a5.375,5.375,0,0,1,3.5,1.011,3.488,3.488,0,0,1,1.23,2.856,3.937,3.937,0,0,1-.567,2.184,3.866,3.866,0,0,1-1.718,1.393L54.6,16.877V17h-2.83Zm-2.1-2.136h2.127a2.178,2.178,0,0,0,1.538-.505,1.806,1.806,0,0,0,.545-1.393,1.933,1.933,0,0,0-.514-1.424,2.137,2.137,0,0,0-1.578-.519H47.265Zm13.061,7a4.668,4.668,0,0,1-3.406-1.283,4.561,4.561,0,0,1-1.314-3.419v-.246a5.745,5.745,0,0,1,.554-2.562,4.064,4.064,0,0,1,1.569-1.74,4.4,4.4,0,0,1,2.316-.611,3.947,3.947,0,0,1,3.072,1.23,5,5,0,0,1,1.121,3.489v1.037H58.181a2.36,2.36,0,0,0,.743,1.494,2.245,2.245,0,0,0,1.569.563,2.742,2.742,0,0,0,2.294-1.063l1.248,1.4a3.813,3.813,0,0,1-1.547,1.261A5.075,5.075,0,0,1,60.326,17.176Zm-.29-7.813a1.587,1.587,0,0,0-1.226.512,2.651,2.651,0,0,0-.6,1.466h3.533v-.2a1.891,1.891,0,0,0-.457-1.311A1.638,1.638,0,0,0,60.036,9.362Zm9.6,5.766a1.666,1.666,0,0,0,1.143-.387,1.355,1.355,0,0,0,.457-1.028h2.382a3.258,3.258,0,0,1-.527,1.771,3.48,3.48,0,0,1-1.419,1.248,4.442,4.442,0,0,1-1.991.444,4.129,4.129,0,0,1-3.217-1.3A5.13,5.13,0,0,1,65.283,12.3v-.167a5.071,5.071,0,0,1,1.169-3.507,4.08,4.08,0,0,1,3.208-1.31A4,4,0,0,1,72.521,8.33a3.594,3.594,0,0,1,1.094,2.7H71.233a1.745,1.745,0,0,0-.457-1.206,1.7,1.7,0,0,0-2.5.183,3.749,3.749,0,0,0-.453,2.1v.264a3.8,3.8,0,0,0,.448,2.113A1.549,1.549,0,0,0,69.633,15.128Zm9.809,2.048a4.668,4.668,0,0,1-3.406-1.283,4.561,4.561,0,0,1-1.314-3.419v-.246a5.745,5.745,0,0,1,.554-2.562,4.064,4.064,0,0,1,1.569-1.74,4.4,4.4,0,0,1,2.316-.611,3.947,3.947,0,0,1,3.072,1.23,5,5,0,0,1,1.121,3.489v1.037H77.3a2.36,2.36,0,0,0,.743,1.494,2.245,2.245,0,0,0,1.569.563A2.742,2.742,0,0,0,81.9,14.064l1.248,1.4A3.813,3.813,0,0,1,81.6,16.723,5.075,5.075,0,0,1,79.442,17.176Zm-.29-7.813a1.587,1.587,0,0,0-1.226.512,2.651,2.651,0,0,0-.6,1.466h3.533v-.2A1.891,1.891,0,0,0,80.4,9.826,1.638,1.638,0,0,0,79.152,9.362Zm14.2,2.971a5.7,5.7,0,0,1-1,3.52,3.2,3.2,0,0,1-2.694,1.323,2.963,2.963,0,0,1-2.329-1v4.482h-2.54V7.49H87.15l.088.932a2.985,2.985,0,0,1,2.408-1.107,3.22,3.22,0,0,1,2.733,1.3,5.858,5.858,0,0,1,.976,3.586Zm-2.54-.185a3.743,3.743,0,0,0-.47-2.048,1.532,1.532,0,0,0-1.367-.721,1.663,1.663,0,0,0-1.644.914v3.894a1.692,1.692,0,0,0,1.661.94Q90.815,15.128,90.815,12.148Zm7.154-7V7.49H99.6V9.354H97.969V14.1a1.133,1.133,0,0,0,.2.756,1.015,1.015,0,0,0,.773.229,4.051,4.051,0,0,0,.747-.062v1.925a5.229,5.229,0,0,1-1.538.229,2.425,2.425,0,0,1-2.725-2.7V9.354H94.041V7.49h1.389V5.152Zm2.382,7a5.64,5.64,0,0,1,.545-2.522,3.989,3.989,0,0,1,1.569-1.714,4.577,4.577,0,0,1,2.377-.606,4.33,4.33,0,0,1,3.142,1.178,4.727,4.727,0,0,1,1.358,3.2l.018.65a4.97,4.97,0,0,1-1.222,3.511,4.735,4.735,0,0,1-6.561,0,5.058,5.058,0,0,1-1.226-3.586Zm2.54.18a3.555,3.555,0,0,0,.51,2.073,1.831,1.831,0,0,0,2.9.009,3.89,3.89,0,0,0,.519-2.267,3.519,3.519,0,0,0-.519-2.06,1.686,1.686,0,0,0-1.459-.731,1.658,1.658,0,0,0-1.441.726A3.955,3.955,0,0,0,102.891,12.338Zm13.377-2.465a6.9,6.9,0,0,0-.914-.07,1.86,1.86,0,0,0-1.89.976V17h-2.54V7.49h2.4l.07,1.134a2.354,2.354,0,0,1,2.118-1.31,2.662,2.662,0,0,1,.791.114Z" transform="translate(9467 -842)" fill="#12263f"/>
    <rect id="Rectángulo_377825-5" data-name="Rectángulo 377825" width="227" height="46" rx="23" transform="translate(9433 -696)" fill="#ffd6ae"/>
    <path id="Trazado_875545" data-name="Trazado 875545" d="M68.223,12.737A4.528,4.528,0,0,1,66.7,15.989a5.355,5.355,0,0,1-3.625,1.187A4.816,4.816,0,0,1,59.2,15.519a6.793,6.793,0,0,1-1.411-4.548v-.782a7.671,7.671,0,0,1,.65-3.252A4.874,4.874,0,0,1,60.3,4.779a5.809,5.809,0,0,1,6.376.435A4.866,4.866,0,0,1,68.24,8.545H65.6a2.673,2.673,0,0,0-.69-1.8,2.555,2.555,0,0,0-1.806-.558,2.24,2.24,0,0,0-1.973.945,5.3,5.3,0,0,0-.672,2.931v.967a5.667,5.667,0,0,0,.628,3.032,2.2,2.2,0,0,0,1.982.958,2.6,2.6,0,0,0,1.824-.558,2.521,2.521,0,0,0,.69-1.727ZM75.3,17a2.821,2.821,0,0,1-.255-.853,3.073,3.073,0,0,1-2.4,1.028,3.376,3.376,0,0,1-2.316-.809,2.6,2.6,0,0,1-.918-2.039,2.687,2.687,0,0,1,1.121-2.32,5.529,5.529,0,0,1,3.239-.817h1.169v-.545A1.567,1.567,0,0,0,74.6,9.591a1.331,1.331,0,0,0-1.068-.4,1.513,1.513,0,0,0-1.006.308,1.045,1.045,0,0,0-.365.844H69.62a2.551,2.551,0,0,1,.51-1.529,3.37,3.37,0,0,1,1.441-1.1,5.253,5.253,0,0,1,2.092-.4,4.15,4.15,0,0,1,2.791.883,3.09,3.09,0,0,1,1.033,2.483V14.8a4.546,4.546,0,0,0,.378,2.048V17Zm-2.1-1.767a2.188,2.188,0,0,0,1.037-.25,1.645,1.645,0,0,0,.7-.672V12.676h-.949q-1.907,0-2.03,1.318l-.009.149a1.017,1.017,0,0,0,.334.782A1.3,1.3,0,0,0,73.2,15.233ZM81.775,7.49l.079,1.1a3.32,3.32,0,0,1,2.733-1.274,2.759,2.759,0,0,1,2.25.888,4.142,4.142,0,0,1,.756,2.654V17h-2.54V10.918A1.648,1.648,0,0,0,84.7,9.745a1.574,1.574,0,0,0-1.169-.365,1.747,1.747,0,0,0-1.608.914V17h-2.54V7.49ZM95.029,17a2.821,2.821,0,0,1-.255-.853,3.073,3.073,0,0,1-2.4,1.028,3.376,3.376,0,0,1-2.316-.809,2.6,2.6,0,0,1-.918-2.039,2.687,2.687,0,0,1,1.121-2.32A5.529,5.529,0,0,1,93.5,11.19h1.169v-.545a1.567,1.567,0,0,0-.338-1.055,1.331,1.331,0,0,0-1.068-.4,1.513,1.513,0,0,0-1.006.308,1.045,1.045,0,0,0-.365.844h-2.54a2.551,2.551,0,0,1,.51-1.529,3.37,3.37,0,0,1,1.441-1.1,5.253,5.253,0,0,1,2.092-.4,4.15,4.15,0,0,1,2.791.883,3.09,3.09,0,0,1,1.033,2.483V14.8a4.546,4.546,0,0,0,.378,2.048V17Zm-2.1-1.767a2.188,2.188,0,0,0,1.037-.25,1.645,1.645,0,0,0,.7-.672V12.676H93.72q-1.907,0-2.03,1.318l-.009.149a1.017,1.017,0,0,0,.334.782A1.3,1.3,0,0,0,92.929,15.233ZM101.85,17H99.3V3.5h2.549Z" transform="translate(9467 -684)" fill="#12263f"/>
    <circle id="Elipse_11599" data-name="Elipse 11599" cx="31.5" cy="31.5" r="31.5" transform="translate(9413 -941)" fill="#f9d648"/>
    <circle id="Elipse_11602" data-name="Elipse 11602" cx="31.5" cy="31.5" r="31.5" transform="translate(9413 -783)" fill="#f9d648"/>
    <circle id="Elipse_11604" data-name="Elipse 11604" cx="31.5" cy="31.5" r="31.5" transform="translate(9413 -625)" fill="#f9d648"/>
    <circle id="Elipse_11601" data-name="Elipse 11601" cx="31.5" cy="31.5" r="31.5" transform="translate(9413 -862)" fill="#ffc78f"/>
    <circle id="Elipse_11603" data-name="Elipse 11603" cx="31.5" cy="31.5" r="31.5" transform="translate(9413 -704)" fill="#ffc78f"/>
    <path id="Trazado_875551" data-name="Trazado 875551" d="M2.136,0H-.835V-9.457L-3.753-8.6v-2.25L1.863-12.8h.272Z" transform="translate(9445 -903)" fill="#12263f"/>
    <path id="Trazado_875547" data-name="Trazado 875547" d="M-1.723-7.638h1.4A1.453,1.453,0,0,0,1.336-9.264,1.406,1.406,0,0,0,.94-10.3a1.5,1.5,0,0,0-1.116-.4,1.606,1.606,0,0,0-1.024.343,1.046,1.046,0,0,0-.435.853H-4.6a3.032,3.032,0,0,1,.563-1.8,3.715,3.715,0,0,1,1.56-1.235,5.334,5.334,0,0,1,2.193-.444,5.241,5.241,0,0,1,3.357.976A3.243,3.243,0,0,1,4.3-9.325a2.7,2.7,0,0,1-.505,1.56A3.6,3.6,0,0,1,2.32-6.574a3.441,3.441,0,0,1,1.6,1.121A2.951,2.951,0,0,1,4.5-3.595,3.3,3.3,0,0,1,3.182-.853,5.472,5.472,0,0,1-.281.176,5.675,5.675,0,0,1-2.615-.3,3.656,3.656,0,0,1-4.245-1.63,3.45,3.45,0,0,1-4.8-3.56h2.979a1.334,1.334,0,0,0,.475,1.02,1.676,1.676,0,0,0,1.169.431,1.755,1.755,0,0,0,1.248-.435,1.454,1.454,0,0,0,.466-1.112,1.7,1.7,0,0,0-.483-1.371,2.021,2.021,0,0,0-1.336-.4H-1.723Z" transform="translate(9445 -745)" fill="#12263f"/>
    <path id="Trazado_875543" data-name="Trazado 875543" d="M-4.254-6.251l.782-6.546H4.008v2.3H-1.063l-.29,2.542a3.493,3.493,0,0,1,.831-.327A3.79,3.79,0,0,1,.483-8.42,3.754,3.754,0,0,1,3.415-7.291,4.549,4.549,0,0,1,4.438-4.122a4.541,4.541,0,0,1-.549,2.228A3.776,3.776,0,0,1,2.347-.36,4.87,4.87,0,0,1,0,.176a5.24,5.24,0,0,1-2.259-.5A4.052,4.052,0,0,1-3.911-1.682,3.308,3.308,0,0,1-4.5-3.636h2.971a1.68,1.68,0,0,0,.448,1.114,1.423,1.423,0,0,0,1.063.412q1.494,0,1.494-2.21,0-2.044-1.828-2.044A1.824,1.824,0,0,0-1.9-5.7Z" transform="translate(9445 -587)" fill="#12263f"/>
    <path id="Trazado_875550" data-name="Trazado 875550" d="M4.5,0H-4.43V-1.934L-.316-6.258A4.909,4.909,0,0,0,1.2-9.009a1.913,1.913,0,0,0-.36-1.257A1.287,1.287,0,0,0-.2-10.7a1.3,1.3,0,0,0-1.1.576,2.366,2.366,0,0,0-.422,1.437H-4.693A4.2,4.2,0,0,1-4.1-10.859a4.129,4.129,0,0,1,1.635-1.56,4.856,4.856,0,0,1,2.338-.562,4.777,4.777,0,0,1,3.195.958A3.42,3.42,0,0,1,4.184-9.272,4,4,0,0,1,3.9-7.8a6.456,6.456,0,0,1-.875,1.5,22.029,22.029,0,0,1-1.912,2.1L-.536-2.285H4.5Z" transform="translate(9445 -824)" fill="#12263f"/>
    <text id="_4" data-name="4" transform="translate(9445 -666)" fill="#12263f" font-size="18" font-family="Roboto-Black, Roboto" font-weight="800"><tspan x="-5.212" y="0">4</tspan></text>
    <circle id="Elipse_11608" data-name="Elipse 11608" cx="31.5" cy="31.5" r="31.5" transform="translate(9413 -704)" fill="#ffc78f"/>
    <path id="Trazado_875546" data-name="Trazado 875546" d="M3.393-5h1.3v2.285h-1.3V0H.431V-2.716H-4.518l-.176-1.811L.431-12.771V-12.8H3.393ZM-1.872-5h2.3V-8.938l-.185.3Z" transform="translate(9445 -666)" fill="#12263f"/>
    <g id="Grupo_1100536" data-name="Grupo 1100536" transform="translate(9349 -1223.353)">
      <g id="Grupo_1100527" data-name="Grupo 1100527" clip-path="url(#clip-path)">
        <g id="Grupo_1100504" data-name="Grupo 1100504">
          <g id="Grupo_1100503" data-name="Grupo 1100503" clip-path="url(#clip-path)">
            <path id="Trazado_875259" data-name="Trazado 875259" d="M312.931,33.554q1.6-.182,3.2-.344" transform="translate(-145.075 -15.396)" fill="none" stroke="#f9d648" stroke-linecap="round" stroke-miterlimit="10" stroke-width="4"/>
            <path id="Trazado_875260" data-name="Trazado 875260" d="M336.751,31.218a263.6,263.6,0,0,1,26.407-.424" transform="translate(-156.118 -14.205)" fill="none" stroke="#f9d648" stroke-linecap="round" stroke-miterlimit="10" stroke-width="4" stroke-dasharray="14.926 8.956 17.911 14.926"/>
            <path id="Trazado_875261" data-name="Trazado 875261" d="M393.438,31.248a193.917,193.917,0,0,1,40.314,6.012" transform="translate(-182.398 -14.487)" fill="none" stroke="#f9d648" stroke-linecap="round" stroke-miterlimit="10" stroke-width="4" stroke-dasharray="8.956 17.911 14.926 8.956 17.911 14.926"/>
            <path id="Trazado_875262" data-name="Trazado 875262" d="M475.769,44.52q1.56.476,3.065.978" transform="translate(-220.566 -20.639)" fill="none" stroke="#f9d648" stroke-linecap="round" stroke-miterlimit="10" stroke-width="4"/>
            <path id="Trazado_875263" data-name="Trazado 875263" d="M476.306,449.558q-1.546.322-3.157.619" transform="translate(-219.352 -208.415)" fill="none" stroke="#f9d648" stroke-linecap="round" stroke-miterlimit="10" stroke-width="4"/>
            <path id="Trazado_875264" data-name="Trazado 875264" d="M413.308,454.478a385.615,385.615,0,0,1-38.938,1.992" transform="translate(-173.558 -210.696)" fill="none" stroke="#f9d648" stroke-linecap="round" stroke-miterlimit="10" stroke-width="4" stroke-dasharray="22.053 13.232 26.464 22.053"/>
            <path id="Trazado_875265" data-name="Trazado 875265" d="M218.035,398.653c-28.782-.135-58.158-2.452-77.22-5.325a128.176,128.176,0,0,1-63.988-28.945c-10.5-8.927-20.506-20.373-26.919-34.627" transform="translate(-23.137 -152.875)" fill="none" stroke="#f9d648" stroke-linecap="round" stroke-miterlimit="10" stroke-width="4" stroke-dasharray="13.232 26.464 22.053 13.232 26.464 22.053"/>
            <path id="Trazado_875266" data-name="Trazado 875266" d="M44.825,316.847q-.549-1.5-1.043-3.046" transform="translate(-20.297 -145.478)" fill="none" stroke="#f9d648" stroke-linecap="round" stroke-miterlimit="10" stroke-width="4"/>
            <path id="Trazado_875267" data-name="Trazado 875267" d="M547.532,78.736q1.341.9,2.657,1.816" transform="translate(-253.836 -36.502)" fill="none" stroke="#f9d648" stroke-linecap="round" stroke-miterlimit="10" stroke-width="4"/>
            <path id="Trazado_875268" data-name="Trazado 875268" d="M569.64,95.139a143.982,143.982,0,0,1,22.152,22.684" transform="translate(-264.085 -44.106)" fill="none" stroke="#f9d648" stroke-linecap="round" stroke-miterlimit="10" stroke-width="4" stroke-dasharray="17.945 10.767 21.535 17.945"/>
            <path id="Trazado_875269" data-name="Trazado 875269" d="M616.323,144.6a119.638,119.638,0,0,1,20.332,44.314" transform="translate(-285.727 -67.036)" fill="none" stroke="#f9d648" stroke-linecap="round" stroke-miterlimit="10" stroke-width="4" stroke-dasharray="10.767 21.535 17.945 10.767 21.535 17.945"/>
            <path id="Trazado_875270" data-name="Trazado 875270" d="M655.931,236.022q.268,1.589.483,3.181" transform="translate(-304.09 -109.42)" fill="none" stroke="#f9d648" stroke-linecap="round" stroke-miterlimit="10" stroke-width="4"/>
            <g id="Grupo_1100502" data-name="Grupo 1100502" transform="translate(206.149 92.559)" opacity="0.4">
              <g id="Grupo_1100501" data-name="Grupo 1100501">
                <g id="Grupo_1100500" data-name="Grupo 1100500" clip-path="url(#clip-path-3)">
                  <path id="Trazado_875271" data-name="Trazado 875271" d="M513.938,197.505c-32.586-30.736-88.1-35.666-116.584-.115-14.391,17.964-15.265,43.79-10.284,57.938,15.5,44.019,89.98,112.535,144.6,63.022,35.331-32.026,18.19-86.959-17.736-120.845" transform="translate(-384.319 -172.555)" fill="#ffea96"/>
                </g>
              </g>
            </g>
          </g>
        </g>
        <g id="Grupo_1100514" data-name="Grupo 1100514" transform="translate(165.198 73.786)">
          <g id="Grupo_1100513" data-name="Grupo 1100513" clip-path="url(#clip-path-4)">
            <path id="Trazado_875272" data-name="Trazado 875272" d="M545.1,159.054s13.158-.663,17.555,8.491c3.732,7.77.215,11.86,1.778,16.042s6.572,5.249,4.419,11.174,5.816,5.669,5.044,11.994-4.959,6.639-.1,10.042,8.71,13.732,2.859,17.512c-8.384,5.417-28.925-11.435-43.553-6.944s-29.731-1.34-28.055-7.128,11.007-7.472,8.264-12.5-4.322-11.482.2-16.243,2.686-4.449,2.762-10.488c.047-3.714,2.977-8.166,4.349-12.191,1.647-4.83,2.223-6.818,8.321-9.509,9.748-4.3,16.156-.252,16.156-.252" transform="translate(-399.278 -146.722)" fill="#442017"/>
            <path id="Trazado_875273" data-name="Trazado 875273" d="M582.018,155.938s1-11.39,13.783-6.874S607.519,169,593.326,168.95s-11.308-13.013-11.308-13.013" transform="translate(-434.91 -142.4)" fill="#442017"/>
            <path id="Trazado_875274" data-name="Trazado 875274" d="M599.245,173.712a.649.649,0,0,0,.2,0,.466.466,0,0,0,.427-.566,19.368,19.368,0,0,0-18.641-13.531.493.493,0,0,0-.546.482.577.577,0,0,0,.592.5c14.056.286,17.351,12.2,17.485,12.7a.587.587,0,0,0,.481.4" transform="translate(-434.404 -147.784)" fill="#fcf9ed"/>
            <path id="Trazado_875275" data-name="Trazado 875275" d="M580.082,178.018s1.028,9.992,3.409,12.412,5.6-1.737,5.6-1.737-2.762-15.535-9.008-10.675" transform="translate(-434.124 -155.878)" fill="#442017"/>
            <path id="Trazado_875276" data-name="Trazado 875276" d="M558.05,172.97s3.813,8.825,10.952,8.338,3.692-7.024,3.692-7.024-11.585-7.647-14.644-1.315" transform="translate(-423.91 -152.811)" fill="#442017"/>
            <path id="Trazado_875277" data-name="Trazado 875277" d="M549.994,171.47s-5.355,9.417-11.643,6.377,5.015-11.145,9.367-9.868,2.276,3.49,2.276,3.49" transform="translate(-413.915 -151.598)" fill="#442017"/>
            <path id="Trazado_875278" data-name="Trazado 875278" d="M582.116,191.866s.893,1.92-.444,7.913-2.324,7.357-2.324,7.357,4.794-4.133,5.537-12.667c1.095-12.579-2.768-2.6-2.768-2.6" transform="translate(-433.784 -160.995)" fill="#442017"/>
            <path id="Trazado_875279" data-name="Trazado 875279" d="M482.073,295.112l3.775-10.054a24.592,24.592,0,0,1,23.022-15.946h41.566a24.591,24.591,0,0,1,24.028,19.357l7.392,33.932-27.65,19.6,6.016,38.215s-66.911-2.431-71.63-8.6l5.358-45.6Z" transform="translate(-388.687 -198.546)" fill="#c1725c"/>
            <path id="Trazado_875280" data-name="Trazado 875280" d="M433.2,307.01l-14.432,16.418-29.216-28.652-12.894,8.407s15.685,35.05,23.227,43.845,21.121,18.253,32.656,7.172l14.724-17.976Z" transform="translate(-339.819 -210.444)" fill="#b76856"/>
            <path id="Trazado_875281" data-name="Trazado 875281" d="M458.82,355.268a.488.488,0,0,0,.249-.068.494.494,0,0,0,.177-.675l-4.837-8.262a.494.494,0,1,0-.852.5l4.837,8.262a.493.493,0,0,0,.426.245" transform="translate(-375.436 -234.2)" fill="#7d351d"/>
            <path id="Trazado_875282" data-name="Trazado 875282" d="M482.073,294.9s2.973-9.064,4.6-12.234c6.33-12.349,13.1-14.011,22.9-13.766,3.8.095,10.337,30.365,10.337,30.365s15.372-29.887,21.527-30.365c10.814-.841,26.581-.45,32.4,17.024l11.145,34.608-34.258,1.4,9.611,58.4s-64.329.611-71.74-8.924l5.358-47.749Z" transform="translate(-388.687 -198.335)" fill="#6059c9"/>
            <path id="Trazado_875283" data-name="Trazado 875283" d="M567.945,193.264l-2.136-.536-3.554,4.127a2,2,0,0,1-3.511-1.533l1.123-9.943a2.038,2.038,0,0,0-3.31-1.811l-2.743,2.228-2.517-.636a6.962,6.962,0,0,1-5.251-6.425l-.071-1.519a6.962,6.962,0,0,1-8.715,3.732l-.072-.026-6.864,16.883a14.331,14.331,0,0,0,5.417,17.6l-.793,8.2a11.921,11.921,0,0,0,10.874,12.812l.274.026c6.6.638,3.835.539,4.454-5.871l7,.1,3.765-24.613,3.217.807a6.959,6.959,0,0,0,8.416-5.038l.038-.149a6.953,6.953,0,0,0-5.038-8.416" transform="translate(-410.544 -155.943)" fill="#c1725c"/>
            <path id="Trazado_875284" data-name="Trazado 875284" d="M538.019,201.625a1.343,1.343,0,1,0,1.753-.732,1.343,1.343,0,0,0-1.753.732" transform="translate(-414.577 -166.873)" fill="#111"/>
            <path id="Trazado_875285" data-name="Trazado 875285" d="M557.748,206.343a1.47,1.47,0,1,0,1.655-1.257,1.47,1.47,0,0,0-1.655,1.257" transform="translate(-423.764 -168.857)" fill="#111"/>
            <path id="Trazado_875286" data-name="Trazado 875286" d="M545.275,237.386a.279.279,0,0,0,.186.024,2.38,2.38,0,0,1,2.479,1.027.28.28,0,0,0,.478-.29,2.989,2.989,0,0,0-3.078-1.283.28.28,0,0,0-.066.522" transform="translate(-417.917 -183.572)" fill="#7d351d"/>
            <path id="Trazado_875287" data-name="Trazado 875287" d="M566.168,196.3a4.279,4.279,0,0,1-1.7-.516c-.576-.262-1.16-.51-1.675-.709s-1.117-.407-1.72-.6a4.258,4.258,0,0,1-1.6-.756c-.371-.358-.344-.964.434-1.422a4.9,4.9,0,0,1,4.008,0,4.754,4.754,0,0,1,2.93,2.672c.249.854-.153,1.315-.674,1.33" transform="translate(-424.462 -162.743)" fill="#442017"/>
            <path id="Trazado_875288" data-name="Trazado 875288" d="M537.38,189.871a2.594,2.594,0,0,0,1.216.147c.436-.013.874-.014,1.255,0s.819.048,1.252.094a2.589,2.589,0,0,0,1.222-.055c.334-.146.486-.593.122-1.163a3.169,3.169,0,0,0-2.53-1.231,3.108,3.108,0,0,0-2.593,1.037c-.4.542-.27,1,.055,1.17" transform="translate(-414.188 -160.785)" fill="#381812"/>
            <path id="Trazado_875289" data-name="Trazado 875289" d="M560.42,210.645a2.094,2.094,0,0,0-2.566-.364" transform="translate(-423.819 -171.135)" fill="#c1725c"/>
            <path id="Trazado_875290" data-name="Trazado 875290" d="M557.3,210.341a.517.517,0,0,1-.146-.956,2.593,2.593,0,0,1,3.2.468.518.518,0,0,1-.766.7,1.554,1.554,0,0,0-1.929-.263.515.515,0,0,1-.362.055" transform="translate(-423.372 -170.69)" fill="#7d351d"/>
            <path id="Trazado_875291" data-name="Trazado 875291" d="M540.033,205.325a1.179,1.179,0,0,0-1.536-.1" transform="translate(-414.845 -168.814)" fill="#c1725c"/>
            <path id="Trazado_875292" data-name="Trazado 875292" d="M537.943,205.278a.517.517,0,0,1-.188-.93,1.68,1.68,0,0,1,2.2.168.517.517,0,0,1-.739.724.647.647,0,0,0-.872-.043.518.518,0,0,1-.405.082" transform="translate(-414.399 -168.365)" fill="#7d351d"/>
            <path id="Trazado_875293" data-name="Trazado 875293" d="M553.3,219.59a1.2,1.2,0,0,0-1.466-.169,8.206,8.206,0,0,1-4.98,1.088.852.852,0,0,0-.857,1.072c.285,1.215,1.716,4.916,4.913,4.175,3.894-.9,3.39-5.142,2.391-6.166" transform="translate(-418.312 -175.428)" fill="#fff"/>
            <path id="Trazado_875294" data-name="Trazado 875294" d="M546.556,199.863l-1.66,5.247-1.369-.2a1.1,1.1,0,0,0-1.409.661l-.343.952a1.515,1.515,0,0,0,.895,1.934l2.36.883" transform="translate(-416.323 -166.442)" fill="#c1725c"/>
            <path id="Trazado_875295" data-name="Trazado 875295" d="M544.477,209.4a.607.607,0,0,1-.074-.021l-2.361-.883a2.041,2.041,0,0,1-1.2-2.595l.343-.952a1.619,1.619,0,0,1,2.071-.973l.833.117,1.527-4.83a.518.518,0,0,1,.987.312l-1.793,5.668L543,204.971a.707.707,0,0,0-.546,0,.581.581,0,0,0-.3.33l-.343.951a1,1,0,0,0,.589,1.275l2.361.883a.517.517,0,0,1-.289.99" transform="translate(-415.877 -165.995)" fill="#7d351d"/>
            <path id="Trazado_875296" data-name="Trazado 875296" d="M596.6,220.142a.522.522,0,0,1-.259-.141l-1.9-1.917a.517.517,0,0,1,.063-.783l2.928-2.125a.517.517,0,0,1,.608.837l-2.44,1.771,1.479,1.488a.518.518,0,0,1-.476.871" transform="translate(-440.712 -173.496)" fill="#7d351d"/>
            <path id="Trazado_875297" data-name="Trazado 875297" d="M540.747,246.616s12.165,3.6,15.624-.584h0s-1.413,7.923-16.316,7.75Z" transform="translate(-415.567 -186.985)" fill="#7d351d"/>
            <path id="Trazado_875298" data-name="Trazado 875298" d="M594,233a3.133,3.133,0,1,1,.19.034c-.063-.009-.127-.021-.19-.034" transform="translate(-439.434 -178.943)" fill="#f9d648"/>
            <path id="Trazado_875299" data-name="Trazado 875299" d="M569.544,218.186c-.183.858-1.492,1.3-2.922,1s-2.441-1.25-2.258-2.107,1.492-1.3,2.922-1,2.441,1.249,2.258,2.107" transform="translate(-426.828 -173.915)" fill="#7d351d"/>
            <g id="Grupo_1100509" data-name="Grupo 1100509" transform="translate(87.406 70.322)" opacity="0.2">
              <g id="Grupo_1100508" data-name="Grupo 1100508">
                <g id="Grupo_1100507" data-name="Grupo 1100507" clip-path="url(#clip-path-5)">
                  <g id="Grupo_1100506" data-name="Grupo 1100506" transform="translate(5.98 0)">
                    <g id="Grupo_1100505" data-name="Grupo 1100505" clip-path="url(#clip-path-6)">
                      <path id="Trazado_875300" data-name="Trazado 875300" d="M579.58,283.148H474.24a3.315,3.315,0,0,1,0-6.63H579.58a3.315,3.315,0,0,1,0,6.63" transform="translate(-476.905 -272.301)" fill="#f2eae1"/>
                      <path id="Trazado_875301" data-name="Trazado 875301" d="M579.58,318.808H474.24a3.315,3.315,0,0,1,0-6.63H579.58a3.315,3.315,0,0,1,0,6.63" transform="translate(-476.905 -288.833)" fill="#f2eae1"/>
                      <path id="Trazado_875302" data-name="Trazado 875302" d="M579.58,354.468H474.24a3.315,3.315,0,0,1,0-6.63H579.58a3.315,3.315,0,0,1,0,6.63" transform="translate(-476.905 -305.365)" fill="#f2eae1"/>
                      <path id="Trazado_875303" data-name="Trazado 875303" d="M579.58,390.128H474.24a3.315,3.315,0,0,1,0-6.63H579.58a3.315,3.315,0,0,1,0,6.63" transform="translate(-476.905 -321.897)" fill="#f2eae1"/>
                      <path id="Trazado_875304" data-name="Trazado 875304" d="M579.58,425.788H474.24a3.315,3.315,0,0,1,0-6.63H579.58a3.315,3.315,0,0,1,0,6.63" transform="translate(-476.905 -338.429)" fill="#f2eae1"/>
                      <path id="Trazado_875305" data-name="Trazado 875305" d="M579.58,461.447H474.24a3.315,3.315,0,0,1,0-6.629H579.58a3.315,3.315,0,1,1,0,6.629" transform="translate(-476.905 -354.961)" fill="#f2eae1"/>
                    </g>
                  </g>
                </g>
              </g>
            </g>
            <path id="Trazado_875307" data-name="Trazado 875307" d="M503.272,354.985a.444.444,0,0,1-.407-.265L500.2,348.64a18.889,18.889,0,0,1-.369-14.37l3.193-8.419a.444.444,0,0,1,.83.314l-3.193,8.419a18,18,0,0,0,.351,13.7l2.669,6.081a.445.445,0,0,1-.228.585.456.456,0,0,1-.179.037" transform="translate(-396.343 -224.717)" fill="#322380"/>
            <path id="Trazado_875308" data-name="Trazado 875308" d="M484.176,349.789c-1.379.037-2.567.485-2.71,2.123-.6,2.894,1.94,4.016,4.334,4.256-2.323.451-1.071,4.229,1.83,5.315l15.425,6.69a7.852,7.852,0,0,0,3.579.487l52.471,20.7a18.816,18.816,0,0,0,25.35-19.719l-3.7-18.672-30.9.909,1.683,8.723-37.039-11.712a28.379,28.379,0,0,0-2.412-3.5s-8.828-8.984-12.364-11.434a4.067,4.067,0,0,0-1.218-.643,1.492,1.492,0,0,0-1.316.208,1.983,1.983,0,0,0-.531,1.652,15.6,15.6,0,0,0,1.5,5.349c-1.542-.513-3.188-1.073-4.981-1.708-3.875-1.068-10.049-3.613-11.15,1.537-.23,1.821,1.022,2.611,2.495,2.971-2.164-.1-4.33.37-4.289,3.067-.313,2.44,1.764,3.127,3.947,3.4m2.576.222c.358.031.687.065.969.115-.286-.023-.615-.066-.969-.115" transform="translate(-387.818 -228.279)" fill="#c1725c"/>
            <path id="Trazado_875309" data-name="Trazado 875309" d="M605.438,354.851a.468.468,0,0,0,.094-.009.493.493,0,0,0,.391-.578l-1.614-8.365-4.024.032h-.013a1.43,1.43,0,0,1-1.433-1.368L597.775,321.9a.487.487,0,0,0-.516-.47.494.494,0,0,0-.47.517l1.064,22.662a2.4,2.4,0,0,0,2.44,2.309l3.2-.026,1.459,7.558a.493.493,0,0,0,.484.4" transform="translate(-441.869 -222.8)" fill="#322380"/>
            <g id="Grupo_1100512" data-name="Grupo 1100512" transform="translate(109.177 109.044)" opacity="0.5">
              <g id="Grupo_1100511" data-name="Grupo 1100511">
                <g id="Grupo_1100510" data-name="Grupo 1100510" clip-path="url(#clip-path-7)">
                  <path id="Trazado_875310" data-name="Trazado 875310" d="M512.671,344.043l8.394,3.613s-7.977-6.295-9.552-6.81Z" transform="translate(-511.513 -340.846)" fill="#af4e4a"/>
                </g>
              </g>
            </g>
            <path id="Trazado_875311" data-name="Trazado 875311" d="M492.274,353.518a.494.494,0,0,0,.16-.961,56.386,56.386,0,0,0-6.095-1.814.485.485,0,0,0-.52.466.5.5,0,0,0,.467.52,55.455,55.455,0,0,1,5.827,1.762.493.493,0,0,0,.16.027" transform="translate(-390.424 -236.388)" fill="#7d351d"/>
            <path id="Trazado_875312" data-name="Trazado 875312" d="M614,384.892a.494.494,0,0,0,.157-.962l-10.413-3.491a.494.494,0,0,0-.314.936l10.414,3.491a.481.481,0,0,0,.157.026" transform="translate(-444.792 -250.145)" fill="#7d351d"/>
            <path id="Trazado_875313" data-name="Trazado 875313" d="M491.056,365.538a.494.494,0,0,0,.152-.963l-4.717-1.525a.494.494,0,1,0-.3.939l4.717,1.525a.482.482,0,0,0,.152.024" transform="translate(-390.436 -242.084)" fill="#7d351d"/>
            <path id="Trazado_875314" data-name="Trazado 875314" d="M492.773,376.808a.494.494,0,0,0,.141-.967l-2.559-.765a.494.494,0,0,0-.282.946l2.559.765a.493.493,0,0,0,.141.021" transform="translate(-392.233 -247.661)" fill="#7d351d"/>
            <path id="Trazado_875315" data-name="Trazado 875315" d="M386.314,280.685l8.289,8.964-5.6,3.52-4.542-3.983Z" transform="translate(-343.432 -203.911)" fill="#b76856"/>
            <path id="Trazado_875316" data-name="Trazado 875316" d="M373.538,279.986h-23a1.4,1.4,0,0,1-1.4-1.4V237.173a1.4,1.4,0,0,1,1.4-1.4h23a1.4,1.4,0,0,1,1.4,1.4v41.414a1.4,1.4,0,0,1-1.4,1.4" transform="translate(-327.058 -183.091)" fill="#2b2b39"/>
            <path id="Trazado_875317" data-name="Trazado 875317" d="M374.716,240.839v37.618a1.144,1.144,0,0,1-.991,1.252H353.144a1.144,1.144,0,0,1-.991-1.252V240.839a1.145,1.145,0,0,1,.991-1.253h20.582a1.145,1.145,0,0,1,.991,1.253" transform="translate(-328.456 -184.858)" fill="#5f5f75"/>
            <path id="Trazado_875318" data-name="Trazado 875318" d="M353.966,291.437h0a3.1,3.1,0,0,1-3.136,3.047l-9.709-.14a3.092,3.092,0,0,1,.09-6.182l9.709.14a3.1,3.1,0,0,1,3.047,3.136" transform="translate(-321.93 -207.377)" fill="#b76856"/>
            <path id="Trazado_875319" data-name="Trazado 875319" d="M353.661,279.807h0a3.1,3.1,0,0,1-3.136,3.047l-10.48-.151a3.092,3.092,0,1,1,.089-6.183l10.48.151a3.1,3.1,0,0,1,3.047,3.136" transform="translate(-321.431 -201.98)" fill="#b76856"/>
            <path id="Trazado_875320" data-name="Trazado 875320" d="M387.325,289.306h0a3.1,3.1,0,0,1-4.372-.047l-7.332-7.49a3.1,3.1,0,0,1,.046-4.372h0a3.1,3.1,0,0,1,4.372.047l7.333,7.49a3.1,3.1,0,0,1-.047,4.372" transform="translate(-338.928 -201.98)" fill="#b76856"/>
            <path id="Trazado_875321" data-name="Trazado 875321" d="M352.841,302.793h0a3.1,3.1,0,0,1-3.136,3.047l-6.3-.091a3.092,3.092,0,0,1,.089-6.183l6.3.091a3.1,3.1,0,0,1,3.047,3.136" transform="translate(-322.986 -212.664)" fill="#b76856"/>
            <path id="Trazado_875322" data-name="Trazado 875322" d="M355.335,313.8h0a3.1,3.1,0,0,1-3.136,3.047l-3.105-.045a3.092,3.092,0,1,1,.09-6.183l3.1.045a3.1,3.1,0,0,1,3.047,3.136" transform="translate(-325.626 -217.79)" fill="#b76856"/>
            <path id="Trazado_875323" data-name="Trazado 875323" d="M342.642,288.03c0-.013,0-.026,0-.04a.552.552,0,0,1,.555-.549l9.875.046a.541.541,0,0,1,.549.555.551.551,0,0,1-.555.549l-9.875-.046a.552.552,0,0,1-.549-.515" transform="translate(-324.047 -207.043)" fill="#7d351d"/>
            <path id="Trazado_875324" data-name="Trazado 875324" d="M342.714,300.068c0-.014,0-.028,0-.043a.552.552,0,0,1,.558-.546l9.069.1a.553.553,0,0,1-.012,1.1l-9.069-.1a.553.553,0,0,1-.546-.516" transform="translate(-324.08 -212.624)" fill="#7d351d"/>
            <path id="Trazado_875325" data-name="Trazado 875325" d="M345.546,311.053c0-.009,0-.018,0-.027a.553.553,0,0,1,.543-.562l7.126-.121a.553.553,0,0,1,.018,1.106l-7.126.121a.553.553,0,0,1-.561-.516" transform="translate(-325.393 -217.661)" fill="#7d351d"/>
          </g>
        </g>
        <g id="Grupo_1100519" data-name="Grupo 1100519">
          <g id="Grupo_1100518" data-name="Grupo 1100518" clip-path="url(#clip-path)">
            <path id="Trazado_875327" data-name="Trazado 875327" d="M404.2,187.627c1.485,1.429,2.7.911,2.7-1.15v-6.647a3.759,3.759,0,0,1,3.748-3.748h20.5a3.759,3.759,0,0,0,3.748-3.747v-26.27a3.759,3.759,0,0,0-3.748-3.747H359.785a3.759,3.759,0,0,0-3.747,3.747v26.27a3.759,3.759,0,0,0,3.747,3.747h28.665a10.743,10.743,0,0,1,6.449,2.6Z" transform="translate(-165.059 -65.979)" fill="#f9d648"/>
            <path id="Trazado_875328" data-name="Trazado 875328" d="M370.054,159.813h62.563a1.353,1.353,0,0,0,0-2.705H370.054a1.353,1.353,0,1,0,0,2.705" transform="translate(-170.93 -72.835)" fill="#fff"/>
            <path id="Trazado_875329" data-name="Trazado 875329" d="M370.054,172.388h62.563a1.353,1.353,0,0,0,0-2.705H370.054a1.353,1.353,0,1,0,0,2.705" transform="translate(-170.93 -78.665)" fill="#fff"/>
            <path id="Trazado_875330" data-name="Trazado 875330" d="M370.054,184.964H414.24a1.353,1.353,0,1,0,0-2.705H370.054a1.353,1.353,0,1,0,0,2.705" transform="translate(-170.93 -84.495)" fill="#fff"/>
            <g id="Grupo_1100517" data-name="Grupo 1100517" transform="translate(0 18.588)" opacity="0.4">
              <g id="Grupo_1100516" data-name="Grupo 1100516">
                <g id="Grupo_1100515" data-name="Grupo 1100515" clip-path="url(#clip-path-9)">
                  <path id="Trazado_875331" data-name="Trazado 875331" d="M129.392,177.394c-37.28,26.289-95.118,23.469-120.228-16.2-12.688-20.043-10.5-46.086-3.667-59.59C26.748,59.6,111.75,1.25,162.147,58.588c32.6,37.087,8.346,89.822-32.755,118.806" transform="translate(0 -34.654)" fill="#ffea96"/>
                </g>
              </g>
            </g>
          </g>
        </g>
        <g id="Grupo_1100524" data-name="Grupo 1100524" transform="translate(0)">
          <g id="Grupo_1100523" data-name="Grupo 1100523" clip-path="url(#clip-path-10)">
            <path id="Trazado_875332" data-name="Trazado 875332" d="M198.209,175.611l14.1,16.037,28.539-27.987,12.595,8.212L230.752,214.7a18.317,18.317,0,0,1-31.9,7.005L184.47,204.148Z" transform="translate(-85.52 -75.873)" fill="#e69773"/>
            <path id="Trazado_875333" data-name="Trazado 875333" d="M227.88,222.749a.476.476,0,0,1-.243-.066.483.483,0,0,1-.173-.66l4.725-8.07a.482.482,0,0,1,.833.487l-4.725,8.07a.482.482,0,0,1-.417.239" transform="translate(-105.422 -99.078)" fill="#af4e4a"/>
            <path id="Trazado_875334" data-name="Trazado 875334" d="M283.777,134.582l-.038,0-.262-1.3,0-.006h0c-1.388-6.853-5.026-14.4-6.452-21.244a4.766,4.766,0,0,1-.149-1.544,2.372,2.372,0,0,1,3.473-1.8,3.814,3.814,0,0,1,1.6,2.093c.424,1.1.822,2.213,1.255,3.314a1.085,1.085,0,0,0,2.094-.335q.36-6.345.705-12.691a3.618,3.618,0,0,1,.694-2.351,1.875,1.875,0,0,1,2.892.415,3.583,3.583,0,0,1,.289,1.349c.237,2.884.594,5.76.709,8.652.088,2.248.481,3.671.4,5.3.026-.536-.005-1.335.02-1.871.158-3.248.353-6.491.375-9.74a3.066,3.066,0,0,1,.471-1.508,1.567,1.567,0,0,1,.753-.63,1.277,1.277,0,0,1,.974.011,1.494,1.494,0,0,1,.739.874,6.684,6.684,0,0,1,.395,1.971c.086,1.919.158,3.838.251,5.757.1,1.955.035,3.967.261,5.912a8.174,8.174,0,0,1,.093-1.662c.106-1.124.238-2.246.382-3.366s.176-2.475,1.069-3.3a1.29,1.29,0,0,1,1.408-.312,1.211,1.211,0,0,1,.482.5,4.291,4.291,0,0,1,.262,2.269q-.047,1.1-.093,2.2c-.063,1.481-.127,2.962-.211,4.442q-.056,1.27-.11,2.54l.967-3.079c.352-1.188,1.57-3.082,2.689-2.549a1.44,1.44,0,0,1,.759,1.719l-4.2,18.666" transform="translate(-128.35 -45.532)" fill="#e69773"/>
            <path id="Trazado_875335" data-name="Trazado 875335" d="M283.777,134.582l-.038,0-.262-1.3,0-.006h0c-1.388-6.853-5.026-14.4-6.452-21.244a4.766,4.766,0,0,1-.149-1.544,2.372,2.372,0,0,1,3.473-1.8,3.814,3.814,0,0,1,1.6,2.093c.424,1.1.822,2.213,1.255,3.314a1.085,1.085,0,0,0,2.094-.335q.36-6.345.705-12.691a3.618,3.618,0,0,1,.694-2.351,1.875,1.875,0,0,1,2.892.415,3.583,3.583,0,0,1,.289,1.349c.237,2.884.594,5.76.709,8.652.088,2.248.481,3.671.4,5.3.026-.536-.005-1.335.02-1.871.158-3.248.353-6.491.375-9.74a3.066,3.066,0,0,1,.471-1.508,1.567,1.567,0,0,1,.753-.63,1.277,1.277,0,0,1,.974.011,1.494,1.494,0,0,1,.739.874,6.684,6.684,0,0,1,.395,1.971c.086,1.919.158,3.838.251,5.757.1,1.955.035,3.967.261,5.912a8.174,8.174,0,0,1,.093-1.662c.106-1.124.238-2.246.382-3.366s.176-2.475,1.069-3.3a1.29,1.29,0,0,1,1.408-.312,1.211,1.211,0,0,1,.482.5,4.291,4.291,0,0,1,.262,2.269q-.047,1.1-.093,2.2c-.063,1.481-.127,2.962-.211,4.442q-.056,1.27-.11,2.54l.967-3.079c.352-1.188,1.57-3.082,2.689-2.549a1.44,1.44,0,0,1,.759,1.719l-4.2,18.666-2.448,8.244Z" transform="translate(-128.35 -45.532)" fill="#e69773"/>
            <path id="Trazado_875336" data-name="Trazado 875336" d="M293.032,136.747h0a.49.49,0,0,1-.185.024.469.469,0,0,1-.434-.5c.395-5.552-3.637-7.573-3.809-7.657a.47.47,0,0,1,.407-.848,8.822,8.822,0,0,1,4.339,8.572.468.468,0,0,1-.319.412m-.167-.442.005,0Z" transform="translate(-133.674 -59.21)" fill="#af4e4a"/>
            <path id="Trazado_875337" data-name="Trazado 875337" d="M111.905,78.614a8.179,8.179,0,1,1-8.179-8.179,8.179,8.179,0,0,1,8.179,8.179" transform="translate(-44.296 -32.654)" fill="#804242"/>
            <path id="Trazado_875338" data-name="Trazado 875338" d="M103.358,61.593a8.179,8.179,0,1,1-8.179-8.179,8.179,8.179,0,0,1,8.179,8.179" transform="translate(-40.333 -24.763)" fill="#804242"/>
            <path id="Trazado_875339" data-name="Trazado 875339" d="M102.666,38.708a8.179,8.179,0,1,1-8.179-8.179,8.179,8.179,0,0,1,8.179,8.179" transform="translate(-40.012 -14.153)" fill="#804242"/>
            <path id="Trazado_875340" data-name="Trazado 875340" d="M113.914,22.124a8.179,8.179,0,1,1-8.179-8.179,8.179,8.179,0,0,1,8.179,8.179" transform="translate(-45.227 -6.465)" fill="#804242"/>
            <path id="Trazado_875341" data-name="Trazado 875341" d="M134.275,13.148A8.179,8.179,0,1,1,126.1,4.969a8.179,8.179,0,0,1,8.179,8.179" transform="translate(-54.666 -2.304)" fill="#804242"/>
            <path id="Trazado_875342" data-name="Trazado 875342" d="M153.949,12.456a8.179,8.179,0,1,1-8.179-8.179,8.179,8.179,0,0,1,8.179,8.179" transform="translate(-63.787 -1.983)" fill="#804242"/>
            <path id="Trazado_875343" data-name="Trazado 875343" d="M173.93,21.086a8.179,8.179,0,1,1-8.179-8.179,8.18,8.18,0,0,1,8.179,8.179" transform="translate(-73.05 -5.984)" fill="#804242"/>
            <path id="Trazado_875344" data-name="Trazado 875344" d="M184.445,34.754a8.179,8.179,0,1,1-8.179-8.179,8.179,8.179,0,0,1,8.179,8.179" transform="translate(-77.925 -12.32)" fill="#804242"/>
            <path id="Trazado_875345" data-name="Trazado 875345" d="M132.653,170.268l-23.037-21.634a21.452,21.452,0,0,0-16.045-7.94l-35.42-1.041c-.359,0-.713.024-1.066.051l-.039-.054-6.637.127a24.108,24.108,0,0,0-23.636,18.718l-6.143,27.749a3.187,3.187,0,0,0,3.009,3.874l17.847.571-4.015,51.423h79.985l-1.83-48.725L132.8,175.253a3.519,3.519,0,0,0-.146-4.985" transform="translate(-9.528 -64.742)" fill="#d03f23"/>
            <path id="Trazado_875346" data-name="Trazado 875346" d="M137.15,51.157c-2.537-.281-4.873-4.631-4.873-4.631s-15.754-.657-16.319-2.823l-1.43,12.907-3.831-.424-3.363-.372a6.393,6.393,0,0,0-1.571.027,6.468,6.468,0,0,0-5.549,5.672l-.069.625a6.467,6.467,0,0,0,5.7,7.119l1.71.189-4.083,21.206a11.433,11.433,0,0,0,9.065,13.388l1.1.211a11.432,11.432,0,0,0,13.387-9.065L128.56,87.2a10.444,10.444,0,0,0,11.36-9.244l2.774-25.042c.064-.579.067-2.377.038-2.941-.853.273-1.775,1.608-2.723,1.5Z" transform="translate(-46.41 -20.261)" fill="#e69773"/>
            <path id="Trazado_875347" data-name="Trazado 875347" d="M109.934,78.917a.482.482,0,0,1-.165-.91l1.855-.937-1.733-2.419a.482.482,0,0,1,.784-.561l2.061,2.876a.482.482,0,0,1-.175.711l-2.358,1.19a.48.48,0,0,1-.27.049" transform="translate(-50.766 -34.255)" fill="#af4e4a"/>
            <path id="Trazado_875348" data-name="Trazado 875348" d="M154.946,81.925l-1.8-.2a.482.482,0,1,1,.106-.959l1.8.2a1.716,1.716,0,0,0,1.9-1.814l-.411-6.428a.482.482,0,0,1,.962-.061l.411,6.428a2.68,2.68,0,0,1-2.969,2.834" transform="translate(-70.801 -33.478)" fill="#af4e4a"/>
            <path id="Trazado_875349" data-name="Trazado 875349" d="M168.9,80.122a1.314,1.314,0,1,1-1.4-1.22,1.313,1.313,0,0,1,1.4,1.22" transform="translate(-77.084 -36.577)" fill="#111"/>
            <path id="Trazado_875350" data-name="Trazado 875350" d="M149.542,111a.274.274,0,0,1-.18-.035,2.328,2.328,0,0,0-2.617.187.274.274,0,0,1-.354-.417,2.922,2.922,0,0,1,3.252-.239.273.273,0,0,1-.1.5" transform="translate(-67.822 -51.041)" fill="#af4e4a"/>
            <path id="Trazado_875351" data-name="Trazado 875351" d="M135.757,65.334a5.539,5.539,0,0,0,2.3.061c.816-.086,1.637-.153,2.353-.186s1.541-.043,2.361-.032a5.52,5.52,0,0,0,2.283-.274c.6-.289.819-1.045.048-1.928a6.355,6.355,0,0,0-4.932-1.644,6.164,6.164,0,0,0-4.7,2.089c-.657.949-.35,1.682.285,1.913" transform="translate(-62.635 -28.43)" fill="#804242"/>
            <path id="Trazado_875352" data-name="Trazado 875352" d="M172.218,70.119a3.367,3.367,0,0,1-1.558-.316c-.532-.2-1.07-.375-1.545-.513s-1.027-.276-1.58-.4a3.349,3.349,0,0,1-1.482-.569c-.351-.316-.355-.929.326-1.482A4.113,4.113,0,0,1,170,66.362a4.031,4.031,0,0,1,2.767,2.339c.265.829-.077,1.341-.547,1.418" transform="translate(-76.874 -30.673)" fill="#804242"/>
            <path id="Trazado_875353" data-name="Trazado 875353" d="M147.422,78.2a1.437,1.437,0,1,1-1.148-1.677,1.437,1.437,0,0,1,1.148,1.677" transform="translate(-67.023 -35.467)" fill="#111"/>
            <path id="Trazado_875354" data-name="Trazado 875354" d="M144.194,81.462a2.047,2.047,0,0,1,2.494.455" transform="translate(-66.848 -37.654)" fill="#e69773"/>
            <path id="Trazado_875355" data-name="Trazado 875355" d="M146.219,81.979a.481.481,0,0,1-.3-.155,1.54,1.54,0,0,0-1.9-.357.482.482,0,0,1-.47-.842,2.513,2.513,0,0,1,3.088.55.482.482,0,0,1-.41.8" transform="translate(-66.432 -37.238)" fill="#af4e4a"/>
            <path id="Trazado_875356" data-name="Trazado 875356" d="M166.515,83.87a2.846,2.846,0,0,1,2.219.269" transform="translate(-77.196 -38.829)" fill="#e69773"/>
            <path id="Trazado_875357" data-name="Trazado 875357" d="M168.265,84.2a.474.474,0,0,1-.211-.076,2.367,2.367,0,0,0-1.809-.212.482.482,0,0,1-.292-.919,3.327,3.327,0,0,1,2.63.325.482.482,0,0,1-.318.882" transform="translate(-76.78 -38.413)" fill="#af4e4a"/>
            <path id="Trazado_875358" data-name="Trazado 875358" d="M140.165,89.5a1.175,1.175,0,0,1,1.413.3,8.025,8.025,0,0,0,4.285,2.548.833.833,0,0,1,.464,1.259c-.639,1.039-2.214,2.576-4.95.9-3.335-2.039-2.455-4.364-1.211-5.005" transform="translate(-64.464 -41.437)" fill="#fff"/>
            <path id="Trazado_875359" data-name="Trazado 875359" d="M140.811,120.056s-11.76-.54-14.119-5.589c0,0,.457,10.54,12.871,12.067Z" transform="translate(-58.734 -53.067)" fill="#af4e4a"/>
            <path id="Trazado_875360" data-name="Trazado 875360" d="M130.213,83.767c-.085.763.879,1.5,2.151,1.637s2.373-.363,2.457-1.126-.879-1.5-2.151-1.637-2.373.363-2.457,1.126" transform="translate(-60.364 -38.302)" fill="#af4e4a"/>
            <path id="Trazado_875361" data-name="Trazado 875361" d="M135.415,76.418a7.146,7.146,0,1,1,7.215-7.079,7.154,7.154,0,0,1-7.215,7.079m.126-13.237a6.092,6.092,0,1,0,6.034,6.148,6.1,6.1,0,0,0-6.034-6.148" transform="translate(-59.496 -28.801)" fill="#fdfeff"/>
            <path id="Trazado_875362" data-name="Trazado 875362" d="M165.861,80.627a7.147,7.147,0,1,1,7.215-7.079,7.154,7.154,0,0,1-7.215,7.079m.125-13.237a6.092,6.092,0,1,0,6.035,6.148,6.1,6.1,0,0,0-6.035-6.148" transform="translate(-73.611 -30.753)" fill="#fdfeff"/>
            <path id="Trazado_875363" data-name="Trazado 875363" d="M156.438,77.672a1.765,1.765,0,0,0-2.422-.427l-.556-.9a2.786,2.786,0,0,1,3.835.707Z" transform="translate(-71.144 -35.177)" fill="#fdfeff"/>
            <path id="Trazado_875364" data-name="Trazado 875364" d="M123.709,67.743a.794.794,0,0,1-.586-.2c-.076-.056-1.274-.9-6.519-1.359a.633.633,0,0,1-.638-.672.728.728,0,0,1,.818-.543c6.036.531,7.291,1.584,7.482,1.79a.549.549,0,0,1-.141.858.839.839,0,0,1-.416.13" transform="translate(-53.759 -30.115)" fill="#fdfeff"/>
            <path id="Trazado_875365" data-name="Trazado 875365" d="M170.85,37.372a8.179,8.179,0,1,1-8.179-8.179,8.179,8.179,0,0,1,8.179,8.179" transform="translate(-71.622 -13.534)" fill="#804242"/>
            <path id="Trazado_875366" data-name="Trazado 875366" d="M150.148,28.4a8.179,8.179,0,1,1-8.179-8.179,8.18,8.18,0,0,1,8.179,8.179" transform="translate(-62.025 -9.373)" fill="#804242"/>
            <path id="Trazado_875367" data-name="Trazado 875367" d="M129.162,32.923a8.179,8.179,0,1,1-8.179-8.179,8.179,8.179,0,0,1,8.179,8.179" transform="translate(-52.296 -11.471)" fill="#804242"/>
            <path id="Trazado_875368" data-name="Trazado 875368" d="M119.5,55.8a6.243,6.243,0,1,1-6.243-6.243A6.243,6.243,0,0,1,119.5,55.8" transform="translate(-49.61 -22.973)" fill="#804242"/>
            <path id="Trazado_875369" data-name="Trazado 875369" d="M113.35,46.028a6.243,6.243,0,1,1-6.243-6.243,6.243,6.243,0,0,1,6.243,6.243" transform="translate(-46.761 -18.444)" fill="#804242"/>
            <path id="Trazado_875370" data-name="Trazado 875370" d="M130.018,141.114l-2.7-6.938c-.1-1.346-1.447-1.98-2.3-1.082l-9.9,10.355a.225.225,0,0,1-.3.018l-14.679-12a1.129,1.129,0,0,0-1.68.294l-4.106,8.418a2.463,2.463,0,0,0,.329,2.665l8.624,10.243a2.382,2.382,0,0,0,3.249.226l8.137-7.514a.428.428,0,0,1,.61.031l5.145,5.82a1.21,1.21,0,0,0,2.146-.124l7-8a2.35,2.35,0,0,0,.431-2.408" transform="translate(-43.626 -60.831)" fill="#750021"/>
            <path id="Trazado_875371" data-name="Trazado 875371" d="M171.452,74.513a9.231,9.231,0,0,1,3.781-1.095.574.574,0,0,1,.572.63.656.656,0,0,1-.306.491.666.666,0,0,1-.379.105,8.44,8.44,0,0,0-3.364,1.067.653.653,0,0,1-.3.076Z" transform="translate(-79.485 -34.036)" fill="#fdfeff"/>
            <path id="Trazado_875372" data-name="Trazado 875372" d="M133.97,170.958a1.663,1.663,0,1,1-1.663-1.663,1.663,1.663,0,0,1,1.663,1.663" transform="translate(-60.567 -78.485)" fill="#750021"/>
            <path id="Trazado_875373" data-name="Trazado 875373" d="M133.97,185.359a1.663,1.663,0,1,1-1.663-1.663,1.663,1.663,0,0,1,1.663,1.663" transform="translate(-60.567 -85.161)" fill="#750021"/>
            <path id="Trazado_875374" data-name="Trazado 875374" d="M133.97,199.759a1.663,1.663,0,1,1-1.663-1.663,1.663,1.663,0,0,1,1.663,1.663" transform="translate(-60.567 -91.837)" fill="#750021"/>
            <path id="Trazado_875375" data-name="Trazado 875375" d="M97.457,266.516l-41.668-23.6,1.644-8.52-30.187-.888-1.573,7.939c-2.849,19.908,22.721,29.561,22.721,29.561l40.789,13.706" transform="translate(-11.799 -108.253)" fill="#e69773"/>
            <path id="Trazado_875376" data-name="Trazado 875376" d="M81.86,222.343a.451.451,0,0,1-.092-.009.481.481,0,0,1-.382-.564l1.576-8.171,3.931.032h.012a1.4,1.4,0,0,0,1.4-1.336l1.039-22.137a.476.476,0,0,1,.5-.459.483.483,0,0,1,.459.5l-1.039,22.137a2.343,2.343,0,0,1-2.383,2.256l-3.128-.025-1.425,7.382a.482.482,0,0,1-.473.391" transform="translate(-37.726 -87.943)" fill="#750021"/>
            <path id="Trazado_875377" data-name="Trazado 875377" d="M62.4,254.444a.482.482,0,0,1-.153-.94l10.172-3.41a.482.482,0,0,1,.306.915l-10.172,3.41a.473.473,0,0,1-.153.025" transform="translate(-28.704 -115.933)" fill="#af4e4a"/>
            <path id="Trazado_875378" data-name="Trazado 875378" d="M141.315,311.671a7.2,7.2,0,0,0,2.37,2.311l13.528,7.374c2.42,1.483,5.855.258,4.872-1.674,1.523,1.594,3.764,2.8,5.518.732,1.1-1.026.757-2.138.005-3.155,1.43,1.422,3.1,2.535,4.683.934,1.972-1.49,1.092-3.321-.2-4.827,1.09.861,2.367,1.321,3.553.128,3.1-3.7-2.218-6.724-5.174-8.923-1.47-.937-2.8-1.811-4.042-2.636a14.289,14.289,0,0,0,4.71-1.932,1.818,1.818,0,0,0,.894-1.315,1.368,1.368,0,0,0-.592-1.068,3.73,3.73,0,0,0-1.151-.518c-3.763-1.174-15.231-2.488-15.231-2.488a25.869,25.869,0,0,0-3.886.228" transform="translate(-65.514 -136.582)" fill="#e69773"/>
            <path id="Trazado_875379" data-name="Trazado 875379" d="M186.154,332.412c.2.176.406.394.629.636-.234-.228-.452-.441-.629-.636" transform="translate(-86.301 -154.106)" fill="#e69773"/>
            <g id="Grupo_1100522" data-name="Grupo 1100522" transform="translate(93.572 161.327)" opacity="0.3">
              <g id="Grupo_1100521" data-name="Grupo 1100521">
                <g id="Grupo_1100520" data-name="Grupo 1100520" clip-path="url(#clip-path-11)">
                  <path id="Trazado_875380" data-name="Trazado 875380" d="M181.785,304.786l-7.341-4.028s9.044,2.215,10.3,3.062Z" transform="translate(-174.444 -300.758)" fill="#af4e4a"/>
                </g>
              </g>
            </g>
            <path id="Trazado_875381" data-name="Trazado 875381" d="M190.379,324.2a.452.452,0,0,1,.6-.657,51.569,51.569,0,0,1,4.746,3.381.445.445,0,0,1-.043.638.454.454,0,0,1-.639-.045,50.549,50.549,0,0,0-4.558-3.217.456.456,0,0,1-.109-.1" transform="translate(-88.215 -149.962)" fill="#af4e4a"/>
            <path id="Trazado_875382" data-name="Trazado 875382" d="M183.153,332.5a.452.452,0,0,1,.61-.653l3.76,2.548a.452.452,0,0,1-.507.749l-3.76-2.548a.452.452,0,0,1-.1-.1" transform="translate(-84.866 -153.81)" fill="#af4e4a"/>
            <path id="Trazado_875383" data-name="Trazado 875383" d="M175.568,338.595a.452.452,0,0,1,.619-.647l2,1.418a.453.453,0,0,1-.525.738l-2-1.418a.473.473,0,0,1-.094-.091" transform="translate(-81.349 -156.634)" fill="#af4e4a"/>
            <path id="Trazado_875384" data-name="Trazado 875384" d="M130.939,307.209s2.8-11.665,9.48-18.588a6.916,6.916,0,0,1,4.941,1.708,47.374,47.374,0,0,0-9.959,19.484,6.388,6.388,0,0,1-4.463-2.6" transform="translate(-60.703 -133.799)" fill="#2b2b39"/>
            <path id="Trazado_875385" data-name="Trazado 875385" d="M144.854,298.245a6.57,6.57,0,1,0-8.845,2.848,6.571,6.571,0,0,0,8.845-2.848" transform="translate(-61.397 -133.829)" fill="#2b2b39"/>
            <path id="Trazado_875386" data-name="Trazado 875386" d="M142.759,292.632a4.729,4.729,0,1,0,2.05,6.365,4.735,4.735,0,0,0-2.05-6.365" transform="translate(-62.991 -135.423)" fill="#fff"/>
          </g>
        </g>
        <g id="Grupo_1100526" data-name="Grupo 1100526">
          <g id="Grupo_1100525" data-name="Grupo 1100525" clip-path="url(#clip-path)">
            <path id="Trazado_875388" data-name="Trazado 875388" d="M233.161,62.221c-1.477,1.422-2.686.907-2.686-1.144V54.466a3.739,3.739,0,0,0-3.728-3.727h-8.46a3.738,3.738,0,0,1-3.727-3.728V20.88a3.739,3.739,0,0,1,3.727-3.728h39.669a3.739,3.739,0,0,1,3.728,3.728V47.011a3.739,3.739,0,0,1-3.728,3.728h-9.13a10.685,10.685,0,0,0-6.414,2.584Z" transform="translate(-99.47 -7.952)" fill="#ffd6ae"/>
            <path id="Trazado_875389" data-name="Trazado 875389" d="M259.422,34.554H228.5a1.346,1.346,0,0,1,0-2.691h30.92a1.346,1.346,0,0,1,0,2.691" transform="translate(-105.31 -14.772)" fill="#fff"/>
            <path id="Trazado_875390" data-name="Trazado 875390" d="M259.422,47.064H228.5a1.345,1.345,0,0,1,0-2.691h30.92a1.345,1.345,0,0,1,0,2.691" transform="translate(-105.31 -20.571)" fill="#fff"/>
            <path id="Trazado_875391" data-name="Trazado 875391" d="M264.911,59.572H240.342a1.346,1.346,0,0,1,0-2.691h24.569a1.346,1.346,0,0,1,0,2.691" transform="translate(-110.799 -26.37)" fill="#fff"/>
            <path id="Trazado_875392" data-name="Trazado 875392" d="M194.707,233.055H138.676a4.454,4.454,0,0,0-4.294,3.27l-12.908,46.791H83.933a.855.855,0,0,0-.711,1.33l2.964,4.447H183.9L199,238.839a4.487,4.487,0,0,0-4.3-5.783" transform="translate(-38.514 -108.044)" fill="#5f5f75"/>
            <path id="Trazado_875393" data-name="Trazado 875393" d="M224.683,289.107h-64.02l14.5-52.567a4.454,4.454,0,0,1,4.294-3.27H235.49a4.487,4.487,0,0,1,4.3,5.783Z" transform="translate(-74.483 -108.144)" fill="#2b2b39"/>
            <path id="Trazado_875394" data-name="Trazado 875394" d="M228.115,282.8a7.189,7.189,0,1,1,7.19,7.189,7.2,7.2,0,0,1-7.19-7.189m1.1,0a6.093,6.093,0,1,0,6.094-6.094,6.1,6.1,0,0,0-6.094,6.094" transform="translate(-105.754 -127.775)" fill="#f6eee3"/>
            <path id="Trazado_875395" data-name="Trazado 875395" d="M502.21,63.615a.759.759,0,0,1-.288-.057l-3.491-1.419a.766.766,0,0,1-.421-1l1.1-2.7a9.135,9.135,0,0,1-1.673-1.476l-2.647,1.116a.766.766,0,0,1-1-.408L492.321,54.2a.765.765,0,0,1,.408-1l2.47-1.041a9.136,9.136,0,0,1-.068-1.968L492.7,49.2a.765.765,0,0,1-.421-1l1.42-3.491a.766.766,0,0,1,1-.421l2.3.935a9.134,9.134,0,0,1,1.718-1.722l-1.041-2.468a.766.766,0,0,1,.408-1l3.473-1.465a.765.765,0,0,1,1,.408l1.116,2.647a9.115,9.115,0,0,1,1.315,0l1.154-2.839a.766.766,0,0,1,1-.421l3.491,1.419a.766.766,0,0,1,.421,1l-1.1,2.709a9.131,9.131,0,0,1,1.721,1.719l2.469-1.041a.766.766,0,0,1,1,.408l1.465,3.473a.766.766,0,0,1-.408,1l-2.646,1.116a9.2,9.2,0,0,1-.039,1.779l2.709,1.1a.765.765,0,0,1,.421,1l-1.419,3.491a.766.766,0,0,1-1,.421L511.39,56.8a9.276,9.276,0,0,1-.918.941l1.116,2.646a.766.766,0,0,1-.408,1l-3.472,1.465a.766.766,0,0,1-1-.408l-1.041-2.47a9.167,9.167,0,0,1-1.5.092l-1.246,3.064a.766.766,0,0,1-.709.477m-2.493-2.606,2.073.843,1.162-2.858a.761.761,0,0,1,.772-.475,7.626,7.626,0,0,0,2.245-.147.763.763,0,0,1,.867.451l.982,2.328,2.061-.869-1.039-2.463a.766.766,0,0,1,.235-.9,7.656,7.656,0,0,0,1.455-1.493.765.765,0,0,1,.9-.254l2.662,1.083.842-2.072-2.562-1.042a.766.766,0,0,1-.463-.853,7.657,7.657,0,0,0,.061-2.5.766.766,0,0,1,.461-.809L514.9,47.94l-.87-2.062-2.327.982a.766.766,0,0,1-.936-.283,7.636,7.636,0,0,0-2.175-2.172.765.765,0,0,1-.287-.927l1.042-2.562-2.073-.843-1.083,2.663a.769.769,0,0,1-.814.47,7.638,7.638,0,0,0-2.084,0,.767.767,0,0,1-.809-.461l-1.039-2.464-2.061.87.982,2.327a.766.766,0,0,1-.283.936,7.632,7.632,0,0,0-2.172,2.175.766.766,0,0,1-.928.288L494.833,46l-.843,2.073,2.251.916a.765.765,0,0,1,.47.813,7.647,7.647,0,0,0,.1,2.663.766.766,0,0,1-.451.867l-2.328.981.87,2.062,2.465-1.039a.766.766,0,0,1,.9.235,7.661,7.661,0,0,0,2.181,1.907.766.766,0,0,1,.322.949Zm4.631-5.953a4.217,4.217,0,1,1,1.634-.332,4.225,4.225,0,0,1-1.634.332m-.009-6.908a2.688,2.688,0,1,0,1.048,5.166h0a2.688,2.688,0,0,0-1.049-5.166" transform="translate(-228.196 -17.76)" fill="#ff9e9e"/>
            <path id="Trazado_875396" data-name="Trazado 875396" d="M264.784,407.335a10.924,10.924,0,1,1,10.924-10.924,10.936,10.936,0,0,1-10.924,10.924m0-20.316a9.393,9.393,0,1,0,9.393,9.392,9.4,9.4,0,0,0-9.393-9.392" transform="translate(-117.689 -178.712)" fill="#ff9e9e"/>
            <path id="Trazado_875397" data-name="Trazado 875397" d="M266.3,406.548h-.042a.766.766,0,0,1-.555-.285l-1.981-2.47a.766.766,0,1,1,1.194-.958l1.447,1.8,8.121-8.121a.765.765,0,1,1,1.082,1.082l-8.725,8.725a.765.765,0,0,1-.541.224" transform="translate(-122.183 -183.721)" fill="#ff9e9e"/>
            <path id="Trazado_875398" data-name="Trazado 875398" d="M48.046,435.448l-7.8-4.8H21.578a3.181,3.181,0,0,1-3.178-3.178V413.927a3.181,3.181,0,0,1,3.178-3.178H43.737a3.181,3.181,0,0,1,3.178,3.178v13.742l2.26,6.889a.765.765,0,0,1-1.129.89M21.578,412.28a1.649,1.649,0,0,0-1.647,1.647v13.541a1.648,1.648,0,0,0,1.647,1.647H40.461a.768.768,0,0,1,.4.114l6.206,3.82-1.646-5.019a.769.769,0,0,1-.038-.239V413.927a1.649,1.649,0,0,0-1.647-1.647Z" transform="translate(-8.53 -190.423)" fill="#ff9e9e"/>
            <path id="Trazado_875399" data-name="Trazado 875399" d="M53.091,428.042a1.825,1.825,0,1,0,1.825-1.824,1.825,1.825,0,0,0-1.825,1.824" transform="translate(-24.613 -197.595)" fill="#ff9e9e"/>
            <path id="Trazado_875400" data-name="Trazado 875400" d="M40.794,428.042a1.825,1.825,0,1,0,1.824-1.824,1.824,1.824,0,0,0-1.824,1.824" transform="translate(-18.912 -197.595)" fill="#ff9e9e"/>
            <path id="Trazado_875401" data-name="Trazado 875401" d="M28.5,428.042a1.825,1.825,0,1,0,1.824-1.824,1.824,1.824,0,0,0-1.824,1.824" transform="translate(-13.211 -197.595)" fill="#ff9e9e"/>
          </g>
        </g>
      </g>
    </g>
    <ellipse id="Elipse_11611" data-name="Elipse 11611" cx="23" cy="23.5" rx="23" ry="23.5" transform="translate(9349 -1199)" fill="#f9d648"/>
    <ellipse id="Elipse_11617" data-name="Elipse 11617" cx="24" cy="23" rx="24" ry="23" transform="translate(9465 -1252)" fill="#f9d648"/>
    <circle id="Elipse_11618" data-name="Elipse 11618" cx="23.5" cy="23.5" r="23.5" transform="translate(9555 -1198)" fill="#f9d648"/>
    <ellipse id="Elipse_11616" data-name="Elipse 11616" cx="24" cy="23.5" rx="24" ry="23.5" transform="translate(9422 -1060)" fill="#ffc78f"/>
    <circle id="Elipse_11619" data-name="Elipse 11619" cx="23.5" cy="23.5" r="23.5" transform="translate(9595 -1006)" fill="#ffc78f"/>
    <path id="Trazado_875556" data-name="Trazado 875556" d="M1.9,0H-.742V-8.406l-2.594.758v-2l4.992-1.727H1.9Z" transform="translate(9372 -1170)" fill="#12263f"/>
    <path id="Trazado_875553" data-name="Trazado 875553" d="M4,0H-3.937V-1.719L-.281-5.562A4.364,4.364,0,0,0,1.07-8.008,1.7,1.7,0,0,0,.75-9.125a1.144,1.144,0,0,0-.93-.383A1.158,1.158,0,0,0-1.156-9a2.1,2.1,0,0,0-.375,1.277H-4.172a3.736,3.736,0,0,1,.523-1.934A3.671,3.671,0,0,1-2.2-11.039a4.317,4.317,0,0,1,2.078-.5,4.246,4.246,0,0,1,2.84.852,3.04,3.04,0,0,1,1,2.445,3.551,3.551,0,0,1-.25,1.309A5.739,5.739,0,0,1,2.691-5.6a19.581,19.581,0,0,1-1.7,1.871l-1.469,1.7H4Z" transform="translate(9619 -977)" fill="#12263f"/>
    <path id="Trazado_875555" data-name="Trazado 875555" d="M-1.531-6.789H-.289A1.291,1.291,0,0,0,1.188-8.234a1.25,1.25,0,0,0-.352-.918,1.333,1.333,0,0,0-.992-.355,1.427,1.427,0,0,0-.91.3.93.93,0,0,0-.387.758H-4.086a2.7,2.7,0,0,1,.5-1.6,3.3,3.3,0,0,1,1.387-1.1A4.741,4.741,0,0,1-.25-11.539a4.658,4.658,0,0,1,2.984.867A2.883,2.883,0,0,1,3.82-8.289,2.4,2.4,0,0,1,3.371-6.9,3.2,3.2,0,0,1,2.063-5.844a3.058,3.058,0,0,1,1.422,1A2.623,2.623,0,0,1,4-3.2,2.935,2.935,0,0,1,2.828-.758,4.864,4.864,0,0,1-.25.156,5.045,5.045,0,0,1-2.324-.27a3.25,3.25,0,0,1-1.449-1.18,3.067,3.067,0,0,1-.492-1.715h2.648a1.185,1.185,0,0,0,.422.906,1.489,1.489,0,0,0,1.039.383A1.56,1.56,0,0,0,.953-2.262a1.293,1.293,0,0,0,.414-.988,1.511,1.511,0,0,0-.43-1.219A1.8,1.8,0,0,0-.25-4.828H-1.531Z" transform="translate(9489 -1223)" fill="#12263f"/>
    <text id="_4-2" data-name="4" transform="translate(9446 -1031)" fill="#12263f" font-size="16" font-family="Roboto-Black, Roboto" font-weight="800"><tspan x="-4.633" y="0">4</tspan></text>
    <path id="Trazado_875554" data-name="Trazado 875554" d="M-3.781-5.556l.7-5.819H3.563v2.047H-.945L-1.2-7.068a3.105,3.105,0,0,1,.738-.29A3.368,3.368,0,0,1,.43-7.484a3.337,3.337,0,0,1,2.605,1,4.044,4.044,0,0,1,.91,2.816,4.037,4.037,0,0,1-.488,1.98A3.356,3.356,0,0,1,2.086-.32,4.329,4.329,0,0,1,0,.156,4.658,4.658,0,0,1-2.008-.285a3.6,3.6,0,0,1-1.469-1.21A2.94,2.94,0,0,1-4-3.232h2.641a1.494,1.494,0,0,0,.4.99,1.265,1.265,0,0,0,.945.366q1.328,0,1.328-1.965,0-1.817-1.625-1.817a1.622,1.622,0,0,0-1.375.593Z" transform="translate(9579 -1169)" fill="#12263f"/>
  </g>
</svg>
